<?xml version="1.0" encoding="utf-8" standalone="no"?>
<!DOCTYPE svg PUBLIC "-//W3C//DTD SVG 1.1//EN"
  "http://www.w3.org/Graphics/SVG/1.1/DTD/svg11.dtd">
<svg xmlns:xlink="http://www.w3.org/1999/xlink" width="928.37125pt" height="356.49375pt" viewBox="0 0 928.37125 356.49375" xmlns="http://www.w3.org/2000/svg" version="1.1">
 <metadata>
  <rdf:RDF xmlns:dc="http://purl.org/dc/elements/1.1/" xmlns:cc="http://creativecommons.org/ns#" xmlns:rdf="http://www.w3.org/1999/02/22-rdf-syntax-ns#">
   <cc:Work>
    <dc:type rdf:resource="http://purl.org/dc/dcmitype/StillImage"/>
    <dc:date>2026-04-04T09:21:34.327154</dc:date>
    <dc:format>image/svg+xml</dc:format>
    <dc:creator>
     <cc:Agent>
      <dc:title>Matplotlib v3.10.3, https://matplotlib.org/</dc:title>
     </cc:Agent>
    </dc:creator>
   </cc:Work>
  </rdf:RDF>
 </metadata>
 <defs>
  <style type="text/css">*{stroke-linejoin: round; stroke-linecap: butt}</style>
 </defs>
 <g id="figure_1">
  <g id="patch_1">
   <path d="M 0 356.49375 
L 928.37125 356.49375 
L 928.37125 0 
L 0 0 
z
" style="fill: #ffffff"/>
  </g>
  <g id="axes_1">
   <g id="patch_2">
    <path d="M 43.78125 330.68 
L 458.57125 330.68 
L 458.57125 49.2 
L 43.78125 49.2 
z
" style="fill: #f8f9fa"/>
   </g>
   <g id="matplotlib.axis_1">
    <g id="xtick_1">
     <g id="line2d_1">
      <path d="M 147.47875 330.68 
L 147.47875 49.2 
" clip-path="url(#p7b4616db4c)" style="fill: none; stroke: #cccccc; stroke-opacity: 0.35; stroke-width: 0.8; stroke-linecap: square"/>
     </g>
     <g id="line2d_2">
      <defs>
       <path id="m5b168ae3c1" d="M 0 0 
L 0 3.5 
" style="stroke: #000000; stroke-width: 0.8"/>
      </defs>
      <g>
       <use xlink:href="#m5b168ae3c1" x="147.47875" y="330.68" style="stroke: #000000; stroke-width: 0.8"/>
      </g>
     </g>
     <g id="text_1">
      <!-- Home -->
      <g transform="translate(129.759063 346.798125) scale(0.12 -0.12)">
       <defs>
        <path id="DejaVuSans-48" d="M 628 4666 
L 1259 4666 
L 1259 2753 
L 3553 2753 
L 3553 4666 
L 4184 4666 
L 4184 0 
L 3553 0 
L 3553 2222 
L 1259 2222 
L 1259 0 
L 628 0 
L 628 4666 
z
" transform="scale(0.015625)"/>
        <path id="DejaVuSans-6f" d="M 1959 3097 
Q 1497 3097 1228 2736 
Q 959 2375 959 1747 
Q 959 1119 1226 758 
Q 1494 397 1959 397 
Q 2419 397 2687 759 
Q 2956 1122 2956 1747 
Q 2956 2369 2687 2733 
Q 2419 3097 1959 3097 
z
M 1959 3584 
Q 2709 3584 3137 3096 
Q 3566 2609 3566 1747 
Q 3566 888 3137 398 
Q 2709 -91 1959 -91 
Q 1206 -91 779 398 
Q 353 888 353 1747 
Q 353 2609 779 3096 
Q 1206 3584 1959 3584 
z
" transform="scale(0.015625)"/>
        <path id="DejaVuSans-6d" d="M 3328 2828 
Q 3544 3216 3844 3400 
Q 4144 3584 4550 3584 
Q 5097 3584 5394 3201 
Q 5691 2819 5691 2113 
L 5691 0 
L 5113 0 
L 5113 2094 
Q 5113 2597 4934 2840 
Q 4756 3084 4391 3084 
Q 3944 3084 3684 2787 
Q 3425 2491 3425 1978 
L 3425 0 
L 2847 0 
L 2847 2094 
Q 2847 2600 2669 2842 
Q 2491 3084 2119 3084 
Q 1678 3084 1418 2786 
Q 1159 2488 1159 1978 
L 1159 0 
L 581 0 
L 581 3500 
L 1159 3500 
L 1159 2956 
Q 1356 3278 1631 3431 
Q 1906 3584 2284 3584 
Q 2666 3584 2933 3390 
Q 3200 3197 3328 2828 
z
" transform="scale(0.015625)"/>
        <path id="DejaVuSans-65" d="M 3597 1894 
L 3597 1613 
L 953 1613 
Q 991 1019 1311 708 
Q 1631 397 2203 397 
Q 2534 397 2845 478 
Q 3156 559 3463 722 
L 3463 178 
Q 3153 47 2828 -22 
Q 2503 -91 2169 -91 
Q 1331 -91 842 396 
Q 353 884 353 1716 
Q 353 2575 817 3079 
Q 1281 3584 2069 3584 
Q 2775 3584 3186 3129 
Q 3597 2675 3597 1894 
z
M 3022 2063 
Q 3016 2534 2758 2815 
Q 2500 3097 2075 3097 
Q 1594 3097 1305 2825 
Q 1016 2553 972 2059 
L 3022 2063 
z
" transform="scale(0.015625)"/>
       </defs>
       <use xlink:href="#DejaVuSans-48"/>
       <use xlink:href="#DejaVuSans-6f" transform="translate(75.195312 0)"/>
       <use xlink:href="#DejaVuSans-6d" transform="translate(136.376953 0)"/>
       <use xlink:href="#DejaVuSans-65" transform="translate(233.789062 0)"/>
      </g>
     </g>
    </g>
    <g id="xtick_2">
     <g id="line2d_3">
      <path d="M 354.87375 330.68 
L 354.87375 49.2 
" clip-path="url(#p7b4616db4c)" style="fill: none; stroke: #cccccc; stroke-opacity: 0.35; stroke-width: 0.8; stroke-linecap: square"/>
     </g>
     <g id="line2d_4">
      <g>
       <use xlink:href="#m5b168ae3c1" x="354.87375" y="330.68" style="stroke: #000000; stroke-width: 0.8"/>
      </g>
     </g>
     <g id="text_2">
      <!-- University -->
      <g transform="translate(324.6075 346.798125) scale(0.12 -0.12)">
       <defs>
        <path id="DejaVuSans-55" d="M 556 4666 
L 1191 4666 
L 1191 1831 
Q 1191 1081 1462 751 
Q 1734 422 2344 422 
Q 2950 422 3222 751 
Q 3494 1081 3494 1831 
L 3494 4666 
L 4128 4666 
L 4128 1753 
Q 4128 841 3676 375 
Q 3225 -91 2344 -91 
Q 1459 -91 1007 375 
Q 556 841 556 1753 
L 556 4666 
z
" transform="scale(0.015625)"/>
        <path id="DejaVuSans-6e" d="M 3513 2113 
L 3513 0 
L 2938 0 
L 2938 2094 
Q 2938 2591 2744 2837 
Q 2550 3084 2163 3084 
Q 1697 3084 1428 2787 
Q 1159 2491 1159 1978 
L 1159 0 
L 581 0 
L 581 3500 
L 1159 3500 
L 1159 2956 
Q 1366 3272 1645 3428 
Q 1925 3584 2291 3584 
Q 2894 3584 3203 3211 
Q 3513 2838 3513 2113 
z
" transform="scale(0.015625)"/>
        <path id="DejaVuSans-69" d="M 603 3500 
L 1178 3500 
L 1178 0 
L 603 0 
L 603 3500 
z
M 603 4863 
L 1178 4863 
L 1178 4134 
L 603 4134 
L 603 4863 
z
" transform="scale(0.015625)"/>
        <path id="DejaVuSans-76" d="M 191 3500 
L 800 3500 
L 1894 563 
L 2988 3500 
L 3597 3500 
L 2284 0 
L 1503 0 
L 191 3500 
z
" transform="scale(0.015625)"/>
        <path id="DejaVuSans-72" d="M 2631 2963 
Q 2534 3019 2420 3045 
Q 2306 3072 2169 3072 
Q 1681 3072 1420 2755 
Q 1159 2438 1159 1844 
L 1159 0 
L 581 0 
L 581 3500 
L 1159 3500 
L 1159 2956 
Q 1341 3275 1631 3429 
Q 1922 3584 2338 3584 
Q 2397 3584 2469 3576 
Q 2541 3569 2628 3553 
L 2631 2963 
z
" transform="scale(0.015625)"/>
        <path id="DejaVuSans-73" d="M 2834 3397 
L 2834 2853 
Q 2591 2978 2328 3040 
Q 2066 3103 1784 3103 
Q 1356 3103 1142 2972 
Q 928 2841 928 2578 
Q 928 2378 1081 2264 
Q 1234 2150 1697 2047 
L 1894 2003 
Q 2506 1872 2764 1633 
Q 3022 1394 3022 966 
Q 3022 478 2636 193 
Q 2250 -91 1575 -91 
Q 1294 -91 989 -36 
Q 684 19 347 128 
L 347 722 
Q 666 556 975 473 
Q 1284 391 1588 391 
Q 1994 391 2212 530 
Q 2431 669 2431 922 
Q 2431 1156 2273 1281 
Q 2116 1406 1581 1522 
L 1381 1569 
Q 847 1681 609 1914 
Q 372 2147 372 2553 
Q 372 3047 722 3315 
Q 1072 3584 1716 3584 
Q 2034 3584 2315 3537 
Q 2597 3491 2834 3397 
z
" transform="scale(0.015625)"/>
        <path id="DejaVuSans-74" d="M 1172 4494 
L 1172 3500 
L 2356 3500 
L 2356 3053 
L 1172 3053 
L 1172 1153 
Q 1172 725 1289 603 
Q 1406 481 1766 481 
L 2356 481 
L 2356 0 
L 1766 0 
Q 1100 0 847 248 
Q 594 497 594 1153 
L 594 3053 
L 172 3053 
L 172 3500 
L 594 3500 
L 594 4494 
L 1172 4494 
z
" transform="scale(0.015625)"/>
        <path id="DejaVuSans-79" d="M 2059 -325 
Q 1816 -950 1584 -1140 
Q 1353 -1331 966 -1331 
L 506 -1331 
L 506 -850 
L 844 -850 
Q 1081 -850 1212 -737 
Q 1344 -625 1503 -206 
L 1606 56 
L 191 3500 
L 800 3500 
L 1894 763 
L 2988 3500 
L 3597 3500 
L 2059 -325 
z
" transform="scale(0.015625)"/>
       </defs>
       <use xlink:href="#DejaVuSans-55"/>
       <use xlink:href="#DejaVuSans-6e" transform="translate(73.193359 0)"/>
       <use xlink:href="#DejaVuSans-69" transform="translate(136.572266 0)"/>
       <use xlink:href="#DejaVuSans-76" transform="translate(164.355469 0)"/>
       <use xlink:href="#DejaVuSans-65" transform="translate(223.535156 0)"/>
       <use xlink:href="#DejaVuSans-72" transform="translate(285.058594 0)"/>
       <use xlink:href="#DejaVuSans-73" transform="translate(326.171875 0)"/>
       <use xlink:href="#DejaVuSans-69" transform="translate(378.271484 0)"/>
       <use xlink:href="#DejaVuSans-74" transform="translate(406.054688 0)"/>
       <use xlink:href="#DejaVuSans-79" transform="translate(445.263672 0)"/>
      </g>
     </g>
    </g>
   </g>
   <g id="matplotlib.axis_2">
    <g id="ytick_1">
     <g id="line2d_5">
      <path d="M 43.78125 294.690665 
L 458.57125 294.690665 
" clip-path="url(#p7b4616db4c)" style="fill: none; stroke: #cccccc; stroke-opacity: 0.35; stroke-width: 0.8; stroke-linecap: square"/>
     </g>
     <g id="line2d_6">
      <defs>
       <path id="m2c0dfedc76" d="M 0 0 
L -3.5 0 
" style="stroke: #000000; stroke-width: 0.8"/>
      </defs>
      <g>
       <use xlink:href="#m2c0dfedc76" x="43.78125" y="294.690665" style="stroke: #000000; stroke-width: 0.8"/>
      </g>
     </g>
     <g id="text_3">
      <!-- 0.5 -->
      <g transform="translate(20.878125 298.489883) scale(0.1 -0.1)">
       <defs>
        <path id="DejaVuSans-30" d="M 2034 4250 
Q 1547 4250 1301 3770 
Q 1056 3291 1056 2328 
Q 1056 1369 1301 889 
Q 1547 409 2034 409 
Q 2525 409 2770 889 
Q 3016 1369 3016 2328 
Q 3016 3291 2770 3770 
Q 2525 4250 2034 4250 
z
M 2034 4750 
Q 2819 4750 3233 4129 
Q 3647 3509 3647 2328 
Q 3647 1150 3233 529 
Q 2819 -91 2034 -91 
Q 1250 -91 836 529 
Q 422 1150 422 2328 
Q 422 3509 836 4129 
Q 1250 4750 2034 4750 
z
" transform="scale(0.015625)"/>
        <path id="DejaVuSans-2e" d="M 684 794 
L 1344 794 
L 1344 0 
L 684 0 
L 684 794 
z
" transform="scale(0.015625)"/>
        <path id="DejaVuSans-35" d="M 691 4666 
L 3169 4666 
L 3169 4134 
L 1269 4134 
L 1269 2991 
Q 1406 3038 1543 3061 
Q 1681 3084 1819 3084 
Q 2600 3084 3056 2656 
Q 3513 2228 3513 1497 
Q 3513 744 3044 326 
Q 2575 -91 1722 -91 
Q 1428 -91 1123 -41 
Q 819 9 494 109 
L 494 744 
Q 775 591 1075 516 
Q 1375 441 1709 441 
Q 2250 441 2565 725 
Q 2881 1009 2881 1497 
Q 2881 1984 2565 2268 
Q 2250 2553 1709 2553 
Q 1456 2553 1204 2497 
Q 953 2441 691 2322 
L 691 4666 
z
" transform="scale(0.015625)"/>
       </defs>
       <use xlink:href="#DejaVuSans-30"/>
       <use xlink:href="#DejaVuSans-2e" transform="translate(63.623047 0)"/>
       <use xlink:href="#DejaVuSans-35" transform="translate(95.410156 0)"/>
      </g>
     </g>
    </g>
    <g id="ytick_2">
     <g id="line2d_7">
      <path d="M 43.78125 257.279713 
L 458.57125 257.279713 
" clip-path="url(#p7b4616db4c)" style="fill: none; stroke: #cccccc; stroke-opacity: 0.35; stroke-width: 0.8; stroke-linecap: square"/>
     </g>
     <g id="line2d_8">
      <g>
       <use xlink:href="#m2c0dfedc76" x="43.78125" y="257.279713" style="stroke: #000000; stroke-width: 0.8"/>
      </g>
     </g>
     <g id="text_4">
      <!-- 1.0 -->
      <g transform="translate(20.878125 261.078932) scale(0.1 -0.1)">
       <defs>
        <path id="DejaVuSans-31" d="M 794 531 
L 1825 531 
L 1825 4091 
L 703 3866 
L 703 4441 
L 1819 4666 
L 2450 4666 
L 2450 531 
L 3481 531 
L 3481 0 
L 794 0 
L 794 531 
z
" transform="scale(0.015625)"/>
       </defs>
       <use xlink:href="#DejaVuSans-31"/>
       <use xlink:href="#DejaVuSans-2e" transform="translate(63.623047 0)"/>
       <use xlink:href="#DejaVuSans-30" transform="translate(95.410156 0)"/>
      </g>
     </g>
    </g>
    <g id="ytick_3">
     <g id="line2d_9">
      <path d="M 43.78125 219.868761 
L 458.57125 219.868761 
" clip-path="url(#p7b4616db4c)" style="fill: none; stroke: #cccccc; stroke-opacity: 0.35; stroke-width: 0.8; stroke-linecap: square"/>
     </g>
     <g id="line2d_10">
      <g>
       <use xlink:href="#m2c0dfedc76" x="43.78125" y="219.868761" style="stroke: #000000; stroke-width: 0.8"/>
      </g>
     </g>
     <g id="text_5">
      <!-- 1.5 -->
      <g transform="translate(20.878125 223.66798) scale(0.1 -0.1)">
       <use xlink:href="#DejaVuSans-31"/>
       <use xlink:href="#DejaVuSans-2e" transform="translate(63.623047 0)"/>
       <use xlink:href="#DejaVuSans-35" transform="translate(95.410156 0)"/>
      </g>
     </g>
    </g>
    <g id="ytick_4">
     <g id="line2d_11">
      <path d="M 43.78125 182.45781 
L 458.57125 182.45781 
" clip-path="url(#p7b4616db4c)" style="fill: none; stroke: #cccccc; stroke-opacity: 0.35; stroke-width: 0.8; stroke-linecap: square"/>
     </g>
     <g id="line2d_12">
      <g>
       <use xlink:href="#m2c0dfedc76" x="43.78125" y="182.45781" style="stroke: #000000; stroke-width: 0.8"/>
      </g>
     </g>
     <g id="text_6">
      <!-- 2.0 -->
      <g transform="translate(20.878125 186.257028) scale(0.1 -0.1)">
       <defs>
        <path id="DejaVuSans-32" d="M 1228 531 
L 3431 531 
L 3431 0 
L 469 0 
L 469 531 
Q 828 903 1448 1529 
Q 2069 2156 2228 2338 
Q 2531 2678 2651 2914 
Q 2772 3150 2772 3378 
Q 2772 3750 2511 3984 
Q 2250 4219 1831 4219 
Q 1534 4219 1204 4116 
Q 875 4013 500 3803 
L 500 4441 
Q 881 4594 1212 4672 
Q 1544 4750 1819 4750 
Q 2544 4750 2975 4387 
Q 3406 4025 3406 3419 
Q 3406 3131 3298 2873 
Q 3191 2616 2906 2266 
Q 2828 2175 2409 1742 
Q 1991 1309 1228 531 
z
" transform="scale(0.015625)"/>
       </defs>
       <use xlink:href="#DejaVuSans-32"/>
       <use xlink:href="#DejaVuSans-2e" transform="translate(63.623047 0)"/>
       <use xlink:href="#DejaVuSans-30" transform="translate(95.410156 0)"/>
      </g>
     </g>
    </g>
    <g id="ytick_5">
     <g id="line2d_13">
      <path d="M 43.78125 145.046858 
L 458.57125 145.046858 
" clip-path="url(#p7b4616db4c)" style="fill: none; stroke: #cccccc; stroke-opacity: 0.35; stroke-width: 0.8; stroke-linecap: square"/>
     </g>
     <g id="line2d_14">
      <g>
       <use xlink:href="#m2c0dfedc76" x="43.78125" y="145.046858" style="stroke: #000000; stroke-width: 0.8"/>
      </g>
     </g>
     <g id="text_7">
      <!-- 2.5 -->
      <g transform="translate(20.878125 148.846077) scale(0.1 -0.1)">
       <use xlink:href="#DejaVuSans-32"/>
       <use xlink:href="#DejaVuSans-2e" transform="translate(63.623047 0)"/>
       <use xlink:href="#DejaVuSans-35" transform="translate(95.410156 0)"/>
      </g>
     </g>
    </g>
    <g id="ytick_6">
     <g id="line2d_15">
      <path d="M 43.78125 107.635906 
L 458.57125 107.635906 
" clip-path="url(#p7b4616db4c)" style="fill: none; stroke: #cccccc; stroke-opacity: 0.35; stroke-width: 0.8; stroke-linecap: square"/>
     </g>
     <g id="line2d_16">
      <g>
       <use xlink:href="#m2c0dfedc76" x="43.78125" y="107.635906" style="stroke: #000000; stroke-width: 0.8"/>
      </g>
     </g>
     <g id="text_8">
      <!-- 3.0 -->
      <g transform="translate(20.878125 111.435125) scale(0.1 -0.1)">
       <defs>
        <path id="DejaVuSans-33" d="M 2597 2516 
Q 3050 2419 3304 2112 
Q 3559 1806 3559 1356 
Q 3559 666 3084 287 
Q 2609 -91 1734 -91 
Q 1441 -91 1130 -33 
Q 819 25 488 141 
L 488 750 
Q 750 597 1062 519 
Q 1375 441 1716 441 
Q 2309 441 2620 675 
Q 2931 909 2931 1356 
Q 2931 1769 2642 2001 
Q 2353 2234 1838 2234 
L 1294 2234 
L 1294 2753 
L 1863 2753 
Q 2328 2753 2575 2939 
Q 2822 3125 2822 3475 
Q 2822 3834 2567 4026 
Q 2313 4219 1838 4219 
Q 1578 4219 1281 4162 
Q 984 4106 628 3988 
L 628 4550 
Q 988 4650 1302 4700 
Q 1616 4750 1894 4750 
Q 2613 4750 3031 4423 
Q 3450 4097 3450 3541 
Q 3450 3153 3228 2886 
Q 3006 2619 2597 2516 
z
" transform="scale(0.015625)"/>
       </defs>
       <use xlink:href="#DejaVuSans-33"/>
       <use xlink:href="#DejaVuSans-2e" transform="translate(63.623047 0)"/>
       <use xlink:href="#DejaVuSans-30" transform="translate(95.410156 0)"/>
      </g>
     </g>
    </g>
    <g id="ytick_7">
     <g id="line2d_17">
      <path d="M 43.78125 70.224955 
L 458.57125 70.224955 
" clip-path="url(#p7b4616db4c)" style="fill: none; stroke: #cccccc; stroke-opacity: 0.35; stroke-width: 0.8; stroke-linecap: square"/>
     </g>
     <g id="line2d_18">
      <g>
       <use xlink:href="#m2c0dfedc76" x="43.78125" y="70.224955" style="stroke: #000000; stroke-width: 0.8"/>
      </g>
     </g>
     <g id="text_9">
      <!-- 3.5 -->
      <g transform="translate(20.878125 74.024174) scale(0.1 -0.1)">
       <use xlink:href="#DejaVuSans-33"/>
       <use xlink:href="#DejaVuSans-2e" transform="translate(63.623047 0)"/>
       <use xlink:href="#DejaVuSans-35" transform="translate(95.410156 0)"/>
      </g>
     </g>
    </g>
    <g id="text_10">
     <!-- kWh -->
     <g transform="translate(14.798438 200.947812) rotate(-90) scale(0.1 -0.1)">
      <defs>
       <path id="DejaVuSans-6b" d="M 581 4863 
L 1159 4863 
L 1159 1991 
L 2875 3500 
L 3609 3500 
L 1753 1863 
L 3688 0 
L 2938 0 
L 1159 1709 
L 1159 0 
L 581 0 
L 581 4863 
z
" transform="scale(0.015625)"/>
       <path id="DejaVuSans-57" d="M 213 4666 
L 850 4666 
L 1831 722 
L 2809 4666 
L 3519 4666 
L 4500 722 
L 5478 4666 
L 6119 4666 
L 4947 0 
L 4153 0 
L 3169 4050 
L 2175 0 
L 1381 0 
L 213 4666 
z
" transform="scale(0.015625)"/>
       <path id="DejaVuSans-68" d="M 3513 2113 
L 3513 0 
L 2938 0 
L 2938 2094 
Q 2938 2591 2744 2837 
Q 2550 3084 2163 3084 
Q 1697 3084 1428 2787 
Q 1159 2491 1159 1978 
L 1159 0 
L 581 0 
L 581 4863 
L 1159 4863 
L 1159 2956 
Q 1366 3272 1645 3428 
Q 1925 3584 2291 3584 
Q 2894 3584 3203 3211 
Q 3513 2838 3513 2113 
z
" transform="scale(0.015625)"/>
      </defs>
      <use xlink:href="#DejaVuSans-6b"/>
      <use xlink:href="#DejaVuSans-57" transform="translate(57.910156 0)"/>
      <use xlink:href="#DejaVuSans-68" transform="translate(156.787109 0)"/>
     </g>
    </g>
   </g>
   <g id="patch_3">
    <path d="M 131.924125 199.666847 
L 163.033375 199.666847 
L 163.033375 189.195246 
L 155.256063 185.824795 
L 163.033375 182.454344 
L 163.033375 167.680484 
L 131.924125 167.680484 
L 131.924125 182.454344 
L 139.701438 185.824795 
L 131.924125 189.195246 
L 131.924125 199.666847 
z
" clip-path="url(#p7b4616db4c)" style="fill: #2196f3; opacity: 0.75; stroke: #000000; stroke-linejoin: miter"/>
   </g>
   <g id="line2d_19">
    <path d="M 147.47875 199.666847 
L 147.47875 247.552865 
" clip-path="url(#p7b4616db4c)" style="fill: none; stroke: #000000; stroke-linecap: square"/>
   </g>
   <g id="line2d_20">
    <path d="M 147.47875 167.680484 
L 147.47875 126.341382 
" clip-path="url(#p7b4616db4c)" style="fill: none; stroke: #000000; stroke-linecap: square"/>
   </g>
   <g id="line2d_21">
    <path d="M 139.701438 247.552865 
L 155.256063 247.552865 
" clip-path="url(#p7b4616db4c)" style="fill: none; stroke: #000000; stroke-linecap: square"/>
   </g>
   <g id="line2d_22">
    <path d="M 139.701438 126.341382 
L 155.256063 126.341382 
" clip-path="url(#p7b4616db4c)" style="fill: none; stroke: #000000; stroke-linecap: square"/>
   </g>
   <g id="line2d_23">
    <defs>
     <path id="maaa36fec24" d="M 0 3 
C 0.795609 3 1.55874 2.683901 2.12132 2.12132 
C 2.683901 1.55874 3 0.795609 3 0 
C 3 -0.795609 2.683901 -1.55874 2.12132 -2.12132 
C 1.55874 -2.683901 0.795609 -3 0 -3 
C -0.795609 -3 -1.55874 -2.683901 -2.12132 -2.12132 
C -2.683901 -1.55874 -3 -0.795609 -3 0 
C -3 0.795609 -2.683901 1.55874 -2.12132 2.12132 
C -1.55874 2.683901 -0.795609 3 0 3 
z
" style="stroke: #000000"/>
    </defs>
    <g clip-path="url(#p7b4616db4c)">
     <use xlink:href="#maaa36fec24" x="147.47875" y="293.942446" style="fill-opacity: 0; stroke: #000000"/>
     <use xlink:href="#maaa36fec24" x="147.47875" y="268.502998" style="fill-opacity: 0; stroke: #000000"/>
     <use xlink:href="#maaa36fec24" x="147.47875" y="298.43176" style="fill-opacity: 0; stroke: #000000"/>
     <use xlink:href="#maaa36fec24" x="147.47875" y="317.137236" style="fill-opacity: 0; stroke: #000000"/>
     <use xlink:href="#maaa36fec24" x="147.47875" y="265.510122" style="fill-opacity: 0; stroke: #000000"/>
     <use xlink:href="#maaa36fec24" x="147.47875" y="250.545742" style="fill-opacity: 0; stroke: #000000"/>
     <use xlink:href="#maaa36fec24" x="147.47875" y="253.538618" style="fill-opacity: 0; stroke: #000000"/>
     <use xlink:href="#maaa36fec24" x="147.47875" y="284.963817" style="fill-opacity: 0; stroke: #000000"/>
     <use xlink:href="#maaa36fec24" x="147.47875" y="61.994545" style="fill-opacity: 0; stroke: #000000"/>
     <use xlink:href="#maaa36fec24" x="147.47875" y="106.139468" style="fill-opacity: 0; stroke: #000000"/>
     <use xlink:href="#maaa36fec24" x="147.47875" y="100.901935" style="fill-opacity: 0; stroke: #000000"/>
     <use xlink:href="#maaa36fec24" x="147.47875" y="114.369878" style="fill-opacity: 0; stroke: #000000"/>
     <use xlink:href="#maaa36fec24" x="147.47875" y="113.621659" style="fill-opacity: 0; stroke: #000000"/>
    </g>
   </g>
   <g id="patch_4">
    <path d="M 339.319125 297.122376 
L 370.428375 297.122376 
L 370.428375 294.105931 
L 362.651063 291.697788 
L 370.428375 289.289645 
L 370.428375 281.783886 
L 339.319125 281.783886 
L 339.319125 289.289645 
L 347.096438 291.697788 
L 339.319125 294.105931 
L 339.319125 297.122376 
z
" clip-path="url(#p7b4616db4c)" style="fill: #ff5722; opacity: 0.75; stroke: #000000; stroke-linejoin: miter"/>
   </g>
   <g id="line2d_24">
    <path d="M 354.87375 297.122376 
L 354.87375 317.885455 
" clip-path="url(#p7b4616db4c)" style="fill: none; stroke: #000000; stroke-linecap: square"/>
   </g>
   <g id="line2d_25">
    <path d="M 354.87375 281.783886 
L 354.87375 261.020808 
" clip-path="url(#p7b4616db4c)" style="fill: none; stroke: #000000; stroke-linecap: square"/>
   </g>
   <g id="line2d_26">
    <path d="M 347.096438 317.885455 
L 362.651063 317.885455 
" clip-path="url(#p7b4616db4c)" style="fill: none; stroke: #000000; stroke-linecap: square"/>
   </g>
   <g id="line2d_27">
    <path d="M 347.096438 261.020808 
L 362.651063 261.020808 
" clip-path="url(#p7b4616db4c)" style="fill: none; stroke: #000000; stroke-linecap: square"/>
   </g>
   <g id="line2d_28">
    <g clip-path="url(#p7b4616db4c)">
     <use xlink:href="#maaa36fec24" x="354.87375" y="252.04218" style="fill-opacity: 0; stroke: #000000"/>
     <use xlink:href="#maaa36fec24" x="354.87375" y="253.538618" style="fill-opacity: 0; stroke: #000000"/>
     <use xlink:href="#maaa36fec24" x="354.87375" y="257.279713" style="fill-opacity: 0; stroke: #000000"/>
     <use xlink:href="#maaa36fec24" x="354.87375" y="252.04218" style="fill-opacity: 0; stroke: #000000"/>
     <use xlink:href="#maaa36fec24" x="354.87375" y="159.26302" style="fill-opacity: 0; stroke: #000000"/>
    </g>
   </g>
   <g id="line2d_29">
    <path d="M 139.701438 185.824795 
L 155.256063 185.824795 
" clip-path="url(#p7b4616db4c)" style="fill: none; stroke: #ffff00; stroke-width: 2.5"/>
   </g>
   <g id="line2d_30">
    <path d="M 347.096438 291.697788 
L 362.651063 291.697788 
" clip-path="url(#p7b4616db4c)" style="fill: none; stroke: #ffff00; stroke-width: 2.5"/>
   </g>
   <g id="patch_5">
    <path d="M 43.78125 330.68 
L 43.78125 49.2 
" style="fill: none; stroke: #000000; stroke-width: 0.8; stroke-linejoin: miter; stroke-linecap: square"/>
   </g>
   <g id="patch_6">
    <path d="M 43.78125 330.68 
L 458.57125 330.68 
" style="fill: none; stroke: #000000; stroke-width: 0.8; stroke-linejoin: miter; stroke-linecap: square"/>
   </g>
   <g id="text_11">
    <!-- Box Plot: Home vs University -->
    <g transform="translate(152.917813 43.2) scale(0.12 -0.12)">
     <defs>
      <path id="DejaVuSans-Bold-42" d="M 2456 2859 
Q 2741 2859 2887 2984 
Q 3034 3109 3034 3353 
Q 3034 3594 2887 3720 
Q 2741 3847 2456 3847 
L 1791 3847 
L 1791 2859 
L 2456 2859 
z
M 2497 819 
Q 2859 819 3042 972 
Q 3225 1125 3225 1434 
Q 3225 1738 3044 1889 
Q 2863 2041 2497 2041 
L 1791 2041 
L 1791 819 
L 2497 819 
z
M 3616 2497 
Q 4003 2384 4215 2081 
Q 4428 1778 4428 1338 
Q 4428 663 3972 331 
Q 3516 0 2584 0 
L 588 0 
L 588 4666 
L 2394 4666 
Q 3366 4666 3802 4372 
Q 4238 4078 4238 3431 
Q 4238 3091 4078 2852 
Q 3919 2613 3616 2497 
z
" transform="scale(0.015625)"/>
      <path id="DejaVuSans-Bold-6f" d="M 2203 2784 
Q 1831 2784 1636 2517 
Q 1441 2250 1441 1747 
Q 1441 1244 1636 976 
Q 1831 709 2203 709 
Q 2569 709 2762 976 
Q 2956 1244 2956 1747 
Q 2956 2250 2762 2517 
Q 2569 2784 2203 2784 
z
M 2203 3584 
Q 3106 3584 3614 3096 
Q 4122 2609 4122 1747 
Q 4122 884 3614 396 
Q 3106 -91 2203 -91 
Q 1297 -91 786 396 
Q 275 884 275 1747 
Q 275 2609 786 3096 
Q 1297 3584 2203 3584 
z
" transform="scale(0.015625)"/>
      <path id="DejaVuSans-Bold-78" d="M 1422 1791 
L 159 3500 
L 1344 3500 
L 2059 2463 
L 2784 3500 
L 3969 3500 
L 2706 1797 
L 4031 0 
L 2847 0 
L 2059 1106 
L 1281 0 
L 97 0 
L 1422 1791 
z
" transform="scale(0.015625)"/>
      <path id="DejaVuSans-Bold-20" transform="scale(0.015625)"/>
      <path id="DejaVuSans-Bold-50" d="M 588 4666 
L 2584 4666 
Q 3475 4666 3951 4270 
Q 4428 3875 4428 3144 
Q 4428 2409 3951 2014 
Q 3475 1619 2584 1619 
L 1791 1619 
L 1791 0 
L 588 0 
L 588 4666 
z
M 1791 3794 
L 1791 2491 
L 2456 2491 
Q 2806 2491 2997 2661 
Q 3188 2831 3188 3144 
Q 3188 3456 2997 3625 
Q 2806 3794 2456 3794 
L 1791 3794 
z
" transform="scale(0.015625)"/>
      <path id="DejaVuSans-Bold-6c" d="M 538 4863 
L 1656 4863 
L 1656 0 
L 538 0 
L 538 4863 
z
" transform="scale(0.015625)"/>
      <path id="DejaVuSans-Bold-74" d="M 1759 4494 
L 1759 3500 
L 2913 3500 
L 2913 2700 
L 1759 2700 
L 1759 1216 
Q 1759 972 1856 886 
Q 1953 800 2241 800 
L 2816 800 
L 2816 0 
L 1856 0 
Q 1194 0 917 276 
Q 641 553 641 1216 
L 641 2700 
L 84 2700 
L 84 3500 
L 641 3500 
L 641 4494 
L 1759 4494 
z
" transform="scale(0.015625)"/>
      <path id="DejaVuSans-Bold-3a" d="M 716 3500 
L 1844 3500 
L 1844 2291 
L 716 2291 
L 716 3500 
z
M 716 1209 
L 1844 1209 
L 1844 0 
L 716 0 
L 716 1209 
z
" transform="scale(0.015625)"/>
      <path id="DejaVuSans-Bold-48" d="M 588 4666 
L 1791 4666 
L 1791 2888 
L 3566 2888 
L 3566 4666 
L 4769 4666 
L 4769 0 
L 3566 0 
L 3566 1978 
L 1791 1978 
L 1791 0 
L 588 0 
L 588 4666 
z
" transform="scale(0.015625)"/>
      <path id="DejaVuSans-Bold-6d" d="M 3781 2919 
Q 3994 3244 4286 3414 
Q 4578 3584 4928 3584 
Q 5531 3584 5847 3212 
Q 6163 2841 6163 2131 
L 6163 0 
L 5038 0 
L 5038 1825 
Q 5041 1866 5042 1909 
Q 5044 1953 5044 2034 
Q 5044 2406 4934 2573 
Q 4825 2741 4581 2741 
Q 4263 2741 4089 2478 
Q 3916 2216 3909 1719 
L 3909 0 
L 2784 0 
L 2784 1825 
Q 2784 2406 2684 2573 
Q 2584 2741 2328 2741 
Q 2006 2741 1831 2477 
Q 1656 2213 1656 1722 
L 1656 0 
L 531 0 
L 531 3500 
L 1656 3500 
L 1656 2988 
Q 1863 3284 2130 3434 
Q 2397 3584 2719 3584 
Q 3081 3584 3359 3409 
Q 3638 3234 3781 2919 
z
" transform="scale(0.015625)"/>
      <path id="DejaVuSans-Bold-65" d="M 4031 1759 
L 4031 1441 
L 1416 1441 
Q 1456 1047 1700 850 
Q 1944 653 2381 653 
Q 2734 653 3104 758 
Q 3475 863 3866 1075 
L 3866 213 
Q 3469 63 3072 -14 
Q 2675 -91 2278 -91 
Q 1328 -91 801 392 
Q 275 875 275 1747 
Q 275 2603 792 3093 
Q 1309 3584 2216 3584 
Q 3041 3584 3536 3087 
Q 4031 2591 4031 1759 
z
M 2881 2131 
Q 2881 2450 2695 2645 
Q 2509 2841 2209 2841 
Q 1884 2841 1681 2658 
Q 1478 2475 1428 2131 
L 2881 2131 
z
" transform="scale(0.015625)"/>
      <path id="DejaVuSans-Bold-76" d="M 97 3500 
L 1216 3500 
L 2088 1081 
L 2956 3500 
L 4078 3500 
L 2700 0 
L 1472 0 
L 97 3500 
z
" transform="scale(0.015625)"/>
      <path id="DejaVuSans-Bold-73" d="M 3272 3391 
L 3272 2541 
Q 2913 2691 2578 2766 
Q 2244 2841 1947 2841 
Q 1628 2841 1473 2761 
Q 1319 2681 1319 2516 
Q 1319 2381 1436 2309 
Q 1553 2238 1856 2203 
L 2053 2175 
Q 2913 2066 3209 1816 
Q 3506 1566 3506 1031 
Q 3506 472 3093 190 
Q 2681 -91 1863 -91 
Q 1516 -91 1145 -36 
Q 775 19 384 128 
L 384 978 
Q 719 816 1070 734 
Q 1422 653 1784 653 
Q 2113 653 2278 743 
Q 2444 834 2444 1013 
Q 2444 1163 2330 1236 
Q 2216 1309 1875 1350 
L 1678 1375 
Q 931 1469 631 1722 
Q 331 1975 331 2491 
Q 331 3047 712 3315 
Q 1094 3584 1881 3584 
Q 2191 3584 2531 3537 
Q 2872 3491 3272 3391 
z
" transform="scale(0.015625)"/>
      <path id="DejaVuSans-Bold-55" d="M 588 4666 
L 1791 4666 
L 1791 1869 
Q 1791 1291 1980 1042 
Q 2169 794 2597 794 
Q 3028 794 3217 1042 
Q 3406 1291 3406 1869 
L 3406 4666 
L 4609 4666 
L 4609 1869 
Q 4609 878 4112 393 
Q 3616 -91 2597 -91 
Q 1581 -91 1084 393 
Q 588 878 588 1869 
L 588 4666 
z
" transform="scale(0.015625)"/>
      <path id="DejaVuSans-Bold-6e" d="M 4056 2131 
L 4056 0 
L 2931 0 
L 2931 347 
L 2931 1631 
Q 2931 2084 2911 2256 
Q 2891 2428 2841 2509 
Q 2775 2619 2662 2680 
Q 2550 2741 2406 2741 
Q 2056 2741 1856 2470 
Q 1656 2200 1656 1722 
L 1656 0 
L 538 0 
L 538 3500 
L 1656 3500 
L 1656 2988 
Q 1909 3294 2193 3439 
Q 2478 3584 2822 3584 
Q 3428 3584 3742 3212 
Q 4056 2841 4056 2131 
z
" transform="scale(0.015625)"/>
      <path id="DejaVuSans-Bold-69" d="M 538 3500 
L 1656 3500 
L 1656 0 
L 538 0 
L 538 3500 
z
M 538 4863 
L 1656 4863 
L 1656 3950 
L 538 3950 
L 538 4863 
z
" transform="scale(0.015625)"/>
      <path id="DejaVuSans-Bold-72" d="M 3138 2547 
Q 2991 2616 2845 2648 
Q 2700 2681 2553 2681 
Q 2122 2681 1889 2404 
Q 1656 2128 1656 1613 
L 1656 0 
L 538 0 
L 538 3500 
L 1656 3500 
L 1656 2925 
Q 1872 3269 2151 3426 
Q 2431 3584 2822 3584 
Q 2878 3584 2943 3579 
Q 3009 3575 3134 3559 
L 3138 2547 
z
" transform="scale(0.015625)"/>
      <path id="DejaVuSans-Bold-79" d="M 78 3500 
L 1197 3500 
L 2138 1125 
L 2938 3500 
L 4056 3500 
L 2584 -331 
Q 2363 -916 2067 -1148 
Q 1772 -1381 1288 -1381 
L 641 -1381 
L 641 -647 
L 991 -647 
Q 1275 -647 1404 -556 
Q 1534 -466 1606 -231 
L 1638 -134 
L 78 3500 
z
" transform="scale(0.015625)"/>
     </defs>
     <use xlink:href="#DejaVuSans-Bold-42"/>
     <use xlink:href="#DejaVuSans-Bold-6f" transform="translate(76.220703 0)"/>
     <use xlink:href="#DejaVuSans-Bold-78" transform="translate(144.921875 0)"/>
     <use xlink:href="#DejaVuSans-Bold-20" transform="translate(209.423828 0)"/>
     <use xlink:href="#DejaVuSans-Bold-50" transform="translate(244.238281 0)"/>
     <use xlink:href="#DejaVuSans-Bold-6c" transform="translate(317.529297 0)"/>
     <use xlink:href="#DejaVuSans-Bold-6f" transform="translate(351.806641 0)"/>
     <use xlink:href="#DejaVuSans-Bold-74" transform="translate(420.507812 0)"/>
     <use xlink:href="#DejaVuSans-Bold-3a" transform="translate(468.310547 0)"/>
     <use xlink:href="#DejaVuSans-Bold-20" transform="translate(508.300781 0)"/>
     <use xlink:href="#DejaVuSans-Bold-48" transform="translate(543.115234 0)"/>
     <use xlink:href="#DejaVuSans-Bold-6f" transform="translate(626.806641 0)"/>
     <use xlink:href="#DejaVuSans-Bold-6d" transform="translate(695.507812 0)"/>
     <use xlink:href="#DejaVuSans-Bold-65" transform="translate(799.707031 0)"/>
     <use xlink:href="#DejaVuSans-Bold-20" transform="translate(867.529297 0)"/>
     <use xlink:href="#DejaVuSans-Bold-76" transform="translate(902.34375 0)"/>
     <use xlink:href="#DejaVuSans-Bold-73" transform="translate(967.529297 0)"/>
     <use xlink:href="#DejaVuSans-Bold-20" transform="translate(1027.050781 0)"/>
     <use xlink:href="#DejaVuSans-Bold-55" transform="translate(1061.865234 0)"/>
     <use xlink:href="#DejaVuSans-Bold-6e" transform="translate(1143.066406 0)"/>
     <use xlink:href="#DejaVuSans-Bold-69" transform="translate(1214.257812 0)"/>
     <use xlink:href="#DejaVuSans-Bold-76" transform="translate(1248.535156 0)"/>
     <use xlink:href="#DejaVuSans-Bold-65" transform="translate(1313.720703 0)"/>
     <use xlink:href="#DejaVuSans-Bold-72" transform="translate(1381.542969 0)"/>
     <use xlink:href="#DejaVuSans-Bold-73" transform="translate(1430.859375 0)"/>
     <use xlink:href="#DejaVuSans-Bold-69" transform="translate(1490.380859 0)"/>
     <use xlink:href="#DejaVuSans-Bold-74" transform="translate(1524.658203 0)"/>
     <use xlink:href="#DejaVuSans-Bold-79" transform="translate(1572.460938 0)"/>
    </g>
   </g>
  </g>
  <g id="axes_2">
   <g id="patch_7">
    <path d="M 506.38125 330.68 
L 921.17125 330.68 
L 921.17125 49.2 
L 506.38125 49.2 
z
" style="fill: #f8f9fa"/>
   </g>
   <g id="FillBetweenPolyCollection_1">
    <path d="M 596.953375 317.137236 
L 594.922989 317.137236 
L 594.810574 314.560037 
L 594.695282 311.982838 
L 594.568496 309.405639 
L 594.425362 306.82844 
L 594.268429 304.251241 
L 594.108674 301.674042 
L 593.963223 299.096843 
L 593.850409 296.519644 
L 593.783904 293.942446 
L 593.767994 291.365247 
L 593.795538 288.788048 
L 593.84924 286.210849 
L 593.905699 283.63365 
L 593.940925 281.056451 
L 593.93557 278.479252 
L 593.878238 275.902053 
L 593.765903 273.324854 
L 593.601591 270.747656 
L 593.390581 268.170457 
L 593.13706 265.593258 
L 592.842845 263.016059 
L 592.50856 260.43886 
L 592.136156 257.861661 
L 591.730795 255.284462 
L 591.3004 252.707263 
L 590.852542 250.130064 
L 590.389718 247.552865 
L 589.904799 244.975667 
L 589.377938 242.398468 
L 588.775173 239.821269 
L 588.048303 237.24407 
L 587.135754 234.666871 
L 585.965016 232.089672 
L 584.457724 229.512473 
L 582.537832 226.935274 
L 580.141745 224.358075 
L 577.227757 221.780877 
L 573.78199 219.203678 
L 569.81979 216.626479 
L 565.384197 214.04928 
L 560.54507 211.472081 
L 555.40198 208.894882 
L 550.090869 206.317683 
L 544.790172 203.740484 
L 539.719112 201.163285 
L 535.121711 198.586087 
L 531.235171 196.008888 
L 528.249069 193.431689 
L 526.26836 190.85449 
L 525.294704 188.277291 
L 525.235341 185.700092 
L 525.938358 183.122893 
L 527.242301 180.545694 
L 529.021937 177.968495 
L 531.213585 175.391297 
L 533.812072 172.814098 
L 536.843139 170.236899 
L 540.324601 167.6597 
L 544.232954 165.082501 
L 548.488276 162.505302 
L 552.961547 159.928103 
L 557.498956 157.350904 
L 561.951747 154.773705 
L 566.199794 152.196507 
L 570.161846 149.619308 
L 573.792315 147.042109 
L 577.070044 144.46491 
L 579.986357 141.887711 
L 582.537793 139.310512 
L 584.724957 136.733313 
L 586.555408 134.156114 
L 588.047034 131.578915 
L 589.229185 129.001717 
L 590.140876 126.424518 
L 590.827158 123.847319 
L 591.335366 121.27012 
L 591.712336 118.692921 
L 592.002624 116.115722 
L 592.247001 113.538523 
L 592.480557 110.961324 
L 592.730321 108.384125 
L 593.012974 105.806927 
L 593.333542 103.229728 
L 593.685781 100.652529 
L 594.05442 98.07533 
L 594.41884 95.498131 
L 594.757319 92.920932 
L 595.050835 90.343733 
L 595.285642 87.766534 
L 595.454327 85.189335 
L 595.555603 82.612137 
L 595.593456 80.034938 
L 595.576283 77.457739 
L 595.51633 74.88054 
L 595.429229 72.303341 
L 595.333115 69.726142 
L 595.246867 67.148943 
L 595.187424 64.571744 
L 595.166789 61.994545 
L 596.709575 61.994545 
L 596.709575 61.994545 
L 596.68894 64.571744 
L 596.629497 67.148943 
L 596.543248 69.726142 
L 596.447135 72.303341 
L 596.360033 74.88054 
L 596.300081 77.457739 
L 596.282908 80.034938 
L 596.32076 82.612137 
L 596.422037 85.189335 
L 596.590722 87.766534 
L 596.825529 90.343733 
L 597.119044 92.920932 
L 597.457524 95.498131 
L 597.821944 98.07533 
L 598.190583 100.652529 
L 598.542822 103.229728 
L 598.86339 105.806927 
L 599.146042 108.384125 
L 599.395806 110.961324 
L 599.629362 113.538523 
L 599.873739 116.115722 
L 600.164027 118.692921 
L 600.540998 121.27012 
L 601.049206 123.847319 
L 601.735488 126.424518 
L 602.647178 129.001717 
L 603.829329 131.578915 
L 605.320955 134.156114 
L 607.151407 136.733313 
L 609.338571 139.310512 
L 611.890007 141.887711 
L 614.80632 144.46491 
L 618.084049 147.042109 
L 621.714518 149.619308 
L 625.67657 152.196507 
L 629.924616 154.773705 
L 634.377407 157.350904 
L 638.914816 159.928103 
L 643.388088 162.505302 
L 647.64341 165.082501 
L 651.551762 167.6597 
L 655.033225 170.236899 
L 658.064292 172.814098 
L 660.662779 175.391297 
L 662.854427 177.968495 
L 664.634063 180.545694 
L 665.938006 183.122893 
L 666.641023 185.700092 
L 666.58166 188.277291 
L 665.608004 190.85449 
L 663.627295 193.431689 
L 660.641193 196.008888 
L 656.754653 198.586087 
L 652.157252 201.163285 
L 647.086192 203.740484 
L 641.785494 206.317683 
L 636.474384 208.894882 
L 631.331293 211.472081 
L 626.492167 214.04928 
L 622.056574 216.626479 
L 618.094374 219.203678 
L 614.648607 221.780877 
L 611.734618 224.358075 
L 609.338532 226.935274 
L 607.41864 229.512473 
L 605.911347 232.089672 
L 604.740609 234.666871 
L 603.82806 237.24407 
L 603.101191 239.821269 
L 602.498426 242.398468 
L 601.971564 244.975667 
L 601.486646 247.552865 
L 601.023822 250.130064 
L 600.575963 252.707263 
L 600.145569 255.284462 
L 599.740207 257.861661 
L 599.367804 260.43886 
L 599.033519 263.016059 
L 598.739304 265.593258 
L 598.485782 268.170457 
L 598.274772 270.747656 
L 598.110461 273.324854 
L 597.998126 275.902053 
L 597.940793 278.479252 
L 597.935439 281.056451 
L 597.970665 283.63365 
L 598.027123 286.210849 
L 598.080825 288.788048 
L 598.10837 291.365247 
L 598.092459 293.942446 
L 598.025955 296.519644 
L 597.91314 299.096843 
L 597.76769 301.674042 
L 597.607935 304.251241 
L 597.451001 306.82844 
L 597.307867 309.405639 
L 597.181082 311.982838 
L 597.06579 314.560037 
L 596.953375 317.137236 
z
" clip-path="url(#p33c2283583)" style="fill: #2196f3; fill-opacity: 0.7"/>
   </g>
   <g id="FillBetweenPolyCollection_2">
    <path d="M 839.373689 317.885455 
L 823.854947 317.885455 
L 821.598631 316.283208 
L 818.848953 314.680961 
L 815.553338 313.078714 
L 811.680774 311.476467 
L 807.232492 309.87422 
L 802.250846 308.271974 
L 796.825195 306.669727 
L 791.094152 305.06748 
L 785.24372 303.465233 
L 779.500669 301.862986 
L 774.120241 300.26074 
L 769.367678 298.658493 
L 765.494309 297.056246 
L 762.710905 295.453999 
L 761.162748 293.851752 
L 760.911477 292.249505 
L 761.927657 290.647259 
L 764.095634 289.045012 
L 767.229439 287.442765 
L 771.096409 285.840518 
L 775.44428 284.238271 
L 780.027716 282.636025 
L 784.630949 281.033778 
L 789.083992 279.431531 
L 793.270754 277.829284 
L 797.128452 276.227037 
L 800.639145 274.62479 
L 803.815861 273.022544 
L 806.686935 271.420297 
L 809.282416 269.81805 
L 811.62544 268.215803 
L 813.729719 266.613556 
L 815.602371 265.01131 
L 817.249957 263.409063 
L 818.68501 261.806816 
L 819.930643 260.204569 
L 821.02165 258.602322 
L 822.00161 257.000076 
L 822.91665 255.397829 
L 823.807519 253.795582 
L 824.702127 252.193335 
L 825.610741 250.591088 
L 826.525235 248.988841 
L 827.422632 247.386595 
L 828.271833 245.784348 
L 829.041547 244.182101 
L 829.707232 242.579854 
L 830.255431 240.977607 
L 830.684876 239.375361 
L 831.004771 237.773114 
L 831.231348 236.170867 
L 831.383961 234.56862 
L 831.481734 232.966373 
L 831.54133 231.364126 
L 831.5759 229.76188 
L 831.594988 228.159633 
L 831.605023 226.557386 
L 831.610047 224.955139 
L 831.612443 223.352892 
L 831.613532 221.750646 
L 831.614003 220.148399 
L 831.614198 218.546152 
L 831.614274 216.943905 
L 831.614303 215.341658 
L 831.614313 213.739411 
L 831.614317 212.137165 
L 831.614318 210.534918 
L 831.614318 208.932671 
L 831.614318 207.330424 
L 831.614318 205.728177 
L 831.614318 204.125931 
L 831.614318 202.523684 
L 831.614318 200.921437 
L 831.614318 199.31919 
L 831.614316 197.716943 
L 831.614312 196.114696 
L 831.614302 194.51245 
L 831.614273 192.910203 
L 831.614201 191.307956 
L 831.614026 189.705709 
L 831.613627 188.103462 
L 831.612755 186.501216 
L 831.610945 184.898969 
L 831.607371 183.296722 
L 831.600661 181.694475 
L 831.588694 180.092228 
L 831.56843 178.489981 
L 831.535883 176.887735 
L 831.486356 175.285488 
L 831.415066 173.683241 
L 831.31819 172.080994 
L 831.194256 170.478747 
L 831.045593 168.876501 
L 830.879386 167.274254 
L 830.707861 165.672007 
L 830.547224 164.06976 
L 830.415333 162.467513 
L 830.328497 160.865266 
L 830.298176 159.26302 
L 832.93046 159.26302 
L 832.93046 159.26302 
L 832.900139 160.865266 
L 832.813304 162.467513 
L 832.681412 164.06976 
L 832.520775 165.672007 
L 832.34925 167.274254 
L 832.183044 168.876501 
L 832.03438 170.478747 
L 831.910447 172.080994 
L 831.81357 173.683241 
L 831.74228 175.285488 
L 831.692754 176.887735 
L 831.660206 178.489981 
L 831.639942 180.092228 
L 831.627975 181.694475 
L 831.621265 183.296722 
L 831.617691 184.898969 
L 831.615881 186.501216 
L 831.61501 188.103462 
L 831.61461 189.705709 
L 831.614436 191.307956 
L 831.614363 192.910203 
L 831.614335 194.51245 
L 831.614324 196.114696 
L 831.61432 197.716943 
L 831.614319 199.31919 
L 831.614318 200.921437 
L 831.614318 202.523684 
L 831.614318 204.125931 
L 831.614318 205.728177 
L 831.614318 207.330424 
L 831.614318 208.932671 
L 831.614319 210.534918 
L 831.61432 212.137165 
L 831.614323 213.739411 
L 831.614334 215.341658 
L 831.614362 216.943905 
L 831.614439 218.546152 
L 831.614633 220.148399 
L 831.615104 221.750646 
L 831.616193 223.352892 
L 831.618589 224.955139 
L 831.623613 226.557386 
L 831.633648 228.159633 
L 831.652736 229.76188 
L 831.687306 231.364126 
L 831.746902 232.966373 
L 831.844676 234.56862 
L 831.997288 236.170867 
L 832.223866 237.773114 
L 832.54376 239.375361 
L 832.973205 240.977607 
L 833.521404 242.579854 
L 834.18709 244.182101 
L 834.956804 245.784348 
L 835.806004 247.386595 
L 836.703401 248.988841 
L 837.617895 250.591088 
L 838.526509 252.193335 
L 839.421118 253.795582 
L 840.311986 255.397829 
L 841.227027 257.000076 
L 842.206986 258.602322 
L 843.297994 260.204569 
L 844.543627 261.806816 
L 845.978679 263.409063 
L 847.626265 265.01131 
L 849.498918 266.613556 
L 851.603196 268.215803 
L 853.946221 269.81805 
L 856.541702 271.420297 
L 859.412776 273.022544 
L 862.589492 274.62479 
L 866.100185 276.227037 
L 869.957882 277.829284 
L 874.144645 279.431531 
L 878.597687 281.033778 
L 883.20092 282.636025 
L 887.784357 284.238271 
L 892.132227 285.840518 
L 895.999197 287.442765 
L 899.133003 289.045012 
L 901.300979 290.647259 
L 902.317159 292.249505 
L 902.065888 293.851752 
L 900.517732 295.453999 
L 897.734327 297.056246 
L 893.860958 298.658493 
L 889.108396 300.26074 
L 883.727967 301.862986 
L 877.984916 303.465233 
L 872.134485 305.06748 
L 866.403441 306.669727 
L 860.97779 308.271974 
L 855.996144 309.87422 
L 851.547862 311.476467 
L 847.675298 313.078714 
L 844.379683 314.680961 
L 841.630005 316.283208 
L 839.373689 317.885455 
z
" clip-path="url(#p33c2283583)" style="fill: #ff5722; fill-opacity: 0.7"/>
   </g>
   <g id="matplotlib.axis_3">
    <g id="xtick_3">
     <g id="line2d_31">
      <path d="M 595.938182 330.68 
L 595.938182 49.2 
" clip-path="url(#p33c2283583)" style="fill: none; stroke: #cccccc; stroke-opacity: 0.35; stroke-width: 0.8; stroke-linecap: square"/>
     </g>
     <g id="line2d_32">
      <g>
       <use xlink:href="#m5b168ae3c1" x="595.938182" y="330.68" style="stroke: #000000; stroke-width: 0.8"/>
      </g>
     </g>
     <g id="text_12">
      <!-- Home -->
      <g transform="translate(578.218494 346.798125) scale(0.12 -0.12)">
       <use xlink:href="#DejaVuSans-48"/>
       <use xlink:href="#DejaVuSans-6f" transform="translate(75.195312 0)"/>
       <use xlink:href="#DejaVuSans-6d" transform="translate(136.376953 0)"/>
       <use xlink:href="#DejaVuSans-65" transform="translate(233.789062 0)"/>
      </g>
     </g>
    </g>
    <g id="xtick_4">
     <g id="line2d_33">
      <path d="M 831.614318 330.68 
L 831.614318 49.2 
" clip-path="url(#p33c2283583)" style="fill: none; stroke: #cccccc; stroke-opacity: 0.35; stroke-width: 0.8; stroke-linecap: square"/>
     </g>
     <g id="line2d_34">
      <g>
       <use xlink:href="#m5b168ae3c1" x="831.614318" y="330.68" style="stroke: #000000; stroke-width: 0.8"/>
      </g>
     </g>
     <g id="text_13">
      <!-- University -->
      <g transform="translate(801.348068 346.798125) scale(0.12 -0.12)">
       <use xlink:href="#DejaVuSans-55"/>
       <use xlink:href="#DejaVuSans-6e" transform="translate(73.193359 0)"/>
       <use xlink:href="#DejaVuSans-69" transform="translate(136.572266 0)"/>
       <use xlink:href="#DejaVuSans-76" transform="translate(164.355469 0)"/>
       <use xlink:href="#DejaVuSans-65" transform="translate(223.535156 0)"/>
       <use xlink:href="#DejaVuSans-72" transform="translate(285.058594 0)"/>
       <use xlink:href="#DejaVuSans-73" transform="translate(326.171875 0)"/>
       <use xlink:href="#DejaVuSans-69" transform="translate(378.271484 0)"/>
       <use xlink:href="#DejaVuSans-74" transform="translate(406.054688 0)"/>
       <use xlink:href="#DejaVuSans-79" transform="translate(445.263672 0)"/>
      </g>
     </g>
    </g>
   </g>
   <g id="matplotlib.axis_4">
    <g id="ytick_8">
     <g id="line2d_35">
      <path d="M 506.38125 294.690665 
L 921.17125 294.690665 
" clip-path="url(#p33c2283583)" style="fill: none; stroke: #cccccc; stroke-opacity: 0.35; stroke-width: 0.8; stroke-linecap: square"/>
     </g>
     <g id="line2d_36">
      <g>
       <use xlink:href="#m2c0dfedc76" x="506.38125" y="294.690665" style="stroke: #000000; stroke-width: 0.8"/>
      </g>
     </g>
     <g id="text_14">
      <!-- 0.5 -->
      <g transform="translate(483.478125 298.489883) scale(0.1 -0.1)">
       <use xlink:href="#DejaVuSans-30"/>
       <use xlink:href="#DejaVuSans-2e" transform="translate(63.623047 0)"/>
       <use xlink:href="#DejaVuSans-35" transform="translate(95.410156 0)"/>
      </g>
     </g>
    </g>
    <g id="ytick_9">
     <g id="line2d_37">
      <path d="M 506.38125 257.279713 
L 921.17125 257.279713 
" clip-path="url(#p33c2283583)" style="fill: none; stroke: #cccccc; stroke-opacity: 0.35; stroke-width: 0.8; stroke-linecap: square"/>
     </g>
     <g id="line2d_38">
      <g>
       <use xlink:href="#m2c0dfedc76" x="506.38125" y="257.279713" style="stroke: #000000; stroke-width: 0.8"/>
      </g>
     </g>
     <g id="text_15">
      <!-- 1.0 -->
      <g transform="translate(483.478125 261.078932) scale(0.1 -0.1)">
       <use xlink:href="#DejaVuSans-31"/>
       <use xlink:href="#DejaVuSans-2e" transform="translate(63.623047 0)"/>
       <use xlink:href="#DejaVuSans-30" transform="translate(95.410156 0)"/>
      </g>
     </g>
    </g>
    <g id="ytick_10">
     <g id="line2d_39">
      <path d="M 506.38125 219.868761 
L 921.17125 219.868761 
" clip-path="url(#p33c2283583)" style="fill: none; stroke: #cccccc; stroke-opacity: 0.35; stroke-width: 0.8; stroke-linecap: square"/>
     </g>
     <g id="line2d_40">
      <g>
       <use xlink:href="#m2c0dfedc76" x="506.38125" y="219.868761" style="stroke: #000000; stroke-width: 0.8"/>
      </g>
     </g>
     <g id="text_16">
      <!-- 1.5 -->
      <g transform="translate(483.478125 223.66798) scale(0.1 -0.1)">
       <use xlink:href="#DejaVuSans-31"/>
       <use xlink:href="#DejaVuSans-2e" transform="translate(63.623047 0)"/>
       <use xlink:href="#DejaVuSans-35" transform="translate(95.410156 0)"/>
      </g>
     </g>
    </g>
    <g id="ytick_11">
     <g id="line2d_41">
      <path d="M 506.38125 182.45781 
L 921.17125 182.45781 
" clip-path="url(#p33c2283583)" style="fill: none; stroke: #cccccc; stroke-opacity: 0.35; stroke-width: 0.8; stroke-linecap: square"/>
     </g>
     <g id="line2d_42">
      <g>
       <use xlink:href="#m2c0dfedc76" x="506.38125" y="182.45781" style="stroke: #000000; stroke-width: 0.8"/>
      </g>
     </g>
     <g id="text_17">
      <!-- 2.0 -->
      <g transform="translate(483.478125 186.257028) scale(0.1 -0.1)">
       <use xlink:href="#DejaVuSans-32"/>
       <use xlink:href="#DejaVuSans-2e" transform="translate(63.623047 0)"/>
       <use xlink:href="#DejaVuSans-30" transform="translate(95.410156 0)"/>
      </g>
     </g>
    </g>
    <g id="ytick_12">
     <g id="line2d_43">
      <path d="M 506.38125 145.046858 
L 921.17125 145.046858 
" clip-path="url(#p33c2283583)" style="fill: none; stroke: #cccccc; stroke-opacity: 0.35; stroke-width: 0.8; stroke-linecap: square"/>
     </g>
     <g id="line2d_44">
      <g>
       <use xlink:href="#m2c0dfedc76" x="506.38125" y="145.046858" style="stroke: #000000; stroke-width: 0.8"/>
      </g>
     </g>
     <g id="text_18">
      <!-- 2.5 -->
      <g transform="translate(483.478125 148.846077) scale(0.1 -0.1)">
       <use xlink:href="#DejaVuSans-32"/>
       <use xlink:href="#DejaVuSans-2e" transform="translate(63.623047 0)"/>
       <use xlink:href="#DejaVuSans-35" transform="translate(95.410156 0)"/>
      </g>
     </g>
    </g>
    <g id="ytick_13">
     <g id="line2d_45">
      <path d="M 506.38125 107.635906 
L 921.17125 107.635906 
" clip-path="url(#p33c2283583)" style="fill: none; stroke: #cccccc; stroke-opacity: 0.35; stroke-width: 0.8; stroke-linecap: square"/>
     </g>
     <g id="line2d_46">
      <g>
       <use xlink:href="#m2c0dfedc76" x="506.38125" y="107.635906" style="stroke: #000000; stroke-width: 0.8"/>
      </g>
     </g>
     <g id="text_19">
      <!-- 3.0 -->
      <g transform="translate(483.478125 111.435125) scale(0.1 -0.1)">
       <use xlink:href="#DejaVuSans-33"/>
       <use xlink:href="#DejaVuSans-2e" transform="translate(63.623047 0)"/>
       <use xlink:href="#DejaVuSans-30" transform="translate(95.410156 0)"/>
      </g>
     </g>
    </g>
    <g id="ytick_14">
     <g id="line2d_47">
      <path d="M 506.38125 70.224955 
L 921.17125 70.224955 
" clip-path="url(#p33c2283583)" style="fill: none; stroke: #cccccc; stroke-opacity: 0.35; stroke-width: 0.8; stroke-linecap: square"/>
     </g>
     <g id="line2d_48">
      <g>
       <use xlink:href="#m2c0dfedc76" x="506.38125" y="70.224955" style="stroke: #000000; stroke-width: 0.8"/>
      </g>
     </g>
     <g id="text_20">
      <!-- 3.5 -->
      <g transform="translate(483.478125 74.024174) scale(0.1 -0.1)">
       <use xlink:href="#DejaVuSans-33"/>
       <use xlink:href="#DejaVuSans-2e" transform="translate(63.623047 0)"/>
       <use xlink:href="#DejaVuSans-35" transform="translate(95.410156 0)"/>
      </g>
     </g>
    </g>
    <g id="text_21">
     <!-- kWh -->
     <g transform="translate(477.398438 200.947812) rotate(-90) scale(0.1 -0.1)">
      <use xlink:href="#DejaVuSans-6b"/>
      <use xlink:href="#DejaVuSans-57" transform="translate(57.910156 0)"/>
      <use xlink:href="#DejaVuSans-68" transform="translate(156.787109 0)"/>
     </g>
    </g>
   </g>
   <g id="LineCollection_1">
    <path d="M 560.586761 185.622574 
L 631.289602 185.622574 
" clip-path="url(#p33c2283583)" style="fill: none; stroke: #ffd700; stroke-width: 1.5"/>
    <path d="M 796.262898 287.590066 
L 866.965739 287.590066 
" clip-path="url(#p33c2283583)" style="fill: none; stroke: #ffd700; stroke-width: 1.5"/>
   </g>
   <g id="LineCollection_2">
    <path d="M 560.586761 61.994545 
L 631.289602 61.994545 
" clip-path="url(#p33c2283583)" style="fill: none; stroke: #1f77b4; stroke-width: 1.5"/>
    <path d="M 796.262898 159.26302 
L 866.965739 159.26302 
" clip-path="url(#p33c2283583)" style="fill: none; stroke: #1f77b4; stroke-width: 1.5"/>
   </g>
   <g id="LineCollection_3">
    <path d="M 560.586761 317.137236 
L 631.289602 317.137236 
" clip-path="url(#p33c2283583)" style="fill: none; stroke: #1f77b4; stroke-width: 1.5"/>
    <path d="M 796.262898 317.885455 
L 866.965739 317.885455 
" clip-path="url(#p33c2283583)" style="fill: none; stroke: #1f77b4; stroke-width: 1.5"/>
   </g>
   <g id="LineCollection_4">
    <path d="M 595.938182 317.137236 
L 595.938182 61.994545 
" clip-path="url(#p33c2283583)" style="fill: none; stroke: #1f77b4; stroke-width: 1.5"/>
    <path d="M 831.614318 317.885455 
L 831.614318 159.26302 
" clip-path="url(#p33c2283583)" style="fill: none; stroke: #1f77b4; stroke-width: 1.5"/>
   </g>
   <g id="LineCollection_5">
    <path d="M 560.586761 185.824795 
L 631.289602 185.824795 
" clip-path="url(#p33c2283583)" style="fill: none; stroke: #ffffff; stroke-width: 1.5"/>
    <path d="M 796.262898 291.697788 
L 866.965739 291.697788 
" clip-path="url(#p33c2283583)" style="fill: none; stroke: #ffffff; stroke-width: 1.5"/>
   </g>
   <g id="patch_8">
    <path d="M 506.38125 330.68 
L 506.38125 49.2 
" style="fill: none; stroke: #000000; stroke-width: 0.8; stroke-linejoin: miter; stroke-linecap: square"/>
   </g>
   <g id="patch_9">
    <path d="M 506.38125 330.68 
L 921.17125 330.68 
" style="fill: none; stroke: #000000; stroke-width: 0.8; stroke-linejoin: miter; stroke-linecap: square"/>
   </g>
   <g id="text_22">
    <!-- Violin Plot: Home vs University -->
    <g transform="translate(608.980625 43.2) scale(0.12 -0.12)">
     <defs>
      <path id="DejaVuSans-Bold-56" d="M 31 4666 
L 1241 4666 
L 2478 1222 
L 3713 4666 
L 4922 4666 
L 3194 0 
L 1759 0 
L 31 4666 
z
" transform="scale(0.015625)"/>
     </defs>
     <use xlink:href="#DejaVuSans-Bold-56"/>
     <use xlink:href="#DejaVuSans-Bold-69" transform="translate(75.642578 0)"/>
     <use xlink:href="#DejaVuSans-Bold-6f" transform="translate(109.919922 0)"/>
     <use xlink:href="#DejaVuSans-Bold-6c" transform="translate(178.621094 0)"/>
     <use xlink:href="#DejaVuSans-Bold-69" transform="translate(212.898438 0)"/>
     <use xlink:href="#DejaVuSans-Bold-6e" transform="translate(247.175781 0)"/>
     <use xlink:href="#DejaVuSans-Bold-20" transform="translate(318.367188 0)"/>
     <use xlink:href="#DejaVuSans-Bold-50" transform="translate(353.181641 0)"/>
     <use xlink:href="#DejaVuSans-Bold-6c" transform="translate(426.472656 0)"/>
     <use xlink:href="#DejaVuSans-Bold-6f" transform="translate(460.75 0)"/>
     <use xlink:href="#DejaVuSans-Bold-74" transform="translate(529.451172 0)"/>
     <use xlink:href="#DejaVuSans-Bold-3a" transform="translate(577.253906 0)"/>
     <use xlink:href="#DejaVuSans-Bold-20" transform="translate(617.244141 0)"/>
     <use xlink:href="#DejaVuSans-Bold-48" transform="translate(652.058594 0)"/>
     <use xlink:href="#DejaVuSans-Bold-6f" transform="translate(735.75 0)"/>
     <use xlink:href="#DejaVuSans-Bold-6d" transform="translate(804.451172 0)"/>
     <use xlink:href="#DejaVuSans-Bold-65" transform="translate(908.650391 0)"/>
     <use xlink:href="#DejaVuSans-Bold-20" transform="translate(976.472656 0)"/>
     <use xlink:href="#DejaVuSans-Bold-76" transform="translate(1011.287109 0)"/>
     <use xlink:href="#DejaVuSans-Bold-73" transform="translate(1076.472656 0)"/>
     <use xlink:href="#DejaVuSans-Bold-20" transform="translate(1135.994141 0)"/>
     <use xlink:href="#DejaVuSans-Bold-55" transform="translate(1170.808594 0)"/>
     <use xlink:href="#DejaVuSans-Bold-6e" transform="translate(1252.009766 0)"/>
     <use xlink:href="#DejaVuSans-Bold-69" transform="translate(1323.201172 0)"/>
     <use xlink:href="#DejaVuSans-Bold-76" transform="translate(1357.478516 0)"/>
     <use xlink:href="#DejaVuSans-Bold-65" transform="translate(1422.664062 0)"/>
     <use xlink:href="#DejaVuSans-Bold-72" transform="translate(1490.486328 0)"/>
     <use xlink:href="#DejaVuSans-Bold-73" transform="translate(1539.802734 0)"/>
     <use xlink:href="#DejaVuSans-Bold-69" transform="translate(1599.324219 0)"/>
     <use xlink:href="#DejaVuSans-Bold-74" transform="translate(1633.601562 0)"/>
     <use xlink:href="#DejaVuSans-Bold-79" transform="translate(1681.404297 0)"/>
    </g>
   </g>
  </g>
  <g id="text_23">
   <!-- Home vs University Day Comparison -->
   <g transform="translate(331.041172 17.077969) scale(0.13 -0.13)">
    <defs>
     <path id="DejaVuSans-Bold-44" d="M 1791 3756 
L 1791 909 
L 2222 909 
Q 2959 909 3348 1275 
Q 3738 1641 3738 2338 
Q 3738 3031 3350 3393 
Q 2963 3756 2222 3756 
L 1791 3756 
z
M 588 4666 
L 1856 4666 
Q 2919 4666 3439 4514 
Q 3959 4363 4331 4000 
Q 4659 3684 4818 3271 
Q 4978 2859 4978 2338 
Q 4978 1809 4818 1395 
Q 4659 981 4331 666 
Q 3956 303 3431 151 
Q 2906 0 1856 0 
L 588 0 
L 588 4666 
z
" transform="scale(0.015625)"/>
     <path id="DejaVuSans-Bold-61" d="M 2106 1575 
Q 1756 1575 1579 1456 
Q 1403 1338 1403 1106 
Q 1403 894 1545 773 
Q 1688 653 1941 653 
Q 2256 653 2472 879 
Q 2688 1106 2688 1447 
L 2688 1575 
L 2106 1575 
z
M 3816 1997 
L 3816 0 
L 2688 0 
L 2688 519 
Q 2463 200 2181 54 
Q 1900 -91 1497 -91 
Q 953 -91 614 226 
Q 275 544 275 1050 
Q 275 1666 698 1953 
Q 1122 2241 2028 2241 
L 2688 2241 
L 2688 2328 
Q 2688 2594 2478 2717 
Q 2269 2841 1825 2841 
Q 1466 2841 1156 2769 
Q 847 2697 581 2553 
L 581 3406 
Q 941 3494 1303 3539 
Q 1666 3584 2028 3584 
Q 2975 3584 3395 3211 
Q 3816 2838 3816 1997 
z
" transform="scale(0.015625)"/>
     <path id="DejaVuSans-Bold-43" d="M 4288 256 
Q 3956 84 3597 -3 
Q 3238 -91 2847 -91 
Q 1681 -91 1000 561 
Q 319 1213 319 2328 
Q 319 3447 1000 4098 
Q 1681 4750 2847 4750 
Q 3238 4750 3597 4662 
Q 3956 4575 4288 4403 
L 4288 3438 
Q 3953 3666 3628 3772 
Q 3303 3878 2944 3878 
Q 2300 3878 1931 3465 
Q 1563 3053 1563 2328 
Q 1563 1606 1931 1193 
Q 2300 781 2944 781 
Q 3303 781 3628 887 
Q 3953 994 4288 1222 
L 4288 256 
z
" transform="scale(0.015625)"/>
     <path id="DejaVuSans-Bold-70" d="M 1656 506 
L 1656 -1331 
L 538 -1331 
L 538 3500 
L 1656 3500 
L 1656 2988 
Q 1888 3294 2169 3439 
Q 2450 3584 2816 3584 
Q 3463 3584 3878 3070 
Q 4294 2556 4294 1747 
Q 4294 938 3878 423 
Q 3463 -91 2816 -91 
Q 2450 -91 2169 54 
Q 1888 200 1656 506 
z
M 2400 2772 
Q 2041 2772 1848 2508 
Q 1656 2244 1656 1747 
Q 1656 1250 1848 986 
Q 2041 722 2400 722 
Q 2759 722 2948 984 
Q 3138 1247 3138 1747 
Q 3138 2247 2948 2509 
Q 2759 2772 2400 2772 
z
" transform="scale(0.015625)"/>
    </defs>
    <use xlink:href="#DejaVuSans-Bold-48"/>
    <use xlink:href="#DejaVuSans-Bold-6f" transform="translate(83.691406 0)"/>
    <use xlink:href="#DejaVuSans-Bold-6d" transform="translate(152.392578 0)"/>
    <use xlink:href="#DejaVuSans-Bold-65" transform="translate(256.591797 0)"/>
    <use xlink:href="#DejaVuSans-Bold-20" transform="translate(324.414062 0)"/>
    <use xlink:href="#DejaVuSans-Bold-76" transform="translate(359.228516 0)"/>
    <use xlink:href="#DejaVuSans-Bold-73" transform="translate(424.414062 0)"/>
    <use xlink:href="#DejaVuSans-Bold-20" transform="translate(483.935547 0)"/>
    <use xlink:href="#DejaVuSans-Bold-55" transform="translate(518.75 0)"/>
    <use xlink:href="#DejaVuSans-Bold-6e" transform="translate(599.951172 0)"/>
    <use xlink:href="#DejaVuSans-Bold-69" transform="translate(671.142578 0)"/>
    <use xlink:href="#DejaVuSans-Bold-76" transform="translate(705.419922 0)"/>
    <use xlink:href="#DejaVuSans-Bold-65" transform="translate(770.605469 0)"/>
    <use xlink:href="#DejaVuSans-Bold-72" transform="translate(838.427734 0)"/>
    <use xlink:href="#DejaVuSans-Bold-73" transform="translate(887.744141 0)"/>
    <use xlink:href="#DejaVuSans-Bold-69" transform="translate(947.265625 0)"/>
    <use xlink:href="#DejaVuSans-Bold-74" transform="translate(981.542969 0)"/>
    <use xlink:href="#DejaVuSans-Bold-79" transform="translate(1029.345703 0)"/>
    <use xlink:href="#DejaVuSans-Bold-20" transform="translate(1094.53125 0)"/>
    <use xlink:href="#DejaVuSans-Bold-44" transform="translate(1129.345703 0)"/>
    <use xlink:href="#DejaVuSans-Bold-61" transform="translate(1212.353516 0)"/>
    <use xlink:href="#DejaVuSans-Bold-79" transform="translate(1276.708984 0)"/>
    <use xlink:href="#DejaVuSans-Bold-20" transform="translate(1341.894531 0)"/>
    <use xlink:href="#DejaVuSans-Bold-43" transform="translate(1376.708984 0)"/>
    <use xlink:href="#DejaVuSans-Bold-6f" transform="translate(1450.097656 0)"/>
    <use xlink:href="#DejaVuSans-Bold-6d" transform="translate(1518.798828 0)"/>
    <use xlink:href="#DejaVuSans-Bold-70" transform="translate(1622.998047 0)"/>
    <use xlink:href="#DejaVuSans-Bold-61" transform="translate(1694.580078 0)"/>
    <use xlink:href="#DejaVuSans-Bold-72" transform="translate(1762.060547 0)"/>
    <use xlink:href="#DejaVuSans-Bold-69" transform="translate(1811.376953 0)"/>
    <use xlink:href="#DejaVuSans-Bold-73" transform="translate(1845.654297 0)"/>
    <use xlink:href="#DejaVuSans-Bold-6f" transform="translate(1905.175781 0)"/>
    <use xlink:href="#DejaVuSans-Bold-6e" transform="translate(1973.876953 0)"/>
   </g>
  </g>
 </g>
 <defs>
  <clipPath id="p7b4616db4c">
   <rect x="43.78125" y="49.2" width="414.79" height="281.48"/>
  </clipPath>
  <clipPath id="p33c2283583">
   <rect x="506.38125" y="49.2" width="414.79" height="281.48"/>
  </clipPath>
 </defs>
</svg>
