<?xml version="1.0" encoding="utf-8" standalone="no"?>
<!DOCTYPE svg PUBLIC "-//W3C//DTD SVG 1.1//EN"
  "http://www.w3.org/Graphics/SVG/1.1/DTD/svg11.dtd">
<svg xmlns:xlink="http://www.w3.org/1999/xlink" width="1144.373125pt" height="367.276417pt" viewBox="0 0 1144.373125 367.276417" xmlns="http://www.w3.org/2000/svg" version="1.1">
 <metadata>
  <rdf:RDF xmlns:dc="http://purl.org/dc/elements/1.1/" xmlns:cc="http://creativecommons.org/ns#" xmlns:rdf="http://www.w3.org/1999/02/22-rdf-syntax-ns#">
   <cc:Work>
    <dc:type rdf:resource="http://purl.org/dc/dcmitype/StillImage"/>
    <dc:date>2026-03-16T06:45:49.048581</dc:date>
    <dc:format>image/svg+xml</dc:format>
    <dc:creator>
     <cc:Agent>
      <dc:title>Matplotlib v3.10.3, https://matplotlib.org/</dc:title>
     </cc:Agent>
    </dc:creator>
   </cc:Work>
  </rdf:RDF>
 </metadata>
 <defs>
  <style type="text/css">*{stroke-linejoin: round; stroke-linecap: butt}</style>
 </defs>
 <g id="figure_1">
  <g id="patch_1">
   <path d="M 0 367.276417 
L 1144.373125 367.276417 
L 1144.373125 0 
L 0 0 
z
" style="fill: #ffffff"/>
  </g>
  <g id="axes_1">
   <g id="patch_2">
    <path d="M 40.603125 320.490147 
L 566.573125 320.490147 
L 566.573125 60 
L 40.603125 60 
z
" style="fill: #f8f9fa"/>
   </g>
   <g id="patch_3">
    <path d="M 64.510852 320.490147 
L 96.92811 320.490147 
L 96.92811 197.001306 
L 64.510852 197.001306 
z
" clip-path="url(#p64ab804828)" style="fill: #463480; stroke: #ffffff; stroke-linejoin: miter"/>
   </g>
   <g id="patch_4">
    <path d="M 105.032424 320.490147 
L 137.449681 320.490147 
L 137.449681 99.048588 
L 105.032424 99.048588 
z
" clip-path="url(#p64ab804828)" style="fill: #3f4788; stroke: #ffffff; stroke-linejoin: miter"/>
   </g>
   <g id="patch_5">
    <path d="M 145.553996 320.490147 
L 177.971253 320.490147 
L 177.971253 97.217696 
L 145.553996 97.217696 
z
" clip-path="url(#p64ab804828)" style="fill: #38598c; stroke: #ffffff; stroke-linejoin: miter"/>
   </g>
   <g id="patch_6">
    <path d="M 186.075567 320.490147 
L 218.492825 320.490147 
L 218.492825 86.376889 
L 186.075567 86.376889 
z
" clip-path="url(#p64ab804828)" style="fill: #306a8e; stroke: #ffffff; stroke-linejoin: miter"/>
   </g>
   <g id="patch_7">
    <path d="M 226.597139 320.490147 
L 259.014396 320.490147 
L 259.014396 90.568668 
L 226.597139 90.568668 
z
" clip-path="url(#p64ab804828)" style="fill: #29798e; stroke: #ffffff; stroke-linejoin: miter"/>
   </g>
   <g id="patch_8">
    <path d="M 267.118711 320.490147 
L 299.535968 320.490147 
L 299.535968 132.582819 
L 267.118711 132.582819 
z
" clip-path="url(#p64ab804828)" style="fill: #23888e; stroke: #ffffff; stroke-linejoin: miter"/>
   </g>
   <g id="patch_9">
    <path d="M 307.640282 320.490147 
L 340.057539 320.490147 
L 340.057539 111.334837 
L 307.640282 111.334837 
z
" clip-path="url(#p64ab804828)" style="fill: #1f988b; stroke: #ffffff; stroke-linejoin: miter"/>
   </g>
   <g id="patch_10">
    <path d="M 348.161854 320.490147 
L 380.579111 320.490147 
L 380.579111 160.720737 
L 348.161854 160.720737 
z
" clip-path="url(#p64ab804828)" style="fill: #22a785; stroke: #ffffff; stroke-linejoin: miter"/>
   </g>
   <g id="patch_11">
    <path d="M 388.683425 320.490147 
L 421.100683 320.490147 
L 421.100683 72.404293 
L 388.683425 72.404293 
z
" clip-path="url(#p64ab804828)" style="fill: #32b67a; stroke: #ffffff; stroke-linejoin: miter"/>
   </g>
   <g id="patch_12">
    <path d="M 429.204997 320.490147 
L 461.622254 320.490147 
L 461.622254 86.617796 
L 429.204997 86.617796 
z
" clip-path="url(#p64ab804828)" style="fill: #50c46a; stroke: #ffffff; stroke-linejoin: miter"/>
   </g>
   <g id="patch_13">
    <path d="M 469.726569 320.490147 
L 502.143826 320.490147 
L 502.143826 114.322081 
L 469.726569 114.322081 
z
" clip-path="url(#p64ab804828)" style="fill: #73d056; stroke: #ffffff; stroke-linejoin: miter"/>
   </g>
   <g id="patch_14">
    <path d="M 510.24814 320.490147 
L 542.665398 320.490147 
L 542.665398 217.044754 
L 510.24814 217.044754 
z
" clip-path="url(#p64ab804828)" style="fill: #9bd93c; stroke: #ffffff; stroke-linejoin: miter"/>
   </g>
   <g id="matplotlib.axis_1">
    <g id="xtick_1">
     <g id="line2d_1">
      <path d="M 80.719481 320.490147 
L 80.719481 60 
" clip-path="url(#p64ab804828)" style="fill: none; stroke: #cccccc; stroke-opacity: 0.35; stroke-width: 0.8; stroke-linecap: square"/>
     </g>
     <g id="line2d_2">
      <defs>
       <path id="mdec8589f5c" d="M 0 0 
L 0 3.5 
" style="stroke: #000000; stroke-width: 0.8"/>
      </defs>
      <g>
       <use xlink:href="#mdec8589f5c" x="80.719481" y="320.490147" style="stroke: #000000; stroke-width: 0.8"/>
      </g>
     </g>
     <g id="text_1">
      <!-- Mar 2025 -->
      <g transform="translate(44.630613 357.609968) rotate(-35) scale(0.09 -0.09)">
       <defs>
        <path id="DejaVuSans-4d" d="M 628 4666 
L 1569 4666 
L 2759 1491 
L 3956 4666 
L 4897 4666 
L 4897 0 
L 4281 0 
L 4281 4097 
L 3078 897 
L 2444 897 
L 1241 4097 
L 1241 0 
L 628 0 
L 628 4666 
z
" transform="scale(0.015625)"/>
        <path id="DejaVuSans-61" d="M 2194 1759 
Q 1497 1759 1228 1600 
Q 959 1441 959 1056 
Q 959 750 1161 570 
Q 1363 391 1709 391 
Q 2188 391 2477 730 
Q 2766 1069 2766 1631 
L 2766 1759 
L 2194 1759 
z
M 3341 1997 
L 3341 0 
L 2766 0 
L 2766 531 
Q 2569 213 2275 61 
Q 1981 -91 1556 -91 
Q 1019 -91 701 211 
Q 384 513 384 1019 
Q 384 1609 779 1909 
Q 1175 2209 1959 2209 
L 2766 2209 
L 2766 2266 
Q 2766 2663 2505 2880 
Q 2244 3097 1772 3097 
Q 1472 3097 1187 3025 
Q 903 2953 641 2809 
L 641 3341 
Q 956 3463 1253 3523 
Q 1550 3584 1831 3584 
Q 2591 3584 2966 3190 
Q 3341 2797 3341 1997 
z
" transform="scale(0.015625)"/>
        <path id="DejaVuSans-72" d="M 2631 2963 
Q 2534 3019 2420 3045 
Q 2306 3072 2169 3072 
Q 1681 3072 1420 2755 
Q 1159 2438 1159 1844 
L 1159 0 
L 581 0 
L 581 3500 
L 1159 3500 
L 1159 2956 
Q 1341 3275 1631 3429 
Q 1922 3584 2338 3584 
Q 2397 3584 2469 3576 
Q 2541 3569 2628 3553 
L 2631 2963 
z
" transform="scale(0.015625)"/>
        <path id="DejaVuSans-20" transform="scale(0.015625)"/>
        <path id="DejaVuSans-32" d="M 1228 531 
L 3431 531 
L 3431 0 
L 469 0 
L 469 531 
Q 828 903 1448 1529 
Q 2069 2156 2228 2338 
Q 2531 2678 2651 2914 
Q 2772 3150 2772 3378 
Q 2772 3750 2511 3984 
Q 2250 4219 1831 4219 
Q 1534 4219 1204 4116 
Q 875 4013 500 3803 
L 500 4441 
Q 881 4594 1212 4672 
Q 1544 4750 1819 4750 
Q 2544 4750 2975 4387 
Q 3406 4025 3406 3419 
Q 3406 3131 3298 2873 
Q 3191 2616 2906 2266 
Q 2828 2175 2409 1742 
Q 1991 1309 1228 531 
z
" transform="scale(0.015625)"/>
        <path id="DejaVuSans-30" d="M 2034 4250 
Q 1547 4250 1301 3770 
Q 1056 3291 1056 2328 
Q 1056 1369 1301 889 
Q 1547 409 2034 409 
Q 2525 409 2770 889 
Q 3016 1369 3016 2328 
Q 3016 3291 2770 3770 
Q 2525 4250 2034 4250 
z
M 2034 4750 
Q 2819 4750 3233 4129 
Q 3647 3509 3647 2328 
Q 3647 1150 3233 529 
Q 2819 -91 2034 -91 
Q 1250 -91 836 529 
Q 422 1150 422 2328 
Q 422 3509 836 4129 
Q 1250 4750 2034 4750 
z
" transform="scale(0.015625)"/>
        <path id="DejaVuSans-35" d="M 691 4666 
L 3169 4666 
L 3169 4134 
L 1269 4134 
L 1269 2991 
Q 1406 3038 1543 3061 
Q 1681 3084 1819 3084 
Q 2600 3084 3056 2656 
Q 3513 2228 3513 1497 
Q 3513 744 3044 326 
Q 2575 -91 1722 -91 
Q 1428 -91 1123 -41 
Q 819 9 494 109 
L 494 744 
Q 775 591 1075 516 
Q 1375 441 1709 441 
Q 2250 441 2565 725 
Q 2881 1009 2881 1497 
Q 2881 1984 2565 2268 
Q 2250 2553 1709 2553 
Q 1456 2553 1204 2497 
Q 953 2441 691 2322 
L 691 4666 
z
" transform="scale(0.015625)"/>
       </defs>
       <use xlink:href="#DejaVuSans-4d"/>
       <use xlink:href="#DejaVuSans-61" transform="translate(86.279297 0)"/>
       <use xlink:href="#DejaVuSans-72" transform="translate(147.558594 0)"/>
       <use xlink:href="#DejaVuSans-20" transform="translate(188.671875 0)"/>
       <use xlink:href="#DejaVuSans-32" transform="translate(220.458984 0)"/>
       <use xlink:href="#DejaVuSans-30" transform="translate(284.082031 0)"/>
       <use xlink:href="#DejaVuSans-32" transform="translate(347.705078 0)"/>
       <use xlink:href="#DejaVuSans-35" transform="translate(411.328125 0)"/>
      </g>
     </g>
    </g>
    <g id="xtick_2">
     <g id="line2d_3">
      <path d="M 121.241053 320.490147 
L 121.241053 60 
" clip-path="url(#p64ab804828)" style="fill: none; stroke: #cccccc; stroke-opacity: 0.35; stroke-width: 0.8; stroke-linecap: square"/>
     </g>
     <g id="line2d_4">
      <g>
       <use xlink:href="#mdec8589f5c" x="121.241053" y="320.490147" style="stroke: #000000; stroke-width: 0.8"/>
      </g>
     </g>
     <g id="text_2">
      <!-- May 2025 -->
      <g transform="translate(83.819399 358.543195) rotate(-35) scale(0.09 -0.09)">
       <defs>
        <path id="DejaVuSans-79" d="M 2059 -325 
Q 1816 -950 1584 -1140 
Q 1353 -1331 966 -1331 
L 506 -1331 
L 506 -850 
L 844 -850 
Q 1081 -850 1212 -737 
Q 1344 -625 1503 -206 
L 1606 56 
L 191 3500 
L 800 3500 
L 1894 763 
L 2988 3500 
L 3597 3500 
L 2059 -325 
z
" transform="scale(0.015625)"/>
       </defs>
       <use xlink:href="#DejaVuSans-4d"/>
       <use xlink:href="#DejaVuSans-61" transform="translate(86.279297 0)"/>
       <use xlink:href="#DejaVuSans-79" transform="translate(147.558594 0)"/>
       <use xlink:href="#DejaVuSans-20" transform="translate(206.738281 0)"/>
       <use xlink:href="#DejaVuSans-32" transform="translate(238.525391 0)"/>
       <use xlink:href="#DejaVuSans-30" transform="translate(302.148438 0)"/>
       <use xlink:href="#DejaVuSans-32" transform="translate(365.771484 0)"/>
       <use xlink:href="#DejaVuSans-35" transform="translate(429.394531 0)"/>
      </g>
     </g>
    </g>
    <g id="xtick_3">
     <g id="line2d_5">
      <path d="M 161.762624 320.490147 
L 161.762624 60 
" clip-path="url(#p64ab804828)" style="fill: none; stroke: #cccccc; stroke-opacity: 0.35; stroke-width: 0.8; stroke-linecap: square"/>
     </g>
     <g id="line2d_6">
      <g>
       <use xlink:href="#mdec8589f5c" x="161.762624" y="320.490147" style="stroke: #000000; stroke-width: 0.8"/>
      </g>
     </g>
     <g id="text_3">
      <!-- Jun 2025 -->
      <g transform="translate(128.064016 355.93629) rotate(-35) scale(0.09 -0.09)">
       <defs>
        <path id="DejaVuSans-4a" d="M 628 4666 
L 1259 4666 
L 1259 325 
Q 1259 -519 939 -900 
Q 619 -1281 -91 -1281 
L -331 -1281 
L -331 -750 
L -134 -750 
Q 284 -750 456 -515 
Q 628 -281 628 325 
L 628 4666 
z
" transform="scale(0.015625)"/>
        <path id="DejaVuSans-75" d="M 544 1381 
L 544 3500 
L 1119 3500 
L 1119 1403 
Q 1119 906 1312 657 
Q 1506 409 1894 409 
Q 2359 409 2629 706 
Q 2900 1003 2900 1516 
L 2900 3500 
L 3475 3500 
L 3475 0 
L 2900 0 
L 2900 538 
Q 2691 219 2414 64 
Q 2138 -91 1772 -91 
Q 1169 -91 856 284 
Q 544 659 544 1381 
z
M 1991 3584 
L 1991 3584 
z
" transform="scale(0.015625)"/>
        <path id="DejaVuSans-6e" d="M 3513 2113 
L 3513 0 
L 2938 0 
L 2938 2094 
Q 2938 2591 2744 2837 
Q 2550 3084 2163 3084 
Q 1697 3084 1428 2787 
Q 1159 2491 1159 1978 
L 1159 0 
L 581 0 
L 581 3500 
L 1159 3500 
L 1159 2956 
Q 1366 3272 1645 3428 
Q 1925 3584 2291 3584 
Q 2894 3584 3203 3211 
Q 3513 2838 3513 2113 
z
" transform="scale(0.015625)"/>
       </defs>
       <use xlink:href="#DejaVuSans-4a"/>
       <use xlink:href="#DejaVuSans-75" transform="translate(29.492188 0)"/>
       <use xlink:href="#DejaVuSans-6e" transform="translate(92.871094 0)"/>
       <use xlink:href="#DejaVuSans-20" transform="translate(156.25 0)"/>
       <use xlink:href="#DejaVuSans-32" transform="translate(188.037109 0)"/>
       <use xlink:href="#DejaVuSans-30" transform="translate(251.660156 0)"/>
       <use xlink:href="#DejaVuSans-32" transform="translate(315.283203 0)"/>
       <use xlink:href="#DejaVuSans-35" transform="translate(378.90625 0)"/>
      </g>
     </g>
    </g>
    <g id="xtick_4">
     <g id="line2d_7">
      <path d="M 202.284196 320.490147 
L 202.284196 60 
" clip-path="url(#p64ab804828)" style="fill: none; stroke: #cccccc; stroke-opacity: 0.35; stroke-width: 0.8; stroke-linecap: square"/>
     </g>
     <g id="line2d_8">
      <g>
       <use xlink:href="#mdec8589f5c" x="202.284196" y="320.490147" style="stroke: #000000; stroke-width: 0.8"/>
      </g>
     </g>
     <g id="text_4">
      <!-- Jul 2025 -->
      <g transform="translate(171.20969 354.098874) rotate(-35) scale(0.09 -0.09)">
       <defs>
        <path id="DejaVuSans-6c" d="M 603 4863 
L 1178 4863 
L 1178 0 
L 603 0 
L 603 4863 
z
" transform="scale(0.015625)"/>
       </defs>
       <use xlink:href="#DejaVuSans-4a"/>
       <use xlink:href="#DejaVuSans-75" transform="translate(29.492188 0)"/>
       <use xlink:href="#DejaVuSans-6c" transform="translate(92.871094 0)"/>
       <use xlink:href="#DejaVuSans-20" transform="translate(120.654297 0)"/>
       <use xlink:href="#DejaVuSans-32" transform="translate(152.441406 0)"/>
       <use xlink:href="#DejaVuSans-30" transform="translate(216.064453 0)"/>
       <use xlink:href="#DejaVuSans-32" transform="translate(279.6875 0)"/>
       <use xlink:href="#DejaVuSans-35" transform="translate(343.310547 0)"/>
      </g>
     </g>
    </g>
    <g id="xtick_5">
     <g id="line2d_9">
      <path d="M 242.805768 320.490147 
L 242.805768 60 
" clip-path="url(#p64ab804828)" style="fill: none; stroke: #cccccc; stroke-opacity: 0.35; stroke-width: 0.8; stroke-linecap: square"/>
     </g>
     <g id="line2d_10">
      <g>
       <use xlink:href="#mdec8589f5c" x="242.805768" y="320.490147" style="stroke: #000000; stroke-width: 0.8"/>
      </g>
     </g>
     <g id="text_5">
      <!-- Aug 2025 -->
      <g transform="translate(206.230784 357.95035) rotate(-35) scale(0.09 -0.09)">
       <defs>
        <path id="DejaVuSans-41" d="M 2188 4044 
L 1331 1722 
L 3047 1722 
L 2188 4044 
z
M 1831 4666 
L 2547 4666 
L 4325 0 
L 3669 0 
L 3244 1197 
L 1141 1197 
L 716 0 
L 50 0 
L 1831 4666 
z
" transform="scale(0.015625)"/>
        <path id="DejaVuSans-67" d="M 2906 1791 
Q 2906 2416 2648 2759 
Q 2391 3103 1925 3103 
Q 1463 3103 1205 2759 
Q 947 2416 947 1791 
Q 947 1169 1205 825 
Q 1463 481 1925 481 
Q 2391 481 2648 825 
Q 2906 1169 2906 1791 
z
M 3481 434 
Q 3481 -459 3084 -895 
Q 2688 -1331 1869 -1331 
Q 1566 -1331 1297 -1286 
Q 1028 -1241 775 -1147 
L 775 -588 
Q 1028 -725 1275 -790 
Q 1522 -856 1778 -856 
Q 2344 -856 2625 -561 
Q 2906 -266 2906 331 
L 2906 616 
Q 2728 306 2450 153 
Q 2172 0 1784 0 
Q 1141 0 747 490 
Q 353 981 353 1791 
Q 353 2603 747 3093 
Q 1141 3584 1784 3584 
Q 2172 3584 2450 3431 
Q 2728 3278 2906 2969 
L 2906 3500 
L 3481 3500 
L 3481 434 
z
" transform="scale(0.015625)"/>
       </defs>
       <use xlink:href="#DejaVuSans-41"/>
       <use xlink:href="#DejaVuSans-75" transform="translate(68.408203 0)"/>
       <use xlink:href="#DejaVuSans-67" transform="translate(131.787109 0)"/>
       <use xlink:href="#DejaVuSans-20" transform="translate(195.263672 0)"/>
       <use xlink:href="#DejaVuSans-32" transform="translate(227.050781 0)"/>
       <use xlink:href="#DejaVuSans-30" transform="translate(290.673828 0)"/>
       <use xlink:href="#DejaVuSans-32" transform="translate(354.296875 0)"/>
       <use xlink:href="#DejaVuSans-35" transform="translate(417.919922 0)"/>
      </g>
     </g>
    </g>
    <g id="xtick_6">
     <g id="line2d_11">
      <path d="M 283.327339 320.490147 
L 283.327339 60 
" clip-path="url(#p64ab804828)" style="fill: none; stroke: #cccccc; stroke-opacity: 0.35; stroke-width: 0.8; stroke-linecap: square"/>
     </g>
     <g id="line2d_12">
      <g>
       <use xlink:href="#mdec8589f5c" x="283.327339" y="320.490147" style="stroke: #000000; stroke-width: 0.8"/>
      </g>
     </g>
     <g id="text_6">
      <!-- Sep 2025 -->
      <g transform="translate(247.251143 357.601096) rotate(-35) scale(0.09 -0.09)">
       <defs>
        <path id="DejaVuSans-53" d="M 3425 4513 
L 3425 3897 
Q 3066 4069 2747 4153 
Q 2428 4238 2131 4238 
Q 1616 4238 1336 4038 
Q 1056 3838 1056 3469 
Q 1056 3159 1242 3001 
Q 1428 2844 1947 2747 
L 2328 2669 
Q 3034 2534 3370 2195 
Q 3706 1856 3706 1288 
Q 3706 609 3251 259 
Q 2797 -91 1919 -91 
Q 1588 -91 1214 -16 
Q 841 59 441 206 
L 441 856 
Q 825 641 1194 531 
Q 1563 422 1919 422 
Q 2459 422 2753 634 
Q 3047 847 3047 1241 
Q 3047 1584 2836 1778 
Q 2625 1972 2144 2069 
L 1759 2144 
Q 1053 2284 737 2584 
Q 422 2884 422 3419 
Q 422 4038 858 4394 
Q 1294 4750 2059 4750 
Q 2388 4750 2728 4690 
Q 3069 4631 3425 4513 
z
" transform="scale(0.015625)"/>
        <path id="DejaVuSans-65" d="M 3597 1894 
L 3597 1613 
L 953 1613 
Q 991 1019 1311 708 
Q 1631 397 2203 397 
Q 2534 397 2845 478 
Q 3156 559 3463 722 
L 3463 178 
Q 3153 47 2828 -22 
Q 2503 -91 2169 -91 
Q 1331 -91 842 396 
Q 353 884 353 1716 
Q 353 2575 817 3079 
Q 1281 3584 2069 3584 
Q 2775 3584 3186 3129 
Q 3597 2675 3597 1894 
z
M 3022 2063 
Q 3016 2534 2758 2815 
Q 2500 3097 2075 3097 
Q 1594 3097 1305 2825 
Q 1016 2553 972 2059 
L 3022 2063 
z
" transform="scale(0.015625)"/>
        <path id="DejaVuSans-70" d="M 1159 525 
L 1159 -1331 
L 581 -1331 
L 581 3500 
L 1159 3500 
L 1159 2969 
Q 1341 3281 1617 3432 
Q 1894 3584 2278 3584 
Q 2916 3584 3314 3078 
Q 3713 2572 3713 1747 
Q 3713 922 3314 415 
Q 2916 -91 2278 -91 
Q 1894 -91 1617 61 
Q 1341 213 1159 525 
z
M 3116 1747 
Q 3116 2381 2855 2742 
Q 2594 3103 2138 3103 
Q 1681 3103 1420 2742 
Q 1159 2381 1159 1747 
Q 1159 1113 1420 752 
Q 1681 391 2138 391 
Q 2594 391 2855 752 
Q 3116 1113 3116 1747 
z
" transform="scale(0.015625)"/>
       </defs>
       <use xlink:href="#DejaVuSans-53"/>
       <use xlink:href="#DejaVuSans-65" transform="translate(63.476562 0)"/>
       <use xlink:href="#DejaVuSans-70" transform="translate(125 0)"/>
       <use xlink:href="#DejaVuSans-20" transform="translate(188.476562 0)"/>
       <use xlink:href="#DejaVuSans-32" transform="translate(220.263672 0)"/>
       <use xlink:href="#DejaVuSans-30" transform="translate(283.886719 0)"/>
       <use xlink:href="#DejaVuSans-32" transform="translate(347.509766 0)"/>
       <use xlink:href="#DejaVuSans-35" transform="translate(411.132812 0)"/>
      </g>
     </g>
    </g>
    <g id="xtick_7">
     <g id="line2d_13">
      <path d="M 323.848911 320.490147 
L 323.848911 60 
" clip-path="url(#p64ab804828)" style="fill: none; stroke: #cccccc; stroke-opacity: 0.35; stroke-width: 0.8; stroke-linecap: square"/>
     </g>
     <g id="line2d_14">
      <g>
       <use xlink:href="#mdec8589f5c" x="323.848911" y="320.490147" style="stroke: #000000; stroke-width: 0.8"/>
      </g>
     </g>
     <g id="text_7">
      <!-- Oct 2025 -->
      <g transform="translate(288.922343 356.796117) rotate(-35) scale(0.09 -0.09)">
       <defs>
        <path id="DejaVuSans-4f" d="M 2522 4238 
Q 1834 4238 1429 3725 
Q 1025 3213 1025 2328 
Q 1025 1447 1429 934 
Q 1834 422 2522 422 
Q 3209 422 3611 934 
Q 4013 1447 4013 2328 
Q 4013 3213 3611 3725 
Q 3209 4238 2522 4238 
z
M 2522 4750 
Q 3503 4750 4090 4092 
Q 4678 3434 4678 2328 
Q 4678 1225 4090 567 
Q 3503 -91 2522 -91 
Q 1538 -91 948 565 
Q 359 1222 359 2328 
Q 359 3434 948 4092 
Q 1538 4750 2522 4750 
z
" transform="scale(0.015625)"/>
        <path id="DejaVuSans-63" d="M 3122 3366 
L 3122 2828 
Q 2878 2963 2633 3030 
Q 2388 3097 2138 3097 
Q 1578 3097 1268 2742 
Q 959 2388 959 1747 
Q 959 1106 1268 751 
Q 1578 397 2138 397 
Q 2388 397 2633 464 
Q 2878 531 3122 666 
L 3122 134 
Q 2881 22 2623 -34 
Q 2366 -91 2075 -91 
Q 1284 -91 818 406 
Q 353 903 353 1747 
Q 353 2603 823 3093 
Q 1294 3584 2113 3584 
Q 2378 3584 2631 3529 
Q 2884 3475 3122 3366 
z
" transform="scale(0.015625)"/>
        <path id="DejaVuSans-74" d="M 1172 4494 
L 1172 3500 
L 2356 3500 
L 2356 3053 
L 1172 3053 
L 1172 1153 
Q 1172 725 1289 603 
Q 1406 481 1766 481 
L 2356 481 
L 2356 0 
L 1766 0 
Q 1100 0 847 248 
Q 594 497 594 1153 
L 594 3053 
L 172 3053 
L 172 3500 
L 594 3500 
L 594 4494 
L 1172 4494 
z
" transform="scale(0.015625)"/>
       </defs>
       <use xlink:href="#DejaVuSans-4f"/>
       <use xlink:href="#DejaVuSans-63" transform="translate(78.710938 0)"/>
       <use xlink:href="#DejaVuSans-74" transform="translate(133.691406 0)"/>
       <use xlink:href="#DejaVuSans-20" transform="translate(172.900391 0)"/>
       <use xlink:href="#DejaVuSans-32" transform="translate(204.6875 0)"/>
       <use xlink:href="#DejaVuSans-30" transform="translate(268.310547 0)"/>
       <use xlink:href="#DejaVuSans-32" transform="translate(331.933594 0)"/>
       <use xlink:href="#DejaVuSans-35" transform="translate(395.556641 0)"/>
      </g>
     </g>
    </g>
    <g id="xtick_8">
     <g id="line2d_15">
      <path d="M 364.370482 320.490147 
L 364.370482 60 
" clip-path="url(#p64ab804828)" style="fill: none; stroke: #cccccc; stroke-opacity: 0.35; stroke-width: 0.8; stroke-linecap: square"/>
     </g>
     <g id="line2d_16">
      <g>
       <use xlink:href="#mdec8589f5c" x="364.370482" y="320.490147" style="stroke: #000000; stroke-width: 0.8"/>
      </g>
     </g>
     <g id="text_8">
      <!-- Nov 2025 -->
      <g transform="translate(327.801259 357.946317) rotate(-35) scale(0.09 -0.09)">
       <defs>
        <path id="DejaVuSans-4e" d="M 628 4666 
L 1478 4666 
L 3547 763 
L 3547 4666 
L 4159 4666 
L 4159 0 
L 3309 0 
L 1241 3903 
L 1241 0 
L 628 0 
L 628 4666 
z
" transform="scale(0.015625)"/>
        <path id="DejaVuSans-6f" d="M 1959 3097 
Q 1497 3097 1228 2736 
Q 959 2375 959 1747 
Q 959 1119 1226 758 
Q 1494 397 1959 397 
Q 2419 397 2687 759 
Q 2956 1122 2956 1747 
Q 2956 2369 2687 2733 
Q 2419 3097 1959 3097 
z
M 1959 3584 
Q 2709 3584 3137 3096 
Q 3566 2609 3566 1747 
Q 3566 888 3137 398 
Q 2709 -91 1959 -91 
Q 1206 -91 779 398 
Q 353 888 353 1747 
Q 353 2609 779 3096 
Q 1206 3584 1959 3584 
z
" transform="scale(0.015625)"/>
        <path id="DejaVuSans-76" d="M 191 3500 
L 800 3500 
L 1894 563 
L 2988 3500 
L 3597 3500 
L 2284 0 
L 1503 0 
L 191 3500 
z
" transform="scale(0.015625)"/>
       </defs>
       <use xlink:href="#DejaVuSans-4e"/>
       <use xlink:href="#DejaVuSans-6f" transform="translate(74.804688 0)"/>
       <use xlink:href="#DejaVuSans-76" transform="translate(135.986328 0)"/>
       <use xlink:href="#DejaVuSans-20" transform="translate(195.166016 0)"/>
       <use xlink:href="#DejaVuSans-32" transform="translate(226.953125 0)"/>
       <use xlink:href="#DejaVuSans-30" transform="translate(290.576172 0)"/>
       <use xlink:href="#DejaVuSans-32" transform="translate(354.199219 0)"/>
       <use xlink:href="#DejaVuSans-35" transform="translate(417.822266 0)"/>
      </g>
     </g>
    </g>
    <g id="xtick_9">
     <g id="line2d_17">
      <path d="M 404.892054 320.490147 
L 404.892054 60 
" clip-path="url(#p64ab804828)" style="fill: none; stroke: #cccccc; stroke-opacity: 0.35; stroke-width: 0.8; stroke-linecap: square"/>
     </g>
     <g id="line2d_18">
      <g>
       <use xlink:href="#mdec8589f5c" x="404.892054" y="320.490147" style="stroke: #000000; stroke-width: 0.8"/>
      </g>
     </g>
     <g id="text_9">
      <!-- Dec 2025 -->
      <g transform="translate(368.446087 357.860012) rotate(-35) scale(0.09 -0.09)">
       <defs>
        <path id="DejaVuSans-44" d="M 1259 4147 
L 1259 519 
L 2022 519 
Q 2988 519 3436 956 
Q 3884 1394 3884 2338 
Q 3884 3275 3436 3711 
Q 2988 4147 2022 4147 
L 1259 4147 
z
M 628 4666 
L 1925 4666 
Q 3281 4666 3915 4102 
Q 4550 3538 4550 2338 
Q 4550 1131 3912 565 
Q 3275 0 1925 0 
L 628 0 
L 628 4666 
z
" transform="scale(0.015625)"/>
       </defs>
       <use xlink:href="#DejaVuSans-44"/>
       <use xlink:href="#DejaVuSans-65" transform="translate(77.001953 0)"/>
       <use xlink:href="#DejaVuSans-63" transform="translate(138.525391 0)"/>
       <use xlink:href="#DejaVuSans-20" transform="translate(193.505859 0)"/>
       <use xlink:href="#DejaVuSans-32" transform="translate(225.292969 0)"/>
       <use xlink:href="#DejaVuSans-30" transform="translate(288.916016 0)"/>
       <use xlink:href="#DejaVuSans-32" transform="translate(352.539062 0)"/>
       <use xlink:href="#DejaVuSans-35" transform="translate(416.162109 0)"/>
      </g>
     </g>
    </g>
    <g id="xtick_10">
     <g id="line2d_19">
      <path d="M 445.413626 320.490147 
L 445.413626 60 
" clip-path="url(#p64ab804828)" style="fill: none; stroke: #cccccc; stroke-opacity: 0.35; stroke-width: 0.8; stroke-linecap: square"/>
     </g>
     <g id="line2d_20">
      <g>
       <use xlink:href="#mdec8589f5c" x="445.413626" y="320.490147" style="stroke: #000000; stroke-width: 0.8"/>
      </g>
     </g>
     <g id="text_10">
      <!-- Jan 2026 -->
      <g transform="translate(411.869377 355.828207) rotate(-35) scale(0.09 -0.09)">
       <defs>
        <path id="DejaVuSans-36" d="M 2113 2584 
Q 1688 2584 1439 2293 
Q 1191 2003 1191 1497 
Q 1191 994 1439 701 
Q 1688 409 2113 409 
Q 2538 409 2786 701 
Q 3034 994 3034 1497 
Q 3034 2003 2786 2293 
Q 2538 2584 2113 2584 
z
M 3366 4563 
L 3366 3988 
Q 3128 4100 2886 4159 
Q 2644 4219 2406 4219 
Q 1781 4219 1451 3797 
Q 1122 3375 1075 2522 
Q 1259 2794 1537 2939 
Q 1816 3084 2150 3084 
Q 2853 3084 3261 2657 
Q 3669 2231 3669 1497 
Q 3669 778 3244 343 
Q 2819 -91 2113 -91 
Q 1303 -91 875 529 
Q 447 1150 447 2328 
Q 447 3434 972 4092 
Q 1497 4750 2381 4750 
Q 2619 4750 2861 4703 
Q 3103 4656 3366 4563 
z
" transform="scale(0.015625)"/>
       </defs>
       <use xlink:href="#DejaVuSans-4a"/>
       <use xlink:href="#DejaVuSans-61" transform="translate(29.492188 0)"/>
       <use xlink:href="#DejaVuSans-6e" transform="translate(90.771484 0)"/>
       <use xlink:href="#DejaVuSans-20" transform="translate(154.150391 0)"/>
       <use xlink:href="#DejaVuSans-32" transform="translate(185.9375 0)"/>
       <use xlink:href="#DejaVuSans-30" transform="translate(249.560547 0)"/>
       <use xlink:href="#DejaVuSans-32" transform="translate(313.183594 0)"/>
       <use xlink:href="#DejaVuSans-36" transform="translate(376.806641 0)"/>
      </g>
     </g>
    </g>
    <g id="xtick_11">
     <g id="line2d_21">
      <path d="M 485.935197 320.490147 
L 485.935197 60 
" clip-path="url(#p64ab804828)" style="fill: none; stroke: #cccccc; stroke-opacity: 0.35; stroke-width: 0.8; stroke-linecap: square"/>
     </g>
     <g id="line2d_22">
      <g>
       <use xlink:href="#mdec8589f5c" x="485.935197" y="320.490147" style="stroke: #000000; stroke-width: 0.8"/>
      </g>
     </g>
     <g id="text_11">
      <!-- Feb 2026 -->
      <g transform="translate(450.704519 357.009057) rotate(-35) scale(0.09 -0.09)">
       <defs>
        <path id="DejaVuSans-46" d="M 628 4666 
L 3309 4666 
L 3309 4134 
L 1259 4134 
L 1259 2759 
L 3109 2759 
L 3109 2228 
L 1259 2228 
L 1259 0 
L 628 0 
L 628 4666 
z
" transform="scale(0.015625)"/>
        <path id="DejaVuSans-62" d="M 3116 1747 
Q 3116 2381 2855 2742 
Q 2594 3103 2138 3103 
Q 1681 3103 1420 2742 
Q 1159 2381 1159 1747 
Q 1159 1113 1420 752 
Q 1681 391 2138 391 
Q 2594 391 2855 752 
Q 3116 1113 3116 1747 
z
M 1159 2969 
Q 1341 3281 1617 3432 
Q 1894 3584 2278 3584 
Q 2916 3584 3314 3078 
Q 3713 2572 3713 1747 
Q 3713 922 3314 415 
Q 2916 -91 2278 -91 
Q 1894 -91 1617 61 
Q 1341 213 1159 525 
L 1159 0 
L 581 0 
L 581 4863 
L 1159 4863 
L 1159 2969 
z
" transform="scale(0.015625)"/>
       </defs>
       <use xlink:href="#DejaVuSans-46"/>
       <use xlink:href="#DejaVuSans-65" transform="translate(52.019531 0)"/>
       <use xlink:href="#DejaVuSans-62" transform="translate(113.542969 0)"/>
       <use xlink:href="#DejaVuSans-20" transform="translate(177.019531 0)"/>
       <use xlink:href="#DejaVuSans-32" transform="translate(208.806641 0)"/>
       <use xlink:href="#DejaVuSans-30" transform="translate(272.429688 0)"/>
       <use xlink:href="#DejaVuSans-32" transform="translate(336.052734 0)"/>
       <use xlink:href="#DejaVuSans-36" transform="translate(399.675781 0)"/>
      </g>
     </g>
    </g>
    <g id="xtick_12">
     <g id="line2d_23">
      <path d="M 526.456769 320.490147 
L 526.456769 60 
" clip-path="url(#p64ab804828)" style="fill: none; stroke: #cccccc; stroke-opacity: 0.35; stroke-width: 0.8; stroke-linecap: square"/>
     </g>
     <g id="line2d_24">
      <g>
       <use xlink:href="#mdec8589f5c" x="526.456769" y="320.490147" style="stroke: #000000; stroke-width: 0.8"/>
      </g>
     </g>
     <g id="text_12">
      <!-- Mar 2026 -->
      <g transform="translate(490.367901 357.609968) rotate(-35) scale(0.09 -0.09)">
       <use xlink:href="#DejaVuSans-4d"/>
       <use xlink:href="#DejaVuSans-61" transform="translate(86.279297 0)"/>
       <use xlink:href="#DejaVuSans-72" transform="translate(147.558594 0)"/>
       <use xlink:href="#DejaVuSans-20" transform="translate(188.671875 0)"/>
       <use xlink:href="#DejaVuSans-32" transform="translate(220.458984 0)"/>
       <use xlink:href="#DejaVuSans-30" transform="translate(284.082031 0)"/>
       <use xlink:href="#DejaVuSans-32" transform="translate(347.705078 0)"/>
       <use xlink:href="#DejaVuSans-36" transform="translate(411.328125 0)"/>
      </g>
     </g>
    </g>
   </g>
   <g id="matplotlib.axis_2">
    <g id="ytick_1">
     <g id="line2d_25">
      <path d="M 40.603125 320.490147 
L 566.573125 320.490147 
" clip-path="url(#p64ab804828)" style="fill: none; stroke: #cccccc; stroke-opacity: 0.35; stroke-width: 0.8; stroke-linecap: square"/>
     </g>
     <g id="line2d_26">
      <defs>
       <path id="m2ea86cadbd" d="M 0 0 
L -3.5 0 
" style="stroke: #000000; stroke-width: 0.8"/>
      </defs>
      <g>
       <use xlink:href="#m2ea86cadbd" x="40.603125" y="320.490147" style="stroke: #000000; stroke-width: 0.8"/>
      </g>
     </g>
     <g id="text_13">
      <!-- 0 -->
      <g transform="translate(27.240625 324.289366) scale(0.1 -0.1)">
       <use xlink:href="#DejaVuSans-30"/>
      </g>
     </g>
    </g>
    <g id="ytick_2">
     <g id="line2d_27">
      <path d="M 40.603125 272.308781 
L 566.573125 272.308781 
" clip-path="url(#p64ab804828)" style="fill: none; stroke: #cccccc; stroke-opacity: 0.35; stroke-width: 0.8; stroke-linecap: square"/>
     </g>
     <g id="line2d_28">
      <g>
       <use xlink:href="#m2ea86cadbd" x="40.603125" y="272.308781" style="stroke: #000000; stroke-width: 0.8"/>
      </g>
     </g>
     <g id="text_14">
      <!-- 10 -->
      <g transform="translate(20.878125 276.108) scale(0.1 -0.1)">
       <defs>
        <path id="DejaVuSans-31" d="M 794 531 
L 1825 531 
L 1825 4091 
L 703 3866 
L 703 4441 
L 1819 4666 
L 2450 4666 
L 2450 531 
L 3481 531 
L 3481 0 
L 794 0 
L 794 531 
z
" transform="scale(0.015625)"/>
       </defs>
       <use xlink:href="#DejaVuSans-31"/>
       <use xlink:href="#DejaVuSans-30" transform="translate(63.623047 0)"/>
      </g>
     </g>
    </g>
    <g id="ytick_3">
     <g id="line2d_29">
      <path d="M 40.603125 224.127415 
L 566.573125 224.127415 
" clip-path="url(#p64ab804828)" style="fill: none; stroke: #cccccc; stroke-opacity: 0.35; stroke-width: 0.8; stroke-linecap: square"/>
     </g>
     <g id="line2d_30">
      <g>
       <use xlink:href="#m2ea86cadbd" x="40.603125" y="224.127415" style="stroke: #000000; stroke-width: 0.8"/>
      </g>
     </g>
     <g id="text_15">
      <!-- 20 -->
      <g transform="translate(20.878125 227.926634) scale(0.1 -0.1)">
       <use xlink:href="#DejaVuSans-32"/>
       <use xlink:href="#DejaVuSans-30" transform="translate(63.623047 0)"/>
      </g>
     </g>
    </g>
    <g id="ytick_4">
     <g id="line2d_31">
      <path d="M 40.603125 175.946049 
L 566.573125 175.946049 
" clip-path="url(#p64ab804828)" style="fill: none; stroke: #cccccc; stroke-opacity: 0.35; stroke-width: 0.8; stroke-linecap: square"/>
     </g>
     <g id="line2d_32">
      <g>
       <use xlink:href="#m2ea86cadbd" x="40.603125" y="175.946049" style="stroke: #000000; stroke-width: 0.8"/>
      </g>
     </g>
     <g id="text_16">
      <!-- 30 -->
      <g transform="translate(20.878125 179.745267) scale(0.1 -0.1)">
       <defs>
        <path id="DejaVuSans-33" d="M 2597 2516 
Q 3050 2419 3304 2112 
Q 3559 1806 3559 1356 
Q 3559 666 3084 287 
Q 2609 -91 1734 -91 
Q 1441 -91 1130 -33 
Q 819 25 488 141 
L 488 750 
Q 750 597 1062 519 
Q 1375 441 1716 441 
Q 2309 441 2620 675 
Q 2931 909 2931 1356 
Q 2931 1769 2642 2001 
Q 2353 2234 1838 2234 
L 1294 2234 
L 1294 2753 
L 1863 2753 
Q 2328 2753 2575 2939 
Q 2822 3125 2822 3475 
Q 2822 3834 2567 4026 
Q 2313 4219 1838 4219 
Q 1578 4219 1281 4162 
Q 984 4106 628 3988 
L 628 4550 
Q 988 4650 1302 4700 
Q 1616 4750 1894 4750 
Q 2613 4750 3031 4423 
Q 3450 4097 3450 3541 
Q 3450 3153 3228 2886 
Q 3006 2619 2597 2516 
z
" transform="scale(0.015625)"/>
       </defs>
       <use xlink:href="#DejaVuSans-33"/>
       <use xlink:href="#DejaVuSans-30" transform="translate(63.623047 0)"/>
      </g>
     </g>
    </g>
    <g id="ytick_5">
     <g id="line2d_33">
      <path d="M 40.603125 127.764682 
L 566.573125 127.764682 
" clip-path="url(#p64ab804828)" style="fill: none; stroke: #cccccc; stroke-opacity: 0.35; stroke-width: 0.8; stroke-linecap: square"/>
     </g>
     <g id="line2d_34">
      <g>
       <use xlink:href="#m2ea86cadbd" x="40.603125" y="127.764682" style="stroke: #000000; stroke-width: 0.8"/>
      </g>
     </g>
     <g id="text_17">
      <!-- 40 -->
      <g transform="translate(20.878125 131.563901) scale(0.1 -0.1)">
       <defs>
        <path id="DejaVuSans-34" d="M 2419 4116 
L 825 1625 
L 2419 1625 
L 2419 4116 
z
M 2253 4666 
L 3047 4666 
L 3047 1625 
L 3713 1625 
L 3713 1100 
L 3047 1100 
L 3047 0 
L 2419 0 
L 2419 1100 
L 313 1100 
L 313 1709 
L 2253 4666 
z
" transform="scale(0.015625)"/>
       </defs>
       <use xlink:href="#DejaVuSans-34"/>
       <use xlink:href="#DejaVuSans-30" transform="translate(63.623047 0)"/>
      </g>
     </g>
    </g>
    <g id="ytick_6">
     <g id="line2d_35">
      <path d="M 40.603125 79.583316 
L 566.573125 79.583316 
" clip-path="url(#p64ab804828)" style="fill: none; stroke: #cccccc; stroke-opacity: 0.35; stroke-width: 0.8; stroke-linecap: square"/>
     </g>
     <g id="line2d_36">
      <g>
       <use xlink:href="#m2ea86cadbd" x="40.603125" y="79.583316" style="stroke: #000000; stroke-width: 0.8"/>
      </g>
     </g>
     <g id="text_18">
      <!-- 50 -->
      <g transform="translate(20.878125 83.382535) scale(0.1 -0.1)">
       <use xlink:href="#DejaVuSans-35"/>
       <use xlink:href="#DejaVuSans-30" transform="translate(63.623047 0)"/>
      </g>
     </g>
    </g>
    <g id="text_19">
     <!-- Total kWh -->
     <g transform="translate(14.798438 214.518511) rotate(-90) scale(0.1 -0.1)">
      <defs>
       <path id="DejaVuSans-54" d="M -19 4666 
L 3928 4666 
L 3928 4134 
L 2272 4134 
L 2272 0 
L 1638 0 
L 1638 4134 
L -19 4134 
L -19 4666 
z
" transform="scale(0.015625)"/>
       <path id="DejaVuSans-6b" d="M 581 4863 
L 1159 4863 
L 1159 1991 
L 2875 3500 
L 3609 3500 
L 1753 1863 
L 3688 0 
L 2938 0 
L 1159 1709 
L 1159 0 
L 581 0 
L 581 4863 
z
" transform="scale(0.015625)"/>
       <path id="DejaVuSans-57" d="M 213 4666 
L 850 4666 
L 1831 722 
L 2809 4666 
L 3519 4666 
L 4500 722 
L 5478 4666 
L 6119 4666 
L 4947 0 
L 4153 0 
L 3169 4050 
L 2175 0 
L 1381 0 
L 213 4666 
z
" transform="scale(0.015625)"/>
       <path id="DejaVuSans-68" d="M 3513 2113 
L 3513 0 
L 2938 0 
L 2938 2094 
Q 2938 2591 2744 2837 
Q 2550 3084 2163 3084 
Q 1697 3084 1428 2787 
Q 1159 2491 1159 1978 
L 1159 0 
L 581 0 
L 581 4863 
L 1159 4863 
L 1159 2956 
Q 1366 3272 1645 3428 
Q 1925 3584 2291 3584 
Q 2894 3584 3203 3211 
Q 3513 2838 3513 2113 
z
" transform="scale(0.015625)"/>
      </defs>
      <use xlink:href="#DejaVuSans-54"/>
      <use xlink:href="#DejaVuSans-6f" transform="translate(44.083984 0)"/>
      <use xlink:href="#DejaVuSans-74" transform="translate(105.265625 0)"/>
      <use xlink:href="#DejaVuSans-61" transform="translate(144.474609 0)"/>
      <use xlink:href="#DejaVuSans-6c" transform="translate(205.753906 0)"/>
      <use xlink:href="#DejaVuSans-20" transform="translate(233.537109 0)"/>
      <use xlink:href="#DejaVuSans-6b" transform="translate(265.324219 0)"/>
      <use xlink:href="#DejaVuSans-57" transform="translate(323.234375 0)"/>
      <use xlink:href="#DejaVuSans-68" transform="translate(422.111328 0)"/>
     </g>
    </g>
   </g>
   <g id="patch_15">
    <path d="M 40.603125 320.490147 
L 40.603125 60 
" style="fill: none; stroke: #000000; stroke-width: 0.8; stroke-linejoin: miter; stroke-linecap: square"/>
   </g>
   <g id="patch_16">
    <path d="M 40.603125 320.490147 
L 566.573125 320.490147 
" style="fill: none; stroke: #000000; stroke-width: 0.8; stroke-linejoin: miter; stroke-linecap: square"/>
   </g>
   <g id="text_20">
    <!-- 25.6 -->
    <g transform="translate(71.813231 193.892115) scale(0.08 -0.08)">
     <defs>
      <path id="DejaVuSans-2e" d="M 684 794 
L 1344 794 
L 1344 0 
L 684 0 
L 684 794 
z
" transform="scale(0.015625)"/>
     </defs>
     <use xlink:href="#DejaVuSans-32"/>
     <use xlink:href="#DejaVuSans-35" transform="translate(63.623047 0)"/>
     <use xlink:href="#DejaVuSans-2e" transform="translate(127.246094 0)"/>
     <use xlink:href="#DejaVuSans-36" transform="translate(159.033203 0)"/>
    </g>
   </g>
   <g id="text_21">
    <!-- 46.0 -->
    <g transform="translate(112.334803 95.939397) scale(0.08 -0.08)">
     <use xlink:href="#DejaVuSans-34"/>
     <use xlink:href="#DejaVuSans-36" transform="translate(63.623047 0)"/>
     <use xlink:href="#DejaVuSans-2e" transform="translate(127.246094 0)"/>
     <use xlink:href="#DejaVuSans-30" transform="translate(159.033203 0)"/>
    </g>
   </g>
   <g id="text_22">
    <!-- 46.3 -->
    <g transform="translate(152.856374 94.108505) scale(0.08 -0.08)">
     <use xlink:href="#DejaVuSans-34"/>
     <use xlink:href="#DejaVuSans-36" transform="translate(63.623047 0)"/>
     <use xlink:href="#DejaVuSans-2e" transform="translate(127.246094 0)"/>
     <use xlink:href="#DejaVuSans-33" transform="translate(159.033203 0)"/>
    </g>
   </g>
   <g id="text_23">
    <!-- 48.6 -->
    <g transform="translate(193.377946 83.267698) scale(0.08 -0.08)">
     <defs>
      <path id="DejaVuSans-38" d="M 2034 2216 
Q 1584 2216 1326 1975 
Q 1069 1734 1069 1313 
Q 1069 891 1326 650 
Q 1584 409 2034 409 
Q 2484 409 2743 651 
Q 3003 894 3003 1313 
Q 3003 1734 2745 1975 
Q 2488 2216 2034 2216 
z
M 1403 2484 
Q 997 2584 770 2862 
Q 544 3141 544 3541 
Q 544 4100 942 4425 
Q 1341 4750 2034 4750 
Q 2731 4750 3128 4425 
Q 3525 4100 3525 3541 
Q 3525 3141 3298 2862 
Q 3072 2584 2669 2484 
Q 3125 2378 3379 2068 
Q 3634 1759 3634 1313 
Q 3634 634 3220 271 
Q 2806 -91 2034 -91 
Q 1263 -91 848 271 
Q 434 634 434 1313 
Q 434 1759 690 2068 
Q 947 2378 1403 2484 
z
M 1172 3481 
Q 1172 3119 1398 2916 
Q 1625 2713 2034 2713 
Q 2441 2713 2670 2916 
Q 2900 3119 2900 3481 
Q 2900 3844 2670 4047 
Q 2441 4250 2034 4250 
Q 1625 4250 1398 4047 
Q 1172 3844 1172 3481 
z
" transform="scale(0.015625)"/>
     </defs>
     <use xlink:href="#DejaVuSans-34"/>
     <use xlink:href="#DejaVuSans-38" transform="translate(63.623047 0)"/>
     <use xlink:href="#DejaVuSans-2e" transform="translate(127.246094 0)"/>
     <use xlink:href="#DejaVuSans-36" transform="translate(159.033203 0)"/>
    </g>
   </g>
   <g id="text_24">
    <!-- 47.7 -->
    <g transform="translate(233.899518 87.459477) scale(0.08 -0.08)">
     <defs>
      <path id="DejaVuSans-37" d="M 525 4666 
L 3525 4666 
L 3525 4397 
L 1831 0 
L 1172 0 
L 2766 4134 
L 525 4134 
L 525 4666 
z
" transform="scale(0.015625)"/>
     </defs>
     <use xlink:href="#DejaVuSans-34"/>
     <use xlink:href="#DejaVuSans-37" transform="translate(63.623047 0)"/>
     <use xlink:href="#DejaVuSans-2e" transform="translate(127.246094 0)"/>
     <use xlink:href="#DejaVuSans-37" transform="translate(159.033203 0)"/>
    </g>
   </g>
   <g id="text_25">
    <!-- 39.0 -->
    <g transform="translate(274.421089 129.473628) scale(0.08 -0.08)">
     <defs>
      <path id="DejaVuSans-39" d="M 703 97 
L 703 672 
Q 941 559 1184 500 
Q 1428 441 1663 441 
Q 2288 441 2617 861 
Q 2947 1281 2994 2138 
Q 2813 1869 2534 1725 
Q 2256 1581 1919 1581 
Q 1219 1581 811 2004 
Q 403 2428 403 3163 
Q 403 3881 828 4315 
Q 1253 4750 1959 4750 
Q 2769 4750 3195 4129 
Q 3622 3509 3622 2328 
Q 3622 1225 3098 567 
Q 2575 -91 1691 -91 
Q 1453 -91 1209 -44 
Q 966 3 703 97 
z
M 1959 2075 
Q 2384 2075 2632 2365 
Q 2881 2656 2881 3163 
Q 2881 3666 2632 3958 
Q 2384 4250 1959 4250 
Q 1534 4250 1286 3958 
Q 1038 3666 1038 3163 
Q 1038 2656 1286 2365 
Q 1534 2075 1959 2075 
z
" transform="scale(0.015625)"/>
     </defs>
     <use xlink:href="#DejaVuSans-33"/>
     <use xlink:href="#DejaVuSans-39" transform="translate(63.623047 0)"/>
     <use xlink:href="#DejaVuSans-2e" transform="translate(127.246094 0)"/>
     <use xlink:href="#DejaVuSans-30" transform="translate(159.033203 0)"/>
    </g>
   </g>
   <g id="text_26">
    <!-- 43.4 -->
    <g transform="translate(314.942661 108.225646) scale(0.08 -0.08)">
     <use xlink:href="#DejaVuSans-34"/>
     <use xlink:href="#DejaVuSans-33" transform="translate(63.623047 0)"/>
     <use xlink:href="#DejaVuSans-2e" transform="translate(127.246094 0)"/>
     <use xlink:href="#DejaVuSans-34" transform="translate(159.033203 0)"/>
    </g>
   </g>
   <g id="text_27">
    <!-- 33.2 -->
    <g transform="translate(355.464232 157.611546) scale(0.08 -0.08)">
     <use xlink:href="#DejaVuSans-33"/>
     <use xlink:href="#DejaVuSans-33" transform="translate(63.623047 0)"/>
     <use xlink:href="#DejaVuSans-2e" transform="translate(127.246094 0)"/>
     <use xlink:href="#DejaVuSans-32" transform="translate(159.033203 0)"/>
    </g>
   </g>
   <g id="text_28">
    <!-- 51.5 -->
    <g transform="translate(395.985804 69.295102) scale(0.08 -0.08)">
     <use xlink:href="#DejaVuSans-35"/>
     <use xlink:href="#DejaVuSans-31" transform="translate(63.623047 0)"/>
     <use xlink:href="#DejaVuSans-2e" transform="translate(127.246094 0)"/>
     <use xlink:href="#DejaVuSans-35" transform="translate(159.033203 0)"/>
    </g>
   </g>
   <g id="text_29">
    <!-- 48.5 -->
    <g transform="translate(436.507376 83.508605) scale(0.08 -0.08)">
     <use xlink:href="#DejaVuSans-34"/>
     <use xlink:href="#DejaVuSans-38" transform="translate(63.623047 0)"/>
     <use xlink:href="#DejaVuSans-2e" transform="translate(127.246094 0)"/>
     <use xlink:href="#DejaVuSans-35" transform="translate(159.033203 0)"/>
    </g>
   </g>
   <g id="text_30">
    <!-- 42.8 -->
    <g transform="translate(477.028947 111.21289) scale(0.08 -0.08)">
     <use xlink:href="#DejaVuSans-34"/>
     <use xlink:href="#DejaVuSans-32" transform="translate(63.623047 0)"/>
     <use xlink:href="#DejaVuSans-2e" transform="translate(127.246094 0)"/>
     <use xlink:href="#DejaVuSans-38" transform="translate(159.033203 0)"/>
    </g>
   </g>
   <g id="text_31">
    <!-- 21.5 -->
    <g transform="translate(517.550519 213.935563) scale(0.08 -0.08)">
     <use xlink:href="#DejaVuSans-32"/>
     <use xlink:href="#DejaVuSans-31" transform="translate(63.623047 0)"/>
     <use xlink:href="#DejaVuSans-2e" transform="translate(127.246094 0)"/>
     <use xlink:href="#DejaVuSans-35" transform="translate(159.033203 0)"/>
    </g>
   </g>
   <g id="text_32">
    <!-- Total PC Energy per Month -->
    <g transform="translate(213.606875 54) scale(0.12 -0.12)">
     <defs>
      <path id="DejaVuSans-Bold-54" d="M 31 4666 
L 4331 4666 
L 4331 3756 
L 2784 3756 
L 2784 0 
L 1581 0 
L 1581 3756 
L 31 3756 
L 31 4666 
z
" transform="scale(0.015625)"/>
      <path id="DejaVuSans-Bold-6f" d="M 2203 2784 
Q 1831 2784 1636 2517 
Q 1441 2250 1441 1747 
Q 1441 1244 1636 976 
Q 1831 709 2203 709 
Q 2569 709 2762 976 
Q 2956 1244 2956 1747 
Q 2956 2250 2762 2517 
Q 2569 2784 2203 2784 
z
M 2203 3584 
Q 3106 3584 3614 3096 
Q 4122 2609 4122 1747 
Q 4122 884 3614 396 
Q 3106 -91 2203 -91 
Q 1297 -91 786 396 
Q 275 884 275 1747 
Q 275 2609 786 3096 
Q 1297 3584 2203 3584 
z
" transform="scale(0.015625)"/>
      <path id="DejaVuSans-Bold-74" d="M 1759 4494 
L 1759 3500 
L 2913 3500 
L 2913 2700 
L 1759 2700 
L 1759 1216 
Q 1759 972 1856 886 
Q 1953 800 2241 800 
L 2816 800 
L 2816 0 
L 1856 0 
Q 1194 0 917 276 
Q 641 553 641 1216 
L 641 2700 
L 84 2700 
L 84 3500 
L 641 3500 
L 641 4494 
L 1759 4494 
z
" transform="scale(0.015625)"/>
      <path id="DejaVuSans-Bold-61" d="M 2106 1575 
Q 1756 1575 1579 1456 
Q 1403 1338 1403 1106 
Q 1403 894 1545 773 
Q 1688 653 1941 653 
Q 2256 653 2472 879 
Q 2688 1106 2688 1447 
L 2688 1575 
L 2106 1575 
z
M 3816 1997 
L 3816 0 
L 2688 0 
L 2688 519 
Q 2463 200 2181 54 
Q 1900 -91 1497 -91 
Q 953 -91 614 226 
Q 275 544 275 1050 
Q 275 1666 698 1953 
Q 1122 2241 2028 2241 
L 2688 2241 
L 2688 2328 
Q 2688 2594 2478 2717 
Q 2269 2841 1825 2841 
Q 1466 2841 1156 2769 
Q 847 2697 581 2553 
L 581 3406 
Q 941 3494 1303 3539 
Q 1666 3584 2028 3584 
Q 2975 3584 3395 3211 
Q 3816 2838 3816 1997 
z
" transform="scale(0.015625)"/>
      <path id="DejaVuSans-Bold-6c" d="M 538 4863 
L 1656 4863 
L 1656 0 
L 538 0 
L 538 4863 
z
" transform="scale(0.015625)"/>
      <path id="DejaVuSans-Bold-20" transform="scale(0.015625)"/>
      <path id="DejaVuSans-Bold-50" d="M 588 4666 
L 2584 4666 
Q 3475 4666 3951 4270 
Q 4428 3875 4428 3144 
Q 4428 2409 3951 2014 
Q 3475 1619 2584 1619 
L 1791 1619 
L 1791 0 
L 588 0 
L 588 4666 
z
M 1791 3794 
L 1791 2491 
L 2456 2491 
Q 2806 2491 2997 2661 
Q 3188 2831 3188 3144 
Q 3188 3456 2997 3625 
Q 2806 3794 2456 3794 
L 1791 3794 
z
" transform="scale(0.015625)"/>
      <path id="DejaVuSans-Bold-43" d="M 4288 256 
Q 3956 84 3597 -3 
Q 3238 -91 2847 -91 
Q 1681 -91 1000 561 
Q 319 1213 319 2328 
Q 319 3447 1000 4098 
Q 1681 4750 2847 4750 
Q 3238 4750 3597 4662 
Q 3956 4575 4288 4403 
L 4288 3438 
Q 3953 3666 3628 3772 
Q 3303 3878 2944 3878 
Q 2300 3878 1931 3465 
Q 1563 3053 1563 2328 
Q 1563 1606 1931 1193 
Q 2300 781 2944 781 
Q 3303 781 3628 887 
Q 3953 994 4288 1222 
L 4288 256 
z
" transform="scale(0.015625)"/>
      <path id="DejaVuSans-Bold-45" d="M 588 4666 
L 3834 4666 
L 3834 3756 
L 1791 3756 
L 1791 2888 
L 3713 2888 
L 3713 1978 
L 1791 1978 
L 1791 909 
L 3903 909 
L 3903 0 
L 588 0 
L 588 4666 
z
" transform="scale(0.015625)"/>
      <path id="DejaVuSans-Bold-6e" d="M 4056 2131 
L 4056 0 
L 2931 0 
L 2931 347 
L 2931 1631 
Q 2931 2084 2911 2256 
Q 2891 2428 2841 2509 
Q 2775 2619 2662 2680 
Q 2550 2741 2406 2741 
Q 2056 2741 1856 2470 
Q 1656 2200 1656 1722 
L 1656 0 
L 538 0 
L 538 3500 
L 1656 3500 
L 1656 2988 
Q 1909 3294 2193 3439 
Q 2478 3584 2822 3584 
Q 3428 3584 3742 3212 
Q 4056 2841 4056 2131 
z
" transform="scale(0.015625)"/>
      <path id="DejaVuSans-Bold-65" d="M 4031 1759 
L 4031 1441 
L 1416 1441 
Q 1456 1047 1700 850 
Q 1944 653 2381 653 
Q 2734 653 3104 758 
Q 3475 863 3866 1075 
L 3866 213 
Q 3469 63 3072 -14 
Q 2675 -91 2278 -91 
Q 1328 -91 801 392 
Q 275 875 275 1747 
Q 275 2603 792 3093 
Q 1309 3584 2216 3584 
Q 3041 3584 3536 3087 
Q 4031 2591 4031 1759 
z
M 2881 2131 
Q 2881 2450 2695 2645 
Q 2509 2841 2209 2841 
Q 1884 2841 1681 2658 
Q 1478 2475 1428 2131 
L 2881 2131 
z
" transform="scale(0.015625)"/>
      <path id="DejaVuSans-Bold-72" d="M 3138 2547 
Q 2991 2616 2845 2648 
Q 2700 2681 2553 2681 
Q 2122 2681 1889 2404 
Q 1656 2128 1656 1613 
L 1656 0 
L 538 0 
L 538 3500 
L 1656 3500 
L 1656 2925 
Q 1872 3269 2151 3426 
Q 2431 3584 2822 3584 
Q 2878 3584 2943 3579 
Q 3009 3575 3134 3559 
L 3138 2547 
z
" transform="scale(0.015625)"/>
      <path id="DejaVuSans-Bold-67" d="M 2919 594 
Q 2688 288 2409 144 
Q 2131 0 1766 0 
Q 1125 0 706 504 
Q 288 1009 288 1791 
Q 288 2575 706 3076 
Q 1125 3578 1766 3578 
Q 2131 3578 2409 3434 
Q 2688 3291 2919 2981 
L 2919 3500 
L 4044 3500 
L 4044 353 
Q 4044 -491 3511 -936 
Q 2978 -1381 1966 -1381 
Q 1638 -1381 1331 -1331 
Q 1025 -1281 716 -1178 
L 716 -306 
Q 1009 -475 1290 -558 
Q 1572 -641 1856 -641 
Q 2406 -641 2662 -400 
Q 2919 -159 2919 353 
L 2919 594 
z
M 2181 2772 
Q 1834 2772 1640 2515 
Q 1447 2259 1447 1791 
Q 1447 1309 1634 1061 
Q 1822 813 2181 813 
Q 2531 813 2725 1069 
Q 2919 1325 2919 1791 
Q 2919 2259 2725 2515 
Q 2531 2772 2181 2772 
z
" transform="scale(0.015625)"/>
      <path id="DejaVuSans-Bold-79" d="M 78 3500 
L 1197 3500 
L 2138 1125 
L 2938 3500 
L 4056 3500 
L 2584 -331 
Q 2363 -916 2067 -1148 
Q 1772 -1381 1288 -1381 
L 641 -1381 
L 641 -647 
L 991 -647 
Q 1275 -647 1404 -556 
Q 1534 -466 1606 -231 
L 1638 -134 
L 78 3500 
z
" transform="scale(0.015625)"/>
      <path id="DejaVuSans-Bold-70" d="M 1656 506 
L 1656 -1331 
L 538 -1331 
L 538 3500 
L 1656 3500 
L 1656 2988 
Q 1888 3294 2169 3439 
Q 2450 3584 2816 3584 
Q 3463 3584 3878 3070 
Q 4294 2556 4294 1747 
Q 4294 938 3878 423 
Q 3463 -91 2816 -91 
Q 2450 -91 2169 54 
Q 1888 200 1656 506 
z
M 2400 2772 
Q 2041 2772 1848 2508 
Q 1656 2244 1656 1747 
Q 1656 1250 1848 986 
Q 2041 722 2400 722 
Q 2759 722 2948 984 
Q 3138 1247 3138 1747 
Q 3138 2247 2948 2509 
Q 2759 2772 2400 2772 
z
" transform="scale(0.015625)"/>
      <path id="DejaVuSans-Bold-4d" d="M 588 4666 
L 2119 4666 
L 3181 2169 
L 4250 4666 
L 5778 4666 
L 5778 0 
L 4641 0 
L 4641 3413 
L 3566 897 
L 2803 897 
L 1728 3413 
L 1728 0 
L 588 0 
L 588 4666 
z
" transform="scale(0.015625)"/>
      <path id="DejaVuSans-Bold-68" d="M 4056 2131 
L 4056 0 
L 2931 0 
L 2931 347 
L 2931 1625 
Q 2931 2084 2911 2256 
Q 2891 2428 2841 2509 
Q 2775 2619 2662 2680 
Q 2550 2741 2406 2741 
Q 2056 2741 1856 2470 
Q 1656 2200 1656 1722 
L 1656 0 
L 538 0 
L 538 4863 
L 1656 4863 
L 1656 2988 
Q 1909 3294 2193 3439 
Q 2478 3584 2822 3584 
Q 3428 3584 3742 3212 
Q 4056 2841 4056 2131 
z
" transform="scale(0.015625)"/>
     </defs>
     <use xlink:href="#DejaVuSans-Bold-54"/>
     <use xlink:href="#DejaVuSans-Bold-6f" transform="translate(54.962891 0)"/>
     <use xlink:href="#DejaVuSans-Bold-74" transform="translate(123.664062 0)"/>
     <use xlink:href="#DejaVuSans-Bold-61" transform="translate(171.466797 0)"/>
     <use xlink:href="#DejaVuSans-Bold-6c" transform="translate(238.947266 0)"/>
     <use xlink:href="#DejaVuSans-Bold-20" transform="translate(273.224609 0)"/>
     <use xlink:href="#DejaVuSans-Bold-50" transform="translate(308.039062 0)"/>
     <use xlink:href="#DejaVuSans-Bold-43" transform="translate(381.330078 0)"/>
     <use xlink:href="#DejaVuSans-Bold-20" transform="translate(454.71875 0)"/>
     <use xlink:href="#DejaVuSans-Bold-45" transform="translate(489.533203 0)"/>
     <use xlink:href="#DejaVuSans-Bold-6e" transform="translate(557.84375 0)"/>
     <use xlink:href="#DejaVuSans-Bold-65" transform="translate(629.035156 0)"/>
     <use xlink:href="#DejaVuSans-Bold-72" transform="translate(696.857422 0)"/>
     <use xlink:href="#DejaVuSans-Bold-67" transform="translate(746.173828 0)"/>
     <use xlink:href="#DejaVuSans-Bold-79" transform="translate(817.755859 0)"/>
     <use xlink:href="#DejaVuSans-Bold-20" transform="translate(882.941406 0)"/>
     <use xlink:href="#DejaVuSans-Bold-70" transform="translate(917.755859 0)"/>
     <use xlink:href="#DejaVuSans-Bold-65" transform="translate(989.337891 0)"/>
     <use xlink:href="#DejaVuSans-Bold-72" transform="translate(1057.160156 0)"/>
     <use xlink:href="#DejaVuSans-Bold-20" transform="translate(1106.476562 0)"/>
     <use xlink:href="#DejaVuSans-Bold-4d" transform="translate(1141.291016 0)"/>
     <use xlink:href="#DejaVuSans-Bold-6f" transform="translate(1240.802734 0)"/>
     <use xlink:href="#DejaVuSans-Bold-6e" transform="translate(1309.503906 0)"/>
     <use xlink:href="#DejaVuSans-Bold-74" transform="translate(1380.695312 0)"/>
     <use xlink:href="#DejaVuSans-Bold-68" transform="translate(1428.498047 0)"/>
    </g>
   </g>
  </g>
  <g id="axes_2">
   <g id="patch_17">
    <path d="M 611.203125 320.490147 
L 1137.173125 320.490147 
L 1137.173125 60 
L 611.203125 60 
z
" style="fill: #f8f9fa"/>
   </g>
   <g id="patch_18">
    <path d="M 635.110852 320.490147 
L 652.072416 320.490147 
L 652.072416 211.111895 
L 635.110852 211.111895 
z
" clip-path="url(#pcc94acbbd7)" style="fill: #2196f3; opacity: 0.88; stroke: #ffffff; stroke-linejoin: miter"/>
   </g>
   <g id="patch_19">
    <path d="M 675.495527 320.490147 
L 692.45709 320.490147 
L 692.45709 120.544882 
L 675.495527 120.544882 
z
" clip-path="url(#pcc94acbbd7)" style="fill: #2196f3; opacity: 0.88; stroke: #ffffff; stroke-linejoin: miter"/>
   </g>
   <g id="patch_20">
    <path d="M 715.880201 320.490147 
L 732.841764 320.490147 
L 732.841764 118.825576 
L 715.880201 118.825576 
z
" clip-path="url(#pcc94acbbd7)" style="fill: #2196f3; opacity: 0.88; stroke: #ffffff; stroke-linejoin: miter"/>
   </g>
   <g id="patch_21">
    <path d="M 756.264876 320.490147 
L 773.226439 320.490147 
L 773.226439 111.290967 
L 756.264876 111.290967 
z
" clip-path="url(#pcc94acbbd7)" style="fill: #2196f3; opacity: 0.88; stroke: #ffffff; stroke-linejoin: miter"/>
   </g>
   <g id="patch_22">
    <path d="M 796.64955 320.490147 
L 813.611113 320.490147 
L 813.611113 125.500531 
L 796.64955 125.500531 
z
" clip-path="url(#pcc94acbbd7)" style="fill: #2196f3; opacity: 0.88; stroke: #ffffff; stroke-linejoin: miter"/>
   </g>
   <g id="patch_23">
    <path d="M 837.034225 320.490147 
L 853.995788 320.490147 
L 853.995788 166.915598 
L 837.034225 166.915598 
z
" clip-path="url(#pcc94acbbd7)" style="fill: #2196f3; opacity: 0.88; stroke: #ffffff; stroke-linejoin: miter"/>
   </g>
   <g id="patch_24">
    <path d="M 877.418899 320.490147 
L 894.380462 320.490147 
L 894.380462 119.584093 
L 877.418899 119.584093 
z
" clip-path="url(#pcc94acbbd7)" style="fill: #2196f3; opacity: 0.88; stroke: #ffffff; stroke-linejoin: miter"/>
   </g>
   <g id="patch_25">
    <path d="M 917.803573 320.490147 
L 934.765137 320.490147 
L 934.765137 171.972382 
L 917.803573 171.972382 
z
" clip-path="url(#pcc94acbbd7)" style="fill: #2196f3; opacity: 0.88; stroke: #ffffff; stroke-linejoin: miter"/>
   </g>
   <g id="patch_26">
    <path d="M 958.188248 320.490147 
L 975.149811 320.490147 
L 975.149811 72.404293 
L 958.188248 72.404293 
z
" clip-path="url(#pcc94acbbd7)" style="fill: #2196f3; opacity: 0.88; stroke: #ffffff; stroke-linejoin: miter"/>
   </g>
   <g id="patch_27">
    <path d="M 998.572922 320.490147 
L 1015.534486 320.490147 
L 1015.534486 92.277456 
L 998.572922 92.277456 
z
" clip-path="url(#pcc94acbbd7)" style="fill: #2196f3; opacity: 0.88; stroke: #ffffff; stroke-linejoin: miter"/>
   </g>
   <g id="patch_28">
    <path d="M 1038.957597 320.490147 
L 1055.91916 320.490147 
L 1055.91916 120.59545 
L 1038.957597 120.59545 
z
" clip-path="url(#pcc94acbbd7)" style="fill: #2196f3; opacity: 0.88; stroke: #ffffff; stroke-linejoin: miter"/>
   </g>
   <g id="patch_29">
    <path d="M 1079.342271 320.490147 
L 1096.303834 320.490147 
L 1096.303834 217.129469 
L 1079.342271 217.129469 
z
" clip-path="url(#pcc94acbbd7)" style="fill: #2196f3; opacity: 0.88; stroke: #ffffff; stroke-linejoin: miter"/>
   </g>
   <g id="patch_30">
    <path d="M 652.072416 320.490147 
L 669.033979 320.490147 
L 669.033979 300.263009 
L 652.072416 300.263009 
z
" clip-path="url(#pcc94acbbd7)" style="fill: #ff5722; opacity: 0.88; stroke: #ffffff; stroke-linejoin: miter"/>
   </g>
   <g id="patch_31">
    <path d="M 692.45709 320.490147 
L 709.418653 320.490147 
L 709.418653 288.02559 
L 692.45709 288.02559 
z
" clip-path="url(#pcc94acbbd7)" style="fill: #ff5722; opacity: 0.88; stroke: #ffffff; stroke-linejoin: miter"/>
   </g>
   <g id="patch_32">
    <path d="M 732.841764 320.490147 
L 749.803328 320.490147 
L 749.803328 287.823318 
L 732.841764 287.823318 
z
" clip-path="url(#pcc94acbbd7)" style="fill: #ff5722; opacity: 0.88; stroke: #ffffff; stroke-linejoin: miter"/>
   </g>
   <g id="patch_33">
    <path d="M 773.226439 320.490147 
L 790.188002 320.490147 
L 790.188002 283.980162 
L 773.226439 283.980162 
z
" clip-path="url(#pcc94acbbd7)" style="fill: #ff5722; opacity: 0.88; stroke: #ffffff; stroke-linejoin: miter"/>
   </g>
   <g id="patch_34">
    <path d="M 813.611113 320.490147 
L 830.572677 320.490147 
L 830.572677 274.17 
L 813.611113 274.17 
z
" clip-path="url(#pcc94acbbd7)" style="fill: #ff5722; opacity: 0.88; stroke: #ffffff; stroke-linejoin: miter"/>
   </g>
   <g id="patch_35">
    <path d="M 853.995788 320.490147 
L 870.957351 320.490147 
L 870.957351 276.850096 
L 853.995788 276.850096 
z
" clip-path="url(#pcc94acbbd7)" style="fill: #ff5722; opacity: 0.88; stroke: #ffffff; stroke-linejoin: miter"/>
   </g>
   <g id="patch_36">
    <path d="M 894.380462 320.490147 
L 911.342025 320.490147 
L 911.342025 301.88118 
L 894.380462 301.88118 
z
" clip-path="url(#pcc94acbbd7)" style="fill: #ff5722; opacity: 0.88; stroke: #ffffff; stroke-linejoin: miter"/>
   </g>
   <g id="patch_37">
    <path d="M 934.765137 320.490147 
L 951.7267 320.490147 
L 951.7267 301.324933 
L 934.765137 301.324933 
z
" clip-path="url(#pcc94acbbd7)" style="fill: #ff5722; opacity: 0.88; stroke: #ffffff; stroke-linejoin: miter"/>
   </g>
   <g id="patch_38">
    <path d="M 975.149811 320.490147 
L 992.111374 320.490147 
L 992.111374 308.20216 
L 975.149811 308.20216 
z
" clip-path="url(#pcc94acbbd7)" style="fill: #ff5722; opacity: 0.88; stroke: #ffffff; stroke-linejoin: miter"/>
   </g>
   <g id="patch_39">
    <path d="M 1015.534486 320.490147 
L 1032.496049 320.490147 
L 1032.496049 303.246512 
L 1015.534486 303.246512 
z
" clip-path="url(#pcc94acbbd7)" style="fill: #ff5722; opacity: 0.88; stroke: #ffffff; stroke-linejoin: miter"/>
   </g>
   <g id="patch_40">
    <path d="M 1055.91916 320.490147 
L 1072.880723 320.490147 
L 1072.880723 304.005029 
L 1055.91916 304.005029 
z
" clip-path="url(#pcc94acbbd7)" style="fill: #ff5722; opacity: 0.88; stroke: #ffffff; stroke-linejoin: miter"/>
   </g>
   <g id="patch_41">
    <path d="M 1096.303834 320.490147 
L 1113.265398 320.490147 
L 1113.265398 315.281659 
L 1096.303834 315.281659 
z
" clip-path="url(#pcc94acbbd7)" style="fill: #ff5722; opacity: 0.88; stroke: #ffffff; stroke-linejoin: miter"/>
   </g>
   <g id="matplotlib.axis_3">
    <g id="xtick_13">
     <g id="line2d_37">
      <path d="M 652.072416 320.490147 
L 652.072416 60 
" clip-path="url(#pcc94acbbd7)" style="fill: none; stroke: #cccccc; stroke-opacity: 0.35; stroke-width: 0.8; stroke-linecap: square"/>
     </g>
     <g id="line2d_38">
      <g>
       <use xlink:href="#mdec8589f5c" x="652.072416" y="320.490147" style="stroke: #000000; stroke-width: 0.8"/>
      </g>
     </g>
     <g id="text_33">
      <!-- Mar 2025 -->
      <g transform="translate(615.983548 357.609968) rotate(-35) scale(0.09 -0.09)">
       <use xlink:href="#DejaVuSans-4d"/>
       <use xlink:href="#DejaVuSans-61" transform="translate(86.279297 0)"/>
       <use xlink:href="#DejaVuSans-72" transform="translate(147.558594 0)"/>
       <use xlink:href="#DejaVuSans-20" transform="translate(188.671875 0)"/>
       <use xlink:href="#DejaVuSans-32" transform="translate(220.458984 0)"/>
       <use xlink:href="#DejaVuSans-30" transform="translate(284.082031 0)"/>
       <use xlink:href="#DejaVuSans-32" transform="translate(347.705078 0)"/>
       <use xlink:href="#DejaVuSans-35" transform="translate(411.328125 0)"/>
      </g>
     </g>
    </g>
    <g id="xtick_14">
     <g id="line2d_39">
      <path d="M 692.45709 320.490147 
L 692.45709 60 
" clip-path="url(#pcc94acbbd7)" style="fill: none; stroke: #cccccc; stroke-opacity: 0.35; stroke-width: 0.8; stroke-linecap: square"/>
     </g>
     <g id="line2d_40">
      <g>
       <use xlink:href="#mdec8589f5c" x="692.45709" y="320.490147" style="stroke: #000000; stroke-width: 0.8"/>
      </g>
     </g>
     <g id="text_34">
      <!-- May 2025 -->
      <g transform="translate(655.035436 358.543195) rotate(-35) scale(0.09 -0.09)">
       <use xlink:href="#DejaVuSans-4d"/>
       <use xlink:href="#DejaVuSans-61" transform="translate(86.279297 0)"/>
       <use xlink:href="#DejaVuSans-79" transform="translate(147.558594 0)"/>
       <use xlink:href="#DejaVuSans-20" transform="translate(206.738281 0)"/>
       <use xlink:href="#DejaVuSans-32" transform="translate(238.525391 0)"/>
       <use xlink:href="#DejaVuSans-30" transform="translate(302.148438 0)"/>
       <use xlink:href="#DejaVuSans-32" transform="translate(365.771484 0)"/>
       <use xlink:href="#DejaVuSans-35" transform="translate(429.394531 0)"/>
      </g>
     </g>
    </g>
    <g id="xtick_15">
     <g id="line2d_41">
      <path d="M 732.841764 320.490147 
L 732.841764 60 
" clip-path="url(#pcc94acbbd7)" style="fill: none; stroke: #cccccc; stroke-opacity: 0.35; stroke-width: 0.8; stroke-linecap: square"/>
     </g>
     <g id="line2d_42">
      <g>
       <use xlink:href="#mdec8589f5c" x="732.841764" y="320.490147" style="stroke: #000000; stroke-width: 0.8"/>
      </g>
     </g>
     <g id="text_35">
      <!-- Jun 2025 -->
      <g transform="translate(699.143157 355.93629) rotate(-35) scale(0.09 -0.09)">
       <use xlink:href="#DejaVuSans-4a"/>
       <use xlink:href="#DejaVuSans-75" transform="translate(29.492188 0)"/>
       <use xlink:href="#DejaVuSans-6e" transform="translate(92.871094 0)"/>
       <use xlink:href="#DejaVuSans-20" transform="translate(156.25 0)"/>
       <use xlink:href="#DejaVuSans-32" transform="translate(188.037109 0)"/>
       <use xlink:href="#DejaVuSans-30" transform="translate(251.660156 0)"/>
       <use xlink:href="#DejaVuSans-32" transform="translate(315.283203 0)"/>
       <use xlink:href="#DejaVuSans-35" transform="translate(378.90625 0)"/>
      </g>
     </g>
    </g>
    <g id="xtick_16">
     <g id="line2d_43">
      <path d="M 773.226439 320.490147 
L 773.226439 60 
" clip-path="url(#pcc94acbbd7)" style="fill: none; stroke: #cccccc; stroke-opacity: 0.35; stroke-width: 0.8; stroke-linecap: square"/>
     </g>
     <g id="line2d_44">
      <g>
       <use xlink:href="#mdec8589f5c" x="773.226439" y="320.490147" style="stroke: #000000; stroke-width: 0.8"/>
      </g>
     </g>
     <g id="text_36">
      <!-- Jul 2025 -->
      <g transform="translate(742.151933 354.098874) rotate(-35) scale(0.09 -0.09)">
       <use xlink:href="#DejaVuSans-4a"/>
       <use xlink:href="#DejaVuSans-75" transform="translate(29.492188 0)"/>
       <use xlink:href="#DejaVuSans-6c" transform="translate(92.871094 0)"/>
       <use xlink:href="#DejaVuSans-20" transform="translate(120.654297 0)"/>
       <use xlink:href="#DejaVuSans-32" transform="translate(152.441406 0)"/>
       <use xlink:href="#DejaVuSans-30" transform="translate(216.064453 0)"/>
       <use xlink:href="#DejaVuSans-32" transform="translate(279.6875 0)"/>
       <use xlink:href="#DejaVuSans-35" transform="translate(343.310547 0)"/>
      </g>
     </g>
    </g>
    <g id="xtick_17">
     <g id="line2d_45">
      <path d="M 813.611113 320.490147 
L 813.611113 60 
" clip-path="url(#pcc94acbbd7)" style="fill: none; stroke: #cccccc; stroke-opacity: 0.35; stroke-width: 0.8; stroke-linecap: square"/>
     </g>
     <g id="line2d_46">
      <g>
       <use xlink:href="#mdec8589f5c" x="813.611113" y="320.490147" style="stroke: #000000; stroke-width: 0.8"/>
      </g>
     </g>
     <g id="text_37">
      <!-- Aug 2025 -->
      <g transform="translate(777.03613 357.95035) rotate(-35) scale(0.09 -0.09)">
       <use xlink:href="#DejaVuSans-41"/>
       <use xlink:href="#DejaVuSans-75" transform="translate(68.408203 0)"/>
       <use xlink:href="#DejaVuSans-67" transform="translate(131.787109 0)"/>
       <use xlink:href="#DejaVuSans-20" transform="translate(195.263672 0)"/>
       <use xlink:href="#DejaVuSans-32" transform="translate(227.050781 0)"/>
       <use xlink:href="#DejaVuSans-30" transform="translate(290.673828 0)"/>
       <use xlink:href="#DejaVuSans-32" transform="translate(354.296875 0)"/>
       <use xlink:href="#DejaVuSans-35" transform="translate(417.919922 0)"/>
      </g>
     </g>
    </g>
    <g id="xtick_18">
     <g id="line2d_47">
      <path d="M 853.995788 320.490147 
L 853.995788 60 
" clip-path="url(#pcc94acbbd7)" style="fill: none; stroke: #cccccc; stroke-opacity: 0.35; stroke-width: 0.8; stroke-linecap: square"/>
     </g>
     <g id="line2d_48">
      <g>
       <use xlink:href="#mdec8589f5c" x="853.995788" y="320.490147" style="stroke: #000000; stroke-width: 0.8"/>
      </g>
     </g>
     <g id="text_38">
      <!-- Sep 2025 -->
      <g transform="translate(817.919591 357.601096) rotate(-35) scale(0.09 -0.09)">
       <use xlink:href="#DejaVuSans-53"/>
       <use xlink:href="#DejaVuSans-65" transform="translate(63.476562 0)"/>
       <use xlink:href="#DejaVuSans-70" transform="translate(125 0)"/>
       <use xlink:href="#DejaVuSans-20" transform="translate(188.476562 0)"/>
       <use xlink:href="#DejaVuSans-32" transform="translate(220.263672 0)"/>
       <use xlink:href="#DejaVuSans-30" transform="translate(283.886719 0)"/>
       <use xlink:href="#DejaVuSans-32" transform="translate(347.509766 0)"/>
       <use xlink:href="#DejaVuSans-35" transform="translate(411.132812 0)"/>
      </g>
     </g>
    </g>
    <g id="xtick_19">
     <g id="line2d_49">
      <path d="M 894.380462 320.490147 
L 894.380462 60 
" clip-path="url(#pcc94acbbd7)" style="fill: none; stroke: #cccccc; stroke-opacity: 0.35; stroke-width: 0.8; stroke-linecap: square"/>
     </g>
     <g id="line2d_50">
      <g>
       <use xlink:href="#mdec8589f5c" x="894.380462" y="320.490147" style="stroke: #000000; stroke-width: 0.8"/>
      </g>
     </g>
     <g id="text_39">
      <!-- Oct 2025 -->
      <g transform="translate(859.453894 356.796117) rotate(-35) scale(0.09 -0.09)">
       <use xlink:href="#DejaVuSans-4f"/>
       <use xlink:href="#DejaVuSans-63" transform="translate(78.710938 0)"/>
       <use xlink:href="#DejaVuSans-74" transform="translate(133.691406 0)"/>
       <use xlink:href="#DejaVuSans-20" transform="translate(172.900391 0)"/>
       <use xlink:href="#DejaVuSans-32" transform="translate(204.6875 0)"/>
       <use xlink:href="#DejaVuSans-30" transform="translate(268.310547 0)"/>
       <use xlink:href="#DejaVuSans-32" transform="translate(331.933594 0)"/>
       <use xlink:href="#DejaVuSans-35" transform="translate(395.556641 0)"/>
      </g>
     </g>
    </g>
    <g id="xtick_20">
     <g id="line2d_51">
      <path d="M 934.765137 320.490147 
L 934.765137 60 
" clip-path="url(#pcc94acbbd7)" style="fill: none; stroke: #cccccc; stroke-opacity: 0.35; stroke-width: 0.8; stroke-linecap: square"/>
     </g>
     <g id="line2d_52">
      <g>
       <use xlink:href="#mdec8589f5c" x="934.765137" y="320.490147" style="stroke: #000000; stroke-width: 0.8"/>
      </g>
     </g>
     <g id="text_40">
      <!-- Nov 2025 -->
      <g transform="translate(898.195913 357.946317) rotate(-35) scale(0.09 -0.09)">
       <use xlink:href="#DejaVuSans-4e"/>
       <use xlink:href="#DejaVuSans-6f" transform="translate(74.804688 0)"/>
       <use xlink:href="#DejaVuSans-76" transform="translate(135.986328 0)"/>
       <use xlink:href="#DejaVuSans-20" transform="translate(195.166016 0)"/>
       <use xlink:href="#DejaVuSans-32" transform="translate(226.953125 0)"/>
       <use xlink:href="#DejaVuSans-30" transform="translate(290.576172 0)"/>
       <use xlink:href="#DejaVuSans-32" transform="translate(354.199219 0)"/>
       <use xlink:href="#DejaVuSans-35" transform="translate(417.822266 0)"/>
      </g>
     </g>
    </g>
    <g id="xtick_21">
     <g id="line2d_53">
      <path d="M 975.149811 320.490147 
L 975.149811 60 
" clip-path="url(#pcc94acbbd7)" style="fill: none; stroke: #cccccc; stroke-opacity: 0.35; stroke-width: 0.8; stroke-linecap: square"/>
     </g>
     <g id="line2d_54">
      <g>
       <use xlink:href="#mdec8589f5c" x="975.149811" y="320.490147" style="stroke: #000000; stroke-width: 0.8"/>
      </g>
     </g>
     <g id="text_41">
      <!-- Dec 2025 -->
      <g transform="translate(938.703844 357.860012) rotate(-35) scale(0.09 -0.09)">
       <use xlink:href="#DejaVuSans-44"/>
       <use xlink:href="#DejaVuSans-65" transform="translate(77.001953 0)"/>
       <use xlink:href="#DejaVuSans-63" transform="translate(138.525391 0)"/>
       <use xlink:href="#DejaVuSans-20" transform="translate(193.505859 0)"/>
       <use xlink:href="#DejaVuSans-32" transform="translate(225.292969 0)"/>
       <use xlink:href="#DejaVuSans-30" transform="translate(288.916016 0)"/>
       <use xlink:href="#DejaVuSans-32" transform="translate(352.539062 0)"/>
       <use xlink:href="#DejaVuSans-35" transform="translate(416.162109 0)"/>
      </g>
     </g>
    </g>
    <g id="xtick_22">
     <g id="line2d_55">
      <path d="M 1015.534486 320.490147 
L 1015.534486 60 
" clip-path="url(#pcc94acbbd7)" style="fill: none; stroke: #cccccc; stroke-opacity: 0.35; stroke-width: 0.8; stroke-linecap: square"/>
     </g>
     <g id="line2d_56">
      <g>
       <use xlink:href="#mdec8589f5c" x="1015.534486" y="320.490147" style="stroke: #000000; stroke-width: 0.8"/>
      </g>
     </g>
     <g id="text_42">
      <!-- Jan 2026 -->
      <g transform="translate(981.990237 355.828207) rotate(-35) scale(0.09 -0.09)">
       <use xlink:href="#DejaVuSans-4a"/>
       <use xlink:href="#DejaVuSans-61" transform="translate(29.492188 0)"/>
       <use xlink:href="#DejaVuSans-6e" transform="translate(90.771484 0)"/>
       <use xlink:href="#DejaVuSans-20" transform="translate(154.150391 0)"/>
       <use xlink:href="#DejaVuSans-32" transform="translate(185.9375 0)"/>
       <use xlink:href="#DejaVuSans-30" transform="translate(249.560547 0)"/>
       <use xlink:href="#DejaVuSans-32" transform="translate(313.183594 0)"/>
       <use xlink:href="#DejaVuSans-36" transform="translate(376.806641 0)"/>
      </g>
     </g>
    </g>
    <g id="xtick_23">
     <g id="line2d_57">
      <path d="M 1055.91916 320.490147 
L 1055.91916 60 
" clip-path="url(#pcc94acbbd7)" style="fill: none; stroke: #cccccc; stroke-opacity: 0.35; stroke-width: 0.8; stroke-linecap: square"/>
     </g>
     <g id="line2d_58">
      <g>
       <use xlink:href="#mdec8589f5c" x="1055.91916" y="320.490147" style="stroke: #000000; stroke-width: 0.8"/>
      </g>
     </g>
     <g id="text_43">
      <!-- Feb 2026 -->
      <g transform="translate(1020.688482 357.009057) rotate(-35) scale(0.09 -0.09)">
       <use xlink:href="#DejaVuSans-46"/>
       <use xlink:href="#DejaVuSans-65" transform="translate(52.019531 0)"/>
       <use xlink:href="#DejaVuSans-62" transform="translate(113.542969 0)"/>
       <use xlink:href="#DejaVuSans-20" transform="translate(177.019531 0)"/>
       <use xlink:href="#DejaVuSans-32" transform="translate(208.806641 0)"/>
       <use xlink:href="#DejaVuSans-30" transform="translate(272.429688 0)"/>
       <use xlink:href="#DejaVuSans-32" transform="translate(336.052734 0)"/>
       <use xlink:href="#DejaVuSans-36" transform="translate(399.675781 0)"/>
      </g>
     </g>
    </g>
    <g id="xtick_24">
     <g id="line2d_59">
      <path d="M 1096.303834 320.490147 
L 1096.303834 60 
" clip-path="url(#pcc94acbbd7)" style="fill: none; stroke: #cccccc; stroke-opacity: 0.35; stroke-width: 0.8; stroke-linecap: square"/>
     </g>
     <g id="line2d_60">
      <g>
       <use xlink:href="#mdec8589f5c" x="1096.303834" y="320.490147" style="stroke: #000000; stroke-width: 0.8"/>
      </g>
     </g>
     <g id="text_44">
      <!-- Mar 2026 -->
      <g transform="translate(1060.214967 357.609968) rotate(-35) scale(0.09 -0.09)">
       <use xlink:href="#DejaVuSans-4d"/>
       <use xlink:href="#DejaVuSans-61" transform="translate(86.279297 0)"/>
       <use xlink:href="#DejaVuSans-72" transform="translate(147.558594 0)"/>
       <use xlink:href="#DejaVuSans-20" transform="translate(188.671875 0)"/>
       <use xlink:href="#DejaVuSans-32" transform="translate(220.458984 0)"/>
       <use xlink:href="#DejaVuSans-30" transform="translate(284.082031 0)"/>
       <use xlink:href="#DejaVuSans-32" transform="translate(347.705078 0)"/>
       <use xlink:href="#DejaVuSans-36" transform="translate(411.328125 0)"/>
      </g>
     </g>
    </g>
   </g>
   <g id="matplotlib.axis_4">
    <g id="ytick_7">
     <g id="line2d_61">
      <path d="M 611.203125 320.490147 
L 1137.173125 320.490147 
" clip-path="url(#pcc94acbbd7)" style="fill: none; stroke: #cccccc; stroke-opacity: 0.35; stroke-width: 0.8; stroke-linecap: square"/>
     </g>
     <g id="line2d_62">
      <g>
       <use xlink:href="#m2ea86cadbd" x="611.203125" y="320.490147" style="stroke: #000000; stroke-width: 0.8"/>
      </g>
     </g>
     <g id="text_45">
      <!-- 0 -->
      <g transform="translate(597.840625 324.289366) scale(0.1 -0.1)">
       <use xlink:href="#DejaVuSans-30"/>
      </g>
     </g>
    </g>
    <g id="ytick_8">
     <g id="line2d_63">
      <path d="M 611.203125 269.922301 
L 1137.173125 269.922301 
" clip-path="url(#pcc94acbbd7)" style="fill: none; stroke: #cccccc; stroke-opacity: 0.35; stroke-width: 0.8; stroke-linecap: square"/>
     </g>
     <g id="line2d_64">
      <g>
       <use xlink:href="#m2ea86cadbd" x="611.203125" y="269.922301" style="stroke: #000000; stroke-width: 0.8"/>
      </g>
     </g>
     <g id="text_46">
      <!-- 10 -->
      <g transform="translate(591.478125 273.72152) scale(0.1 -0.1)">
       <use xlink:href="#DejaVuSans-31"/>
       <use xlink:href="#DejaVuSans-30" transform="translate(63.623047 0)"/>
      </g>
     </g>
    </g>
    <g id="ytick_9">
     <g id="line2d_65">
      <path d="M 611.203125 219.354454 
L 1137.173125 219.354454 
" clip-path="url(#pcc94acbbd7)" style="fill: none; stroke: #cccccc; stroke-opacity: 0.35; stroke-width: 0.8; stroke-linecap: square"/>
     </g>
     <g id="line2d_66">
      <g>
       <use xlink:href="#m2ea86cadbd" x="611.203125" y="219.354454" style="stroke: #000000; stroke-width: 0.8"/>
      </g>
     </g>
     <g id="text_47">
      <!-- 20 -->
      <g transform="translate(591.478125 223.153673) scale(0.1 -0.1)">
       <use xlink:href="#DejaVuSans-32"/>
       <use xlink:href="#DejaVuSans-30" transform="translate(63.623047 0)"/>
      </g>
     </g>
    </g>
    <g id="ytick_10">
     <g id="line2d_67">
      <path d="M 611.203125 168.786608 
L 1137.173125 168.786608 
" clip-path="url(#pcc94acbbd7)" style="fill: none; stroke: #cccccc; stroke-opacity: 0.35; stroke-width: 0.8; stroke-linecap: square"/>
     </g>
     <g id="line2d_68">
      <g>
       <use xlink:href="#m2ea86cadbd" x="611.203125" y="168.786608" style="stroke: #000000; stroke-width: 0.8"/>
      </g>
     </g>
     <g id="text_48">
      <!-- 30 -->
      <g transform="translate(591.478125 172.585827) scale(0.1 -0.1)">
       <use xlink:href="#DejaVuSans-33"/>
       <use xlink:href="#DejaVuSans-30" transform="translate(63.623047 0)"/>
      </g>
     </g>
    </g>
    <g id="ytick_11">
     <g id="line2d_69">
      <path d="M 611.203125 118.218762 
L 1137.173125 118.218762 
" clip-path="url(#pcc94acbbd7)" style="fill: none; stroke: #cccccc; stroke-opacity: 0.35; stroke-width: 0.8; stroke-linecap: square"/>
     </g>
     <g id="line2d_70">
      <g>
       <use xlink:href="#m2ea86cadbd" x="611.203125" y="118.218762" style="stroke: #000000; stroke-width: 0.8"/>
      </g>
     </g>
     <g id="text_49">
      <!-- 40 -->
      <g transform="translate(591.478125 122.01798) scale(0.1 -0.1)">
       <use xlink:href="#DejaVuSans-34"/>
       <use xlink:href="#DejaVuSans-30" transform="translate(63.623047 0)"/>
      </g>
     </g>
    </g>
    <g id="ytick_12">
     <g id="line2d_71">
      <path d="M 611.203125 67.650915 
L 1137.173125 67.650915 
" clip-path="url(#pcc94acbbd7)" style="fill: none; stroke: #cccccc; stroke-opacity: 0.35; stroke-width: 0.8; stroke-linecap: square"/>
     </g>
     <g id="line2d_72">
      <g>
       <use xlink:href="#m2ea86cadbd" x="611.203125" y="67.650915" style="stroke: #000000; stroke-width: 0.8"/>
      </g>
     </g>
     <g id="text_50">
      <!-- 50 -->
      <g transform="translate(591.478125 71.450134) scale(0.1 -0.1)">
       <use xlink:href="#DejaVuSans-35"/>
       <use xlink:href="#DejaVuSans-30" transform="translate(63.623047 0)"/>
      </g>
     </g>
    </g>
    <g id="text_51">
     <!-- Total kWh -->
     <g transform="translate(585.398437 214.518511) rotate(-90) scale(0.1 -0.1)">
      <use xlink:href="#DejaVuSans-54"/>
      <use xlink:href="#DejaVuSans-6f" transform="translate(44.083984 0)"/>
      <use xlink:href="#DejaVuSans-74" transform="translate(105.265625 0)"/>
      <use xlink:href="#DejaVuSans-61" transform="translate(144.474609 0)"/>
      <use xlink:href="#DejaVuSans-6c" transform="translate(205.753906 0)"/>
      <use xlink:href="#DejaVuSans-20" transform="translate(233.537109 0)"/>
      <use xlink:href="#DejaVuSans-6b" transform="translate(265.324219 0)"/>
      <use xlink:href="#DejaVuSans-57" transform="translate(323.234375 0)"/>
      <use xlink:href="#DejaVuSans-68" transform="translate(422.111328 0)"/>
     </g>
    </g>
   </g>
   <g id="patch_42">
    <path d="M 611.203125 320.490147 
L 611.203125 60 
" style="fill: none; stroke: #000000; stroke-width: 0.8; stroke-linejoin: miter; stroke-linecap: square"/>
   </g>
   <g id="patch_43">
    <path d="M 611.203125 320.490147 
L 1137.173125 320.490147 
" style="fill: none; stroke: #000000; stroke-width: 0.8; stroke-linejoin: miter; stroke-linecap: square"/>
   </g>
   <g id="text_52">
    <!-- Home vs University Energy per Month -->
    <g transform="translate(745.819062 54) scale(0.12 -0.12)">
     <defs>
      <path id="DejaVuSans-Bold-48" d="M 588 4666 
L 1791 4666 
L 1791 2888 
L 3566 2888 
L 3566 4666 
L 4769 4666 
L 4769 0 
L 3566 0 
L 3566 1978 
L 1791 1978 
L 1791 0 
L 588 0 
L 588 4666 
z
" transform="scale(0.015625)"/>
      <path id="DejaVuSans-Bold-6d" d="M 3781 2919 
Q 3994 3244 4286 3414 
Q 4578 3584 4928 3584 
Q 5531 3584 5847 3212 
Q 6163 2841 6163 2131 
L 6163 0 
L 5038 0 
L 5038 1825 
Q 5041 1866 5042 1909 
Q 5044 1953 5044 2034 
Q 5044 2406 4934 2573 
Q 4825 2741 4581 2741 
Q 4263 2741 4089 2478 
Q 3916 2216 3909 1719 
L 3909 0 
L 2784 0 
L 2784 1825 
Q 2784 2406 2684 2573 
Q 2584 2741 2328 2741 
Q 2006 2741 1831 2477 
Q 1656 2213 1656 1722 
L 1656 0 
L 531 0 
L 531 3500 
L 1656 3500 
L 1656 2988 
Q 1863 3284 2130 3434 
Q 2397 3584 2719 3584 
Q 3081 3584 3359 3409 
Q 3638 3234 3781 2919 
z
" transform="scale(0.015625)"/>
      <path id="DejaVuSans-Bold-76" d="M 97 3500 
L 1216 3500 
L 2088 1081 
L 2956 3500 
L 4078 3500 
L 2700 0 
L 1472 0 
L 97 3500 
z
" transform="scale(0.015625)"/>
      <path id="DejaVuSans-Bold-73" d="M 3272 3391 
L 3272 2541 
Q 2913 2691 2578 2766 
Q 2244 2841 1947 2841 
Q 1628 2841 1473 2761 
Q 1319 2681 1319 2516 
Q 1319 2381 1436 2309 
Q 1553 2238 1856 2203 
L 2053 2175 
Q 2913 2066 3209 1816 
Q 3506 1566 3506 1031 
Q 3506 472 3093 190 
Q 2681 -91 1863 -91 
Q 1516 -91 1145 -36 
Q 775 19 384 128 
L 384 978 
Q 719 816 1070 734 
Q 1422 653 1784 653 
Q 2113 653 2278 743 
Q 2444 834 2444 1013 
Q 2444 1163 2330 1236 
Q 2216 1309 1875 1350 
L 1678 1375 
Q 931 1469 631 1722 
Q 331 1975 331 2491 
Q 331 3047 712 3315 
Q 1094 3584 1881 3584 
Q 2191 3584 2531 3537 
Q 2872 3491 3272 3391 
z
" transform="scale(0.015625)"/>
      <path id="DejaVuSans-Bold-55" d="M 588 4666 
L 1791 4666 
L 1791 1869 
Q 1791 1291 1980 1042 
Q 2169 794 2597 794 
Q 3028 794 3217 1042 
Q 3406 1291 3406 1869 
L 3406 4666 
L 4609 4666 
L 4609 1869 
Q 4609 878 4112 393 
Q 3616 -91 2597 -91 
Q 1581 -91 1084 393 
Q 588 878 588 1869 
L 588 4666 
z
" transform="scale(0.015625)"/>
      <path id="DejaVuSans-Bold-69" d="M 538 3500 
L 1656 3500 
L 1656 0 
L 538 0 
L 538 3500 
z
M 538 4863 
L 1656 4863 
L 1656 3950 
L 538 3950 
L 538 4863 
z
" transform="scale(0.015625)"/>
     </defs>
     <use xlink:href="#DejaVuSans-Bold-48"/>
     <use xlink:href="#DejaVuSans-Bold-6f" transform="translate(83.691406 0)"/>
     <use xlink:href="#DejaVuSans-Bold-6d" transform="translate(152.392578 0)"/>
     <use xlink:href="#DejaVuSans-Bold-65" transform="translate(256.591797 0)"/>
     <use xlink:href="#DejaVuSans-Bold-20" transform="translate(324.414062 0)"/>
     <use xlink:href="#DejaVuSans-Bold-76" transform="translate(359.228516 0)"/>
     <use xlink:href="#DejaVuSans-Bold-73" transform="translate(424.414062 0)"/>
     <use xlink:href="#DejaVuSans-Bold-20" transform="translate(483.935547 0)"/>
     <use xlink:href="#DejaVuSans-Bold-55" transform="translate(518.75 0)"/>
     <use xlink:href="#DejaVuSans-Bold-6e" transform="translate(599.951172 0)"/>
     <use xlink:href="#DejaVuSans-Bold-69" transform="translate(671.142578 0)"/>
     <use xlink:href="#DejaVuSans-Bold-76" transform="translate(705.419922 0)"/>
     <use xlink:href="#DejaVuSans-Bold-65" transform="translate(770.605469 0)"/>
     <use xlink:href="#DejaVuSans-Bold-72" transform="translate(838.427734 0)"/>
     <use xlink:href="#DejaVuSans-Bold-73" transform="translate(887.744141 0)"/>
     <use xlink:href="#DejaVuSans-Bold-69" transform="translate(947.265625 0)"/>
     <use xlink:href="#DejaVuSans-Bold-74" transform="translate(981.542969 0)"/>
     <use xlink:href="#DejaVuSans-Bold-79" transform="translate(1029.345703 0)"/>
     <use xlink:href="#DejaVuSans-Bold-20" transform="translate(1094.53125 0)"/>
     <use xlink:href="#DejaVuSans-Bold-45" transform="translate(1129.345703 0)"/>
     <use xlink:href="#DejaVuSans-Bold-6e" transform="translate(1197.65625 0)"/>
     <use xlink:href="#DejaVuSans-Bold-65" transform="translate(1268.847656 0)"/>
     <use xlink:href="#DejaVuSans-Bold-72" transform="translate(1336.669922 0)"/>
     <use xlink:href="#DejaVuSans-Bold-67" transform="translate(1385.986328 0)"/>
     <use xlink:href="#DejaVuSans-Bold-79" transform="translate(1457.568359 0)"/>
     <use xlink:href="#DejaVuSans-Bold-20" transform="translate(1522.753906 0)"/>
     <use xlink:href="#DejaVuSans-Bold-70" transform="translate(1557.568359 0)"/>
     <use xlink:href="#DejaVuSans-Bold-65" transform="translate(1629.150391 0)"/>
     <use xlink:href="#DejaVuSans-Bold-72" transform="translate(1696.972656 0)"/>
     <use xlink:href="#DejaVuSans-Bold-20" transform="translate(1746.289062 0)"/>
     <use xlink:href="#DejaVuSans-Bold-4d" transform="translate(1781.103516 0)"/>
     <use xlink:href="#DejaVuSans-Bold-6f" transform="translate(1880.615234 0)"/>
     <use xlink:href="#DejaVuSans-Bold-6e" transform="translate(1949.316406 0)"/>
     <use xlink:href="#DejaVuSans-Bold-74" transform="translate(2020.507812 0)"/>
     <use xlink:href="#DejaVuSans-Bold-68" transform="translate(2068.310547 0)"/>
    </g>
   </g>
   <g id="legend_1">
    <g id="patch_44">
     <path d="M 1047.729375 97.35625 
L 1130.173125 97.35625 
Q 1132.173125 97.35625 1132.173125 95.35625 
L 1132.173125 67 
Q 1132.173125 65 1130.173125 65 
L 1047.729375 65 
Q 1045.729375 65 1045.729375 67 
L 1045.729375 95.35625 
Q 1045.729375 97.35625 1047.729375 97.35625 
z
" style="fill: #f8f9fa; opacity: 0.8; stroke: #cccccc; stroke-linejoin: miter"/>
    </g>
    <g id="patch_45">
     <path d="M 1049.729375 76.598437 
L 1069.729375 76.598437 
L 1069.729375 69.598437 
L 1049.729375 69.598437 
z
" style="fill: #2196f3; opacity: 0.88; stroke: #ffffff; stroke-linejoin: miter"/>
    </g>
    <g id="text_53">
     <!-- Home -->
     <g transform="translate(1077.729375 76.598437) scale(0.1 -0.1)">
      <defs>
       <path id="DejaVuSans-48" d="M 628 4666 
L 1259 4666 
L 1259 2753 
L 3553 2753 
L 3553 4666 
L 4184 4666 
L 4184 0 
L 3553 0 
L 3553 2222 
L 1259 2222 
L 1259 0 
L 628 0 
L 628 4666 
z
" transform="scale(0.015625)"/>
       <path id="DejaVuSans-6d" d="M 3328 2828 
Q 3544 3216 3844 3400 
Q 4144 3584 4550 3584 
Q 5097 3584 5394 3201 
Q 5691 2819 5691 2113 
L 5691 0 
L 5113 0 
L 5113 2094 
Q 5113 2597 4934 2840 
Q 4756 3084 4391 3084 
Q 3944 3084 3684 2787 
Q 3425 2491 3425 1978 
L 3425 0 
L 2847 0 
L 2847 2094 
Q 2847 2600 2669 2842 
Q 2491 3084 2119 3084 
Q 1678 3084 1418 2786 
Q 1159 2488 1159 1978 
L 1159 0 
L 581 0 
L 581 3500 
L 1159 3500 
L 1159 2956 
Q 1356 3278 1631 3431 
Q 1906 3584 2284 3584 
Q 2666 3584 2933 3390 
Q 3200 3197 3328 2828 
z
" transform="scale(0.015625)"/>
      </defs>
      <use xlink:href="#DejaVuSans-48"/>
      <use xlink:href="#DejaVuSans-6f" transform="translate(75.195312 0)"/>
      <use xlink:href="#DejaVuSans-6d" transform="translate(136.376953 0)"/>
      <use xlink:href="#DejaVuSans-65" transform="translate(233.789062 0)"/>
     </g>
    </g>
    <g id="patch_46">
     <path d="M 1049.729375 91.276563 
L 1069.729375 91.276563 
L 1069.729375 84.276563 
L 1049.729375 84.276563 
z
" style="fill: #ff5722; opacity: 0.88; stroke: #ffffff; stroke-linejoin: miter"/>
    </g>
    <g id="text_54">
     <!-- University -->
     <g transform="translate(1077.729375 91.276563) scale(0.1 -0.1)">
      <defs>
       <path id="DejaVuSans-55" d="M 556 4666 
L 1191 4666 
L 1191 1831 
Q 1191 1081 1462 751 
Q 1734 422 2344 422 
Q 2950 422 3222 751 
Q 3494 1081 3494 1831 
L 3494 4666 
L 4128 4666 
L 4128 1753 
Q 4128 841 3676 375 
Q 3225 -91 2344 -91 
Q 1459 -91 1007 375 
Q 556 841 556 1753 
L 556 4666 
z
" transform="scale(0.015625)"/>
       <path id="DejaVuSans-69" d="M 603 3500 
L 1178 3500 
L 1178 0 
L 603 0 
L 603 3500 
z
M 603 4863 
L 1178 4863 
L 1178 4134 
L 603 4134 
L 603 4863 
z
" transform="scale(0.015625)"/>
       <path id="DejaVuSans-73" d="M 2834 3397 
L 2834 2853 
Q 2591 2978 2328 3040 
Q 2066 3103 1784 3103 
Q 1356 3103 1142 2972 
Q 928 2841 928 2578 
Q 928 2378 1081 2264 
Q 1234 2150 1697 2047 
L 1894 2003 
Q 2506 1872 2764 1633 
Q 3022 1394 3022 966 
Q 3022 478 2636 193 
Q 2250 -91 1575 -91 
Q 1294 -91 989 -36 
Q 684 19 347 128 
L 347 722 
Q 666 556 975 473 
Q 1284 391 1588 391 
Q 1994 391 2212 530 
Q 2431 669 2431 922 
Q 2431 1156 2273 1281 
Q 2116 1406 1581 1522 
L 1381 1569 
Q 847 1681 609 1914 
Q 372 2147 372 2553 
Q 372 3047 722 3315 
Q 1072 3584 1716 3584 
Q 2034 3584 2315 3537 
Q 2597 3491 2834 3397 
z
" transform="scale(0.015625)"/>
      </defs>
      <use xlink:href="#DejaVuSans-55"/>
      <use xlink:href="#DejaVuSans-6e" transform="translate(73.193359 0)"/>
      <use xlink:href="#DejaVuSans-69" transform="translate(136.572266 0)"/>
      <use xlink:href="#DejaVuSans-76" transform="translate(164.355469 0)"/>
      <use xlink:href="#DejaVuSans-65" transform="translate(223.535156 0)"/>
      <use xlink:href="#DejaVuSans-72" transform="translate(285.058594 0)"/>
      <use xlink:href="#DejaVuSans-73" transform="translate(326.171875 0)"/>
      <use xlink:href="#DejaVuSans-69" transform="translate(378.271484 0)"/>
      <use xlink:href="#DejaVuSans-74" transform="translate(406.054688 0)"/>
      <use xlink:href="#DejaVuSans-79" transform="translate(445.263672 0)"/>
     </g>
    </g>
   </g>
  </g>
  <g id="text_55">
   <!-- Monthly Energy Breakdown -->
   <g transform="translate(471.087031 17.077969) scale(0.13 -0.13)">
    <defs>
     <path id="DejaVuSans-Bold-42" d="M 2456 2859 
Q 2741 2859 2887 2984 
Q 3034 3109 3034 3353 
Q 3034 3594 2887 3720 
Q 2741 3847 2456 3847 
L 1791 3847 
L 1791 2859 
L 2456 2859 
z
M 2497 819 
Q 2859 819 3042 972 
Q 3225 1125 3225 1434 
Q 3225 1738 3044 1889 
Q 2863 2041 2497 2041 
L 1791 2041 
L 1791 819 
L 2497 819 
z
M 3616 2497 
Q 4003 2384 4215 2081 
Q 4428 1778 4428 1338 
Q 4428 663 3972 331 
Q 3516 0 2584 0 
L 588 0 
L 588 4666 
L 2394 4666 
Q 3366 4666 3802 4372 
Q 4238 4078 4238 3431 
Q 4238 3091 4078 2852 
Q 3919 2613 3616 2497 
z
" transform="scale(0.015625)"/>
     <path id="DejaVuSans-Bold-6b" d="M 538 4863 
L 1656 4863 
L 1656 2216 
L 2944 3500 
L 4244 3500 
L 2534 1894 
L 4378 0 
L 3022 0 
L 1656 1459 
L 1656 0 
L 538 0 
L 538 4863 
z
" transform="scale(0.015625)"/>
     <path id="DejaVuSans-Bold-64" d="M 2919 2988 
L 2919 4863 
L 4044 4863 
L 4044 0 
L 2919 0 
L 2919 506 
Q 2688 197 2409 53 
Q 2131 -91 1766 -91 
Q 1119 -91 703 423 
Q 288 938 288 1747 
Q 288 2556 703 3070 
Q 1119 3584 1766 3584 
Q 2128 3584 2408 3439 
Q 2688 3294 2919 2988 
z
M 2181 722 
Q 2541 722 2730 984 
Q 2919 1247 2919 1747 
Q 2919 2247 2730 2509 
Q 2541 2772 2181 2772 
Q 1825 2772 1636 2509 
Q 1447 2247 1447 1747 
Q 1447 1247 1636 984 
Q 1825 722 2181 722 
z
" transform="scale(0.015625)"/>
     <path id="DejaVuSans-Bold-77" d="M 225 3500 
L 1313 3500 
L 1900 1088 
L 2491 3500 
L 3425 3500 
L 4013 1113 
L 4603 3500 
L 5691 3500 
L 4769 0 
L 3547 0 
L 2956 2406 
L 2369 0 
L 1147 0 
L 225 3500 
z
" transform="scale(0.015625)"/>
    </defs>
    <use xlink:href="#DejaVuSans-Bold-4d"/>
    <use xlink:href="#DejaVuSans-Bold-6f" transform="translate(99.511719 0)"/>
    <use xlink:href="#DejaVuSans-Bold-6e" transform="translate(168.212891 0)"/>
    <use xlink:href="#DejaVuSans-Bold-74" transform="translate(239.404297 0)"/>
    <use xlink:href="#DejaVuSans-Bold-68" transform="translate(287.207031 0)"/>
    <use xlink:href="#DejaVuSans-Bold-6c" transform="translate(358.398438 0)"/>
    <use xlink:href="#DejaVuSans-Bold-79" transform="translate(392.675781 0)"/>
    <use xlink:href="#DejaVuSans-Bold-20" transform="translate(457.861328 0)"/>
    <use xlink:href="#DejaVuSans-Bold-45" transform="translate(492.675781 0)"/>
    <use xlink:href="#DejaVuSans-Bold-6e" transform="translate(560.986328 0)"/>
    <use xlink:href="#DejaVuSans-Bold-65" transform="translate(632.177734 0)"/>
    <use xlink:href="#DejaVuSans-Bold-72" transform="translate(700 0)"/>
    <use xlink:href="#DejaVuSans-Bold-67" transform="translate(749.316406 0)"/>
    <use xlink:href="#DejaVuSans-Bold-79" transform="translate(820.898438 0)"/>
    <use xlink:href="#DejaVuSans-Bold-20" transform="translate(886.083984 0)"/>
    <use xlink:href="#DejaVuSans-Bold-42" transform="translate(920.898438 0)"/>
    <use xlink:href="#DejaVuSans-Bold-72" transform="translate(997.119141 0)"/>
    <use xlink:href="#DejaVuSans-Bold-65" transform="translate(1046.435547 0)"/>
    <use xlink:href="#DejaVuSans-Bold-61" transform="translate(1114.257812 0)"/>
    <use xlink:href="#DejaVuSans-Bold-6b" transform="translate(1181.738281 0)"/>
    <use xlink:href="#DejaVuSans-Bold-64" transform="translate(1248.242188 0)"/>
    <use xlink:href="#DejaVuSans-Bold-6f" transform="translate(1319.824219 0)"/>
    <use xlink:href="#DejaVuSans-Bold-77" transform="translate(1388.525391 0)"/>
    <use xlink:href="#DejaVuSans-Bold-6e" transform="translate(1480.908203 0)"/>
   </g>
  </g>
 </g>
 <defs>
  <clipPath id="p64ab804828">
   <rect x="40.603125" y="60" width="525.97" height="260.490147"/>
  </clipPath>
  <clipPath id="pcc94acbbd7">
   <rect x="611.203125" y="60" width="525.97" height="260.490147"/>
  </clipPath>
 </defs>
</svg>
