<?xml version="1.0" encoding="utf-8" standalone="no"?>
<!DOCTYPE svg PUBLIC "-//W3C//DTD SVG 1.1//EN"
  "http://www.w3.org/Graphics/SVG/1.1/DTD/svg11.dtd">
<svg xmlns:xlink="http://www.w3.org/1999/xlink" width="712.619063pt" height="352.282031pt" viewBox="0 0 712.619063 352.282031" xmlns="http://www.w3.org/2000/svg" version="1.1">
 <metadata>
  <rdf:RDF xmlns:dc="http://purl.org/dc/elements/1.1/" xmlns:cc="http://creativecommons.org/ns#" xmlns:rdf="http://www.w3.org/1999/02/22-rdf-syntax-ns#">
   <cc:Work>
    <dc:type rdf:resource="http://purl.org/dc/dcmitype/StillImage"/>
    <dc:date>2026-03-16T20:56:21.518419</dc:date>
    <dc:format>image/svg+xml</dc:format>
    <dc:creator>
     <cc:Agent>
      <dc:title>Matplotlib v3.10.3, https://matplotlib.org/</dc:title>
     </cc:Agent>
    </dc:creator>
   </cc:Work>
  </rdf:RDF>
 </metadata>
 <defs>
  <style type="text/css">*{stroke-linejoin: round; stroke-linecap: butt}</style>
 </defs>
 <g id="figure_1">
  <g id="patch_1">
   <path d="M 0 352.282031 
L 712.619063 352.282031 
L 712.619063 0 
L 0 0 
z
" style="fill: #ffffff"/>
  </g>
  <g id="axes_1">
   <g id="patch_2">
    <path d="M 44.749063 313.757969 
L 705.419062 313.757969 
L 705.419062 23.077969 
L 44.749063 23.077969 
z
" style="fill: #f8f9fa"/>
   </g>
   <g id="patch_3">
    <path d="M 108.054259 313.757969 
L 133.842184 313.757969 
L 133.842184 310.989139 
L 108.054259 310.989139 
z
" clip-path="url(#p257ce98933)" style="fill: #2196f3; opacity: 0.3; stroke: #ffffff; stroke-linejoin: miter"/>
   </g>
   <g id="patch_4">
    <path d="M 133.842184 313.757969 
L 159.630109 313.757969 
L 159.630109 310.989139 
L 133.842184 310.989139 
z
" clip-path="url(#p257ce98933)" style="fill: #2196f3; opacity: 0.3; stroke: #ffffff; stroke-linejoin: miter"/>
   </g>
   <g id="patch_5">
    <path d="M 159.630109 313.757969 
L 185.418034 313.757969 
L 185.418034 308.220308 
L 159.630109 308.220308 
z
" clip-path="url(#p257ce98933)" style="fill: #2196f3; opacity: 0.3; stroke: #ffffff; stroke-linejoin: miter"/>
   </g>
   <g id="patch_6">
    <path d="M 185.418034 313.757969 
L 211.205959 313.757969 
L 211.205959 313.757969 
L 185.418034 313.757969 
z
" clip-path="url(#p257ce98933)" style="fill: #2196f3; opacity: 0.3; stroke: #ffffff; stroke-linejoin: miter"/>
   </g>
   <g id="patch_7">
    <path d="M 211.205959 313.757969 
L 236.993884 313.757969 
L 236.993884 308.220308 
L 211.205959 308.220308 
z
" clip-path="url(#p257ce98933)" style="fill: #2196f3; opacity: 0.3; stroke: #ffffff; stroke-linejoin: miter"/>
   </g>
   <g id="patch_8">
    <path d="M 236.993884 313.757969 
L 262.781809 313.757969 
L 262.781809 308.220308 
L 236.993884 308.220308 
z
" clip-path="url(#p257ce98933)" style="fill: #2196f3; opacity: 0.3; stroke: #ffffff; stroke-linejoin: miter"/>
   </g>
   <g id="patch_9">
    <path d="M 262.781809 313.757969 
L 288.569734 313.757969 
L 288.569734 305.451478 
L 262.781809 305.451478 
z
" clip-path="url(#p257ce98933)" style="fill: #2196f3; opacity: 0.3; stroke: #ffffff; stroke-linejoin: miter"/>
   </g>
   <g id="patch_10">
    <path d="M 288.569734 313.757969 
L 314.357659 313.757969 
L 314.357659 299.913818 
L 288.569734 299.913818 
z
" clip-path="url(#p257ce98933)" style="fill: #2196f3; opacity: 0.3; stroke: #ffffff; stroke-linejoin: miter"/>
   </g>
   <g id="patch_11">
    <path d="M 314.357659 313.757969 
L 340.145584 313.757969 
L 340.145584 286.069666 
L 314.357659 286.069666 
z
" clip-path="url(#p257ce98933)" style="fill: #2196f3; opacity: 0.3; stroke: #ffffff; stroke-linejoin: miter"/>
   </g>
   <g id="patch_12">
    <path d="M 340.145584 313.757969 
L 365.933508 313.757969 
L 365.933508 247.306043 
L 340.145584 247.306043 
z
" clip-path="url(#p257ce98933)" style="fill: #2196f3; opacity: 0.3; stroke: #ffffff; stroke-linejoin: miter"/>
   </g>
   <g id="patch_13">
    <path d="M 365.933508 313.757969 
L 391.721433 313.757969 
L 391.721433 191.929438 
L 365.933508 191.929438 
z
" clip-path="url(#p257ce98933)" style="fill: #2196f3; opacity: 0.3; stroke: #ffffff; stroke-linejoin: miter"/>
   </g>
   <g id="patch_14">
    <path d="M 391.721433 313.757969 
L 417.509358 313.757969 
L 417.509358 203.004759 
L 391.721433 203.004759 
z
" clip-path="url(#p257ce98933)" style="fill: #2196f3; opacity: 0.3; stroke: #ffffff; stroke-linejoin: miter"/>
   </g>
   <g id="patch_15">
    <path d="M 417.509358 313.757969 
L 443.297283 313.757969 
L 443.297283 208.54242 
L 417.509358 208.54242 
z
" clip-path="url(#p257ce98933)" style="fill: #2196f3; opacity: 0.3; stroke: #ffffff; stroke-linejoin: miter"/>
   </g>
   <g id="patch_16">
    <path d="M 443.297283 313.757969 
L 469.085208 313.757969 
L 469.085208 250.074873 
L 443.297283 250.074873 
z
" clip-path="url(#p257ce98933)" style="fill: #2196f3; opacity: 0.3; stroke: #ffffff; stroke-linejoin: miter"/>
   </g>
   <g id="patch_17">
    <path d="M 469.085208 313.757969 
L 494.873133 313.757969 
L 494.873133 269.456685 
L 469.085208 269.456685 
z
" clip-path="url(#p257ce98933)" style="fill: #2196f3; opacity: 0.3; stroke: #ffffff; stroke-linejoin: miter"/>
   </g>
   <g id="patch_18">
    <path d="M 494.873133 313.757969 
L 520.661058 313.757969 
L 520.661058 305.451478 
L 494.873133 305.451478 
z
" clip-path="url(#p257ce98933)" style="fill: #2196f3; opacity: 0.3; stroke: #ffffff; stroke-linejoin: miter"/>
   </g>
   <g id="patch_19">
    <path d="M 520.661058 313.757969 
L 546.448983 313.757969 
L 546.448983 305.451478 
L 520.661058 305.451478 
z
" clip-path="url(#p257ce98933)" style="fill: #2196f3; opacity: 0.3; stroke: #ffffff; stroke-linejoin: miter"/>
   </g>
   <g id="patch_20">
    <path d="M 546.448983 313.757969 
L 572.236908 313.757969 
L 572.236908 308.220308 
L 546.448983 308.220308 
z
" clip-path="url(#p257ce98933)" style="fill: #2196f3; opacity: 0.3; stroke: #ffffff; stroke-linejoin: miter"/>
   </g>
   <g id="patch_21">
    <path d="M 572.236908 313.757969 
L 598.024833 313.757969 
L 598.024833 308.220308 
L 572.236908 308.220308 
z
" clip-path="url(#p257ce98933)" style="fill: #2196f3; opacity: 0.3; stroke: #ffffff; stroke-linejoin: miter"/>
   </g>
   <g id="patch_22">
    <path d="M 598.024833 313.757969 
L 623.812758 313.757969 
L 623.812758 313.757969 
L 598.024833 313.757969 
z
" clip-path="url(#p257ce98933)" style="fill: #2196f3; opacity: 0.3; stroke: #ffffff; stroke-linejoin: miter"/>
   </g>
   <g id="patch_23">
    <path d="M 623.812758 313.757969 
L 649.600683 313.757969 
L 649.600683 313.757969 
L 623.812758 313.757969 
z
" clip-path="url(#p257ce98933)" style="fill: #2196f3; opacity: 0.3; stroke: #ffffff; stroke-linejoin: miter"/>
   </g>
   <g id="patch_24">
    <path d="M 649.600683 313.757969 
L 675.388608 313.757969 
L 675.388608 310.989139 
L 649.600683 310.989139 
z
" clip-path="url(#p257ce98933)" style="fill: #2196f3; opacity: 0.3; stroke: #ffffff; stroke-linejoin: miter"/>
   </g>
   <g id="FillBetweenPolyCollection_1">
    <defs>
     <path id="m4aad7f7217" d="M 74.779517 -38.524062 
L 74.779517 -38.789149 
L 76.238936 -38.833956 
L 77.698354 -38.883823 
L 79.157773 -38.93882 
L 80.617191 -38.998914 
L 82.07661 -39.063958 
L 83.536028 -39.133679 
L 84.995447 -39.207668 
L 86.454865 -39.285379 
L 87.914284 -39.366132 
L 89.373702 -39.449117 
L 90.833121 -39.533408 
L 92.292539 -39.617987 
L 93.751958 -39.701763 
L 95.211376 -39.783609 
L 96.670795 -39.862395 
L 98.130213 -39.937026 
L 99.589632 -40.006488 
L 101.04905 -40.069885 
L 102.508469 -40.126481 
L 103.967887 -40.175739 
L 105.427306 -40.217349 
L 106.886724 -40.251256 
L 108.346143 -40.277673 
L 109.805561 -40.29709 
L 111.26498 -40.310272 
L 112.724398 -40.318237 
L 114.183817 -40.322238 
L 115.643235 -40.323727 
L 117.102654 -40.324304 
L 118.562072 -40.325673 
L 120.021491 -40.32958 
L 121.480909 -40.337752 
L 122.940328 -40.351838 
L 124.399746 -40.373346 
L 125.859165 -40.403586 
L 127.318583 -40.44362 
L 128.778002 -40.49422 
L 130.23742 -40.555834 
L 131.696839 -40.628562 
L 133.156257 -40.712152 
L 134.615676 -40.805996 
L 136.075094 -40.909151 
L 137.534513 -41.02036 
L 138.993931 -41.138093 
L 140.45335 -41.260594 
L 141.912768 -41.385929 
L 143.372187 -41.512052 
L 144.831605 -41.636859 
L 146.291024 -41.758255 
L 147.750442 -41.874207 
L 149.209861 -41.982807 
L 150.669279 -42.082315 
L 152.128698 -42.171199 
L 153.588116 -42.248173 
L 155.047535 -42.312215 
L 156.506953 -42.36258 
L 157.966372 -42.398808 
L 159.42579 -42.420715 
L 160.885209 -42.428382 
L 162.344627 -42.42214 
L 163.804046 -42.402545 
L 165.263464 -42.370358 
L 166.722883 -42.326513 
L 168.182301 -42.272101 
L 169.64172 -42.208339 
L 171.101138 -42.136553 
L 172.560557 -42.058158 
L 174.019975 -41.974643 
L 175.479394 -41.887557 
L 176.938812 -41.798493 
L 178.398231 -41.709078 
L 179.857649 -41.620956 
L 181.317068 -41.535776 
L 182.776486 -41.455168 
L 184.235905 -41.380723 
L 185.695323 -41.313968 
L 187.154742 -41.256333 
L 188.61416 -41.209118 
L 190.073579 -41.17346 
L 191.532997 -41.150298 
L 192.992416 -41.140338 
L 194.451834 -41.144024 
L 195.911253 -41.161513 
L 197.370671 -41.192663 
L 198.83009 -41.237023 
L 200.289508 -41.293842 
L 201.748927 -41.362087 
L 203.208345 -41.440471 
L 204.667764 -41.527503 
L 206.127182 -41.621536 
L 207.586601 -41.720835 
L 209.046019 -41.823649 
L 210.505438 -41.928284 
L 211.964856 -42.033177 
L 213.424275 -42.13697 
L 214.883693 -42.238575 
L 216.343112 -42.337225 
L 217.80253 -42.432514 
L 219.261949 -42.524421 
L 220.721367 -42.613317 
L 222.180786 -42.699944 
L 223.640204 -42.785391 
L 225.099623 -42.871034 
L 226.559041 -42.958477 
L 228.01846 -43.049466 
L 229.477878 -43.145806 
L 230.937297 -43.249266 
L 232.396715 -43.361485 
L 233.856134 -43.483886 
L 235.315552 -43.617598 
L 236.774971 -43.763388 
L 238.234389 -43.921615 
L 239.693808 -44.092197 
L 241.153226 -44.27461 
L 242.612645 -44.467896 
L 244.072063 -44.670703 
L 245.531482 -44.881335 
L 246.9909 -45.097829 
L 248.450319 -45.318038 
L 249.909737 -45.539728 
L 251.369156 -45.760674 
L 252.828574 -45.978764 
L 254.287993 -46.192091 
L 255.747411 -46.399035 
L 257.20683 -46.598338 
L 258.666248 -46.789151 
L 260.125667 -46.971073 
L 261.585085 -47.144154 
L 263.044504 -47.30889 
L 264.503922 -47.466184 
L 265.963341 -47.617302 
L 267.42276 -47.7638 
L 268.882178 -47.907447 
L 270.341597 -48.050136 
L 271.801015 -48.1938 
L 273.260434 -48.340326 
L 274.719852 -48.491478 
L 276.179271 -48.64884 
L 277.638689 -48.813772 
L 279.098108 -48.987388 
L 280.557526 -49.170561 
L 282.016945 -49.363948 
L 283.476363 -49.568042 
L 284.935782 -49.783237 
L 286.3952 -50.009919 
L 287.854619 -50.248562 
L 289.314037 -50.499829 
L 290.773456 -50.764673 
L 292.232874 -51.044432 
L 293.692293 -51.340905 
L 295.151711 -51.65641 
L 296.61113 -51.993812 
L 298.070548 -52.356529 
L 299.529967 -52.748505 
L 300.989385 -53.174142 
L 302.448804 -53.638221 
L 303.908222 -54.145781 
L 305.367641 -54.701988 
L 306.827059 -55.311984 
L 308.286478 -55.980729 
L 309.745896 -56.71285 
L 311.205315 -57.51249 
L 312.664733 -58.383178 
L 314.124152 -59.327718 
L 315.58357 -60.34811 
L 317.042989 -61.445495 
L 318.502407 -62.62014 
L 319.961826 -63.871454 
L 321.421244 -65.198036 
L 322.880663 -66.597757 
L 324.340081 -68.06786 
L 325.7995 -69.605091 
L 327.258918 -71.205838 
L 328.718337 -72.866277 
L 330.177755 -74.582524 
L 331.637174 -76.35078 
L 333.096592 -78.167466 
L 334.556011 -80.029337 
L 336.015429 -81.933578 
L 337.474848 -83.877878 
L 338.934266 -85.860465 
L 340.393685 -87.880126 
L 341.853103 -89.936183 
L 343.312522 -92.028443 
L 344.77194 -94.157122 
L 346.231359 -96.322733 
L 347.690777 -98.525953 
L 349.150196 -100.767469 
L 350.609614 -103.047797 
L 352.069033 -105.3671 
L 353.528451 -107.724984 
L 354.98787 -110.120301 
L 356.447288 -112.550953 
L 357.906707 -115.013709 
L 359.366125 -117.50404 
L 360.825544 -120.015985 
L 362.284962 -122.542048 
L 363.744381 -125.073149 
L 365.203799 -127.598614 
L 366.663218 -130.10623 
L 368.122636 -132.58236 
L 369.582055 -135.012115 
L 371.041473 -137.379602 
L 372.500892 -139.668215 
L 373.96031 -141.86099 
L 375.419729 -143.941001 
L 376.879147 -145.89179 
L 378.338566 -147.697808 
L 379.797984 -149.344865 
L 381.257403 -150.820556 
L 382.716821 -152.114662 
L 384.17624 -153.219489 
L 385.635658 -154.130145 
L 387.095077 -154.844735 
L 388.554495 -155.364466 
L 390.013914 -155.693647 
L 391.473332 -155.839599 
L 392.932751 -155.812456 
L 394.392169 -155.624879 
L 395.851588 -155.291689 
L 397.311006 -154.829429 
L 398.770425 -154.255875 
L 400.229843 -153.589516 
L 401.689262 -152.849017 
L 403.14868 -152.052695 
L 404.608099 -151.21801 
L 406.067517 -150.361102 
L 407.526936 -149.496387 
L 408.986354 -148.636214 
L 410.445773 -147.790597 
L 411.905191 -146.967034 
L 413.36461 -146.170401 
L 414.824028 -145.402926 
L 416.283447 -144.664249 
L 417.742865 -143.951544 
L 419.202284 -143.259712 
L 420.661702 -142.581625 
L 422.121121 -141.908422 
L 423.580539 -141.22984 
L 425.039958 -140.534572 
L 426.499376 -139.810646 
L 427.958795 -139.045815 
L 429.418213 -138.227939 
L 430.877632 -137.345368 
L 432.33705 -136.387299 
L 433.796469 -135.34411 
L 435.255887 -134.207659 
L 436.715306 -132.971538 
L 438.174724 -131.631281 
L 439.634143 -130.184508 
L 441.093561 -128.631017 
L 442.55298 -126.972803 
L 444.012398 -125.214019 
L 445.471817 -123.36086 
L 446.931235 -121.421398 
L 448.390654 -119.40535 
L 449.850072 -117.3238 
L 451.309491 -115.188884 
L 452.768909 -113.013443 
L 454.228328 -110.810664 
L 455.687746 -108.593718 
L 457.147165 -106.375413 
L 458.606583 -104.167864 
L 460.066002 -101.982213 
L 461.52542 -99.828383 
L 462.984839 -97.714891 
L 464.444257 -95.648723 
L 465.903676 -93.635264 
L 467.363094 -91.678293 
L 468.822513 -89.780035 
L 470.281931 -87.941264 
L 471.74135 -86.161449 
L 473.200768 -84.438942 
L 474.660187 -82.771184 
L 476.119605 -81.154929 
L 477.579024 -79.58648 
L 479.038443 -78.06191 
L 480.497861 -76.577283 
L 481.95728 -75.12884 
L 483.416698 -73.713174 
L 484.876117 -72.327364 
L 486.335535 -70.969083 
L 487.794954 -69.636664 
L 489.254372 -68.32914 
L 490.713791 -67.046245 
L 492.173209 -65.788382 
L 493.632628 -64.556575 
L 495.092046 -63.352383 
L 496.551465 -62.177808 
L 498.010883 -61.035177 
L 499.470302 -59.927028 
L 500.92972 -58.855981 
L 502.389139 -57.824619 
L 503.848557 -56.835365 
L 505.307976 -55.890381 
L 506.767394 -54.991474 
L 508.226813 -54.140017 
L 509.686231 -53.336897 
L 511.14565 -52.58248 
L 512.605068 -51.876593 
L 514.064487 -51.218544 
L 515.523905 -50.60714 
L 516.983324 -50.040746 
L 518.442742 -49.517344 
L 519.902161 -49.034612 
L 521.361579 -48.59001 
L 522.820998 -48.180869 
L 524.280416 -47.804482 
L 525.739835 -47.458185 
L 527.199253 -47.139436 
L 528.658672 -46.845876 
L 530.11809 -46.575379 
L 531.577509 -46.326079 
L 533.036927 -46.096387 
L 534.496346 -45.884986 
L 535.955764 -45.690812 
L 537.415183 -45.513014 
L 538.874601 -45.350918 
L 540.33402 -45.203966 
L 541.793438 -45.071666 
L 543.252857 -44.953531 
L 544.712275 -44.849029 
L 546.171694 -44.757537 
L 547.631112 -44.678306 
L 549.090531 -44.610433 
L 550.549949 -44.552853 
L 552.009368 -44.504337 
L 553.468786 -44.463501 
L 554.928205 -44.428832 
L 556.387623 -44.398714 
L 557.847042 -44.371465 
L 559.30646 -44.345375 
L 560.765879 -44.318745 
L 562.225297 -44.289925 
L 563.684716 -44.257349 
L 565.144134 -44.219564 
L 566.603553 -44.175255 
L 568.062971 -44.123259 
L 569.52239 -44.062585 
L 570.981808 -43.992413 
L 572.441227 -43.912101 
L 573.900645 -43.821187 
L 575.360064 -43.719377 
L 576.819482 -43.60655 
L 578.278901 -43.482747 
L 579.738319 -43.348168 
L 581.197738 -43.203164 
L 582.657156 -43.048237 
L 584.116575 -42.884027 
L 585.575993 -42.711312 
L 587.035412 -42.530997 
L 588.49483 -42.344106 
L 589.954249 -42.151768 
L 591.413667 -41.955205 
L 592.873086 -41.755715 
L 594.332504 -41.554647 
L 595.791923 -41.353382 
L 597.251341 -41.153311 
L 598.71076 -40.955801 
L 600.170178 -40.762175 
L 601.629597 -40.573685 
L 603.089015 -40.39149 
L 604.548434 -40.21663 
L 606.007852 -40.050013 
L 607.467271 -39.892402 
L 608.926689 -39.744404 
L 610.386108 -39.60647 
L 611.845526 -39.478893 
L 613.304945 -39.361817 
L 614.764363 -39.255249 
L 616.223782 -39.15907 
L 617.6832 -39.073056 
L 619.142619 -38.996895 
L 620.602037 -38.93021 
L 622.061456 -38.872579 
L 623.520874 -38.823559 
L 624.980293 -38.782702 
L 626.439711 -38.749575 
L 627.89913 -38.723774 
L 629.358548 -38.704941 
L 630.817967 -38.692767 
L 632.277385 -38.687002 
L 633.736804 -38.687453 
L 635.196222 -38.693986 
L 636.655641 -38.706519 
L 638.115059 -38.725011 
L 639.574478 -38.749452 
L 641.033896 -38.779844 
L 642.493315 -38.816189 
L 643.952733 -38.858466 
L 645.412152 -38.90661 
L 646.87157 -38.960494 
L 648.330989 -39.019909 
L 649.790407 -39.084547 
L 651.249826 -39.153984 
L 652.709244 -39.22767 
L 654.168663 -39.304922 
L 655.628081 -39.384924 
L 657.0875 -39.466728 
L 657.0875 -38.524062 
L 657.0875 -38.524062 
L 655.628081 -38.524062 
L 654.168663 -38.524062 
L 652.709244 -38.524062 
L 651.249826 -38.524062 
L 649.790407 -38.524062 
L 648.330989 -38.524062 
L 646.87157 -38.524062 
L 645.412152 -38.524062 
L 643.952733 -38.524062 
L 642.493315 -38.524062 
L 641.033896 -38.524062 
L 639.574478 -38.524062 
L 638.115059 -38.524062 
L 636.655641 -38.524062 
L 635.196222 -38.524062 
L 633.736804 -38.524062 
L 632.277385 -38.524062 
L 630.817967 -38.524062 
L 629.358548 -38.524062 
L 627.89913 -38.524062 
L 626.439711 -38.524062 
L 624.980293 -38.524062 
L 623.520874 -38.524062 
L 622.061456 -38.524062 
L 620.602037 -38.524062 
L 619.142619 -38.524062 
L 617.6832 -38.524062 
L 616.223782 -38.524062 
L 614.764363 -38.524062 
L 613.304945 -38.524062 
L 611.845526 -38.524062 
L 610.386108 -38.524062 
L 608.926689 -38.524062 
L 607.467271 -38.524062 
L 606.007852 -38.524062 
L 604.548434 -38.524062 
L 603.089015 -38.524062 
L 601.629597 -38.524062 
L 600.170178 -38.524062 
L 598.71076 -38.524062 
L 597.251341 -38.524062 
L 595.791923 -38.524062 
L 594.332504 -38.524062 
L 592.873086 -38.524062 
L 591.413667 -38.524062 
L 589.954249 -38.524062 
L 588.49483 -38.524062 
L 587.035412 -38.524062 
L 585.575993 -38.524062 
L 584.116575 -38.524062 
L 582.657156 -38.524062 
L 581.197738 -38.524062 
L 579.738319 -38.524062 
L 578.278901 -38.524062 
L 576.819482 -38.524062 
L 575.360064 -38.524062 
L 573.900645 -38.524062 
L 572.441227 -38.524062 
L 570.981808 -38.524062 
L 569.52239 -38.524062 
L 568.062971 -38.524062 
L 566.603553 -38.524062 
L 565.144134 -38.524062 
L 563.684716 -38.524062 
L 562.225297 -38.524062 
L 560.765879 -38.524062 
L 559.30646 -38.524062 
L 557.847042 -38.524062 
L 556.387623 -38.524062 
L 554.928205 -38.524062 
L 553.468786 -38.524062 
L 552.009368 -38.524062 
L 550.549949 -38.524062 
L 549.090531 -38.524062 
L 547.631112 -38.524062 
L 546.171694 -38.524062 
L 544.712275 -38.524062 
L 543.252857 -38.524062 
L 541.793438 -38.524062 
L 540.33402 -38.524062 
L 538.874601 -38.524062 
L 537.415183 -38.524062 
L 535.955764 -38.524062 
L 534.496346 -38.524062 
L 533.036927 -38.524062 
L 531.577509 -38.524062 
L 530.11809 -38.524062 
L 528.658672 -38.524062 
L 527.199253 -38.524062 
L 525.739835 -38.524062 
L 524.280416 -38.524062 
L 522.820998 -38.524062 
L 521.361579 -38.524062 
L 519.902161 -38.524062 
L 518.442742 -38.524062 
L 516.983324 -38.524062 
L 515.523905 -38.524062 
L 514.064487 -38.524062 
L 512.605068 -38.524062 
L 511.14565 -38.524062 
L 509.686231 -38.524062 
L 508.226813 -38.524062 
L 506.767394 -38.524062 
L 505.307976 -38.524062 
L 503.848557 -38.524062 
L 502.389139 -38.524062 
L 500.92972 -38.524062 
L 499.470302 -38.524062 
L 498.010883 -38.524062 
L 496.551465 -38.524062 
L 495.092046 -38.524062 
L 493.632628 -38.524062 
L 492.173209 -38.524062 
L 490.713791 -38.524062 
L 489.254372 -38.524062 
L 487.794954 -38.524062 
L 486.335535 -38.524062 
L 484.876117 -38.524062 
L 483.416698 -38.524062 
L 481.95728 -38.524062 
L 480.497861 -38.524062 
L 479.038443 -38.524062 
L 477.579024 -38.524062 
L 476.119605 -38.524062 
L 474.660187 -38.524062 
L 473.200768 -38.524062 
L 471.74135 -38.524062 
L 470.281931 -38.524062 
L 468.822513 -38.524062 
L 467.363094 -38.524062 
L 465.903676 -38.524062 
L 464.444257 -38.524062 
L 462.984839 -38.524062 
L 461.52542 -38.524062 
L 460.066002 -38.524062 
L 458.606583 -38.524062 
L 457.147165 -38.524062 
L 455.687746 -38.524062 
L 454.228328 -38.524062 
L 452.768909 -38.524062 
L 451.309491 -38.524062 
L 449.850072 -38.524062 
L 448.390654 -38.524062 
L 446.931235 -38.524062 
L 445.471817 -38.524062 
L 444.012398 -38.524062 
L 442.55298 -38.524062 
L 441.093561 -38.524062 
L 439.634143 -38.524062 
L 438.174724 -38.524062 
L 436.715306 -38.524062 
L 435.255887 -38.524062 
L 433.796469 -38.524062 
L 432.33705 -38.524062 
L 430.877632 -38.524062 
L 429.418213 -38.524062 
L 427.958795 -38.524062 
L 426.499376 -38.524062 
L 425.039958 -38.524062 
L 423.580539 -38.524062 
L 422.121121 -38.524062 
L 420.661702 -38.524062 
L 419.202284 -38.524062 
L 417.742865 -38.524062 
L 416.283447 -38.524062 
L 414.824028 -38.524062 
L 413.36461 -38.524062 
L 411.905191 -38.524062 
L 410.445773 -38.524062 
L 408.986354 -38.524062 
L 407.526936 -38.524062 
L 406.067517 -38.524062 
L 404.608099 -38.524062 
L 403.14868 -38.524062 
L 401.689262 -38.524062 
L 400.229843 -38.524062 
L 398.770425 -38.524062 
L 397.311006 -38.524062 
L 395.851588 -38.524062 
L 394.392169 -38.524062 
L 392.932751 -38.524062 
L 391.473332 -38.524062 
L 390.013914 -38.524062 
L 388.554495 -38.524062 
L 387.095077 -38.524062 
L 385.635658 -38.524062 
L 384.17624 -38.524062 
L 382.716821 -38.524062 
L 381.257403 -38.524062 
L 379.797984 -38.524062 
L 378.338566 -38.524062 
L 376.879147 -38.524062 
L 375.419729 -38.524062 
L 373.96031 -38.524062 
L 372.500892 -38.524062 
L 371.041473 -38.524062 
L 369.582055 -38.524062 
L 368.122636 -38.524062 
L 366.663218 -38.524062 
L 365.203799 -38.524062 
L 363.744381 -38.524062 
L 362.284962 -38.524062 
L 360.825544 -38.524062 
L 359.366125 -38.524062 
L 357.906707 -38.524062 
L 356.447288 -38.524062 
L 354.98787 -38.524062 
L 353.528451 -38.524062 
L 352.069033 -38.524062 
L 350.609614 -38.524062 
L 349.150196 -38.524062 
L 347.690777 -38.524062 
L 346.231359 -38.524062 
L 344.77194 -38.524062 
L 343.312522 -38.524062 
L 341.853103 -38.524062 
L 340.393685 -38.524062 
L 338.934266 -38.524062 
L 337.474848 -38.524062 
L 336.015429 -38.524062 
L 334.556011 -38.524062 
L 333.096592 -38.524062 
L 331.637174 -38.524062 
L 330.177755 -38.524062 
L 328.718337 -38.524062 
L 327.258918 -38.524062 
L 325.7995 -38.524062 
L 324.340081 -38.524062 
L 322.880663 -38.524062 
L 321.421244 -38.524062 
L 319.961826 -38.524062 
L 318.502407 -38.524062 
L 317.042989 -38.524062 
L 315.58357 -38.524062 
L 314.124152 -38.524062 
L 312.664733 -38.524062 
L 311.205315 -38.524062 
L 309.745896 -38.524062 
L 308.286478 -38.524062 
L 306.827059 -38.524062 
L 305.367641 -38.524062 
L 303.908222 -38.524062 
L 302.448804 -38.524062 
L 300.989385 -38.524062 
L 299.529967 -38.524062 
L 298.070548 -38.524062 
L 296.61113 -38.524062 
L 295.151711 -38.524062 
L 293.692293 -38.524062 
L 292.232874 -38.524062 
L 290.773456 -38.524062 
L 289.314037 -38.524062 
L 287.854619 -38.524062 
L 286.3952 -38.524062 
L 284.935782 -38.524062 
L 283.476363 -38.524062 
L 282.016945 -38.524062 
L 280.557526 -38.524062 
L 279.098108 -38.524062 
L 277.638689 -38.524062 
L 276.179271 -38.524062 
L 274.719852 -38.524062 
L 273.260434 -38.524062 
L 271.801015 -38.524062 
L 270.341597 -38.524062 
L 268.882178 -38.524062 
L 267.42276 -38.524062 
L 265.963341 -38.524062 
L 264.503922 -38.524062 
L 263.044504 -38.524062 
L 261.585085 -38.524062 
L 260.125667 -38.524062 
L 258.666248 -38.524062 
L 257.20683 -38.524062 
L 255.747411 -38.524062 
L 254.287993 -38.524062 
L 252.828574 -38.524062 
L 251.369156 -38.524062 
L 249.909737 -38.524062 
L 248.450319 -38.524062 
L 246.9909 -38.524062 
L 245.531482 -38.524062 
L 244.072063 -38.524062 
L 242.612645 -38.524062 
L 241.153226 -38.524062 
L 239.693808 -38.524062 
L 238.234389 -38.524062 
L 236.774971 -38.524062 
L 235.315552 -38.524062 
L 233.856134 -38.524062 
L 232.396715 -38.524062 
L 230.937297 -38.524062 
L 229.477878 -38.524062 
L 228.01846 -38.524062 
L 226.559041 -38.524062 
L 225.099623 -38.524062 
L 223.640204 -38.524062 
L 222.180786 -38.524062 
L 220.721367 -38.524062 
L 219.261949 -38.524062 
L 217.80253 -38.524062 
L 216.343112 -38.524062 
L 214.883693 -38.524062 
L 213.424275 -38.524062 
L 211.964856 -38.524062 
L 210.505438 -38.524062 
L 209.046019 -38.524062 
L 207.586601 -38.524062 
L 206.127182 -38.524062 
L 204.667764 -38.524062 
L 203.208345 -38.524062 
L 201.748927 -38.524062 
L 200.289508 -38.524062 
L 198.83009 -38.524062 
L 197.370671 -38.524062 
L 195.911253 -38.524062 
L 194.451834 -38.524062 
L 192.992416 -38.524062 
L 191.532997 -38.524062 
L 190.073579 -38.524062 
L 188.61416 -38.524062 
L 187.154742 -38.524062 
L 185.695323 -38.524062 
L 184.235905 -38.524062 
L 182.776486 -38.524062 
L 181.317068 -38.524062 
L 179.857649 -38.524062 
L 178.398231 -38.524062 
L 176.938812 -38.524062 
L 175.479394 -38.524062 
L 174.019975 -38.524062 
L 172.560557 -38.524062 
L 171.101138 -38.524062 
L 169.64172 -38.524062 
L 168.182301 -38.524062 
L 166.722883 -38.524062 
L 165.263464 -38.524062 
L 163.804046 -38.524062 
L 162.344627 -38.524062 
L 160.885209 -38.524062 
L 159.42579 -38.524062 
L 157.966372 -38.524062 
L 156.506953 -38.524062 
L 155.047535 -38.524062 
L 153.588116 -38.524062 
L 152.128698 -38.524062 
L 150.669279 -38.524062 
L 149.209861 -38.524062 
L 147.750442 -38.524062 
L 146.291024 -38.524062 
L 144.831605 -38.524062 
L 143.372187 -38.524062 
L 141.912768 -38.524062 
L 140.45335 -38.524062 
L 138.993931 -38.524062 
L 137.534513 -38.524062 
L 136.075094 -38.524062 
L 134.615676 -38.524062 
L 133.156257 -38.524062 
L 131.696839 -38.524062 
L 130.23742 -38.524062 
L 128.778002 -38.524062 
L 127.318583 -38.524062 
L 125.859165 -38.524062 
L 124.399746 -38.524062 
L 122.940328 -38.524062 
L 121.480909 -38.524062 
L 120.021491 -38.524062 
L 118.562072 -38.524062 
L 117.102654 -38.524062 
L 115.643235 -38.524062 
L 114.183817 -38.524062 
L 112.724398 -38.524062 
L 111.26498 -38.524062 
L 109.805561 -38.524062 
L 108.346143 -38.524062 
L 106.886724 -38.524062 
L 105.427306 -38.524062 
L 103.967887 -38.524062 
L 102.508469 -38.524062 
L 101.04905 -38.524062 
L 99.589632 -38.524062 
L 98.130213 -38.524062 
L 96.670795 -38.524062 
L 95.211376 -38.524062 
L 93.751958 -38.524062 
L 92.292539 -38.524062 
L 90.833121 -38.524062 
L 89.373702 -38.524062 
L 87.914284 -38.524062 
L 86.454865 -38.524062 
L 84.995447 -38.524062 
L 83.536028 -38.524062 
L 82.07661 -38.524062 
L 80.617191 -38.524062 
L 79.157773 -38.524062 
L 77.698354 -38.524062 
L 76.238936 -38.524062 
L 74.779517 -38.524062 
z
" style="stroke: #2196f3; stroke-opacity: 0.18"/>
    </defs>
    <g clip-path="url(#p257ce98933)">
     <use xlink:href="#m4aad7f7217" x="0" y="352.282031" style="fill: #2196f3; fill-opacity: 0.18; stroke: #2196f3; stroke-opacity: 0.18"/>
    </g>
   </g>
   <g id="patch_25">
    <path d="M 106.390522 313.757969 
L 122.422897 313.757969 
L 122.422897 293.983819 
L 106.390522 293.983819 
z
" clip-path="url(#p257ce98933)" style="fill: #ff5722; opacity: 0.3; stroke: #ffffff; stroke-linejoin: miter"/>
   </g>
   <g id="patch_26">
    <path d="M 122.422897 313.757969 
L 138.455273 313.757969 
L 138.455273 205.000146 
L 122.422897 205.000146 
z
" clip-path="url(#p257ce98933)" style="fill: #ff5722; opacity: 0.3; stroke: #ffffff; stroke-linejoin: miter"/>
   </g>
   <g id="patch_27">
    <path d="M 138.455273 313.757969 
L 154.487649 313.757969 
L 154.487649 175.338921 
L 138.455273 175.338921 
z
" clip-path="url(#p257ce98933)" style="fill: #ff5722; opacity: 0.3; stroke: #ffffff; stroke-linejoin: miter"/>
   </g>
   <g id="patch_28">
    <path d="M 154.487649 313.757969 
L 170.520024 313.757969 
L 170.520024 36.919874 
L 154.487649 36.919874 
z
" clip-path="url(#p257ce98933)" style="fill: #ff5722; opacity: 0.3; stroke: #ffffff; stroke-linejoin: miter"/>
   </g>
   <g id="patch_29">
    <path d="M 170.520024 313.757969 
L 186.5524 313.757969 
L 186.5524 116.016472 
L 170.520024 116.016472 
z
" clip-path="url(#p257ce98933)" style="fill: #ff5722; opacity: 0.3; stroke: #ffffff; stroke-linejoin: miter"/>
   </g>
   <g id="patch_30">
    <path d="M 186.5524 313.757969 
L 202.584776 313.757969 
L 202.584776 234.66137 
L 186.5524 234.66137 
z
" clip-path="url(#p257ce98933)" style="fill: #ff5722; opacity: 0.3; stroke: #ffffff; stroke-linejoin: miter"/>
   </g>
   <g id="patch_31">
    <path d="M 202.584776 313.757969 
L 218.617151 313.757969 
L 218.617151 234.66137 
L 202.584776 234.66137 
z
" clip-path="url(#p257ce98933)" style="fill: #ff5722; opacity: 0.3; stroke: #ffffff; stroke-linejoin: miter"/>
   </g>
   <g id="patch_32">
    <path d="M 218.617151 313.757969 
L 234.649527 313.757969 
L 234.649527 274.209669 
L 218.617151 274.209669 
z
" clip-path="url(#p257ce98933)" style="fill: #ff5722; opacity: 0.3; stroke: #ffffff; stroke-linejoin: miter"/>
   </g>
   <g id="patch_33">
    <path d="M 234.649527 313.757969 
L 250.681903 313.757969 
L 250.681903 293.983819 
L 234.649527 293.983819 
z
" clip-path="url(#p257ce98933)" style="fill: #ff5722; opacity: 0.3; stroke: #ffffff; stroke-linejoin: miter"/>
   </g>
   <g id="patch_34">
    <path d="M 250.681903 313.757969 
L 266.714278 313.757969 
L 266.714278 293.983819 
L 250.681903 293.983819 
z
" clip-path="url(#p257ce98933)" style="fill: #ff5722; opacity: 0.3; stroke: #ffffff; stroke-linejoin: miter"/>
   </g>
   <g id="patch_35">
    <path d="M 266.714278 313.757969 
L 282.746654 313.757969 
L 282.746654 313.757969 
L 266.714278 313.757969 
z
" clip-path="url(#p257ce98933)" style="fill: #ff5722; opacity: 0.3; stroke: #ffffff; stroke-linejoin: miter"/>
   </g>
   <g id="patch_36">
    <path d="M 282.746654 313.757969 
L 298.779029 313.757969 
L 298.779029 313.757969 
L 282.746654 313.757969 
z
" clip-path="url(#p257ce98933)" style="fill: #ff5722; opacity: 0.3; stroke: #ffffff; stroke-linejoin: miter"/>
   </g>
   <g id="patch_37">
    <path d="M 298.779029 313.757969 
L 314.811405 313.757969 
L 314.811405 313.757969 
L 298.779029 313.757969 
z
" clip-path="url(#p257ce98933)" style="fill: #ff5722; opacity: 0.3; stroke: #ffffff; stroke-linejoin: miter"/>
   </g>
   <g id="patch_38">
    <path d="M 314.811405 313.757969 
L 330.843781 313.757969 
L 330.843781 313.757969 
L 314.811405 313.757969 
z
" clip-path="url(#p257ce98933)" style="fill: #ff5722; opacity: 0.3; stroke: #ffffff; stroke-linejoin: miter"/>
   </g>
   <g id="patch_39">
    <path d="M 330.843781 313.757969 
L 346.876156 313.757969 
L 346.876156 313.757969 
L 330.843781 313.757969 
z
" clip-path="url(#p257ce98933)" style="fill: #ff5722; opacity: 0.3; stroke: #ffffff; stroke-linejoin: miter"/>
   </g>
   <g id="patch_40">
    <path d="M 346.876156 313.757969 
L 362.908532 313.757969 
L 362.908532 313.757969 
L 346.876156 313.757969 
z
" clip-path="url(#p257ce98933)" style="fill: #ff5722; opacity: 0.3; stroke: #ffffff; stroke-linejoin: miter"/>
   </g>
   <g id="patch_41">
    <path d="M 362.908532 313.757969 
L 378.940908 313.757969 
L 378.940908 313.757969 
L 362.908532 313.757969 
z
" clip-path="url(#p257ce98933)" style="fill: #ff5722; opacity: 0.3; stroke: #ffffff; stroke-linejoin: miter"/>
   </g>
   <g id="patch_42">
    <path d="M 378.940908 313.757969 
L 394.973283 313.757969 
L 394.973283 313.757969 
L 378.940908 313.757969 
z
" clip-path="url(#p257ce98933)" style="fill: #ff5722; opacity: 0.3; stroke: #ffffff; stroke-linejoin: miter"/>
   </g>
   <g id="patch_43">
    <path d="M 394.973283 313.757969 
L 411.005659 313.757969 
L 411.005659 313.757969 
L 394.973283 313.757969 
z
" clip-path="url(#p257ce98933)" style="fill: #ff5722; opacity: 0.3; stroke: #ffffff; stroke-linejoin: miter"/>
   </g>
   <g id="patch_44">
    <path d="M 411.005659 313.757969 
L 427.038034 313.757969 
L 427.038034 313.757969 
L 411.005659 313.757969 
z
" clip-path="url(#p257ce98933)" style="fill: #ff5722; opacity: 0.3; stroke: #ffffff; stroke-linejoin: miter"/>
   </g>
   <g id="patch_45">
    <path d="M 427.038034 313.757969 
L 443.07041 313.757969 
L 443.07041 313.757969 
L 427.038034 313.757969 
z
" clip-path="url(#p257ce98933)" style="fill: #ff5722; opacity: 0.3; stroke: #ffffff; stroke-linejoin: miter"/>
   </g>
   <g id="patch_46">
    <path d="M 443.07041 313.757969 
L 459.102786 313.757969 
L 459.102786 303.870894 
L 443.07041 303.870894 
z
" clip-path="url(#p257ce98933)" style="fill: #ff5722; opacity: 0.3; stroke: #ffffff; stroke-linejoin: miter"/>
   </g>
   <g id="FillBetweenPolyCollection_2">
    <defs>
     <path id="m70c30d0e41" d="M 74.779517 -38.524062 
L 74.779517 -38.589102 
L 76.238936 -38.624056 
L 77.698354 -38.674924 
L 79.157773 -38.747443 
L 80.617191 -38.848718 
L 82.07661 -38.987261 
L 83.536028 -39.172914 
L 84.995447 -39.41661 
L 86.454865 -39.729968 
L 87.914284 -40.1247 
L 89.373702 -40.611865 
L 90.833121 -41.201029 
L 92.292539 -41.899423 
L 93.751958 -42.711209 
L 95.211376 -43.637018 
L 96.670795 -44.673874 
L 98.130213 -45.815632 
L 99.589632 -47.053979 
L 101.04905 -48.380018 
L 102.508469 -49.786315 
L 103.967887 -51.269268 
L 105.427306 -52.831531 
L 106.886724 -54.484212 
L 108.346143 -56.248534 
L 109.805561 -58.156664 
L 111.26498 -60.251493 
L 112.724398 -62.585236 
L 114.183817 -65.216833 
L 115.643235 -68.208276 
L 117.102654 -71.620137 
L 118.562072 -75.506655 
L 120.021491 -79.910888 
L 121.480909 -84.860459 
L 122.940328 -90.36444 
L 124.399746 -96.411866 
L 125.859165 -102.972199 
L 127.318583 -109.997878 
L 128.778002 -117.428812 
L 130.23742 -125.19835 
L 131.696839 -133.240006 
L 133.156257 -141.493983 
L 134.615676 -149.912449 
L 136.075094 -158.462584 
L 137.534513 -167.126648 
L 138.993931 -175.89874 
L 140.45335 -184.77841 
L 141.912768 -193.761838 
L 143.372187 -202.83182 
L 144.831605 -211.948079 
L 146.291024 -221.0396 
L 147.750442 -230.000495 
L 149.209861 -238.690488 
L 150.669279 -246.940476 
L 152.128698 -254.562868 
L 153.588116 -261.365607 
L 155.047535 -267.168185 
L 156.506953 -271.817517 
L 157.966372 -275.201523 
L 159.42579 -277.258503 
L 160.885209 -277.981029 
L 162.344627 -277.413867 
L 163.804046 -275.646367 
L 165.263464 -272.800571 
L 166.722883 -269.016924 
L 168.182301 -264.439738 
L 169.64172 -259.204509 
L 171.101138 -253.428751 
L 172.560557 -247.207348 
L 174.019975 -240.612629 
L 175.479394 -233.698569 
L 176.938812 -226.507937 
L 178.398231 -219.080791 
L 179.857649 -211.462657 
L 181.317068 -203.710899 
L 182.776486 -195.898207 
L 184.235905 -188.112661 
L 185.695323 -180.454374 
L 187.154742 -173.029267 
L 188.61416 -165.940907 
L 190.073579 -159.281554 
L 191.532997 -153.123681 
L 192.992416 -147.51309 
L 194.451834 -142.464535 
L 195.911253 -137.960455 
L 197.370671 -133.952989 
L 198.83009 -130.369081 
L 200.289508 -127.118087 
L 201.748927 -124.10098 
L 203.208345 -121.220075 
L 204.667764 -118.388137 
L 206.127182 -115.535798 
L 207.586601 -112.616504 
L 209.046019 -109.608491 
L 210.505438 -106.513771 
L 211.964856 -103.354468 
L 213.424275 -100.167227 
L 214.883693 -96.996621 
L 216.343112 -93.888585 
L 217.80253 -90.884788 
L 219.261949 -88.018637 
L 220.721367 -85.31329 
L 222.180786 -82.781673 
L 223.640204 -80.428169 
L 225.099623 -78.251414 
L 226.559041 -76.247475 
L 228.01846 -74.412729 
L 229.477878 -72.745841 
L 230.937297 -71.248501 
L 232.396715 -69.924793 
L 233.856134 -68.779358 
L 235.315552 -67.814713 
L 236.774971 -67.028232 
L 238.234389 -66.40935 
L 239.693808 -65.93753 
L 241.153226 -65.581404 
L 242.612645 -65.299356 
L 244.072063 -65.041586 
L 245.531482 -64.753491 
L 246.9909 -64.380025 
L 248.450319 -63.870513 
L 249.909737 -63.183351 
L 251.369156 -62.290004 
L 252.828574 -61.177785 
L 254.287993 -59.851091 
L 255.747411 -58.330908 
L 257.20683 -56.652705 
L 258.666248 -54.862975 
L 260.125667 -53.014881 
L 261.585085 -51.163563 
L 263.044504 -49.361626 
L 264.503922 -47.655318 
L 265.963341 -46.081718 
L 267.42276 -44.667133 
L 268.882178 -43.426688 
L 270.341597 -42.364981 
L 271.801015 -41.477556 
L 273.260434 -40.752874 
L 274.719852 -40.174494 
L 276.179271 -39.723191 
L 277.638689 -39.378819 
L 279.098108 -39.12178 
L 280.557526 -38.934077 
L 282.016945 -38.799947 
L 283.476363 -38.706143 
L 284.935782 -38.641927 
L 286.3952 -38.598893 
L 287.854619 -38.570657 
L 289.314037 -38.552515 
L 290.773456 -38.541102 
L 292.232874 -38.53407 
L 293.692293 -38.529826 
L 295.151711 -38.527318 
L 296.61113 -38.525865 
L 298.070548 -38.525042 
L 299.529967 -38.524584 
L 300.989385 -38.524335 
L 302.448804 -38.524202 
L 303.908222 -38.524133 
L 305.367641 -38.524097 
L 306.827059 -38.524079 
L 308.286478 -38.52407 
L 309.745896 -38.524066 
L 311.205315 -38.524064 
L 312.664733 -38.524063 
L 314.124152 -38.524063 
L 315.58357 -38.524063 
L 317.042989 -38.524063 
L 318.502407 -38.524063 
L 319.961826 -38.524063 
L 321.421244 -38.524063 
L 322.880663 -38.524063 
L 324.340081 -38.524063 
L 325.7995 -38.524063 
L 327.258918 -38.524063 
L 328.718337 -38.524063 
L 330.177755 -38.524063 
L 331.637174 -38.524063 
L 333.096592 -38.524063 
L 334.556011 -38.524063 
L 336.015429 -38.524063 
L 337.474848 -38.524063 
L 338.934266 -38.524063 
L 340.393685 -38.524063 
L 341.853103 -38.524062 
L 343.312522 -38.524062 
L 344.77194 -38.524062 
L 346.231359 -38.524062 
L 347.690777 -38.524062 
L 349.150196 -38.524062 
L 350.609614 -38.524062 
L 352.069033 -38.524062 
L 353.528451 -38.524062 
L 354.98787 -38.524062 
L 356.447288 -38.524062 
L 357.906707 -38.524062 
L 359.366125 -38.524062 
L 360.825544 -38.524062 
L 362.284962 -38.524062 
L 363.744381 -38.524062 
L 365.203799 -38.524062 
L 366.663218 -38.524062 
L 368.122636 -38.524062 
L 369.582055 -38.524062 
L 371.041473 -38.524062 
L 372.500892 -38.524063 
L 373.96031 -38.524063 
L 375.419729 -38.524063 
L 376.879147 -38.524063 
L 378.338566 -38.524063 
L 379.797984 -38.524063 
L 381.257403 -38.524063 
L 382.716821 -38.524063 
L 384.17624 -38.524063 
L 385.635658 -38.524063 
L 387.095077 -38.524063 
L 388.554495 -38.524063 
L 390.013914 -38.524063 
L 391.473332 -38.524063 
L 392.932751 -38.524063 
L 394.392169 -38.524063 
L 395.851588 -38.524063 
L 397.311006 -38.524063 
L 398.770425 -38.524063 
L 400.229843 -38.524063 
L 401.689262 -38.524064 
L 403.14868 -38.524065 
L 404.608099 -38.524069 
L 406.067517 -38.524075 
L 407.526936 -38.524088 
L 408.986354 -38.524113 
L 410.445773 -38.524162 
L 411.905191 -38.524253 
L 413.36461 -38.524422 
L 414.824028 -38.524724 
L 416.283447 -38.525259 
L 417.742865 -38.526182 
L 419.202284 -38.527744 
L 420.661702 -38.530332 
L 422.121121 -38.53453 
L 423.580539 -38.541195 
L 425.039958 -38.551554 
L 426.499376 -38.567308 
L 427.958795 -38.590755 
L 429.418213 -38.624894 
L 430.877632 -38.673515 
L 432.33705 -38.741229 
L 433.796469 -38.833427 
L 435.255887 -38.956113 
L 436.715306 -39.115601 
L 438.174724 -39.318058 
L 439.634143 -39.568875 
L 441.093561 -39.871923 
L 442.55298 -40.22872 
L 444.012398 -40.637625 
L 445.471817 -41.093149 
L 446.931235 -41.58552 
L 448.390654 -42.100607 
L 449.850072 -42.620297 
L 451.309491 -43.123362 
L 452.768909 -43.586789 
L 454.228328 -43.987462 
L 455.687746 -44.304056 
L 457.147165 -44.5189 
L 458.606583 -44.619619 
L 460.066002 -44.600305 
L 461.52542 -44.462096 
L 462.984839 -44.213063 
L 464.444257 -43.86743 
L 465.903676 -43.444231 
L 467.363094 -42.965573 
L 468.822513 -42.454738 
L 470.281931 -41.934339 
L 471.74135 -41.424728 
L 473.200768 -40.942816 
L 474.660187 -40.501357 
L 476.119605 -40.108725 
L 477.579024 -39.769116 
L 479.038443 -39.483077 
L 480.497861 -39.248245 
L 481.95728 -39.060176 
L 483.416698 -38.913154 
L 484.876117 -38.800904 
L 486.335535 -38.717169 
L 487.794954 -38.656116 
L 489.254372 -38.612592 
L 490.713791 -38.582247 
L 492.173209 -38.561553 
L 493.632628 -38.547744 
L 495.092046 -38.538728 
L 496.551465 -38.532966 
L 498.010883 -38.529362 
L 499.470302 -38.527155 
L 500.92972 -38.525831 
L 502.389139 -38.525054 
L 503.848557 -38.524608 
L 505.307976 -38.524356 
L 506.767394 -38.524218 
L 508.226813 -38.524143 
L 509.686231 -38.524103 
L 511.14565 -38.524083 
L 512.605068 -38.524072 
L 514.064487 -38.524067 
L 515.523905 -38.524065 
L 516.983324 -38.524064 
L 518.442742 -38.524063 
L 519.902161 -38.524063 
L 521.361579 -38.524063 
L 522.820998 -38.524063 
L 524.280416 -38.524063 
L 525.739835 -38.524063 
L 527.199253 -38.524063 
L 528.658672 -38.524063 
L 530.11809 -38.524063 
L 531.577509 -38.524063 
L 533.036927 -38.524063 
L 534.496346 -38.524063 
L 535.955764 -38.524063 
L 537.415183 -38.524063 
L 538.874601 -38.524063 
L 540.33402 -38.524063 
L 541.793438 -38.524063 
L 543.252857 -38.524063 
L 544.712275 -38.524063 
L 546.171694 -38.524062 
L 547.631112 -38.524062 
L 549.090531 -38.524062 
L 550.549949 -38.524062 
L 552.009368 -38.524062 
L 553.468786 -38.524062 
L 554.928205 -38.524062 
L 556.387623 -38.524062 
L 557.847042 -38.524062 
L 559.30646 -38.524062 
L 560.765879 -38.524062 
L 562.225297 -38.524062 
L 563.684716 -38.524062 
L 565.144134 -38.524062 
L 566.603553 -38.524062 
L 568.062971 -38.524062 
L 569.52239 -38.524062 
L 570.981808 -38.524062 
L 572.441227 -38.524062 
L 573.900645 -38.524062 
L 575.360064 -38.524062 
L 576.819482 -38.524062 
L 578.278901 -38.524062 
L 579.738319 -38.524062 
L 581.197738 -38.524062 
L 582.657156 -38.524062 
L 584.116575 -38.524062 
L 585.575993 -38.524062 
L 587.035412 -38.524062 
L 588.49483 -38.524062 
L 589.954249 -38.524062 
L 591.413667 -38.524062 
L 592.873086 -38.524062 
L 594.332504 -38.524062 
L 595.791923 -38.524062 
L 597.251341 -38.524062 
L 598.71076 -38.524062 
L 600.170178 -38.524062 
L 601.629597 -38.524062 
L 603.089015 -38.524062 
L 604.548434 -38.524062 
L 606.007852 -38.524062 
L 607.467271 -38.524062 
L 608.926689 -38.524062 
L 610.386108 -38.524062 
L 611.845526 -38.524062 
L 613.304945 -38.524062 
L 614.764363 -38.524062 
L 616.223782 -38.524062 
L 617.6832 -38.524062 
L 619.142619 -38.524062 
L 620.602037 -38.524062 
L 622.061456 -38.524062 
L 623.520874 -38.524062 
L 624.980293 -38.524062 
L 626.439711 -38.524062 
L 627.89913 -38.524062 
L 629.358548 -38.524062 
L 630.817967 -38.524062 
L 632.277385 -38.524062 
L 633.736804 -38.524062 
L 635.196222 -38.524062 
L 636.655641 -38.524062 
L 638.115059 -38.524062 
L 639.574478 -38.524062 
L 641.033896 -38.524062 
L 642.493315 -38.524062 
L 643.952733 -38.524062 
L 645.412152 -38.524062 
L 646.87157 -38.524062 
L 648.330989 -38.524062 
L 649.790407 -38.524062 
L 651.249826 -38.524062 
L 652.709244 -38.524062 
L 654.168663 -38.524062 
L 655.628081 -38.524062 
L 657.0875 -38.524062 
L 657.0875 -38.524062 
L 657.0875 -38.524062 
L 655.628081 -38.524062 
L 654.168663 -38.524062 
L 652.709244 -38.524062 
L 651.249826 -38.524062 
L 649.790407 -38.524062 
L 648.330989 -38.524062 
L 646.87157 -38.524062 
L 645.412152 -38.524062 
L 643.952733 -38.524062 
L 642.493315 -38.524062 
L 641.033896 -38.524062 
L 639.574478 -38.524062 
L 638.115059 -38.524062 
L 636.655641 -38.524062 
L 635.196222 -38.524062 
L 633.736804 -38.524062 
L 632.277385 -38.524062 
L 630.817967 -38.524062 
L 629.358548 -38.524062 
L 627.89913 -38.524062 
L 626.439711 -38.524062 
L 624.980293 -38.524062 
L 623.520874 -38.524062 
L 622.061456 -38.524062 
L 620.602037 -38.524062 
L 619.142619 -38.524062 
L 617.6832 -38.524062 
L 616.223782 -38.524062 
L 614.764363 -38.524062 
L 613.304945 -38.524062 
L 611.845526 -38.524062 
L 610.386108 -38.524062 
L 608.926689 -38.524062 
L 607.467271 -38.524062 
L 606.007852 -38.524062 
L 604.548434 -38.524062 
L 603.089015 -38.524062 
L 601.629597 -38.524062 
L 600.170178 -38.524062 
L 598.71076 -38.524062 
L 597.251341 -38.524062 
L 595.791923 -38.524062 
L 594.332504 -38.524062 
L 592.873086 -38.524062 
L 591.413667 -38.524062 
L 589.954249 -38.524062 
L 588.49483 -38.524062 
L 587.035412 -38.524062 
L 585.575993 -38.524062 
L 584.116575 -38.524062 
L 582.657156 -38.524062 
L 581.197738 -38.524062 
L 579.738319 -38.524062 
L 578.278901 -38.524062 
L 576.819482 -38.524062 
L 575.360064 -38.524062 
L 573.900645 -38.524062 
L 572.441227 -38.524062 
L 570.981808 -38.524062 
L 569.52239 -38.524062 
L 568.062971 -38.524062 
L 566.603553 -38.524062 
L 565.144134 -38.524062 
L 563.684716 -38.524062 
L 562.225297 -38.524062 
L 560.765879 -38.524062 
L 559.30646 -38.524062 
L 557.847042 -38.524062 
L 556.387623 -38.524062 
L 554.928205 -38.524062 
L 553.468786 -38.524062 
L 552.009368 -38.524062 
L 550.549949 -38.524062 
L 549.090531 -38.524062 
L 547.631112 -38.524062 
L 546.171694 -38.524062 
L 544.712275 -38.524062 
L 543.252857 -38.524062 
L 541.793438 -38.524062 
L 540.33402 -38.524062 
L 538.874601 -38.524062 
L 537.415183 -38.524062 
L 535.955764 -38.524062 
L 534.496346 -38.524062 
L 533.036927 -38.524062 
L 531.577509 -38.524062 
L 530.11809 -38.524062 
L 528.658672 -38.524062 
L 527.199253 -38.524062 
L 525.739835 -38.524062 
L 524.280416 -38.524062 
L 522.820998 -38.524062 
L 521.361579 -38.524062 
L 519.902161 -38.524062 
L 518.442742 -38.524062 
L 516.983324 -38.524062 
L 515.523905 -38.524062 
L 514.064487 -38.524062 
L 512.605068 -38.524062 
L 511.14565 -38.524062 
L 509.686231 -38.524062 
L 508.226813 -38.524062 
L 506.767394 -38.524062 
L 505.307976 -38.524062 
L 503.848557 -38.524062 
L 502.389139 -38.524062 
L 500.92972 -38.524062 
L 499.470302 -38.524062 
L 498.010883 -38.524062 
L 496.551465 -38.524062 
L 495.092046 -38.524062 
L 493.632628 -38.524062 
L 492.173209 -38.524062 
L 490.713791 -38.524062 
L 489.254372 -38.524062 
L 487.794954 -38.524062 
L 486.335535 -38.524062 
L 484.876117 -38.524062 
L 483.416698 -38.524062 
L 481.95728 -38.524062 
L 480.497861 -38.524062 
L 479.038443 -38.524062 
L 477.579024 -38.524062 
L 476.119605 -38.524062 
L 474.660187 -38.524062 
L 473.200768 -38.524062 
L 471.74135 -38.524062 
L 470.281931 -38.524062 
L 468.822513 -38.524062 
L 467.363094 -38.524062 
L 465.903676 -38.524062 
L 464.444257 -38.524062 
L 462.984839 -38.524062 
L 461.52542 -38.524062 
L 460.066002 -38.524062 
L 458.606583 -38.524062 
L 457.147165 -38.524062 
L 455.687746 -38.524062 
L 454.228328 -38.524062 
L 452.768909 -38.524062 
L 451.309491 -38.524062 
L 449.850072 -38.524062 
L 448.390654 -38.524062 
L 446.931235 -38.524062 
L 445.471817 -38.524062 
L 444.012398 -38.524062 
L 442.55298 -38.524062 
L 441.093561 -38.524062 
L 439.634143 -38.524062 
L 438.174724 -38.524062 
L 436.715306 -38.524062 
L 435.255887 -38.524062 
L 433.796469 -38.524062 
L 432.33705 -38.524062 
L 430.877632 -38.524062 
L 429.418213 -38.524062 
L 427.958795 -38.524062 
L 426.499376 -38.524062 
L 425.039958 -38.524062 
L 423.580539 -38.524062 
L 422.121121 -38.524062 
L 420.661702 -38.524062 
L 419.202284 -38.524062 
L 417.742865 -38.524062 
L 416.283447 -38.524062 
L 414.824028 -38.524062 
L 413.36461 -38.524062 
L 411.905191 -38.524062 
L 410.445773 -38.524062 
L 408.986354 -38.524062 
L 407.526936 -38.524062 
L 406.067517 -38.524062 
L 404.608099 -38.524062 
L 403.14868 -38.524062 
L 401.689262 -38.524062 
L 400.229843 -38.524062 
L 398.770425 -38.524062 
L 397.311006 -38.524062 
L 395.851588 -38.524062 
L 394.392169 -38.524062 
L 392.932751 -38.524062 
L 391.473332 -38.524062 
L 390.013914 -38.524062 
L 388.554495 -38.524062 
L 387.095077 -38.524062 
L 385.635658 -38.524062 
L 384.17624 -38.524062 
L 382.716821 -38.524062 
L 381.257403 -38.524062 
L 379.797984 -38.524062 
L 378.338566 -38.524062 
L 376.879147 -38.524062 
L 375.419729 -38.524062 
L 373.96031 -38.524062 
L 372.500892 -38.524062 
L 371.041473 -38.524062 
L 369.582055 -38.524062 
L 368.122636 -38.524062 
L 366.663218 -38.524062 
L 365.203799 -38.524062 
L 363.744381 -38.524062 
L 362.284962 -38.524062 
L 360.825544 -38.524062 
L 359.366125 -38.524062 
L 357.906707 -38.524062 
L 356.447288 -38.524062 
L 354.98787 -38.524062 
L 353.528451 -38.524062 
L 352.069033 -38.524062 
L 350.609614 -38.524062 
L 349.150196 -38.524062 
L 347.690777 -38.524062 
L 346.231359 -38.524062 
L 344.77194 -38.524062 
L 343.312522 -38.524062 
L 341.853103 -38.524062 
L 340.393685 -38.524062 
L 338.934266 -38.524062 
L 337.474848 -38.524062 
L 336.015429 -38.524062 
L 334.556011 -38.524062 
L 333.096592 -38.524062 
L 331.637174 -38.524062 
L 330.177755 -38.524062 
L 328.718337 -38.524062 
L 327.258918 -38.524062 
L 325.7995 -38.524062 
L 324.340081 -38.524062 
L 322.880663 -38.524062 
L 321.421244 -38.524062 
L 319.961826 -38.524062 
L 318.502407 -38.524062 
L 317.042989 -38.524062 
L 315.58357 -38.524062 
L 314.124152 -38.524062 
L 312.664733 -38.524062 
L 311.205315 -38.524062 
L 309.745896 -38.524062 
L 308.286478 -38.524062 
L 306.827059 -38.524062 
L 305.367641 -38.524062 
L 303.908222 -38.524062 
L 302.448804 -38.524062 
L 300.989385 -38.524062 
L 299.529967 -38.524062 
L 298.070548 -38.524062 
L 296.61113 -38.524062 
L 295.151711 -38.524062 
L 293.692293 -38.524062 
L 292.232874 -38.524062 
L 290.773456 -38.524062 
L 289.314037 -38.524062 
L 287.854619 -38.524062 
L 286.3952 -38.524062 
L 284.935782 -38.524062 
L 283.476363 -38.524062 
L 282.016945 -38.524062 
L 280.557526 -38.524062 
L 279.098108 -38.524062 
L 277.638689 -38.524062 
L 276.179271 -38.524062 
L 274.719852 -38.524062 
L 273.260434 -38.524062 
L 271.801015 -38.524062 
L 270.341597 -38.524062 
L 268.882178 -38.524062 
L 267.42276 -38.524062 
L 265.963341 -38.524062 
L 264.503922 -38.524062 
L 263.044504 -38.524062 
L 261.585085 -38.524062 
L 260.125667 -38.524062 
L 258.666248 -38.524062 
L 257.20683 -38.524062 
L 255.747411 -38.524062 
L 254.287993 -38.524062 
L 252.828574 -38.524062 
L 251.369156 -38.524062 
L 249.909737 -38.524062 
L 248.450319 -38.524062 
L 246.9909 -38.524062 
L 245.531482 -38.524062 
L 244.072063 -38.524062 
L 242.612645 -38.524062 
L 241.153226 -38.524062 
L 239.693808 -38.524062 
L 238.234389 -38.524062 
L 236.774971 -38.524062 
L 235.315552 -38.524062 
L 233.856134 -38.524062 
L 232.396715 -38.524062 
L 230.937297 -38.524062 
L 229.477878 -38.524062 
L 228.01846 -38.524062 
L 226.559041 -38.524062 
L 225.099623 -38.524062 
L 223.640204 -38.524062 
L 222.180786 -38.524062 
L 220.721367 -38.524062 
L 219.261949 -38.524062 
L 217.80253 -38.524062 
L 216.343112 -38.524062 
L 214.883693 -38.524062 
L 213.424275 -38.524062 
L 211.964856 -38.524062 
L 210.505438 -38.524062 
L 209.046019 -38.524062 
L 207.586601 -38.524062 
L 206.127182 -38.524062 
L 204.667764 -38.524062 
L 203.208345 -38.524062 
L 201.748927 -38.524062 
L 200.289508 -38.524062 
L 198.83009 -38.524062 
L 197.370671 -38.524062 
L 195.911253 -38.524062 
L 194.451834 -38.524062 
L 192.992416 -38.524062 
L 191.532997 -38.524062 
L 190.073579 -38.524062 
L 188.61416 -38.524062 
L 187.154742 -38.524062 
L 185.695323 -38.524062 
L 184.235905 -38.524062 
L 182.776486 -38.524062 
L 181.317068 -38.524062 
L 179.857649 -38.524062 
L 178.398231 -38.524062 
L 176.938812 -38.524062 
L 175.479394 -38.524062 
L 174.019975 -38.524062 
L 172.560557 -38.524062 
L 171.101138 -38.524062 
L 169.64172 -38.524062 
L 168.182301 -38.524062 
L 166.722883 -38.524062 
L 165.263464 -38.524062 
L 163.804046 -38.524062 
L 162.344627 -38.524062 
L 160.885209 -38.524062 
L 159.42579 -38.524062 
L 157.966372 -38.524062 
L 156.506953 -38.524062 
L 155.047535 -38.524062 
L 153.588116 -38.524062 
L 152.128698 -38.524062 
L 150.669279 -38.524062 
L 149.209861 -38.524062 
L 147.750442 -38.524062 
L 146.291024 -38.524062 
L 144.831605 -38.524062 
L 143.372187 -38.524062 
L 141.912768 -38.524062 
L 140.45335 -38.524062 
L 138.993931 -38.524062 
L 137.534513 -38.524062 
L 136.075094 -38.524062 
L 134.615676 -38.524062 
L 133.156257 -38.524062 
L 131.696839 -38.524062 
L 130.23742 -38.524062 
L 128.778002 -38.524062 
L 127.318583 -38.524062 
L 125.859165 -38.524062 
L 124.399746 -38.524062 
L 122.940328 -38.524062 
L 121.480909 -38.524062 
L 120.021491 -38.524062 
L 118.562072 -38.524062 
L 117.102654 -38.524062 
L 115.643235 -38.524062 
L 114.183817 -38.524062 
L 112.724398 -38.524062 
L 111.26498 -38.524062 
L 109.805561 -38.524062 
L 108.346143 -38.524062 
L 106.886724 -38.524062 
L 105.427306 -38.524062 
L 103.967887 -38.524062 
L 102.508469 -38.524062 
L 101.04905 -38.524062 
L 99.589632 -38.524062 
L 98.130213 -38.524062 
L 96.670795 -38.524062 
L 95.211376 -38.524062 
L 93.751958 -38.524062 
L 92.292539 -38.524062 
L 90.833121 -38.524062 
L 89.373702 -38.524062 
L 87.914284 -38.524062 
L 86.454865 -38.524062 
L 84.995447 -38.524062 
L 83.536028 -38.524062 
L 82.07661 -38.524062 
L 80.617191 -38.524062 
L 79.157773 -38.524062 
L 77.698354 -38.524062 
L 76.238936 -38.524062 
L 74.779517 -38.524062 
z
" style="stroke: #ff5722; stroke-opacity: 0.18"/>
    </defs>
    <g clip-path="url(#p257ce98933)">
     <use xlink:href="#m70c30d0e41" x="0" y="352.282031" style="fill: #ff5722; fill-opacity: 0.18; stroke: #ff5722; stroke-opacity: 0.18"/>
    </g>
   </g>
   <g id="matplotlib.axis_1">
    <g id="xtick_1">
     <g id="line2d_1">
      <path d="M 74.779517 313.757969 
L 74.779517 23.077969 
" clip-path="url(#p257ce98933)" style="fill: none; stroke: #cccccc; stroke-opacity: 0.35; stroke-width: 0.8; stroke-linecap: square"/>
     </g>
     <g id="line2d_2">
      <defs>
       <path id="m899002b90b" d="M 0 0 
L 0 3.5 
" style="stroke: #000000; stroke-width: 0.8"/>
      </defs>
      <g>
       <use xlink:href="#m899002b90b" x="74.779517" y="313.757969" style="stroke: #000000; stroke-width: 0.8"/>
      </g>
     </g>
     <g id="text_1">
      <!-- 0.0 -->
      <g transform="translate(66.827955 328.356406) scale(0.1 -0.1)">
       <defs>
        <path id="DejaVuSans-30" d="M 2034 4250 
Q 1547 4250 1301 3770 
Q 1056 3291 1056 2328 
Q 1056 1369 1301 889 
Q 1547 409 2034 409 
Q 2525 409 2770 889 
Q 3016 1369 3016 2328 
Q 3016 3291 2770 3770 
Q 2525 4250 2034 4250 
z
M 2034 4750 
Q 2819 4750 3233 4129 
Q 3647 3509 3647 2328 
Q 3647 1150 3233 529 
Q 2819 -91 2034 -91 
Q 1250 -91 836 529 
Q 422 1150 422 2328 
Q 422 3509 836 4129 
Q 1250 4750 2034 4750 
z
" transform="scale(0.015625)"/>
        <path id="DejaVuSans-2e" d="M 684 794 
L 1344 794 
L 1344 0 
L 684 0 
L 684 794 
z
" transform="scale(0.015625)"/>
       </defs>
       <use xlink:href="#DejaVuSans-30"/>
       <use xlink:href="#DejaVuSans-2e" transform="translate(63.623047 0)"/>
       <use xlink:href="#DejaVuSans-30" transform="translate(95.410156 0)"/>
      </g>
     </g>
    </g>
    <g id="xtick_2">
     <g id="line2d_3">
      <path d="M 157.966372 313.757969 
L 157.966372 23.077969 
" clip-path="url(#p257ce98933)" style="fill: none; stroke: #cccccc; stroke-opacity: 0.35; stroke-width: 0.8; stroke-linecap: square"/>
     </g>
     <g id="line2d_4">
      <g>
       <use xlink:href="#m899002b90b" x="157.966372" y="313.757969" style="stroke: #000000; stroke-width: 0.8"/>
      </g>
     </g>
     <g id="text_2">
      <!-- 0.5 -->
      <g transform="translate(150.014809 328.356406) scale(0.1 -0.1)">
       <defs>
        <path id="DejaVuSans-35" d="M 691 4666 
L 3169 4666 
L 3169 4134 
L 1269 4134 
L 1269 2991 
Q 1406 3038 1543 3061 
Q 1681 3084 1819 3084 
Q 2600 3084 3056 2656 
Q 3513 2228 3513 1497 
Q 3513 744 3044 326 
Q 2575 -91 1722 -91 
Q 1428 -91 1123 -41 
Q 819 9 494 109 
L 494 744 
Q 775 591 1075 516 
Q 1375 441 1709 441 
Q 2250 441 2565 725 
Q 2881 1009 2881 1497 
Q 2881 1984 2565 2268 
Q 2250 2553 1709 2553 
Q 1456 2553 1204 2497 
Q 953 2441 691 2322 
L 691 4666 
z
" transform="scale(0.015625)"/>
       </defs>
       <use xlink:href="#DejaVuSans-30"/>
       <use xlink:href="#DejaVuSans-2e" transform="translate(63.623047 0)"/>
       <use xlink:href="#DejaVuSans-35" transform="translate(95.410156 0)"/>
      </g>
     </g>
    </g>
    <g id="xtick_3">
     <g id="line2d_5">
      <path d="M 241.153226 313.757969 
L 241.153226 23.077969 
" clip-path="url(#p257ce98933)" style="fill: none; stroke: #cccccc; stroke-opacity: 0.35; stroke-width: 0.8; stroke-linecap: square"/>
     </g>
     <g id="line2d_6">
      <g>
       <use xlink:href="#m899002b90b" x="241.153226" y="313.757969" style="stroke: #000000; stroke-width: 0.8"/>
      </g>
     </g>
     <g id="text_3">
      <!-- 1.0 -->
      <g transform="translate(233.201664 328.356406) scale(0.1 -0.1)">
       <defs>
        <path id="DejaVuSans-31" d="M 794 531 
L 1825 531 
L 1825 4091 
L 703 3866 
L 703 4441 
L 1819 4666 
L 2450 4666 
L 2450 531 
L 3481 531 
L 3481 0 
L 794 0 
L 794 531 
z
" transform="scale(0.015625)"/>
       </defs>
       <use xlink:href="#DejaVuSans-31"/>
       <use xlink:href="#DejaVuSans-2e" transform="translate(63.623047 0)"/>
       <use xlink:href="#DejaVuSans-30" transform="translate(95.410156 0)"/>
      </g>
     </g>
    </g>
    <g id="xtick_4">
     <g id="line2d_7">
      <path d="M 324.340081 313.757969 
L 324.340081 23.077969 
" clip-path="url(#p257ce98933)" style="fill: none; stroke: #cccccc; stroke-opacity: 0.35; stroke-width: 0.8; stroke-linecap: square"/>
     </g>
     <g id="line2d_8">
      <g>
       <use xlink:href="#m899002b90b" x="324.340081" y="313.757969" style="stroke: #000000; stroke-width: 0.8"/>
      </g>
     </g>
     <g id="text_4">
      <!-- 1.5 -->
      <g transform="translate(316.388519 328.356406) scale(0.1 -0.1)">
       <use xlink:href="#DejaVuSans-31"/>
       <use xlink:href="#DejaVuSans-2e" transform="translate(63.623047 0)"/>
       <use xlink:href="#DejaVuSans-35" transform="translate(95.410156 0)"/>
      </g>
     </g>
    </g>
    <g id="xtick_5">
     <g id="line2d_9">
      <path d="M 407.526936 313.757969 
L 407.526936 23.077969 
" clip-path="url(#p257ce98933)" style="fill: none; stroke: #cccccc; stroke-opacity: 0.35; stroke-width: 0.8; stroke-linecap: square"/>
     </g>
     <g id="line2d_10">
      <g>
       <use xlink:href="#m899002b90b" x="407.526936" y="313.757969" style="stroke: #000000; stroke-width: 0.8"/>
      </g>
     </g>
     <g id="text_5">
      <!-- 2.0 -->
      <g transform="translate(399.575373 328.356406) scale(0.1 -0.1)">
       <defs>
        <path id="DejaVuSans-32" d="M 1228 531 
L 3431 531 
L 3431 0 
L 469 0 
L 469 531 
Q 828 903 1448 1529 
Q 2069 2156 2228 2338 
Q 2531 2678 2651 2914 
Q 2772 3150 2772 3378 
Q 2772 3750 2511 3984 
Q 2250 4219 1831 4219 
Q 1534 4219 1204 4116 
Q 875 4013 500 3803 
L 500 4441 
Q 881 4594 1212 4672 
Q 1544 4750 1819 4750 
Q 2544 4750 2975 4387 
Q 3406 4025 3406 3419 
Q 3406 3131 3298 2873 
Q 3191 2616 2906 2266 
Q 2828 2175 2409 1742 
Q 1991 1309 1228 531 
z
" transform="scale(0.015625)"/>
       </defs>
       <use xlink:href="#DejaVuSans-32"/>
       <use xlink:href="#DejaVuSans-2e" transform="translate(63.623047 0)"/>
       <use xlink:href="#DejaVuSans-30" transform="translate(95.410156 0)"/>
      </g>
     </g>
    </g>
    <g id="xtick_6">
     <g id="line2d_11">
      <path d="M 490.713791 313.757969 
L 490.713791 23.077969 
" clip-path="url(#p257ce98933)" style="fill: none; stroke: #cccccc; stroke-opacity: 0.35; stroke-width: 0.8; stroke-linecap: square"/>
     </g>
     <g id="line2d_12">
      <g>
       <use xlink:href="#m899002b90b" x="490.713791" y="313.757969" style="stroke: #000000; stroke-width: 0.8"/>
      </g>
     </g>
     <g id="text_6">
      <!-- 2.5 -->
      <g transform="translate(482.762228 328.356406) scale(0.1 -0.1)">
       <use xlink:href="#DejaVuSans-32"/>
       <use xlink:href="#DejaVuSans-2e" transform="translate(63.623047 0)"/>
       <use xlink:href="#DejaVuSans-35" transform="translate(95.410156 0)"/>
      </g>
     </g>
    </g>
    <g id="xtick_7">
     <g id="line2d_13">
      <path d="M 573.900645 313.757969 
L 573.900645 23.077969 
" clip-path="url(#p257ce98933)" style="fill: none; stroke: #cccccc; stroke-opacity: 0.35; stroke-width: 0.8; stroke-linecap: square"/>
     </g>
     <g id="line2d_14">
      <g>
       <use xlink:href="#m899002b90b" x="573.900645" y="313.757969" style="stroke: #000000; stroke-width: 0.8"/>
      </g>
     </g>
     <g id="text_7">
      <!-- 3.0 -->
      <g transform="translate(565.949083 328.356406) scale(0.1 -0.1)">
       <defs>
        <path id="DejaVuSans-33" d="M 2597 2516 
Q 3050 2419 3304 2112 
Q 3559 1806 3559 1356 
Q 3559 666 3084 287 
Q 2609 -91 1734 -91 
Q 1441 -91 1130 -33 
Q 819 25 488 141 
L 488 750 
Q 750 597 1062 519 
Q 1375 441 1716 441 
Q 2309 441 2620 675 
Q 2931 909 2931 1356 
Q 2931 1769 2642 2001 
Q 2353 2234 1838 2234 
L 1294 2234 
L 1294 2753 
L 1863 2753 
Q 2328 2753 2575 2939 
Q 2822 3125 2822 3475 
Q 2822 3834 2567 4026 
Q 2313 4219 1838 4219 
Q 1578 4219 1281 4162 
Q 984 4106 628 3988 
L 628 4550 
Q 988 4650 1302 4700 
Q 1616 4750 1894 4750 
Q 2613 4750 3031 4423 
Q 3450 4097 3450 3541 
Q 3450 3153 3228 2886 
Q 3006 2619 2597 2516 
z
" transform="scale(0.015625)"/>
       </defs>
       <use xlink:href="#DejaVuSans-33"/>
       <use xlink:href="#DejaVuSans-2e" transform="translate(63.623047 0)"/>
       <use xlink:href="#DejaVuSans-30" transform="translate(95.410156 0)"/>
      </g>
     </g>
    </g>
    <g id="xtick_8">
     <g id="line2d_15">
      <path d="M 657.0875 313.757969 
L 657.0875 23.077969 
" clip-path="url(#p257ce98933)" style="fill: none; stroke: #cccccc; stroke-opacity: 0.35; stroke-width: 0.8; stroke-linecap: square"/>
     </g>
     <g id="line2d_16">
      <g>
       <use xlink:href="#m899002b90b" x="657.0875" y="313.757969" style="stroke: #000000; stroke-width: 0.8"/>
      </g>
     </g>
     <g id="text_8">
      <!-- 3.5 -->
      <g transform="translate(649.135937 328.356406) scale(0.1 -0.1)">
       <use xlink:href="#DejaVuSans-33"/>
       <use xlink:href="#DejaVuSans-2e" transform="translate(63.623047 0)"/>
       <use xlink:href="#DejaVuSans-35" transform="translate(95.410156 0)"/>
      </g>
     </g>
    </g>
    <g id="text_9">
     <!-- Daily Consumption (kWh) -->
     <g transform="translate(304.844766 342.794375) scale(0.11 -0.11)">
      <defs>
       <path id="DejaVuSans-44" d="M 1259 4147 
L 1259 519 
L 2022 519 
Q 2988 519 3436 956 
Q 3884 1394 3884 2338 
Q 3884 3275 3436 3711 
Q 2988 4147 2022 4147 
L 1259 4147 
z
M 628 4666 
L 1925 4666 
Q 3281 4666 3915 4102 
Q 4550 3538 4550 2338 
Q 4550 1131 3912 565 
Q 3275 0 1925 0 
L 628 0 
L 628 4666 
z
" transform="scale(0.015625)"/>
       <path id="DejaVuSans-61" d="M 2194 1759 
Q 1497 1759 1228 1600 
Q 959 1441 959 1056 
Q 959 750 1161 570 
Q 1363 391 1709 391 
Q 2188 391 2477 730 
Q 2766 1069 2766 1631 
L 2766 1759 
L 2194 1759 
z
M 3341 1997 
L 3341 0 
L 2766 0 
L 2766 531 
Q 2569 213 2275 61 
Q 1981 -91 1556 -91 
Q 1019 -91 701 211 
Q 384 513 384 1019 
Q 384 1609 779 1909 
Q 1175 2209 1959 2209 
L 2766 2209 
L 2766 2266 
Q 2766 2663 2505 2880 
Q 2244 3097 1772 3097 
Q 1472 3097 1187 3025 
Q 903 2953 641 2809 
L 641 3341 
Q 956 3463 1253 3523 
Q 1550 3584 1831 3584 
Q 2591 3584 2966 3190 
Q 3341 2797 3341 1997 
z
" transform="scale(0.015625)"/>
       <path id="DejaVuSans-69" d="M 603 3500 
L 1178 3500 
L 1178 0 
L 603 0 
L 603 3500 
z
M 603 4863 
L 1178 4863 
L 1178 4134 
L 603 4134 
L 603 4863 
z
" transform="scale(0.015625)"/>
       <path id="DejaVuSans-6c" d="M 603 4863 
L 1178 4863 
L 1178 0 
L 603 0 
L 603 4863 
z
" transform="scale(0.015625)"/>
       <path id="DejaVuSans-79" d="M 2059 -325 
Q 1816 -950 1584 -1140 
Q 1353 -1331 966 -1331 
L 506 -1331 
L 506 -850 
L 844 -850 
Q 1081 -850 1212 -737 
Q 1344 -625 1503 -206 
L 1606 56 
L 191 3500 
L 800 3500 
L 1894 763 
L 2988 3500 
L 3597 3500 
L 2059 -325 
z
" transform="scale(0.015625)"/>
       <path id="DejaVuSans-20" transform="scale(0.015625)"/>
       <path id="DejaVuSans-43" d="M 4122 4306 
L 4122 3641 
Q 3803 3938 3442 4084 
Q 3081 4231 2675 4231 
Q 1875 4231 1450 3742 
Q 1025 3253 1025 2328 
Q 1025 1406 1450 917 
Q 1875 428 2675 428 
Q 3081 428 3442 575 
Q 3803 722 4122 1019 
L 4122 359 
Q 3791 134 3420 21 
Q 3050 -91 2638 -91 
Q 1578 -91 968 557 
Q 359 1206 359 2328 
Q 359 3453 968 4101 
Q 1578 4750 2638 4750 
Q 3056 4750 3426 4639 
Q 3797 4528 4122 4306 
z
" transform="scale(0.015625)"/>
       <path id="DejaVuSans-6f" d="M 1959 3097 
Q 1497 3097 1228 2736 
Q 959 2375 959 1747 
Q 959 1119 1226 758 
Q 1494 397 1959 397 
Q 2419 397 2687 759 
Q 2956 1122 2956 1747 
Q 2956 2369 2687 2733 
Q 2419 3097 1959 3097 
z
M 1959 3584 
Q 2709 3584 3137 3096 
Q 3566 2609 3566 1747 
Q 3566 888 3137 398 
Q 2709 -91 1959 -91 
Q 1206 -91 779 398 
Q 353 888 353 1747 
Q 353 2609 779 3096 
Q 1206 3584 1959 3584 
z
" transform="scale(0.015625)"/>
       <path id="DejaVuSans-6e" d="M 3513 2113 
L 3513 0 
L 2938 0 
L 2938 2094 
Q 2938 2591 2744 2837 
Q 2550 3084 2163 3084 
Q 1697 3084 1428 2787 
Q 1159 2491 1159 1978 
L 1159 0 
L 581 0 
L 581 3500 
L 1159 3500 
L 1159 2956 
Q 1366 3272 1645 3428 
Q 1925 3584 2291 3584 
Q 2894 3584 3203 3211 
Q 3513 2838 3513 2113 
z
" transform="scale(0.015625)"/>
       <path id="DejaVuSans-73" d="M 2834 3397 
L 2834 2853 
Q 2591 2978 2328 3040 
Q 2066 3103 1784 3103 
Q 1356 3103 1142 2972 
Q 928 2841 928 2578 
Q 928 2378 1081 2264 
Q 1234 2150 1697 2047 
L 1894 2003 
Q 2506 1872 2764 1633 
Q 3022 1394 3022 966 
Q 3022 478 2636 193 
Q 2250 -91 1575 -91 
Q 1294 -91 989 -36 
Q 684 19 347 128 
L 347 722 
Q 666 556 975 473 
Q 1284 391 1588 391 
Q 1994 391 2212 530 
Q 2431 669 2431 922 
Q 2431 1156 2273 1281 
Q 2116 1406 1581 1522 
L 1381 1569 
Q 847 1681 609 1914 
Q 372 2147 372 2553 
Q 372 3047 722 3315 
Q 1072 3584 1716 3584 
Q 2034 3584 2315 3537 
Q 2597 3491 2834 3397 
z
" transform="scale(0.015625)"/>
       <path id="DejaVuSans-75" d="M 544 1381 
L 544 3500 
L 1119 3500 
L 1119 1403 
Q 1119 906 1312 657 
Q 1506 409 1894 409 
Q 2359 409 2629 706 
Q 2900 1003 2900 1516 
L 2900 3500 
L 3475 3500 
L 3475 0 
L 2900 0 
L 2900 538 
Q 2691 219 2414 64 
Q 2138 -91 1772 -91 
Q 1169 -91 856 284 
Q 544 659 544 1381 
z
M 1991 3584 
L 1991 3584 
z
" transform="scale(0.015625)"/>
       <path id="DejaVuSans-6d" d="M 3328 2828 
Q 3544 3216 3844 3400 
Q 4144 3584 4550 3584 
Q 5097 3584 5394 3201 
Q 5691 2819 5691 2113 
L 5691 0 
L 5113 0 
L 5113 2094 
Q 5113 2597 4934 2840 
Q 4756 3084 4391 3084 
Q 3944 3084 3684 2787 
Q 3425 2491 3425 1978 
L 3425 0 
L 2847 0 
L 2847 2094 
Q 2847 2600 2669 2842 
Q 2491 3084 2119 3084 
Q 1678 3084 1418 2786 
Q 1159 2488 1159 1978 
L 1159 0 
L 581 0 
L 581 3500 
L 1159 3500 
L 1159 2956 
Q 1356 3278 1631 3431 
Q 1906 3584 2284 3584 
Q 2666 3584 2933 3390 
Q 3200 3197 3328 2828 
z
" transform="scale(0.015625)"/>
       <path id="DejaVuSans-70" d="M 1159 525 
L 1159 -1331 
L 581 -1331 
L 581 3500 
L 1159 3500 
L 1159 2969 
Q 1341 3281 1617 3432 
Q 1894 3584 2278 3584 
Q 2916 3584 3314 3078 
Q 3713 2572 3713 1747 
Q 3713 922 3314 415 
Q 2916 -91 2278 -91 
Q 1894 -91 1617 61 
Q 1341 213 1159 525 
z
M 3116 1747 
Q 3116 2381 2855 2742 
Q 2594 3103 2138 3103 
Q 1681 3103 1420 2742 
Q 1159 2381 1159 1747 
Q 1159 1113 1420 752 
Q 1681 391 2138 391 
Q 2594 391 2855 752 
Q 3116 1113 3116 1747 
z
" transform="scale(0.015625)"/>
       <path id="DejaVuSans-74" d="M 1172 4494 
L 1172 3500 
L 2356 3500 
L 2356 3053 
L 1172 3053 
L 1172 1153 
Q 1172 725 1289 603 
Q 1406 481 1766 481 
L 2356 481 
L 2356 0 
L 1766 0 
Q 1100 0 847 248 
Q 594 497 594 1153 
L 594 3053 
L 172 3053 
L 172 3500 
L 594 3500 
L 594 4494 
L 1172 4494 
z
" transform="scale(0.015625)"/>
       <path id="DejaVuSans-28" d="M 1984 4856 
Q 1566 4138 1362 3434 
Q 1159 2731 1159 2009 
Q 1159 1288 1364 580 
Q 1569 -128 1984 -844 
L 1484 -844 
Q 1016 -109 783 600 
Q 550 1309 550 2009 
Q 550 2706 781 3412 
Q 1013 4119 1484 4856 
L 1984 4856 
z
" transform="scale(0.015625)"/>
       <path id="DejaVuSans-6b" d="M 581 4863 
L 1159 4863 
L 1159 1991 
L 2875 3500 
L 3609 3500 
L 1753 1863 
L 3688 0 
L 2938 0 
L 1159 1709 
L 1159 0 
L 581 0 
L 581 4863 
z
" transform="scale(0.015625)"/>
       <path id="DejaVuSans-57" d="M 213 4666 
L 850 4666 
L 1831 722 
L 2809 4666 
L 3519 4666 
L 4500 722 
L 5478 4666 
L 6119 4666 
L 4947 0 
L 4153 0 
L 3169 4050 
L 2175 0 
L 1381 0 
L 213 4666 
z
" transform="scale(0.015625)"/>
       <path id="DejaVuSans-68" d="M 3513 2113 
L 3513 0 
L 2938 0 
L 2938 2094 
Q 2938 2591 2744 2837 
Q 2550 3084 2163 3084 
Q 1697 3084 1428 2787 
Q 1159 2491 1159 1978 
L 1159 0 
L 581 0 
L 581 4863 
L 1159 4863 
L 1159 2956 
Q 1366 3272 1645 3428 
Q 1925 3584 2291 3584 
Q 2894 3584 3203 3211 
Q 3513 2838 3513 2113 
z
" transform="scale(0.015625)"/>
       <path id="DejaVuSans-29" d="M 513 4856 
L 1013 4856 
Q 1481 4119 1714 3412 
Q 1947 2706 1947 2009 
Q 1947 1309 1714 600 
Q 1481 -109 1013 -844 
L 513 -844 
Q 928 -128 1133 580 
Q 1338 1288 1338 2009 
Q 1338 2731 1133 3434 
Q 928 4138 513 4856 
z
" transform="scale(0.015625)"/>
      </defs>
      <use xlink:href="#DejaVuSans-44"/>
      <use xlink:href="#DejaVuSans-61" transform="translate(77.001953 0)"/>
      <use xlink:href="#DejaVuSans-69" transform="translate(138.28125 0)"/>
      <use xlink:href="#DejaVuSans-6c" transform="translate(166.064453 0)"/>
      <use xlink:href="#DejaVuSans-79" transform="translate(193.847656 0)"/>
      <use xlink:href="#DejaVuSans-20" transform="translate(253.027344 0)"/>
      <use xlink:href="#DejaVuSans-43" transform="translate(284.814453 0)"/>
      <use xlink:href="#DejaVuSans-6f" transform="translate(354.638672 0)"/>
      <use xlink:href="#DejaVuSans-6e" transform="translate(415.820312 0)"/>
      <use xlink:href="#DejaVuSans-73" transform="translate(479.199219 0)"/>
      <use xlink:href="#DejaVuSans-75" transform="translate(531.298828 0)"/>
      <use xlink:href="#DejaVuSans-6d" transform="translate(594.677734 0)"/>
      <use xlink:href="#DejaVuSans-70" transform="translate(692.089844 0)"/>
      <use xlink:href="#DejaVuSans-74" transform="translate(755.566406 0)"/>
      <use xlink:href="#DejaVuSans-69" transform="translate(794.775391 0)"/>
      <use xlink:href="#DejaVuSans-6f" transform="translate(822.558594 0)"/>
      <use xlink:href="#DejaVuSans-6e" transform="translate(883.740234 0)"/>
      <use xlink:href="#DejaVuSans-20" transform="translate(947.119141 0)"/>
      <use xlink:href="#DejaVuSans-28" transform="translate(978.90625 0)"/>
      <use xlink:href="#DejaVuSans-6b" transform="translate(1017.919922 0)"/>
      <use xlink:href="#DejaVuSans-57" transform="translate(1075.830078 0)"/>
      <use xlink:href="#DejaVuSans-68" transform="translate(1174.707031 0)"/>
      <use xlink:href="#DejaVuSans-29" transform="translate(1238.085938 0)"/>
     </g>
    </g>
   </g>
   <g id="matplotlib.axis_2">
    <g id="ytick_1">
     <g id="line2d_17">
      <path d="M 44.749063 313.757969 
L 705.419062 313.757969 
" clip-path="url(#p257ce98933)" style="fill: none; stroke: #cccccc; stroke-opacity: 0.35; stroke-width: 0.8; stroke-linecap: square"/>
     </g>
     <g id="line2d_18">
      <defs>
       <path id="m3a7bb2cd85" d="M 0 0 
L -3.5 0 
" style="stroke: #000000; stroke-width: 0.8"/>
      </defs>
      <g>
       <use xlink:href="#m3a7bb2cd85" x="44.749063" y="313.757969" style="stroke: #000000; stroke-width: 0.8"/>
      </g>
     </g>
     <g id="text_10">
      <!-- 0.0 -->
      <g transform="translate(21.845938 317.557187) scale(0.1 -0.1)">
       <use xlink:href="#DejaVuSans-30"/>
       <use xlink:href="#DejaVuSans-2e" transform="translate(63.623047 0)"/>
       <use xlink:href="#DejaVuSans-30" transform="translate(95.410156 0)"/>
      </g>
     </g>
    </g>
    <g id="ytick_2">
     <g id="line2d_19">
      <path d="M 44.749063 266.120245 
L 705.419062 266.120245 
" clip-path="url(#p257ce98933)" style="fill: none; stroke: #cccccc; stroke-opacity: 0.35; stroke-width: 0.8; stroke-linecap: square"/>
     </g>
     <g id="line2d_20">
      <g>
       <use xlink:href="#m3a7bb2cd85" x="44.749063" y="266.120245" style="stroke: #000000; stroke-width: 0.8"/>
      </g>
     </g>
     <g id="text_11">
      <!-- 0.5 -->
      <g transform="translate(21.845938 269.919463) scale(0.1 -0.1)">
       <use xlink:href="#DejaVuSans-30"/>
       <use xlink:href="#DejaVuSans-2e" transform="translate(63.623047 0)"/>
       <use xlink:href="#DejaVuSans-35" transform="translate(95.410156 0)"/>
      </g>
     </g>
    </g>
    <g id="ytick_3">
     <g id="line2d_21">
      <path d="M 44.749063 218.48252 
L 705.419062 218.48252 
" clip-path="url(#p257ce98933)" style="fill: none; stroke: #cccccc; stroke-opacity: 0.35; stroke-width: 0.8; stroke-linecap: square"/>
     </g>
     <g id="line2d_22">
      <g>
       <use xlink:href="#m3a7bb2cd85" x="44.749063" y="218.48252" style="stroke: #000000; stroke-width: 0.8"/>
      </g>
     </g>
     <g id="text_12">
      <!-- 1.0 -->
      <g transform="translate(21.845938 222.281739) scale(0.1 -0.1)">
       <use xlink:href="#DejaVuSans-31"/>
       <use xlink:href="#DejaVuSans-2e" transform="translate(63.623047 0)"/>
       <use xlink:href="#DejaVuSans-30" transform="translate(95.410156 0)"/>
      </g>
     </g>
    </g>
    <g id="ytick_4">
     <g id="line2d_23">
      <path d="M 44.749063 170.844796 
L 705.419062 170.844796 
" clip-path="url(#p257ce98933)" style="fill: none; stroke: #cccccc; stroke-opacity: 0.35; stroke-width: 0.8; stroke-linecap: square"/>
     </g>
     <g id="line2d_24">
      <g>
       <use xlink:href="#m3a7bb2cd85" x="44.749063" y="170.844796" style="stroke: #000000; stroke-width: 0.8"/>
      </g>
     </g>
     <g id="text_13">
      <!-- 1.5 -->
      <g transform="translate(21.845938 174.644015) scale(0.1 -0.1)">
       <use xlink:href="#DejaVuSans-31"/>
       <use xlink:href="#DejaVuSans-2e" transform="translate(63.623047 0)"/>
       <use xlink:href="#DejaVuSans-35" transform="translate(95.410156 0)"/>
      </g>
     </g>
    </g>
    <g id="ytick_5">
     <g id="line2d_25">
      <path d="M 44.749063 123.207072 
L 705.419062 123.207072 
" clip-path="url(#p257ce98933)" style="fill: none; stroke: #cccccc; stroke-opacity: 0.35; stroke-width: 0.8; stroke-linecap: square"/>
     </g>
     <g id="line2d_26">
      <g>
       <use xlink:href="#m3a7bb2cd85" x="44.749063" y="123.207072" style="stroke: #000000; stroke-width: 0.8"/>
      </g>
     </g>
     <g id="text_14">
      <!-- 2.0 -->
      <g transform="translate(21.845938 127.006291) scale(0.1 -0.1)">
       <use xlink:href="#DejaVuSans-32"/>
       <use xlink:href="#DejaVuSans-2e" transform="translate(63.623047 0)"/>
       <use xlink:href="#DejaVuSans-30" transform="translate(95.410156 0)"/>
      </g>
     </g>
    </g>
    <g id="ytick_6">
     <g id="line2d_27">
      <path d="M 44.749063 75.569348 
L 705.419062 75.569348 
" clip-path="url(#p257ce98933)" style="fill: none; stroke: #cccccc; stroke-opacity: 0.35; stroke-width: 0.8; stroke-linecap: square"/>
     </g>
     <g id="line2d_28">
      <g>
       <use xlink:href="#m3a7bb2cd85" x="44.749063" y="75.569348" style="stroke: #000000; stroke-width: 0.8"/>
      </g>
     </g>
     <g id="text_15">
      <!-- 2.5 -->
      <g transform="translate(21.845938 79.368567) scale(0.1 -0.1)">
       <use xlink:href="#DejaVuSans-32"/>
       <use xlink:href="#DejaVuSans-2e" transform="translate(63.623047 0)"/>
       <use xlink:href="#DejaVuSans-35" transform="translate(95.410156 0)"/>
      </g>
     </g>
    </g>
    <g id="ytick_7">
     <g id="line2d_29">
      <path d="M 44.749063 27.931624 
L 705.419062 27.931624 
" clip-path="url(#p257ce98933)" style="fill: none; stroke: #cccccc; stroke-opacity: 0.35; stroke-width: 0.8; stroke-linecap: square"/>
     </g>
     <g id="line2d_30">
      <g>
       <use xlink:href="#m3a7bb2cd85" x="44.749063" y="27.931624" style="stroke: #000000; stroke-width: 0.8"/>
      </g>
     </g>
     <g id="text_16">
      <!-- 3.0 -->
      <g transform="translate(21.845938 31.730842) scale(0.1 -0.1)">
       <use xlink:href="#DejaVuSans-33"/>
       <use xlink:href="#DejaVuSans-2e" transform="translate(63.623047 0)"/>
       <use xlink:href="#DejaVuSans-30" transform="translate(95.410156 0)"/>
      </g>
     </g>
    </g>
    <g id="text_17">
     <!-- Density -->
     <g transform="translate(15.558281 189.327422) rotate(-90) scale(0.11 -0.11)">
      <defs>
       <path id="DejaVuSans-65" d="M 3597 1894 
L 3597 1613 
L 953 1613 
Q 991 1019 1311 708 
Q 1631 397 2203 397 
Q 2534 397 2845 478 
Q 3156 559 3463 722 
L 3463 178 
Q 3153 47 2828 -22 
Q 2503 -91 2169 -91 
Q 1331 -91 842 396 
Q 353 884 353 1716 
Q 353 2575 817 3079 
Q 1281 3584 2069 3584 
Q 2775 3584 3186 3129 
Q 3597 2675 3597 1894 
z
M 3022 2063 
Q 3016 2534 2758 2815 
Q 2500 3097 2075 3097 
Q 1594 3097 1305 2825 
Q 1016 2553 972 2059 
L 3022 2063 
z
" transform="scale(0.015625)"/>
      </defs>
      <use xlink:href="#DejaVuSans-44"/>
      <use xlink:href="#DejaVuSans-65" transform="translate(77.001953 0)"/>
      <use xlink:href="#DejaVuSans-6e" transform="translate(138.525391 0)"/>
      <use xlink:href="#DejaVuSans-73" transform="translate(201.904297 0)"/>
      <use xlink:href="#DejaVuSans-69" transform="translate(254.003906 0)"/>
      <use xlink:href="#DejaVuSans-74" transform="translate(281.787109 0)"/>
      <use xlink:href="#DejaVuSans-79" transform="translate(320.996094 0)"/>
     </g>
    </g>
   </g>
   <g id="line2d_31">
    <path d="M 74.779517 313.492882 
L 84.995447 313.074364 
L 105.427306 312.064682 
L 114.183817 311.959793 
L 127.318583 311.838411 
L 134.615676 311.476035 
L 144.831605 310.645172 
L 152.128698 310.110832 
L 157.966372 309.883223 
L 163.804046 309.879486 
L 171.101138 310.145479 
L 190.073579 311.108571 
L 195.911253 311.120518 
L 201.748927 310.919945 
L 210.505438 310.353748 
L 225.099623 309.410997 
L 233.856134 308.798145 
L 239.693808 308.189834 
L 246.9909 307.184202 
L 260.125667 305.310958 
L 268.882178 304.374584 
L 279.098108 303.294643 
L 286.3952 302.272112 
L 292.232874 301.237599 
L 296.61113 300.28822 
L 300.989385 299.107889 
L 303.908222 298.13625 
L 306.827059 296.970048 
L 309.745896 295.569181 
L 312.664733 293.898853 
L 315.58357 291.933921 
L 318.502407 289.661891 
L 321.421244 287.083995 
L 324.340081 284.214171 
L 327.258918 281.076193 
L 331.637174 275.931251 
L 336.015429 270.348453 
L 340.393685 264.401905 
L 344.77194 258.124909 
L 349.150196 251.514562 
L 353.528451 244.557047 
L 359.366125 234.777991 
L 371.041473 214.902429 
L 373.96031 210.421042 
L 376.879147 206.390241 
L 379.797984 202.937166 
L 381.257403 201.461475 
L 382.716821 200.167369 
L 384.17624 199.062542 
L 385.635658 198.151887 
L 387.095077 197.437296 
L 388.554495 196.917566 
L 390.013914 196.588384 
L 391.473332 196.442432 
L 392.932751 196.469576 
L 394.392169 196.657152 
L 395.851588 196.990342 
L 398.770425 198.026156 
L 401.689262 199.433014 
L 406.067517 201.920929 
L 411.905191 205.314997 
L 416.283447 207.617782 
L 422.121121 210.373609 
L 426.499376 212.471385 
L 429.418213 214.054092 
L 432.33705 215.894732 
L 435.255887 218.074372 
L 438.174724 220.65075 
L 441.093561 223.651015 
L 444.012398 227.068012 
L 446.931235 230.860633 
L 451.309491 237.093147 
L 464.444257 256.633308 
L 468.822513 262.501996 
L 473.200768 267.843089 
L 477.579024 272.695552 
L 481.95728 277.153191 
L 486.335535 281.312948 
L 492.173209 286.493649 
L 496.551465 290.104223 
L 500.92972 293.42605 
L 505.307976 296.39165 
L 508.226813 298.142014 
L 511.14565 299.699552 
L 514.064487 301.063488 
L 516.983324 302.241285 
L 519.902161 303.247419 
L 524.280416 304.47755 
L 528.658672 305.436155 
L 533.036927 306.185644 
L 538.874601 306.931113 
L 544.712275 307.433002 
L 550.549949 307.729178 
L 560.765879 307.963287 
L 569.52239 308.219447 
L 576.819482 308.675481 
L 584.116575 309.398004 
L 592.873086 310.526316 
L 606.007852 312.232018 
L 613.304945 312.920214 
L 620.602037 313.351821 
L 627.89913 313.558257 
L 636.655641 313.575512 
L 645.412152 313.375421 
L 655.628081 312.897107 
L 657.0875 312.815303 
L 657.0875 312.815303 
" clip-path="url(#p257ce98933)" style="fill: none; stroke: #2196f3; stroke-width: 2.5; stroke-linecap: square"/>
   </g>
   <g id="line2d_32">
    <path d="M 74.779517 313.692929 
L 79.157773 313.534588 
L 82.07661 313.29477 
L 84.995447 312.865421 
L 87.914284 312.157331 
L 90.833121 311.081002 
L 93.751958 309.570823 
L 96.670795 307.608157 
L 99.589632 305.228052 
L 102.508469 302.495716 
L 105.427306 299.4505 
L 108.346143 296.033497 
L 109.805561 294.125367 
L 111.26498 292.030538 
L 112.724398 289.696795 
L 114.183817 287.065199 
L 115.643235 284.073755 
L 117.102654 280.661894 
L 118.562072 276.775376 
L 120.021491 272.371143 
L 121.480909 267.421572 
L 122.940328 261.917591 
L 124.399746 255.870165 
L 127.318583 242.284153 
L 130.23742 227.083681 
L 134.615676 202.369582 
L 138.993931 176.383291 
L 144.831605 140.333953 
L 149.209861 113.591543 
L 152.128698 97.719164 
L 153.588116 90.916424 
L 155.047535 85.113847 
L 156.506953 80.464514 
L 157.966372 77.080508 
L 159.42579 75.023528 
L 160.885209 74.301002 
L 162.344627 74.868164 
L 163.804046 76.635665 
L 165.263464 79.48146 
L 166.722883 83.265107 
L 168.182301 87.842293 
L 169.64172 93.077522 
L 172.560557 105.074683 
L 175.479394 118.583462 
L 178.398231 133.20124 
L 188.61416 186.341124 
L 191.532997 199.15835 
L 192.992416 204.768941 
L 194.451834 209.817496 
L 195.911253 214.321576 
L 197.370671 218.329043 
L 198.83009 221.91295 
L 201.748927 228.181051 
L 209.046019 242.67354 
L 219.261949 264.263395 
L 222.180786 269.500358 
L 225.099623 274.030618 
L 228.01846 277.869303 
L 229.477878 279.53619 
L 230.937297 281.03353 
L 232.396715 282.357238 
L 233.856134 283.502674 
L 235.315552 284.467318 
L 236.774971 285.253799 
L 238.234389 285.872681 
L 241.153226 286.700627 
L 246.9909 287.902006 
L 248.450319 288.411518 
L 249.909737 289.09868 
L 251.369156 289.992028 
L 252.828574 291.104246 
L 254.287993 292.430941 
L 257.20683 295.629326 
L 265.963341 306.200313 
L 267.42276 307.614898 
L 268.882178 308.855343 
L 270.341597 309.91705 
L 271.801015 310.804475 
L 273.260434 311.529157 
L 274.719852 312.107538 
L 277.638689 312.903212 
L 280.557526 313.347955 
L 284.935782 313.640104 
L 292.232874 313.747962 
L 333.096592 313.757969 
L 429.418213 313.657137 
L 433.796469 313.448604 
L 436.715306 313.16643 
L 439.634143 312.713156 
L 442.55298 312.053312 
L 445.471817 311.188882 
L 454.228328 308.294569 
L 457.147165 307.763131 
L 458.606583 307.662412 
L 460.066002 307.681726 
L 462.984839 308.068968 
L 465.903676 308.8378 
L 476.119605 312.173306 
L 479.038443 312.798954 
L 481.95728 313.221855 
L 486.335535 313.564862 
L 492.173209 313.720478 
L 506.767394 313.757813 
L 657.0875 313.757969 
L 657.0875 313.757969 
" clip-path="url(#p257ce98933)" style="fill: none; stroke: #ff5722; stroke-width: 2.5; stroke-linecap: square"/>
   </g>
   <g id="patch_47">
    <path d="M 44.749063 313.757969 
L 44.749063 23.077969 
" style="fill: none; stroke: #000000; stroke-width: 0.8; stroke-linejoin: miter; stroke-linecap: square"/>
   </g>
   <g id="patch_48">
    <path d="M 44.749063 313.757969 
L 705.419063 313.757969 
" style="fill: none; stroke: #000000; stroke-width: 0.8; stroke-linejoin: miter; stroke-linecap: square"/>
   </g>
   <g id="text_18">
    <!-- Home vs University — Overlapping KDE Distributions -->
    <g transform="translate(181.100703 17.077969) scale(0.13 -0.13)">
     <defs>
      <path id="DejaVuSans-Bold-48" d="M 588 4666 
L 1791 4666 
L 1791 2888 
L 3566 2888 
L 3566 4666 
L 4769 4666 
L 4769 0 
L 3566 0 
L 3566 1978 
L 1791 1978 
L 1791 0 
L 588 0 
L 588 4666 
z
" transform="scale(0.015625)"/>
      <path id="DejaVuSans-Bold-6f" d="M 2203 2784 
Q 1831 2784 1636 2517 
Q 1441 2250 1441 1747 
Q 1441 1244 1636 976 
Q 1831 709 2203 709 
Q 2569 709 2762 976 
Q 2956 1244 2956 1747 
Q 2956 2250 2762 2517 
Q 2569 2784 2203 2784 
z
M 2203 3584 
Q 3106 3584 3614 3096 
Q 4122 2609 4122 1747 
Q 4122 884 3614 396 
Q 3106 -91 2203 -91 
Q 1297 -91 786 396 
Q 275 884 275 1747 
Q 275 2609 786 3096 
Q 1297 3584 2203 3584 
z
" transform="scale(0.015625)"/>
      <path id="DejaVuSans-Bold-6d" d="M 3781 2919 
Q 3994 3244 4286 3414 
Q 4578 3584 4928 3584 
Q 5531 3584 5847 3212 
Q 6163 2841 6163 2131 
L 6163 0 
L 5038 0 
L 5038 1825 
Q 5041 1866 5042 1909 
Q 5044 1953 5044 2034 
Q 5044 2406 4934 2573 
Q 4825 2741 4581 2741 
Q 4263 2741 4089 2478 
Q 3916 2216 3909 1719 
L 3909 0 
L 2784 0 
L 2784 1825 
Q 2784 2406 2684 2573 
Q 2584 2741 2328 2741 
Q 2006 2741 1831 2477 
Q 1656 2213 1656 1722 
L 1656 0 
L 531 0 
L 531 3500 
L 1656 3500 
L 1656 2988 
Q 1863 3284 2130 3434 
Q 2397 3584 2719 3584 
Q 3081 3584 3359 3409 
Q 3638 3234 3781 2919 
z
" transform="scale(0.015625)"/>
      <path id="DejaVuSans-Bold-65" d="M 4031 1759 
L 4031 1441 
L 1416 1441 
Q 1456 1047 1700 850 
Q 1944 653 2381 653 
Q 2734 653 3104 758 
Q 3475 863 3866 1075 
L 3866 213 
Q 3469 63 3072 -14 
Q 2675 -91 2278 -91 
Q 1328 -91 801 392 
Q 275 875 275 1747 
Q 275 2603 792 3093 
Q 1309 3584 2216 3584 
Q 3041 3584 3536 3087 
Q 4031 2591 4031 1759 
z
M 2881 2131 
Q 2881 2450 2695 2645 
Q 2509 2841 2209 2841 
Q 1884 2841 1681 2658 
Q 1478 2475 1428 2131 
L 2881 2131 
z
" transform="scale(0.015625)"/>
      <path id="DejaVuSans-Bold-20" transform="scale(0.015625)"/>
      <path id="DejaVuSans-Bold-76" d="M 97 3500 
L 1216 3500 
L 2088 1081 
L 2956 3500 
L 4078 3500 
L 2700 0 
L 1472 0 
L 97 3500 
z
" transform="scale(0.015625)"/>
      <path id="DejaVuSans-Bold-73" d="M 3272 3391 
L 3272 2541 
Q 2913 2691 2578 2766 
Q 2244 2841 1947 2841 
Q 1628 2841 1473 2761 
Q 1319 2681 1319 2516 
Q 1319 2381 1436 2309 
Q 1553 2238 1856 2203 
L 2053 2175 
Q 2913 2066 3209 1816 
Q 3506 1566 3506 1031 
Q 3506 472 3093 190 
Q 2681 -91 1863 -91 
Q 1516 -91 1145 -36 
Q 775 19 384 128 
L 384 978 
Q 719 816 1070 734 
Q 1422 653 1784 653 
Q 2113 653 2278 743 
Q 2444 834 2444 1013 
Q 2444 1163 2330 1236 
Q 2216 1309 1875 1350 
L 1678 1375 
Q 931 1469 631 1722 
Q 331 1975 331 2491 
Q 331 3047 712 3315 
Q 1094 3584 1881 3584 
Q 2191 3584 2531 3537 
Q 2872 3491 3272 3391 
z
" transform="scale(0.015625)"/>
      <path id="DejaVuSans-Bold-55" d="M 588 4666 
L 1791 4666 
L 1791 1869 
Q 1791 1291 1980 1042 
Q 2169 794 2597 794 
Q 3028 794 3217 1042 
Q 3406 1291 3406 1869 
L 3406 4666 
L 4609 4666 
L 4609 1869 
Q 4609 878 4112 393 
Q 3616 -91 2597 -91 
Q 1581 -91 1084 393 
Q 588 878 588 1869 
L 588 4666 
z
" transform="scale(0.015625)"/>
      <path id="DejaVuSans-Bold-6e" d="M 4056 2131 
L 4056 0 
L 2931 0 
L 2931 347 
L 2931 1631 
Q 2931 2084 2911 2256 
Q 2891 2428 2841 2509 
Q 2775 2619 2662 2680 
Q 2550 2741 2406 2741 
Q 2056 2741 1856 2470 
Q 1656 2200 1656 1722 
L 1656 0 
L 538 0 
L 538 3500 
L 1656 3500 
L 1656 2988 
Q 1909 3294 2193 3439 
Q 2478 3584 2822 3584 
Q 3428 3584 3742 3212 
Q 4056 2841 4056 2131 
z
" transform="scale(0.015625)"/>
      <path id="DejaVuSans-Bold-69" d="M 538 3500 
L 1656 3500 
L 1656 0 
L 538 0 
L 538 3500 
z
M 538 4863 
L 1656 4863 
L 1656 3950 
L 538 3950 
L 538 4863 
z
" transform="scale(0.015625)"/>
      <path id="DejaVuSans-Bold-72" d="M 3138 2547 
Q 2991 2616 2845 2648 
Q 2700 2681 2553 2681 
Q 2122 2681 1889 2404 
Q 1656 2128 1656 1613 
L 1656 0 
L 538 0 
L 538 3500 
L 1656 3500 
L 1656 2925 
Q 1872 3269 2151 3426 
Q 2431 3584 2822 3584 
Q 2878 3584 2943 3579 
Q 3009 3575 3134 3559 
L 3138 2547 
z
" transform="scale(0.015625)"/>
      <path id="DejaVuSans-Bold-74" d="M 1759 4494 
L 1759 3500 
L 2913 3500 
L 2913 2700 
L 1759 2700 
L 1759 1216 
Q 1759 972 1856 886 
Q 1953 800 2241 800 
L 2816 800 
L 2816 0 
L 1856 0 
Q 1194 0 917 276 
Q 641 553 641 1216 
L 641 2700 
L 84 2700 
L 84 3500 
L 641 3500 
L 641 4494 
L 1759 4494 
z
" transform="scale(0.015625)"/>
      <path id="DejaVuSans-Bold-79" d="M 78 3500 
L 1197 3500 
L 2138 1125 
L 2938 3500 
L 4056 3500 
L 2584 -331 
Q 2363 -916 2067 -1148 
Q 1772 -1381 1288 -1381 
L 641 -1381 
L 641 -647 
L 991 -647 
Q 1275 -647 1404 -556 
Q 1534 -466 1606 -231 
L 1638 -134 
L 78 3500 
z
" transform="scale(0.015625)"/>
      <path id="DejaVuSans-Bold-2014" d="M 344 2156 
L 6056 2156 
L 6056 1350 
L 344 1350 
L 344 2156 
z
" transform="scale(0.015625)"/>
      <path id="DejaVuSans-Bold-4f" d="M 2719 3878 
Q 2169 3878 1866 3472 
Q 1563 3066 1563 2328 
Q 1563 1594 1866 1187 
Q 2169 781 2719 781 
Q 3272 781 3575 1187 
Q 3878 1594 3878 2328 
Q 3878 3066 3575 3472 
Q 3272 3878 2719 3878 
z
M 2719 4750 
Q 3844 4750 4481 4106 
Q 5119 3463 5119 2328 
Q 5119 1197 4481 553 
Q 3844 -91 2719 -91 
Q 1597 -91 958 553 
Q 319 1197 319 2328 
Q 319 3463 958 4106 
Q 1597 4750 2719 4750 
z
" transform="scale(0.015625)"/>
      <path id="DejaVuSans-Bold-6c" d="M 538 4863 
L 1656 4863 
L 1656 0 
L 538 0 
L 538 4863 
z
" transform="scale(0.015625)"/>
      <path id="DejaVuSans-Bold-61" d="M 2106 1575 
Q 1756 1575 1579 1456 
Q 1403 1338 1403 1106 
Q 1403 894 1545 773 
Q 1688 653 1941 653 
Q 2256 653 2472 879 
Q 2688 1106 2688 1447 
L 2688 1575 
L 2106 1575 
z
M 3816 1997 
L 3816 0 
L 2688 0 
L 2688 519 
Q 2463 200 2181 54 
Q 1900 -91 1497 -91 
Q 953 -91 614 226 
Q 275 544 275 1050 
Q 275 1666 698 1953 
Q 1122 2241 2028 2241 
L 2688 2241 
L 2688 2328 
Q 2688 2594 2478 2717 
Q 2269 2841 1825 2841 
Q 1466 2841 1156 2769 
Q 847 2697 581 2553 
L 581 3406 
Q 941 3494 1303 3539 
Q 1666 3584 2028 3584 
Q 2975 3584 3395 3211 
Q 3816 2838 3816 1997 
z
" transform="scale(0.015625)"/>
      <path id="DejaVuSans-Bold-70" d="M 1656 506 
L 1656 -1331 
L 538 -1331 
L 538 3500 
L 1656 3500 
L 1656 2988 
Q 1888 3294 2169 3439 
Q 2450 3584 2816 3584 
Q 3463 3584 3878 3070 
Q 4294 2556 4294 1747 
Q 4294 938 3878 423 
Q 3463 -91 2816 -91 
Q 2450 -91 2169 54 
Q 1888 200 1656 506 
z
M 2400 2772 
Q 2041 2772 1848 2508 
Q 1656 2244 1656 1747 
Q 1656 1250 1848 986 
Q 2041 722 2400 722 
Q 2759 722 2948 984 
Q 3138 1247 3138 1747 
Q 3138 2247 2948 2509 
Q 2759 2772 2400 2772 
z
" transform="scale(0.015625)"/>
      <path id="DejaVuSans-Bold-67" d="M 2919 594 
Q 2688 288 2409 144 
Q 2131 0 1766 0 
Q 1125 0 706 504 
Q 288 1009 288 1791 
Q 288 2575 706 3076 
Q 1125 3578 1766 3578 
Q 2131 3578 2409 3434 
Q 2688 3291 2919 2981 
L 2919 3500 
L 4044 3500 
L 4044 353 
Q 4044 -491 3511 -936 
Q 2978 -1381 1966 -1381 
Q 1638 -1381 1331 -1331 
Q 1025 -1281 716 -1178 
L 716 -306 
Q 1009 -475 1290 -558 
Q 1572 -641 1856 -641 
Q 2406 -641 2662 -400 
Q 2919 -159 2919 353 
L 2919 594 
z
M 2181 2772 
Q 1834 2772 1640 2515 
Q 1447 2259 1447 1791 
Q 1447 1309 1634 1061 
Q 1822 813 2181 813 
Q 2531 813 2725 1069 
Q 2919 1325 2919 1791 
Q 2919 2259 2725 2515 
Q 2531 2772 2181 2772 
z
" transform="scale(0.015625)"/>
      <path id="DejaVuSans-Bold-4b" d="M 588 4666 
L 1791 4666 
L 1791 2963 
L 3525 4666 
L 4922 4666 
L 2675 2456 
L 5153 0 
L 3647 0 
L 1791 1838 
L 1791 0 
L 588 0 
L 588 4666 
z
" transform="scale(0.015625)"/>
      <path id="DejaVuSans-Bold-44" d="M 1791 3756 
L 1791 909 
L 2222 909 
Q 2959 909 3348 1275 
Q 3738 1641 3738 2338 
Q 3738 3031 3350 3393 
Q 2963 3756 2222 3756 
L 1791 3756 
z
M 588 4666 
L 1856 4666 
Q 2919 4666 3439 4514 
Q 3959 4363 4331 4000 
Q 4659 3684 4818 3271 
Q 4978 2859 4978 2338 
Q 4978 1809 4818 1395 
Q 4659 981 4331 666 
Q 3956 303 3431 151 
Q 2906 0 1856 0 
L 588 0 
L 588 4666 
z
" transform="scale(0.015625)"/>
      <path id="DejaVuSans-Bold-45" d="M 588 4666 
L 3834 4666 
L 3834 3756 
L 1791 3756 
L 1791 2888 
L 3713 2888 
L 3713 1978 
L 1791 1978 
L 1791 909 
L 3903 909 
L 3903 0 
L 588 0 
L 588 4666 
z
" transform="scale(0.015625)"/>
      <path id="DejaVuSans-Bold-62" d="M 2400 722 
Q 2759 722 2948 984 
Q 3138 1247 3138 1747 
Q 3138 2247 2948 2509 
Q 2759 2772 2400 2772 
Q 2041 2772 1848 2508 
Q 1656 2244 1656 1747 
Q 1656 1250 1848 986 
Q 2041 722 2400 722 
z
M 1656 2988 
Q 1888 3294 2169 3439 
Q 2450 3584 2816 3584 
Q 3463 3584 3878 3070 
Q 4294 2556 4294 1747 
Q 4294 938 3878 423 
Q 3463 -91 2816 -91 
Q 2450 -91 2169 54 
Q 1888 200 1656 506 
L 1656 0 
L 538 0 
L 538 4863 
L 1656 4863 
L 1656 2988 
z
" transform="scale(0.015625)"/>
      <path id="DejaVuSans-Bold-75" d="M 500 1363 
L 500 3500 
L 1625 3500 
L 1625 3150 
Q 1625 2866 1622 2436 
Q 1619 2006 1619 1863 
Q 1619 1441 1641 1255 
Q 1663 1069 1716 984 
Q 1784 875 1895 815 
Q 2006 756 2150 756 
Q 2500 756 2700 1025 
Q 2900 1294 2900 1772 
L 2900 3500 
L 4019 3500 
L 4019 0 
L 2900 0 
L 2900 506 
Q 2647 200 2364 54 
Q 2081 -91 1741 -91 
Q 1134 -91 817 281 
Q 500 653 500 1363 
z
" transform="scale(0.015625)"/>
     </defs>
     <use xlink:href="#DejaVuSans-Bold-48"/>
     <use xlink:href="#DejaVuSans-Bold-6f" transform="translate(83.691406 0)"/>
     <use xlink:href="#DejaVuSans-Bold-6d" transform="translate(152.392578 0)"/>
     <use xlink:href="#DejaVuSans-Bold-65" transform="translate(256.591797 0)"/>
     <use xlink:href="#DejaVuSans-Bold-20" transform="translate(324.414062 0)"/>
     <use xlink:href="#DejaVuSans-Bold-76" transform="translate(359.228516 0)"/>
     <use xlink:href="#DejaVuSans-Bold-73" transform="translate(424.414062 0)"/>
     <use xlink:href="#DejaVuSans-Bold-20" transform="translate(483.935547 0)"/>
     <use xlink:href="#DejaVuSans-Bold-55" transform="translate(518.75 0)"/>
     <use xlink:href="#DejaVuSans-Bold-6e" transform="translate(599.951172 0)"/>
     <use xlink:href="#DejaVuSans-Bold-69" transform="translate(671.142578 0)"/>
     <use xlink:href="#DejaVuSans-Bold-76" transform="translate(705.419922 0)"/>
     <use xlink:href="#DejaVuSans-Bold-65" transform="translate(770.605469 0)"/>
     <use xlink:href="#DejaVuSans-Bold-72" transform="translate(838.427734 0)"/>
     <use xlink:href="#DejaVuSans-Bold-73" transform="translate(887.744141 0)"/>
     <use xlink:href="#DejaVuSans-Bold-69" transform="translate(947.265625 0)"/>
     <use xlink:href="#DejaVuSans-Bold-74" transform="translate(981.542969 0)"/>
     <use xlink:href="#DejaVuSans-Bold-79" transform="translate(1029.345703 0)"/>
     <use xlink:href="#DejaVuSans-Bold-20" transform="translate(1094.53125 0)"/>
     <use xlink:href="#DejaVuSans-Bold-2014" transform="translate(1129.345703 0)"/>
     <use xlink:href="#DejaVuSans-Bold-20" transform="translate(1229.345703 0)"/>
     <use xlink:href="#DejaVuSans-Bold-4f" transform="translate(1264.160156 0)"/>
     <use xlink:href="#DejaVuSans-Bold-76" transform="translate(1349.169922 0)"/>
     <use xlink:href="#DejaVuSans-Bold-65" transform="translate(1414.355469 0)"/>
     <use xlink:href="#DejaVuSans-Bold-72" transform="translate(1482.177734 0)"/>
     <use xlink:href="#DejaVuSans-Bold-6c" transform="translate(1531.494141 0)"/>
     <use xlink:href="#DejaVuSans-Bold-61" transform="translate(1565.771484 0)"/>
     <use xlink:href="#DejaVuSans-Bold-70" transform="translate(1633.251953 0)"/>
     <use xlink:href="#DejaVuSans-Bold-70" transform="translate(1704.833984 0)"/>
     <use xlink:href="#DejaVuSans-Bold-69" transform="translate(1776.416016 0)"/>
     <use xlink:href="#DejaVuSans-Bold-6e" transform="translate(1810.693359 0)"/>
     <use xlink:href="#DejaVuSans-Bold-67" transform="translate(1881.884766 0)"/>
     <use xlink:href="#DejaVuSans-Bold-20" transform="translate(1953.466797 0)"/>
     <use xlink:href="#DejaVuSans-Bold-4b" transform="translate(1988.28125 0)"/>
     <use xlink:href="#DejaVuSans-Bold-44" transform="translate(2065.771484 0)"/>
     <use xlink:href="#DejaVuSans-Bold-45" transform="translate(2148.779297 0)"/>
     <use xlink:href="#DejaVuSans-Bold-20" transform="translate(2217.089844 0)"/>
     <use xlink:href="#DejaVuSans-Bold-44" transform="translate(2251.904297 0)"/>
     <use xlink:href="#DejaVuSans-Bold-69" transform="translate(2334.912109 0)"/>
     <use xlink:href="#DejaVuSans-Bold-73" transform="translate(2369.189453 0)"/>
     <use xlink:href="#DejaVuSans-Bold-74" transform="translate(2428.710938 0)"/>
     <use xlink:href="#DejaVuSans-Bold-72" transform="translate(2476.513672 0)"/>
     <use xlink:href="#DejaVuSans-Bold-69" transform="translate(2525.830078 0)"/>
     <use xlink:href="#DejaVuSans-Bold-62" transform="translate(2560.107422 0)"/>
     <use xlink:href="#DejaVuSans-Bold-75" transform="translate(2631.689453 0)"/>
     <use xlink:href="#DejaVuSans-Bold-74" transform="translate(2702.880859 0)"/>
     <use xlink:href="#DejaVuSans-Bold-69" transform="translate(2750.683594 0)"/>
     <use xlink:href="#DejaVuSans-Bold-6f" transform="translate(2784.960938 0)"/>
     <use xlink:href="#DejaVuSans-Bold-6e" transform="translate(2853.662109 0)"/>
     <use xlink:href="#DejaVuSans-Bold-73" transform="translate(2924.853516 0)"/>
    </g>
   </g>
   <g id="legend_1">
    <g id="patch_49">
     <path d="M 607.030938 64.169844 
L 697.719062 64.169844 
Q 699.919062 64.169844 699.919062 61.969844 
L 699.919062 30.777969 
Q 699.919062 28.577969 697.719062 28.577969 
L 607.030938 28.577969 
Q 604.830938 28.577969 604.830938 30.777969 
L 604.830938 61.969844 
Q 604.830938 64.169844 607.030938 64.169844 
z
" style="fill: #f8f9fa; opacity: 0.8; stroke: #cccccc; stroke-linejoin: miter"/>
    </g>
    <g id="line2d_33">
     <path d="M 609.230937 37.48625 
L 620.230937 37.48625 
L 631.230937 37.48625 
" style="fill: none; stroke: #2196f3; stroke-width: 2.5; stroke-linecap: square"/>
    </g>
    <g id="text_19">
     <!-- Home -->
     <g transform="translate(640.030937 41.33625) scale(0.11 -0.11)">
      <defs>
       <path id="DejaVuSans-48" d="M 628 4666 
L 1259 4666 
L 1259 2753 
L 3553 2753 
L 3553 4666 
L 4184 4666 
L 4184 0 
L 3553 0 
L 3553 2222 
L 1259 2222 
L 1259 0 
L 628 0 
L 628 4666 
z
" transform="scale(0.015625)"/>
      </defs>
      <use xlink:href="#DejaVuSans-48"/>
      <use xlink:href="#DejaVuSans-6f" transform="translate(75.195312 0)"/>
      <use xlink:href="#DejaVuSans-6d" transform="translate(136.376953 0)"/>
      <use xlink:href="#DejaVuSans-65" transform="translate(233.789062 0)"/>
     </g>
    </g>
    <g id="line2d_34">
     <path d="M 609.230937 53.632187 
L 620.230937 53.632187 
L 631.230937 53.632187 
" style="fill: none; stroke: #ff5722; stroke-width: 2.5; stroke-linecap: square"/>
    </g>
    <g id="text_20">
     <!-- University -->
     <g transform="translate(640.030937 57.482187) scale(0.11 -0.11)">
      <defs>
       <path id="DejaVuSans-55" d="M 556 4666 
L 1191 4666 
L 1191 1831 
Q 1191 1081 1462 751 
Q 1734 422 2344 422 
Q 2950 422 3222 751 
Q 3494 1081 3494 1831 
L 3494 4666 
L 4128 4666 
L 4128 1753 
Q 4128 841 3676 375 
Q 3225 -91 2344 -91 
Q 1459 -91 1007 375 
Q 556 841 556 1753 
L 556 4666 
z
" transform="scale(0.015625)"/>
       <path id="DejaVuSans-76" d="M 191 3500 
L 800 3500 
L 1894 563 
L 2988 3500 
L 3597 3500 
L 2284 0 
L 1503 0 
L 191 3500 
z
" transform="scale(0.015625)"/>
       <path id="DejaVuSans-72" d="M 2631 2963 
Q 2534 3019 2420 3045 
Q 2306 3072 2169 3072 
Q 1681 3072 1420 2755 
Q 1159 2438 1159 1844 
L 1159 0 
L 581 0 
L 581 3500 
L 1159 3500 
L 1159 2956 
Q 1341 3275 1631 3429 
Q 1922 3584 2338 3584 
Q 2397 3584 2469 3576 
Q 2541 3569 2628 3553 
L 2631 2963 
z
" transform="scale(0.015625)"/>
      </defs>
      <use xlink:href="#DejaVuSans-55"/>
      <use xlink:href="#DejaVuSans-6e" transform="translate(73.193359 0)"/>
      <use xlink:href="#DejaVuSans-69" transform="translate(136.572266 0)"/>
      <use xlink:href="#DejaVuSans-76" transform="translate(164.355469 0)"/>
      <use xlink:href="#DejaVuSans-65" transform="translate(223.535156 0)"/>
      <use xlink:href="#DejaVuSans-72" transform="translate(285.058594 0)"/>
      <use xlink:href="#DejaVuSans-73" transform="translate(326.171875 0)"/>
      <use xlink:href="#DejaVuSans-69" transform="translate(378.271484 0)"/>
      <use xlink:href="#DejaVuSans-74" transform="translate(406.054688 0)"/>
      <use xlink:href="#DejaVuSans-79" transform="translate(445.263672 0)"/>
     </g>
    </g>
   </g>
  </g>
 </g>
 <defs>
  <clipPath id="p257ce98933">
   <rect x="44.749063" y="23.077969" width="660.67" height="290.68"/>
  </clipPath>
 </defs>
</svg>
