<?xml version="1.0" encoding="utf-8" standalone="no"?>
<!DOCTYPE svg PUBLIC "-//W3C//DTD SVG 1.1//EN"
  "http://www.w3.org/Graphics/SVG/1.1/DTD/svg11.dtd">
<svg xmlns:xlink="http://www.w3.org/1999/xlink" width="1000.375625pt" height="352.124622pt" viewBox="0 0 1000.375625 352.124622" xmlns="http://www.w3.org/2000/svg" version="1.1">
 <metadata>
  <rdf:RDF xmlns:dc="http://purl.org/dc/elements/1.1/" xmlns:cc="http://creativecommons.org/ns#" xmlns:rdf="http://www.w3.org/1999/02/22-rdf-syntax-ns#">
   <cc:Work>
    <dc:type rdf:resource="http://purl.org/dc/dcmitype/StillImage"/>
    <dc:date>2026-04-04T11:16:43.816856</dc:date>
    <dc:format>image/svg+xml</dc:format>
    <dc:creator>
     <cc:Agent>
      <dc:title>Matplotlib v3.10.3, https://matplotlib.org/</dc:title>
     </cc:Agent>
    </dc:creator>
   </cc:Work>
  </rdf:RDF>
 </metadata>
 <defs>
  <style type="text/css">*{stroke-linejoin: round; stroke-linecap: butt}</style>
 </defs>
 <g id="figure_1">
  <g id="patch_1">
   <path d="M 0 352.124622 
L 1000.375625 352.124622 
L 1000.375625 0 
L 0 0 
z
" style="fill: #ffffff"/>
  </g>
  <g id="axes_1">
   <g id="patch_2">
    <path d="M 46.965625 291.213433 
L 993.175625 291.213433 
L 993.175625 23.077969 
L 46.965625 23.077969 
z
" style="fill: #f8f9fa"/>
   </g>
   <g id="FillBetweenPolyCollection_1">
    <defs>
     <path id="mfb64471b41" d="M 89.97517 -73.099165 
L 89.97517 -73.45437 
L 92.331858 -74.628521 
L 94.688545 -75.985207 
L 97.045233 -77.040955 
L 99.40192 -77.968435 
L 101.758608 -78.220039 
L 104.115295 -78.476576 
L 106.471982 -79.45339 
L 108.82867 -79.764195 
L 111.185357 -80.405537 
L 113.542045 -81.239283 
L 115.898732 -82.186496 
L 118.25542 -82.4677 
L 120.612107 -82.758771 
L 122.968794 -82.985708 
L 125.325482 -83.85892 
L 127.682169 -84.697599 
L 130.038857 -85.491877 
L 132.395544 -85.743481 
L 205.452854 -86.16282 
L 207.809542 -87.129767 
L 210.166229 -88.086848 
L 212.522916 -88.910726 
L 214.879604 -89.172197 
L 217.236291 -89.561936 
L 219.592979 -90.519016 
L 221.949666 -91.614232 
L 224.306354 -91.910236 
L 226.663041 -92.877184 
L 229.019728 -93.77013 
L 231.376416 -94.002 
L 233.733103 -94.786411 
L 236.089791 -95.699091 
L 238.446478 -96.557503 
L 240.803165 -97.628052 
L 243.159853 -98.456864 
L 245.51654 -99.55208 
L 247.873228 -100.149022 
L 250.229915 -100.420359 
L 252.586603 -100.681829 
L 254.94329 -101.732645 
L 257.299977 -102.038516 
L 259.656665 -102.862394 
L 262.013352 -103.71094 
L 264.37004 -104.179613 
L 266.726727 -104.475617 
L 269.083415 -105.743502 
L 271.440102 -106.883119 
L 273.796789 -107.267924 
L 276.153477 -108.417408 
L 278.510164 -109.49289 
L 280.866852 -110.020764 
L 283.223539 -111.120913 
L 285.580226 -112.018793 
L 287.936914 -112.132261 
L 290.293601 -112.31973 
L 292.650289 -113.266944 
L 295.006976 -114.179624 
L 297.363664 -114.746965 
L 299.720351 -115.748447 
L 302.077038 -117.105133 
L 304.433726 -117.39127 
L 306.790413 -118.377951 
L 309.147101 -119.226497 
L 311.503788 -120.124376 
L 313.860476 -120.371046 
L 316.217163 -121.599464 
L 318.57385 -121.826401 
L 320.930538 -122.092805 
L 323.287225 -122.862416 
L 325.643913 -123.913231 
L 328.0006 -124.870311 
L 330.357288 -125.047914 
L 332.713975 -126.049395 
L 335.070662 -127.016342 
L 337.42735 -127.203812 
L 339.784037 -127.652751 
L 342.140725 -128.979837 
L 344.497412 -130.760796 
L 346.854099 -131.278804 
L 349.210787 -131.594542 
L 351.567474 -132.887093 
L 353.924162 -133.173231 
L 356.280849 -134.663119 
L 358.637537 -135.876737 
L 360.994224 -136.902885 
L 363.350911 -137.223556 
L 365.707599 -137.50476 
L 368.064286 -139.029182 
L 370.420974 -140.2576 
L 372.777661 -140.509203 
L 375.134349 -141.752421 
L 377.491036 -142.892038 
L 379.847723 -143.094307 
L 382.204411 -143.336044 
L 384.561098 -144.771665 
L 386.917786 -145.699145 
L 389.274473 -145.935948 
L 391.63116 -147.124899 
L 393.987848 -148.254648 
L 396.344535 -149.004526 
L 398.701223 -149.275863 
L 401.05791 -149.5324 
L 403.414598 -149.77907 
L 405.771285 -150.70655 
L 408.127972 -151.574829 
L 410.48466 -152.522043 
L 412.841347 -152.729246 
L 415.198035 -153.760328 
L 417.554722 -154.806209 
L 419.91141 -155.250216 
L 422.268097 -155.551153 
L 424.624784 -156.769704 
L 426.981472 -157.85012 
L 429.338159 -158.239859 
L 431.694847 -159.418942 
L 434.051534 -160.464824 
L 436.408222 -160.87923 
L 438.764909 -161.244302 
L 441.121596 -162.452986 
L 443.478284 -163.538335 
L 445.834971 -163.854073 
L 448.191659 -164.229012 
L 450.548346 -165.289694 
L 452.905033 -165.684366 
L 455.261721 -166.685847 
L 457.618408 -167.756396 
L 459.975096 -168.738143 
L 462.331783 -169.231484 
L 464.688471 -169.552155 
L 467.045158 -170.538836 
L 469.401845 -170.706572 
L 471.758533 -171.678452 
L 474.11522 -172.6898 
L 476.471908 -173.715949 
L 478.828595 -173.962619 
L 481.185283 -174.303024 
L 483.54197 -175.319305 
L 485.898657 -176.473722 
L 488.255345 -176.868394 
L 490.612032 -177.889609 
L 492.96872 -178.792422 
L 495.325407 -179.048959 
L 497.682094 -179.256162 
L 500.038782 -179.522566 
L 502.395469 -180.425379 
L 504.752157 -181.342992 
L 507.108844 -182.290205 
L 509.465532 -183.207819 
L 511.822219 -183.380488 
L 514.178906 -184.554638 
L 516.535594 -184.845709 
L 518.892281 -185.852123 
L 521.248969 -186.069193 
L 523.605656 -187.105208 
L 525.962344 -188.244825 
L 528.319031 -188.772699 
L 530.675718 -188.950301 
L 533.032406 -190.02085 
L 535.389093 -190.22312 
L 537.745781 -190.410589 
L 540.102468 -191.219667 
L 542.459156 -192.216215 
L 544.815843 -193.355832 
L 547.17253 -193.577835 
L 549.529218 -193.799838 
L 551.885905 -194.041575 
L 554.242593 -194.189577 
L 556.59928 -195.082523 
L 558.955967 -196.340541 
L 561.312655 -196.986817 
L 563.669342 -198.032699 
L 566.02603 -199.127915 
L 568.382717 -200.213264 
L 570.739405 -201.012475 
L 573.096092 -201.944889 
L 575.452779 -202.857568 
L 577.809467 -203.957718 
L 580.166154 -204.056386 
L 591.949591 -204.969066 
L 594.306279 -206.143216 
L 596.662966 -207.327233 
L 599.019654 -207.766306 
L 601.376341 -208.876322 
L 603.733028 -209.019391 
L 606.089716 -210.011005 
L 608.446403 -211.066753 
L 610.803091 -212.265571 
L 613.159778 -213.508789 
L 615.516466 -214.608938 
L 617.873153 -215.689353 
L 620.22984 -216.434297 
L 622.586528 -217.317377 
L 624.943215 -218.215256 
L 627.299903 -218.456993 
L 629.65659 -218.688863 
L 632.013278 -218.9158 
L 634.369965 -219.206871 
L 636.726652 -219.448608 
L 639.08334 -220.366221 
L 641.440027 -221.180232 
L 643.796715 -222.033711 
L 646.153402 -223.232529 
L 648.51009 -224.194543 
L 650.866777 -225.260158 
L 653.223464 -226.286306 
L 655.580152 -227.287787 
L 657.936839 -228.170867 
L 660.293527 -229.093413 
L 662.650214 -229.330217 
L 665.006901 -229.690355 
L 667.363589 -229.991293 
L 669.720276 -230.252763 
L 672.076964 -231.145709 
L 674.433651 -232.161991 
L 676.790339 -232.462928 
L 679.147026 -232.872401 
L 681.503713 -233.967617 
L 683.860401 -234.840829 
L 686.217088 -235.807777 
L 712.14065 -236.74019 
L 714.497337 -236.98686 
L 716.854025 -238.096876 
L 719.210712 -239.251293 
L 721.5674 -240.361309 
L 723.924087 -241.273989 
L 726.280774 -241.367723 
L 728.637462 -242.354404 
L 730.994149 -243.064815 
L 733.350837 -244.007095 
L 735.707524 -244.860574 
L 738.064212 -245.709119 
L 740.420899 -246.498464 
L 742.777586 -246.715534 
L 745.134274 -247.63808 
L 747.490961 -248.52116 
L 749.847649 -249.46344 
L 752.204336 -250.553722 
L 754.561024 -251.594671 
L 756.917711 -252.719487 
L 759.274398 -253.025358 
L 761.631086 -253.952838 
L 763.987773 -254.959253 
L 766.344461 -256.049535 
L 768.701148 -257.174351 
L 771.057835 -258.008097 
L 773.414523 -258.871442 
L 775.77121 -259.946924 
L 778.127898 -260.282396 
L 780.484585 -261.209876 
L 782.841273 -261.648949 
L 785.19796 -262.591229 
L 787.554647 -263.523643 
L 789.911335 -264.470856 
L 792.268022 -264.811261 
L 794.62471 -265.191133 
L 796.981397 -265.728874 
L 799.338085 -266.463952 
L 801.694772 -267.361831 
L 804.051459 -267.919306 
L 806.408147 -268.846786 
L 808.764834 -269.152657 
L 811.121522 -269.917335 
L 813.478209 -270.825081 
L 815.834896 -271.69336 
L 818.191584 -272.684975 
L 820.548271 -273.454586 
L 822.904959 -274.391933 
L 825.261646 -275.186211 
L 827.618334 -276.187692 
L 829.975021 -277.297708 
L 832.331708 -278.249855 
L 834.688396 -279.152668 
L 837.045083 -280.070281 
L 839.401771 -280.731357 
L 841.758458 -281.787106 
L 844.115146 -282.122577 
L 846.471833 -283.074724 
L 848.82852 -284.071272 
L 851.185208 -284.391943 
L 853.541895 -285.156621 
L 855.898583 -285.822631 
L 858.25527 -286.927713 
L 860.611958 -287.174383 
L 862.968645 -288.195598 
L 865.325332 -288.462002 
L 867.68202 -289.902556 
L 870.038707 -290.938571 
L 872.395395 -291.609514 
L 874.752082 -291.801917 
L 877.108769 -292.852732 
L 879.465457 -293.952881 
L 881.822144 -294.135417 
L 884.178832 -295.2257 
L 886.535519 -296.015044 
L 888.892207 -296.942524 
L 891.248894 -297.815737 
L 893.605581 -298.027873 
L 895.962269 -298.545881 
L 898.318956 -298.723483 
L 900.675644 -299.517761 
L 903.032331 -300.608044 
L 905.389019 -301.550324 
L 907.745706 -301.880862 
L 910.102393 -302.744208 
L 912.459081 -303.58782 
L 914.815768 -304.327831 
L 917.172456 -305.378646 
L 919.529143 -306.266659 
L 921.88583 -307.095471 
L 924.242518 -308.057484 
L 926.599205 -308.866563 
L 928.955893 -310.03578 
L 931.31258 -310.292317 
L 933.669268 -311.328332 
L 936.025955 -312.270612 
L 938.382642 -313.28196 
L 940.73933 -314.401843 
L 943.096017 -314.653446 
L 945.452705 -315.501992 
L 947.809392 -316.547873 
L 950.16608 -316.858678 
L 950.16608 -73.099165 
L 950.16608 -73.099165 
L 947.809392 -73.099165 
L 945.452705 -73.099165 
L 943.096017 -73.099165 
L 940.73933 -73.099165 
L 938.382642 -73.099165 
L 936.025955 -73.099165 
L 933.669268 -73.099165 
L 931.31258 -73.099165 
L 928.955893 -73.099165 
L 926.599205 -73.099165 
L 924.242518 -73.099165 
L 921.88583 -73.099165 
L 919.529143 -73.099165 
L 917.172456 -73.099165 
L 914.815768 -73.099165 
L 912.459081 -73.099165 
L 910.102393 -73.099165 
L 907.745706 -73.099165 
L 905.389019 -73.099165 
L 903.032331 -73.099165 
L 900.675644 -73.099165 
L 898.318956 -73.099165 
L 895.962269 -73.099165 
L 893.605581 -73.099165 
L 891.248894 -73.099165 
L 888.892207 -73.099165 
L 886.535519 -73.099165 
L 884.178832 -73.099165 
L 881.822144 -73.099165 
L 879.465457 -73.099165 
L 877.108769 -73.099165 
L 874.752082 -73.099165 
L 872.395395 -73.099165 
L 870.038707 -73.099165 
L 867.68202 -73.099165 
L 865.325332 -73.099165 
L 862.968645 -73.099165 
L 860.611958 -73.099165 
L 858.25527 -73.099165 
L 855.898583 -73.099165 
L 853.541895 -73.099165 
L 851.185208 -73.099165 
L 848.82852 -73.099165 
L 846.471833 -73.099165 
L 844.115146 -73.099165 
L 841.758458 -73.099165 
L 839.401771 -73.099165 
L 837.045083 -73.099165 
L 834.688396 -73.099165 
L 832.331708 -73.099165 
L 829.975021 -73.099165 
L 827.618334 -73.099165 
L 825.261646 -73.099165 
L 822.904959 -73.099165 
L 820.548271 -73.099165 
L 818.191584 -73.099165 
L 815.834896 -73.099165 
L 813.478209 -73.099165 
L 811.121522 -73.099165 
L 808.764834 -73.099165 
L 806.408147 -73.099165 
L 804.051459 -73.099165 
L 801.694772 -73.099165 
L 799.338085 -73.099165 
L 796.981397 -73.099165 
L 794.62471 -73.099165 
L 792.268022 -73.099165 
L 789.911335 -73.099165 
L 787.554647 -73.099165 
L 785.19796 -73.099165 
L 782.841273 -73.099165 
L 780.484585 -73.099165 
L 778.127898 -73.099165 
L 775.77121 -73.099165 
L 773.414523 -73.099165 
L 771.057835 -73.099165 
L 768.701148 -73.099165 
L 766.344461 -73.099165 
L 763.987773 -73.099165 
L 761.631086 -73.099165 
L 759.274398 -73.099165 
L 756.917711 -73.099165 
L 754.561024 -73.099165 
L 752.204336 -73.099165 
L 749.847649 -73.099165 
L 747.490961 -73.099165 
L 745.134274 -73.099165 
L 742.777586 -73.099165 
L 740.420899 -73.099165 
L 738.064212 -73.099165 
L 735.707524 -73.099165 
L 733.350837 -73.099165 
L 730.994149 -73.099165 
L 728.637462 -73.099165 
L 726.280774 -73.099165 
L 723.924087 -73.099165 
L 721.5674 -73.099165 
L 719.210712 -73.099165 
L 716.854025 -73.099165 
L 714.497337 -73.099165 
L 712.14065 -73.099165 
L 686.217088 -73.099165 
L 683.860401 -73.099165 
L 681.503713 -73.099165 
L 679.147026 -73.099165 
L 676.790339 -73.099165 
L 674.433651 -73.099165 
L 672.076964 -73.099165 
L 669.720276 -73.099165 
L 667.363589 -73.099165 
L 665.006901 -73.099165 
L 662.650214 -73.099165 
L 660.293527 -73.099165 
L 657.936839 -73.099165 
L 655.580152 -73.099165 
L 653.223464 -73.099165 
L 650.866777 -73.099165 
L 648.51009 -73.099165 
L 646.153402 -73.099165 
L 643.796715 -73.099165 
L 641.440027 -73.099165 
L 639.08334 -73.099165 
L 636.726652 -73.099165 
L 634.369965 -73.099165 
L 632.013278 -73.099165 
L 629.65659 -73.099165 
L 627.299903 -73.099165 
L 624.943215 -73.099165 
L 622.586528 -73.099165 
L 620.22984 -73.099165 
L 617.873153 -73.099165 
L 615.516466 -73.099165 
L 613.159778 -73.099165 
L 610.803091 -73.099165 
L 608.446403 -73.099165 
L 606.089716 -73.099165 
L 603.733028 -73.099165 
L 601.376341 -73.099165 
L 599.019654 -73.099165 
L 596.662966 -73.099165 
L 594.306279 -73.099165 
L 591.949591 -73.099165 
L 580.166154 -73.099165 
L 577.809467 -73.099165 
L 575.452779 -73.099165 
L 573.096092 -73.099165 
L 570.739405 -73.099165 
L 568.382717 -73.099165 
L 566.02603 -73.099165 
L 563.669342 -73.099165 
L 561.312655 -73.099165 
L 558.955967 -73.099165 
L 556.59928 -73.099165 
L 554.242593 -73.099165 
L 551.885905 -73.099165 
L 549.529218 -73.099165 
L 547.17253 -73.099165 
L 544.815843 -73.099165 
L 542.459156 -73.099165 
L 540.102468 -73.099165 
L 537.745781 -73.099165 
L 535.389093 -73.099165 
L 533.032406 -73.099165 
L 530.675718 -73.099165 
L 528.319031 -73.099165 
L 525.962344 -73.099165 
L 523.605656 -73.099165 
L 521.248969 -73.099165 
L 518.892281 -73.099165 
L 516.535594 -73.099165 
L 514.178906 -73.099165 
L 511.822219 -73.099165 
L 509.465532 -73.099165 
L 507.108844 -73.099165 
L 504.752157 -73.099165 
L 502.395469 -73.099165 
L 500.038782 -73.099165 
L 497.682094 -73.099165 
L 495.325407 -73.099165 
L 492.96872 -73.099165 
L 490.612032 -73.099165 
L 488.255345 -73.099165 
L 485.898657 -73.099165 
L 483.54197 -73.099165 
L 481.185283 -73.099165 
L 478.828595 -73.099165 
L 476.471908 -73.099165 
L 474.11522 -73.099165 
L 471.758533 -73.099165 
L 469.401845 -73.099165 
L 467.045158 -73.099165 
L 464.688471 -73.099165 
L 462.331783 -73.099165 
L 459.975096 -73.099165 
L 457.618408 -73.099165 
L 455.261721 -73.099165 
L 452.905033 -73.099165 
L 450.548346 -73.099165 
L 448.191659 -73.099165 
L 445.834971 -73.099165 
L 443.478284 -73.099165 
L 441.121596 -73.099165 
L 438.764909 -73.099165 
L 436.408222 -73.099165 
L 434.051534 -73.099165 
L 431.694847 -73.099165 
L 429.338159 -73.099165 
L 426.981472 -73.099165 
L 424.624784 -73.099165 
L 422.268097 -73.099165 
L 419.91141 -73.099165 
L 417.554722 -73.099165 
L 415.198035 -73.099165 
L 412.841347 -73.099165 
L 410.48466 -73.099165 
L 408.127972 -73.099165 
L 405.771285 -73.099165 
L 403.414598 -73.099165 
L 401.05791 -73.099165 
L 398.701223 -73.099165 
L 396.344535 -73.099165 
L 393.987848 -73.099165 
L 391.63116 -73.099165 
L 389.274473 -73.099165 
L 386.917786 -73.099165 
L 384.561098 -73.099165 
L 382.204411 -73.099165 
L 379.847723 -73.099165 
L 377.491036 -73.099165 
L 375.134349 -73.099165 
L 372.777661 -73.099165 
L 370.420974 -73.099165 
L 368.064286 -73.099165 
L 365.707599 -73.099165 
L 363.350911 -73.099165 
L 360.994224 -73.099165 
L 358.637537 -73.099165 
L 356.280849 -73.099165 
L 353.924162 -73.099165 
L 351.567474 -73.099165 
L 349.210787 -73.099165 
L 346.854099 -73.099165 
L 344.497412 -73.099165 
L 342.140725 -73.099165 
L 339.784037 -73.099165 
L 337.42735 -73.099165 
L 335.070662 -73.099165 
L 332.713975 -73.099165 
L 330.357288 -73.099165 
L 328.0006 -73.099165 
L 325.643913 -73.099165 
L 323.287225 -73.099165 
L 320.930538 -73.099165 
L 318.57385 -73.099165 
L 316.217163 -73.099165 
L 313.860476 -73.099165 
L 311.503788 -73.099165 
L 309.147101 -73.099165 
L 306.790413 -73.099165 
L 304.433726 -73.099165 
L 302.077038 -73.099165 
L 299.720351 -73.099165 
L 297.363664 -73.099165 
L 295.006976 -73.099165 
L 292.650289 -73.099165 
L 290.293601 -73.099165 
L 287.936914 -73.099165 
L 285.580226 -73.099165 
L 283.223539 -73.099165 
L 280.866852 -73.099165 
L 278.510164 -73.099165 
L 276.153477 -73.099165 
L 273.796789 -73.099165 
L 271.440102 -73.099165 
L 269.083415 -73.099165 
L 266.726727 -73.099165 
L 264.37004 -73.099165 
L 262.013352 -73.099165 
L 259.656665 -73.099165 
L 257.299977 -73.099165 
L 254.94329 -73.099165 
L 252.586603 -73.099165 
L 250.229915 -73.099165 
L 247.873228 -73.099165 
L 245.51654 -73.099165 
L 243.159853 -73.099165 
L 240.803165 -73.099165 
L 238.446478 -73.099165 
L 236.089791 -73.099165 
L 233.733103 -73.099165 
L 231.376416 -73.099165 
L 229.019728 -73.099165 
L 226.663041 -73.099165 
L 224.306354 -73.099165 
L 221.949666 -73.099165 
L 219.592979 -73.099165 
L 217.236291 -73.099165 
L 214.879604 -73.099165 
L 212.522916 -73.099165 
L 210.166229 -73.099165 
L 207.809542 -73.099165 
L 205.452854 -73.099165 
L 132.395544 -73.099165 
L 130.038857 -73.099165 
L 127.682169 -73.099165 
L 125.325482 -73.099165 
L 122.968794 -73.099165 
L 120.612107 -73.099165 
L 118.25542 -73.099165 
L 115.898732 -73.099165 
L 113.542045 -73.099165 
L 111.185357 -73.099165 
L 108.82867 -73.099165 
L 106.471982 -73.099165 
L 104.115295 -73.099165 
L 101.758608 -73.099165 
L 99.40192 -73.099165 
L 97.045233 -73.099165 
L 94.688545 -73.099165 
L 92.331858 -73.099165 
L 89.97517 -73.099165 
z
" style="stroke: #673ab7; stroke-opacity: 0.1"/>
    </defs>
    <g clip-path="url(#p46c5db9365)">
     <use xlink:href="#mfb64471b41" x="0" y="352.124622" style="fill: #673ab7; fill-opacity: 0.1; stroke: #673ab7; stroke-opacity: 0.1"/>
    </g>
   </g>
   <g id="patch_3">
    <path d="M 134.752231 291.213433 
L 203.096167 291.213433 
L 203.096167 23.077969 
L 134.752231 23.077969 
z
" clip-path="url(#p46c5db9365)" style="fill: #9e9e9e; opacity: 0.18; stroke: #9e9e9e; stroke-linejoin: miter"/>
   </g>
   <g id="patch_4">
    <path d="M 582.522842 291.213433 
L 589.592904 291.213433 
L 589.592904 23.077969 
L 582.522842 23.077969 
z
" clip-path="url(#p46c5db9365)" style="fill: #9e9e9e; opacity: 0.18; stroke: #9e9e9e; stroke-linejoin: miter"/>
   </g>
   <g id="patch_5">
    <path d="M 688.573776 291.213433 
L 709.783962 291.213433 
L 709.783962 23.077969 
L 688.573776 23.077969 
z
" clip-path="url(#p46c5db9365)" style="fill: #9e9e9e; opacity: 0.18; stroke: #9e9e9e; stroke-linejoin: miter"/>
   </g>
   <g id="matplotlib.axis_1">
    <g id="xtick_1">
     <g id="line2d_1">
      <path d="M 61.694921 291.213433 
L 61.694921 23.077969 
" clip-path="url(#p46c5db9365)" style="fill: none; stroke: #cccccc; stroke-opacity: 0.35; stroke-width: 0.8; stroke-linecap: square"/>
     </g>
     <g id="line2d_2">
      <defs>
       <path id="m86d74e05d3" d="M 0 0 
L 0 3.5 
" style="stroke: #000000; stroke-width: 0.8"/>
      </defs>
      <g>
       <use xlink:href="#m86d74e05d3" x="61.694921" y="291.213433" style="stroke: #000000; stroke-width: 0.8"/>
      </g>
     </g>
     <g id="text_1">
      <!-- Mar 2025 -->
      <g transform="translate(19.52293 328.541529) rotate(-30) scale(0.1 -0.1)">
       <defs>
        <path id="DejaVuSans-4d" d="M 628 4666 
L 1569 4666 
L 2759 1491 
L 3956 4666 
L 4897 4666 
L 4897 0 
L 4281 0 
L 4281 4097 
L 3078 897 
L 2444 897 
L 1241 4097 
L 1241 0 
L 628 0 
L 628 4666 
z
" transform="scale(0.015625)"/>
        <path id="DejaVuSans-61" d="M 2194 1759 
Q 1497 1759 1228 1600 
Q 959 1441 959 1056 
Q 959 750 1161 570 
Q 1363 391 1709 391 
Q 2188 391 2477 730 
Q 2766 1069 2766 1631 
L 2766 1759 
L 2194 1759 
z
M 3341 1997 
L 3341 0 
L 2766 0 
L 2766 531 
Q 2569 213 2275 61 
Q 1981 -91 1556 -91 
Q 1019 -91 701 211 
Q 384 513 384 1019 
Q 384 1609 779 1909 
Q 1175 2209 1959 2209 
L 2766 2209 
L 2766 2266 
Q 2766 2663 2505 2880 
Q 2244 3097 1772 3097 
Q 1472 3097 1187 3025 
Q 903 2953 641 2809 
L 641 3341 
Q 956 3463 1253 3523 
Q 1550 3584 1831 3584 
Q 2591 3584 2966 3190 
Q 3341 2797 3341 1997 
z
" transform="scale(0.015625)"/>
        <path id="DejaVuSans-72" d="M 2631 2963 
Q 2534 3019 2420 3045 
Q 2306 3072 2169 3072 
Q 1681 3072 1420 2755 
Q 1159 2438 1159 1844 
L 1159 0 
L 581 0 
L 581 3500 
L 1159 3500 
L 1159 2956 
Q 1341 3275 1631 3429 
Q 1922 3584 2338 3584 
Q 2397 3584 2469 3576 
Q 2541 3569 2628 3553 
L 2631 2963 
z
" transform="scale(0.015625)"/>
        <path id="DejaVuSans-20" transform="scale(0.015625)"/>
        <path id="DejaVuSans-32" d="M 1228 531 
L 3431 531 
L 3431 0 
L 469 0 
L 469 531 
Q 828 903 1448 1529 
Q 2069 2156 2228 2338 
Q 2531 2678 2651 2914 
Q 2772 3150 2772 3378 
Q 2772 3750 2511 3984 
Q 2250 4219 1831 4219 
Q 1534 4219 1204 4116 
Q 875 4013 500 3803 
L 500 4441 
Q 881 4594 1212 4672 
Q 1544 4750 1819 4750 
Q 2544 4750 2975 4387 
Q 3406 4025 3406 3419 
Q 3406 3131 3298 2873 
Q 3191 2616 2906 2266 
Q 2828 2175 2409 1742 
Q 1991 1309 1228 531 
z
" transform="scale(0.015625)"/>
        <path id="DejaVuSans-30" d="M 2034 4250 
Q 1547 4250 1301 3770 
Q 1056 3291 1056 2328 
Q 1056 1369 1301 889 
Q 1547 409 2034 409 
Q 2525 409 2770 889 
Q 3016 1369 3016 2328 
Q 3016 3291 2770 3770 
Q 2525 4250 2034 4250 
z
M 2034 4750 
Q 2819 4750 3233 4129 
Q 3647 3509 3647 2328 
Q 3647 1150 3233 529 
Q 2819 -91 2034 -91 
Q 1250 -91 836 529 
Q 422 1150 422 2328 
Q 422 3509 836 4129 
Q 1250 4750 2034 4750 
z
" transform="scale(0.015625)"/>
        <path id="DejaVuSans-35" d="M 691 4666 
L 3169 4666 
L 3169 4134 
L 1269 4134 
L 1269 2991 
Q 1406 3038 1543 3061 
Q 1681 3084 1819 3084 
Q 2600 3084 3056 2656 
Q 3513 2228 3513 1497 
Q 3513 744 3044 326 
Q 2575 -91 1722 -91 
Q 1428 -91 1123 -41 
Q 819 9 494 109 
L 494 744 
Q 775 591 1075 516 
Q 1375 441 1709 441 
Q 2250 441 2565 725 
Q 2881 1009 2881 1497 
Q 2881 1984 2565 2268 
Q 2250 2553 1709 2553 
Q 1456 2553 1204 2497 
Q 953 2441 691 2322 
L 691 4666 
z
" transform="scale(0.015625)"/>
       </defs>
       <use xlink:href="#DejaVuSans-4d"/>
       <use xlink:href="#DejaVuSans-61" transform="translate(86.279297 0)"/>
       <use xlink:href="#DejaVuSans-72" transform="translate(147.558594 0)"/>
       <use xlink:href="#DejaVuSans-20" transform="translate(188.671875 0)"/>
       <use xlink:href="#DejaVuSans-32" transform="translate(220.458984 0)"/>
       <use xlink:href="#DejaVuSans-30" transform="translate(284.082031 0)"/>
       <use xlink:href="#DejaVuSans-32" transform="translate(347.705078 0)"/>
       <use xlink:href="#DejaVuSans-35" transform="translate(411.328125 0)"/>
      </g>
     </g>
    </g>
    <g id="xtick_2">
     <g id="line2d_3">
      <path d="M 134.752231 291.213433 
L 134.752231 23.077969 
" clip-path="url(#p46c5db9365)" style="fill: none; stroke: #cccccc; stroke-opacity: 0.35; stroke-width: 0.8; stroke-linecap: square"/>
     </g>
     <g id="line2d_4">
      <g>
       <use xlink:href="#m86d74e05d3" x="134.752231" y="291.213433" style="stroke: #000000; stroke-width: 0.8"/>
      </g>
     </g>
     <g id="text_2">
      <!-- Apr 2025 -->
      <g transform="translate(93.937465 327.757935) rotate(-30) scale(0.1 -0.1)">
       <defs>
        <path id="DejaVuSans-41" d="M 2188 4044 
L 1331 1722 
L 3047 1722 
L 2188 4044 
z
M 1831 4666 
L 2547 4666 
L 4325 0 
L 3669 0 
L 3244 1197 
L 1141 1197 
L 716 0 
L 50 0 
L 1831 4666 
z
" transform="scale(0.015625)"/>
        <path id="DejaVuSans-70" d="M 1159 525 
L 1159 -1331 
L 581 -1331 
L 581 3500 
L 1159 3500 
L 1159 2969 
Q 1341 3281 1617 3432 
Q 1894 3584 2278 3584 
Q 2916 3584 3314 3078 
Q 3713 2572 3713 1747 
Q 3713 922 3314 415 
Q 2916 -91 2278 -91 
Q 1894 -91 1617 61 
Q 1341 213 1159 525 
z
M 3116 1747 
Q 3116 2381 2855 2742 
Q 2594 3103 2138 3103 
Q 1681 3103 1420 2742 
Q 1159 2381 1159 1747 
Q 1159 1113 1420 752 
Q 1681 391 2138 391 
Q 2594 391 2855 752 
Q 3116 1113 3116 1747 
z
" transform="scale(0.015625)"/>
       </defs>
       <use xlink:href="#DejaVuSans-41"/>
       <use xlink:href="#DejaVuSans-70" transform="translate(68.408203 0)"/>
       <use xlink:href="#DejaVuSans-72" transform="translate(131.884766 0)"/>
       <use xlink:href="#DejaVuSans-20" transform="translate(172.998047 0)"/>
       <use xlink:href="#DejaVuSans-32" transform="translate(204.785156 0)"/>
       <use xlink:href="#DejaVuSans-30" transform="translate(268.408203 0)"/>
       <use xlink:href="#DejaVuSans-32" transform="translate(332.03125 0)"/>
       <use xlink:href="#DejaVuSans-35" transform="translate(395.654297 0)"/>
      </g>
     </g>
    </g>
    <g id="xtick_3">
     <g id="line2d_5">
      <path d="M 205.452854 291.213433 
L 205.452854 23.077969 
" clip-path="url(#p46c5db9365)" style="fill: none; stroke: #cccccc; stroke-opacity: 0.35; stroke-width: 0.8; stroke-linecap: square"/>
     </g>
     <g id="line2d_6">
      <g>
       <use xlink:href="#m86d74e05d3" x="205.452854" y="291.213433" style="stroke: #000000; stroke-width: 0.8"/>
      </g>
     </g>
     <g id="text_3">
      <!-- May 2025 -->
      <g transform="translate(161.715252 329.445435) rotate(-30) scale(0.1 -0.1)">
       <defs>
        <path id="DejaVuSans-79" d="M 2059 -325 
Q 1816 -950 1584 -1140 
Q 1353 -1331 966 -1331 
L 506 -1331 
L 506 -850 
L 844 -850 
Q 1081 -850 1212 -737 
Q 1344 -625 1503 -206 
L 1606 56 
L 191 3500 
L 800 3500 
L 1894 763 
L 2988 3500 
L 3597 3500 
L 2059 -325 
z
" transform="scale(0.015625)"/>
       </defs>
       <use xlink:href="#DejaVuSans-4d"/>
       <use xlink:href="#DejaVuSans-61" transform="translate(86.279297 0)"/>
       <use xlink:href="#DejaVuSans-79" transform="translate(147.558594 0)"/>
       <use xlink:href="#DejaVuSans-20" transform="translate(206.738281 0)"/>
       <use xlink:href="#DejaVuSans-32" transform="translate(238.525391 0)"/>
       <use xlink:href="#DejaVuSans-30" transform="translate(302.148438 0)"/>
       <use xlink:href="#DejaVuSans-32" transform="translate(365.771484 0)"/>
       <use xlink:href="#DejaVuSans-35" transform="translate(429.394531 0)"/>
      </g>
     </g>
    </g>
    <g id="xtick_4">
     <g id="line2d_7">
      <path d="M 278.510164 291.213433 
L 278.510164 23.077969 
" clip-path="url(#p46c5db9365)" style="fill: none; stroke: #cccccc; stroke-opacity: 0.35; stroke-width: 0.8; stroke-linecap: square"/>
     </g>
     <g id="line2d_8">
      <g>
       <use xlink:href="#m86d74e05d3" x="278.510164" y="291.213433" style="stroke: #000000; stroke-width: 0.8"/>
      </g>
     </g>
     <g id="text_4">
      <!-- Jun 2025 -->
      <g transform="translate(239.14599 326.920435) rotate(-30) scale(0.1 -0.1)">
       <defs>
        <path id="DejaVuSans-4a" d="M 628 4666 
L 1259 4666 
L 1259 325 
Q 1259 -519 939 -900 
Q 619 -1281 -91 -1281 
L -331 -1281 
L -331 -750 
L -134 -750 
Q 284 -750 456 -515 
Q 628 -281 628 325 
L 628 4666 
z
" transform="scale(0.015625)"/>
        <path id="DejaVuSans-75" d="M 544 1381 
L 544 3500 
L 1119 3500 
L 1119 1403 
Q 1119 906 1312 657 
Q 1506 409 1894 409 
Q 2359 409 2629 706 
Q 2900 1003 2900 1516 
L 2900 3500 
L 3475 3500 
L 3475 0 
L 2900 0 
L 2900 538 
Q 2691 219 2414 64 
Q 2138 -91 1772 -91 
Q 1169 -91 856 284 
Q 544 659 544 1381 
z
M 1991 3584 
L 1991 3584 
z
" transform="scale(0.015625)"/>
        <path id="DejaVuSans-6e" d="M 3513 2113 
L 3513 0 
L 2938 0 
L 2938 2094 
Q 2938 2591 2744 2837 
Q 2550 3084 2163 3084 
Q 1697 3084 1428 2787 
Q 1159 2491 1159 1978 
L 1159 0 
L 581 0 
L 581 3500 
L 1159 3500 
L 1159 2956 
Q 1366 3272 1645 3428 
Q 1925 3584 2291 3584 
Q 2894 3584 3203 3211 
Q 3513 2838 3513 2113 
z
" transform="scale(0.015625)"/>
       </defs>
       <use xlink:href="#DejaVuSans-4a"/>
       <use xlink:href="#DejaVuSans-75" transform="translate(29.492188 0)"/>
       <use xlink:href="#DejaVuSans-6e" transform="translate(92.871094 0)"/>
       <use xlink:href="#DejaVuSans-20" transform="translate(156.25 0)"/>
       <use xlink:href="#DejaVuSans-32" transform="translate(188.037109 0)"/>
       <use xlink:href="#DejaVuSans-30" transform="translate(251.660156 0)"/>
       <use xlink:href="#DejaVuSans-32" transform="translate(315.283203 0)"/>
       <use xlink:href="#DejaVuSans-35" transform="translate(378.90625 0)"/>
      </g>
     </g>
    </g>
    <g id="xtick_5">
     <g id="line2d_9">
      <path d="M 349.210787 291.213433 
L 349.210787 23.077969 
" clip-path="url(#p46c5db9365)" style="fill: none; stroke: #cccccc; stroke-opacity: 0.35; stroke-width: 0.8; stroke-linecap: square"/>
     </g>
     <g id="line2d_10">
      <g>
       <use xlink:href="#m86d74e05d3" x="349.210787" y="291.213433" style="stroke: #000000; stroke-width: 0.8"/>
      </g>
     </g>
     <g id="text_5">
      <!-- Jul 2025 -->
      <g transform="translate(312.929122 325.140748) rotate(-30) scale(0.1 -0.1)">
       <defs>
        <path id="DejaVuSans-6c" d="M 603 4863 
L 1178 4863 
L 1178 0 
L 603 0 
L 603 4863 
z
" transform="scale(0.015625)"/>
       </defs>
       <use xlink:href="#DejaVuSans-4a"/>
       <use xlink:href="#DejaVuSans-75" transform="translate(29.492188 0)"/>
       <use xlink:href="#DejaVuSans-6c" transform="translate(92.871094 0)"/>
       <use xlink:href="#DejaVuSans-20" transform="translate(120.654297 0)"/>
       <use xlink:href="#DejaVuSans-32" transform="translate(152.441406 0)"/>
       <use xlink:href="#DejaVuSans-30" transform="translate(216.064453 0)"/>
       <use xlink:href="#DejaVuSans-32" transform="translate(279.6875 0)"/>
       <use xlink:href="#DejaVuSans-35" transform="translate(343.310547 0)"/>
      </g>
     </g>
    </g>
    <g id="xtick_6">
     <g id="line2d_11">
      <path d="M 422.268097 291.213433 
L 422.268097 23.077969 
" clip-path="url(#p46c5db9365)" style="fill: none; stroke: #cccccc; stroke-opacity: 0.35; stroke-width: 0.8; stroke-linecap: square"/>
     </g>
     <g id="line2d_12">
      <g>
       <use xlink:href="#m86d74e05d3" x="422.268097" y="291.213433" style="stroke: #000000; stroke-width: 0.8"/>
      </g>
     </g>
     <g id="text_6">
      <!-- Aug 2025 -->
      <g transform="translate(379.525071 328.871216) rotate(-30) scale(0.1 -0.1)">
       <defs>
        <path id="DejaVuSans-67" d="M 2906 1791 
Q 2906 2416 2648 2759 
Q 2391 3103 1925 3103 
Q 1463 3103 1205 2759 
Q 947 2416 947 1791 
Q 947 1169 1205 825 
Q 1463 481 1925 481 
Q 2391 481 2648 825 
Q 2906 1169 2906 1791 
z
M 3481 434 
Q 3481 -459 3084 -895 
Q 2688 -1331 1869 -1331 
Q 1566 -1331 1297 -1286 
Q 1028 -1241 775 -1147 
L 775 -588 
Q 1028 -725 1275 -790 
Q 1522 -856 1778 -856 
Q 2344 -856 2625 -561 
Q 2906 -266 2906 331 
L 2906 616 
Q 2728 306 2450 153 
Q 2172 0 1784 0 
Q 1141 0 747 490 
Q 353 981 353 1791 
Q 353 2603 747 3093 
Q 1141 3584 1784 3584 
Q 2172 3584 2450 3431 
Q 2728 3278 2906 2969 
L 2906 3500 
L 3481 3500 
L 3481 434 
z
" transform="scale(0.015625)"/>
       </defs>
       <use xlink:href="#DejaVuSans-41"/>
       <use xlink:href="#DejaVuSans-75" transform="translate(68.408203 0)"/>
       <use xlink:href="#DejaVuSans-67" transform="translate(131.787109 0)"/>
       <use xlink:href="#DejaVuSans-20" transform="translate(195.263672 0)"/>
       <use xlink:href="#DejaVuSans-32" transform="translate(227.050781 0)"/>
       <use xlink:href="#DejaVuSans-30" transform="translate(290.673828 0)"/>
       <use xlink:href="#DejaVuSans-32" transform="translate(354.296875 0)"/>
       <use xlink:href="#DejaVuSans-35" transform="translate(417.919922 0)"/>
      </g>
     </g>
    </g>
    <g id="xtick_7">
     <g id="line2d_13">
      <path d="M 495.325407 291.213433 
L 495.325407 23.077969 
" clip-path="url(#p46c5db9365)" style="fill: none; stroke: #cccccc; stroke-opacity: 0.35; stroke-width: 0.8; stroke-linecap: square"/>
     </g>
     <g id="line2d_14">
      <g>
       <use xlink:href="#m86d74e05d3" x="495.325407" y="291.213433" style="stroke: #000000; stroke-width: 0.8"/>
      </g>
     </g>
     <g id="text_7">
      <!-- Sep 2025 -->
      <g transform="translate(453.168301 328.532935) rotate(-30) scale(0.1 -0.1)">
       <defs>
        <path id="DejaVuSans-53" d="M 3425 4513 
L 3425 3897 
Q 3066 4069 2747 4153 
Q 2428 4238 2131 4238 
Q 1616 4238 1336 4038 
Q 1056 3838 1056 3469 
Q 1056 3159 1242 3001 
Q 1428 2844 1947 2747 
L 2328 2669 
Q 3034 2534 3370 2195 
Q 3706 1856 3706 1288 
Q 3706 609 3251 259 
Q 2797 -91 1919 -91 
Q 1588 -91 1214 -16 
Q 841 59 441 206 
L 441 856 
Q 825 641 1194 531 
Q 1563 422 1919 422 
Q 2459 422 2753 634 
Q 3047 847 3047 1241 
Q 3047 1584 2836 1778 
Q 2625 1972 2144 2069 
L 1759 2144 
Q 1053 2284 737 2584 
Q 422 2884 422 3419 
Q 422 4038 858 4394 
Q 1294 4750 2059 4750 
Q 2388 4750 2728 4690 
Q 3069 4631 3425 4513 
z
" transform="scale(0.015625)"/>
        <path id="DejaVuSans-65" d="M 3597 1894 
L 3597 1613 
L 953 1613 
Q 991 1019 1311 708 
Q 1631 397 2203 397 
Q 2534 397 2845 478 
Q 3156 559 3463 722 
L 3463 178 
Q 3153 47 2828 -22 
Q 2503 -91 2169 -91 
Q 1331 -91 842 396 
Q 353 884 353 1716 
Q 353 2575 817 3079 
Q 1281 3584 2069 3584 
Q 2775 3584 3186 3129 
Q 3597 2675 3597 1894 
z
M 3022 2063 
Q 3016 2534 2758 2815 
Q 2500 3097 2075 3097 
Q 1594 3097 1305 2825 
Q 1016 2553 972 2059 
L 3022 2063 
z
" transform="scale(0.015625)"/>
       </defs>
       <use xlink:href="#DejaVuSans-53"/>
       <use xlink:href="#DejaVuSans-65" transform="translate(63.476562 0)"/>
       <use xlink:href="#DejaVuSans-70" transform="translate(125 0)"/>
       <use xlink:href="#DejaVuSans-20" transform="translate(188.476562 0)"/>
       <use xlink:href="#DejaVuSans-32" transform="translate(220.263672 0)"/>
       <use xlink:href="#DejaVuSans-30" transform="translate(283.886719 0)"/>
       <use xlink:href="#DejaVuSans-32" transform="translate(347.509766 0)"/>
       <use xlink:href="#DejaVuSans-35" transform="translate(411.132812 0)"/>
      </g>
     </g>
    </g>
    <g id="xtick_8">
     <g id="line2d_15">
      <path d="M 566.02603 291.213433 
L 566.02603 23.077969 
" clip-path="url(#p46c5db9365)" style="fill: none; stroke: #cccccc; stroke-opacity: 0.35; stroke-width: 0.8; stroke-linecap: square"/>
     </g>
     <g id="line2d_16">
      <g>
       <use xlink:href="#m86d74e05d3" x="566.02603" y="291.213433" style="stroke: #000000; stroke-width: 0.8"/>
      </g>
     </g>
     <g id="text_8">
      <!-- Oct 2025 -->
      <g transform="translate(525.219382 327.753248) rotate(-30) scale(0.1 -0.1)">
       <defs>
        <path id="DejaVuSans-4f" d="M 2522 4238 
Q 1834 4238 1429 3725 
Q 1025 3213 1025 2328 
Q 1025 1447 1429 934 
Q 1834 422 2522 422 
Q 3209 422 3611 934 
Q 4013 1447 4013 2328 
Q 4013 3213 3611 3725 
Q 3209 4238 2522 4238 
z
M 2522 4750 
Q 3503 4750 4090 4092 
Q 4678 3434 4678 2328 
Q 4678 1225 4090 567 
Q 3503 -91 2522 -91 
Q 1538 -91 948 565 
Q 359 1222 359 2328 
Q 359 3434 948 4092 
Q 1538 4750 2522 4750 
z
" transform="scale(0.015625)"/>
        <path id="DejaVuSans-63" d="M 3122 3366 
L 3122 2828 
Q 2878 2963 2633 3030 
Q 2388 3097 2138 3097 
Q 1578 3097 1268 2742 
Q 959 2388 959 1747 
Q 959 1106 1268 751 
Q 1578 397 2138 397 
Q 2388 397 2633 464 
Q 2878 531 3122 666 
L 3122 134 
Q 2881 22 2623 -34 
Q 2366 -91 2075 -91 
Q 1284 -91 818 406 
Q 353 903 353 1747 
Q 353 2603 823 3093 
Q 1294 3584 2113 3584 
Q 2378 3584 2631 3529 
Q 2884 3475 3122 3366 
z
" transform="scale(0.015625)"/>
        <path id="DejaVuSans-74" d="M 1172 4494 
L 1172 3500 
L 2356 3500 
L 2356 3053 
L 1172 3053 
L 1172 1153 
Q 1172 725 1289 603 
Q 1406 481 1766 481 
L 2356 481 
L 2356 0 
L 1766 0 
Q 1100 0 847 248 
Q 594 497 594 1153 
L 594 3053 
L 172 3053 
L 172 3500 
L 594 3500 
L 594 4494 
L 1172 4494 
z
" transform="scale(0.015625)"/>
       </defs>
       <use xlink:href="#DejaVuSans-4f"/>
       <use xlink:href="#DejaVuSans-63" transform="translate(78.710938 0)"/>
       <use xlink:href="#DejaVuSans-74" transform="translate(133.691406 0)"/>
       <use xlink:href="#DejaVuSans-20" transform="translate(172.900391 0)"/>
       <use xlink:href="#DejaVuSans-32" transform="translate(204.6875 0)"/>
       <use xlink:href="#DejaVuSans-30" transform="translate(268.310547 0)"/>
       <use xlink:href="#DejaVuSans-32" transform="translate(331.933594 0)"/>
       <use xlink:href="#DejaVuSans-35" transform="translate(395.556641 0)"/>
      </g>
     </g>
    </g>
    <g id="xtick_9">
     <g id="line2d_17">
      <path d="M 639.08334 291.213433 
L 639.08334 23.077969 
" clip-path="url(#p46c5db9365)" style="fill: none; stroke: #cccccc; stroke-opacity: 0.35; stroke-width: 0.8; stroke-linecap: square"/>
     </g>
     <g id="line2d_18">
      <g>
       <use xlink:href="#m86d74e05d3" x="639.08334" y="291.213433" style="stroke: #000000; stroke-width: 0.8"/>
      </g>
     </g>
     <g id="text_9">
      <!-- Nov 2025 -->
      <g transform="translate(596.347079 328.86731) rotate(-30) scale(0.1 -0.1)">
       <defs>
        <path id="DejaVuSans-4e" d="M 628 4666 
L 1478 4666 
L 3547 763 
L 3547 4666 
L 4159 4666 
L 4159 0 
L 3309 0 
L 1241 3903 
L 1241 0 
L 628 0 
L 628 4666 
z
" transform="scale(0.015625)"/>
        <path id="DejaVuSans-6f" d="M 1959 3097 
Q 1497 3097 1228 2736 
Q 959 2375 959 1747 
Q 959 1119 1226 758 
Q 1494 397 1959 397 
Q 2419 397 2687 759 
Q 2956 1122 2956 1747 
Q 2956 2369 2687 2733 
Q 2419 3097 1959 3097 
z
M 1959 3584 
Q 2709 3584 3137 3096 
Q 3566 2609 3566 1747 
Q 3566 888 3137 398 
Q 2709 -91 1959 -91 
Q 1206 -91 779 398 
Q 353 888 353 1747 
Q 353 2609 779 3096 
Q 1206 3584 1959 3584 
z
" transform="scale(0.015625)"/>
        <path id="DejaVuSans-76" d="M 191 3500 
L 800 3500 
L 1894 563 
L 2988 3500 
L 3597 3500 
L 2284 0 
L 1503 0 
L 191 3500 
z
" transform="scale(0.015625)"/>
       </defs>
       <use xlink:href="#DejaVuSans-4e"/>
       <use xlink:href="#DejaVuSans-6f" transform="translate(74.804688 0)"/>
       <use xlink:href="#DejaVuSans-76" transform="translate(135.986328 0)"/>
       <use xlink:href="#DejaVuSans-20" transform="translate(195.166016 0)"/>
       <use xlink:href="#DejaVuSans-32" transform="translate(226.953125 0)"/>
       <use xlink:href="#DejaVuSans-30" transform="translate(290.576172 0)"/>
       <use xlink:href="#DejaVuSans-32" transform="translate(354.199219 0)"/>
       <use xlink:href="#DejaVuSans-35" transform="translate(417.822266 0)"/>
      </g>
     </g>
    </g>
    <g id="xtick_10">
     <g id="line2d_19">
      <path d="M 709.783962 291.213433 
L 709.783962 23.077969 
" clip-path="url(#p46c5db9365)" style="fill: none; stroke: #cccccc; stroke-opacity: 0.35; stroke-width: 0.8; stroke-linecap: square"/>
     </g>
     <g id="line2d_20">
      <g>
       <use xlink:href="#m86d74e05d3" x="709.783962" y="291.213433" style="stroke: #000000; stroke-width: 0.8"/>
      </g>
     </g>
     <g id="text_10">
      <!-- Dec 2025 -->
      <g transform="translate(667.19249 328.783716) rotate(-30) scale(0.1 -0.1)">
       <defs>
        <path id="DejaVuSans-44" d="M 1259 4147 
L 1259 519 
L 2022 519 
Q 2988 519 3436 956 
Q 3884 1394 3884 2338 
Q 3884 3275 3436 3711 
Q 2988 4147 2022 4147 
L 1259 4147 
z
M 628 4666 
L 1925 4666 
Q 3281 4666 3915 4102 
Q 4550 3538 4550 2338 
Q 4550 1131 3912 565 
Q 3275 0 1925 0 
L 628 0 
L 628 4666 
z
" transform="scale(0.015625)"/>
       </defs>
       <use xlink:href="#DejaVuSans-44"/>
       <use xlink:href="#DejaVuSans-65" transform="translate(77.001953 0)"/>
       <use xlink:href="#DejaVuSans-63" transform="translate(138.525391 0)"/>
       <use xlink:href="#DejaVuSans-20" transform="translate(193.505859 0)"/>
       <use xlink:href="#DejaVuSans-32" transform="translate(225.292969 0)"/>
       <use xlink:href="#DejaVuSans-30" transform="translate(288.916016 0)"/>
       <use xlink:href="#DejaVuSans-32" transform="translate(352.539062 0)"/>
       <use xlink:href="#DejaVuSans-35" transform="translate(416.162109 0)"/>
      </g>
     </g>
    </g>
    <g id="xtick_11">
     <g id="line2d_21">
      <path d="M 782.841273 291.213433 
L 782.841273 23.077969 
" clip-path="url(#p46c5db9365)" style="fill: none; stroke: #cccccc; stroke-opacity: 0.35; stroke-width: 0.8; stroke-linecap: square"/>
     </g>
     <g id="line2d_22">
      <g>
       <use xlink:href="#m86d74e05d3" x="782.841273" y="291.213433" style="stroke: #000000; stroke-width: 0.8"/>
      </g>
     </g>
     <g id="text_11">
      <!-- Jan 2026 -->
      <g transform="translate(743.658422 326.815748) rotate(-30) scale(0.1 -0.1)">
       <defs>
        <path id="DejaVuSans-36" d="M 2113 2584 
Q 1688 2584 1439 2293 
Q 1191 2003 1191 1497 
Q 1191 994 1439 701 
Q 1688 409 2113 409 
Q 2538 409 2786 701 
Q 3034 994 3034 1497 
Q 3034 2003 2786 2293 
Q 2538 2584 2113 2584 
z
M 3366 4563 
L 3366 3988 
Q 3128 4100 2886 4159 
Q 2644 4219 2406 4219 
Q 1781 4219 1451 3797 
Q 1122 3375 1075 2522 
Q 1259 2794 1537 2939 
Q 1816 3084 2150 3084 
Q 2853 3084 3261 2657 
Q 3669 2231 3669 1497 
Q 3669 778 3244 343 
Q 2819 -91 2113 -91 
Q 1303 -91 875 529 
Q 447 1150 447 2328 
Q 447 3434 972 4092 
Q 1497 4750 2381 4750 
Q 2619 4750 2861 4703 
Q 3103 4656 3366 4563 
z
" transform="scale(0.015625)"/>
       </defs>
       <use xlink:href="#DejaVuSans-4a"/>
       <use xlink:href="#DejaVuSans-61" transform="translate(29.492188 0)"/>
       <use xlink:href="#DejaVuSans-6e" transform="translate(90.771484 0)"/>
       <use xlink:href="#DejaVuSans-20" transform="translate(154.150391 0)"/>
       <use xlink:href="#DejaVuSans-32" transform="translate(185.9375 0)"/>
       <use xlink:href="#DejaVuSans-30" transform="translate(249.560547 0)"/>
       <use xlink:href="#DejaVuSans-32" transform="translate(313.183594 0)"/>
       <use xlink:href="#DejaVuSans-36" transform="translate(376.806641 0)"/>
      </g>
     </g>
    </g>
    <g id="xtick_12">
     <g id="line2d_23">
      <path d="M 855.898583 291.213433 
L 855.898583 23.077969 
" clip-path="url(#p46c5db9365)" style="fill: none; stroke: #cccccc; stroke-opacity: 0.35; stroke-width: 0.8; stroke-linecap: square"/>
     </g>
     <g id="line2d_24">
      <g>
       <use xlink:href="#m86d74e05d3" x="855.898583" y="291.213433" style="stroke: #000000; stroke-width: 0.8"/>
      </g>
     </g>
     <g id="text_12">
      <!-- Feb 2026 -->
      <g transform="translate(814.734699 327.959498) rotate(-30) scale(0.1 -0.1)">
       <defs>
        <path id="DejaVuSans-46" d="M 628 4666 
L 3309 4666 
L 3309 4134 
L 1259 4134 
L 1259 2759 
L 3109 2759 
L 3109 2228 
L 1259 2228 
L 1259 0 
L 628 0 
L 628 4666 
z
" transform="scale(0.015625)"/>
        <path id="DejaVuSans-62" d="M 3116 1747 
Q 3116 2381 2855 2742 
Q 2594 3103 2138 3103 
Q 1681 3103 1420 2742 
Q 1159 2381 1159 1747 
Q 1159 1113 1420 752 
Q 1681 391 2138 391 
Q 2594 391 2855 752 
Q 3116 1113 3116 1747 
z
M 1159 2969 
Q 1341 3281 1617 3432 
Q 1894 3584 2278 3584 
Q 2916 3584 3314 3078 
Q 3713 2572 3713 1747 
Q 3713 922 3314 415 
Q 2916 -91 2278 -91 
Q 1894 -91 1617 61 
Q 1341 213 1159 525 
L 1159 0 
L 581 0 
L 581 4863 
L 1159 4863 
L 1159 2969 
z
" transform="scale(0.015625)"/>
       </defs>
       <use xlink:href="#DejaVuSans-46"/>
       <use xlink:href="#DejaVuSans-65" transform="translate(52.019531 0)"/>
       <use xlink:href="#DejaVuSans-62" transform="translate(113.542969 0)"/>
       <use xlink:href="#DejaVuSans-20" transform="translate(177.019531 0)"/>
       <use xlink:href="#DejaVuSans-32" transform="translate(208.806641 0)"/>
       <use xlink:href="#DejaVuSans-30" transform="translate(272.429688 0)"/>
       <use xlink:href="#DejaVuSans-32" transform="translate(336.052734 0)"/>
       <use xlink:href="#DejaVuSans-36" transform="translate(399.675781 0)"/>
      </g>
     </g>
    </g>
    <g id="xtick_13">
     <g id="line2d_25">
      <path d="M 921.88583 291.213433 
L 921.88583 23.077969 
" clip-path="url(#p46c5db9365)" style="fill: none; stroke: #cccccc; stroke-opacity: 0.35; stroke-width: 0.8; stroke-linecap: square"/>
     </g>
     <g id="line2d_26">
      <g>
       <use xlink:href="#m86d74e05d3" x="921.88583" y="291.213433" style="stroke: #000000; stroke-width: 0.8"/>
      </g>
     </g>
     <g id="text_13">
      <!-- Mar 2026 -->
      <g transform="translate(879.71384 328.541529) rotate(-30) scale(0.1 -0.1)">
       <use xlink:href="#DejaVuSans-4d"/>
       <use xlink:href="#DejaVuSans-61" transform="translate(86.279297 0)"/>
       <use xlink:href="#DejaVuSans-72" transform="translate(147.558594 0)"/>
       <use xlink:href="#DejaVuSans-20" transform="translate(188.671875 0)"/>
       <use xlink:href="#DejaVuSans-32" transform="translate(220.458984 0)"/>
       <use xlink:href="#DejaVuSans-30" transform="translate(284.082031 0)"/>
       <use xlink:href="#DejaVuSans-32" transform="translate(347.705078 0)"/>
       <use xlink:href="#DejaVuSans-36" transform="translate(411.328125 0)"/>
      </g>
     </g>
    </g>
    <g id="text_14">
     <!-- Date -->
     <g transform="translate(508.119844 342.844935) scale(0.1 -0.1)">
      <use xlink:href="#DejaVuSans-44"/>
      <use xlink:href="#DejaVuSans-61" transform="translate(77.001953 0)"/>
      <use xlink:href="#DejaVuSans-74" transform="translate(138.28125 0)"/>
      <use xlink:href="#DejaVuSans-65" transform="translate(177.490234 0)"/>
     </g>
    </g>
   </g>
   <g id="matplotlib.axis_2">
    <g id="ytick_1">
     <g id="line2d_27">
      <path d="M 46.965625 279.025457 
L 993.175625 279.025457 
" clip-path="url(#p46c5db9365)" style="fill: none; stroke: #cccccc; stroke-opacity: 0.35; stroke-width: 0.8; stroke-linecap: square"/>
     </g>
     <g id="line2d_28">
      <defs>
       <path id="mf5d7bfffc4" d="M 0 0 
L -3.5 0 
" style="stroke: #000000; stroke-width: 0.8"/>
      </defs>
      <g>
       <use xlink:href="#mf5d7bfffc4" x="46.965625" y="279.025457" style="stroke: #000000; stroke-width: 0.8"/>
      </g>
     </g>
     <g id="text_15">
      <!-- 0 -->
      <g transform="translate(33.603125 282.824676) scale(0.1 -0.1)">
       <use xlink:href="#DejaVuSans-30"/>
      </g>
     </g>
    </g>
    <g id="ytick_2">
     <g id="line2d_29">
      <path d="M 46.965625 229.691413 
L 993.175625 229.691413 
" clip-path="url(#p46c5db9365)" style="fill: none; stroke: #cccccc; stroke-opacity: 0.35; stroke-width: 0.8; stroke-linecap: square"/>
     </g>
     <g id="line2d_30">
      <g>
       <use xlink:href="#mf5d7bfffc4" x="46.965625" y="229.691413" style="stroke: #000000; stroke-width: 0.8"/>
      </g>
     </g>
     <g id="text_16">
      <!-- 100 -->
      <g transform="translate(20.878125 233.490632) scale(0.1 -0.1)">
       <defs>
        <path id="DejaVuSans-31" d="M 794 531 
L 1825 531 
L 1825 4091 
L 703 3866 
L 703 4441 
L 1819 4666 
L 2450 4666 
L 2450 531 
L 3481 531 
L 3481 0 
L 794 0 
L 794 531 
z
" transform="scale(0.015625)"/>
       </defs>
       <use xlink:href="#DejaVuSans-31"/>
       <use xlink:href="#DejaVuSans-30" transform="translate(63.623047 0)"/>
       <use xlink:href="#DejaVuSans-30" transform="translate(127.246094 0)"/>
      </g>
     </g>
    </g>
    <g id="ytick_3">
     <g id="line2d_31">
      <path d="M 46.965625 180.357369 
L 993.175625 180.357369 
" clip-path="url(#p46c5db9365)" style="fill: none; stroke: #cccccc; stroke-opacity: 0.35; stroke-width: 0.8; stroke-linecap: square"/>
     </g>
     <g id="line2d_32">
      <g>
       <use xlink:href="#mf5d7bfffc4" x="46.965625" y="180.357369" style="stroke: #000000; stroke-width: 0.8"/>
      </g>
     </g>
     <g id="text_17">
      <!-- 200 -->
      <g transform="translate(20.878125 184.156587) scale(0.1 -0.1)">
       <use xlink:href="#DejaVuSans-32"/>
       <use xlink:href="#DejaVuSans-30" transform="translate(63.623047 0)"/>
       <use xlink:href="#DejaVuSans-30" transform="translate(127.246094 0)"/>
      </g>
     </g>
    </g>
    <g id="ytick_4">
     <g id="line2d_33">
      <path d="M 46.965625 131.023324 
L 993.175625 131.023324 
" clip-path="url(#p46c5db9365)" style="fill: none; stroke: #cccccc; stroke-opacity: 0.35; stroke-width: 0.8; stroke-linecap: square"/>
     </g>
     <g id="line2d_34">
      <g>
       <use xlink:href="#mf5d7bfffc4" x="46.965625" y="131.023324" style="stroke: #000000; stroke-width: 0.8"/>
      </g>
     </g>
     <g id="text_18">
      <!-- 300 -->
      <g transform="translate(20.878125 134.822543) scale(0.1 -0.1)">
       <defs>
        <path id="DejaVuSans-33" d="M 2597 2516 
Q 3050 2419 3304 2112 
Q 3559 1806 3559 1356 
Q 3559 666 3084 287 
Q 2609 -91 1734 -91 
Q 1441 -91 1130 -33 
Q 819 25 488 141 
L 488 750 
Q 750 597 1062 519 
Q 1375 441 1716 441 
Q 2309 441 2620 675 
Q 2931 909 2931 1356 
Q 2931 1769 2642 2001 
Q 2353 2234 1838 2234 
L 1294 2234 
L 1294 2753 
L 1863 2753 
Q 2328 2753 2575 2939 
Q 2822 3125 2822 3475 
Q 2822 3834 2567 4026 
Q 2313 4219 1838 4219 
Q 1578 4219 1281 4162 
Q 984 4106 628 3988 
L 628 4550 
Q 988 4650 1302 4700 
Q 1616 4750 1894 4750 
Q 2613 4750 3031 4423 
Q 3450 4097 3450 3541 
Q 3450 3153 3228 2886 
Q 3006 2619 2597 2516 
z
" transform="scale(0.015625)"/>
       </defs>
       <use xlink:href="#DejaVuSans-33"/>
       <use xlink:href="#DejaVuSans-30" transform="translate(63.623047 0)"/>
       <use xlink:href="#DejaVuSans-30" transform="translate(127.246094 0)"/>
      </g>
     </g>
    </g>
    <g id="ytick_5">
     <g id="line2d_35">
      <path d="M 46.965625 81.68928 
L 993.175625 81.68928 
" clip-path="url(#p46c5db9365)" style="fill: none; stroke: #cccccc; stroke-opacity: 0.35; stroke-width: 0.8; stroke-linecap: square"/>
     </g>
     <g id="line2d_36">
      <g>
       <use xlink:href="#mf5d7bfffc4" x="46.965625" y="81.68928" style="stroke: #000000; stroke-width: 0.8"/>
      </g>
     </g>
     <g id="text_19">
      <!-- 400 -->
      <g transform="translate(20.878125 85.488499) scale(0.1 -0.1)">
       <defs>
        <path id="DejaVuSans-34" d="M 2419 4116 
L 825 1625 
L 2419 1625 
L 2419 4116 
z
M 2253 4666 
L 3047 4666 
L 3047 1625 
L 3713 1625 
L 3713 1100 
L 3047 1100 
L 3047 0 
L 2419 0 
L 2419 1100 
L 313 1100 
L 313 1709 
L 2253 4666 
z
" transform="scale(0.015625)"/>
       </defs>
       <use xlink:href="#DejaVuSans-34"/>
       <use xlink:href="#DejaVuSans-30" transform="translate(63.623047 0)"/>
       <use xlink:href="#DejaVuSans-30" transform="translate(127.246094 0)"/>
      </g>
     </g>
    </g>
    <g id="ytick_6">
     <g id="line2d_37">
      <path d="M 46.965625 32.355236 
L 993.175625 32.355236 
" clip-path="url(#p46c5db9365)" style="fill: none; stroke: #cccccc; stroke-opacity: 0.35; stroke-width: 0.8; stroke-linecap: square"/>
     </g>
     <g id="line2d_38">
      <g>
       <use xlink:href="#mf5d7bfffc4" x="46.965625" y="32.355236" style="stroke: #000000; stroke-width: 0.8"/>
      </g>
     </g>
     <g id="text_20">
      <!-- 500 -->
      <g transform="translate(20.878125 36.154455) scale(0.1 -0.1)">
       <use xlink:href="#DejaVuSans-35"/>
       <use xlink:href="#DejaVuSans-30" transform="translate(63.623047 0)"/>
       <use xlink:href="#DejaVuSans-30" transform="translate(127.246094 0)"/>
      </g>
     </g>
    </g>
    <g id="text_21">
     <!-- Cumulative kWh -->
     <g transform="translate(14.798437 198.280076) rotate(-90) scale(0.1 -0.1)">
      <defs>
       <path id="DejaVuSans-43" d="M 4122 4306 
L 4122 3641 
Q 3803 3938 3442 4084 
Q 3081 4231 2675 4231 
Q 1875 4231 1450 3742 
Q 1025 3253 1025 2328 
Q 1025 1406 1450 917 
Q 1875 428 2675 428 
Q 3081 428 3442 575 
Q 3803 722 4122 1019 
L 4122 359 
Q 3791 134 3420 21 
Q 3050 -91 2638 -91 
Q 1578 -91 968 557 
Q 359 1206 359 2328 
Q 359 3453 968 4101 
Q 1578 4750 2638 4750 
Q 3056 4750 3426 4639 
Q 3797 4528 4122 4306 
z
" transform="scale(0.015625)"/>
       <path id="DejaVuSans-6d" d="M 3328 2828 
Q 3544 3216 3844 3400 
Q 4144 3584 4550 3584 
Q 5097 3584 5394 3201 
Q 5691 2819 5691 2113 
L 5691 0 
L 5113 0 
L 5113 2094 
Q 5113 2597 4934 2840 
Q 4756 3084 4391 3084 
Q 3944 3084 3684 2787 
Q 3425 2491 3425 1978 
L 3425 0 
L 2847 0 
L 2847 2094 
Q 2847 2600 2669 2842 
Q 2491 3084 2119 3084 
Q 1678 3084 1418 2786 
Q 1159 2488 1159 1978 
L 1159 0 
L 581 0 
L 581 3500 
L 1159 3500 
L 1159 2956 
Q 1356 3278 1631 3431 
Q 1906 3584 2284 3584 
Q 2666 3584 2933 3390 
Q 3200 3197 3328 2828 
z
" transform="scale(0.015625)"/>
       <path id="DejaVuSans-69" d="M 603 3500 
L 1178 3500 
L 1178 0 
L 603 0 
L 603 3500 
z
M 603 4863 
L 1178 4863 
L 1178 4134 
L 603 4134 
L 603 4863 
z
" transform="scale(0.015625)"/>
       <path id="DejaVuSans-6b" d="M 581 4863 
L 1159 4863 
L 1159 1991 
L 2875 3500 
L 3609 3500 
L 1753 1863 
L 3688 0 
L 2938 0 
L 1159 1709 
L 1159 0 
L 581 0 
L 581 4863 
z
" transform="scale(0.015625)"/>
       <path id="DejaVuSans-57" d="M 213 4666 
L 850 4666 
L 1831 722 
L 2809 4666 
L 3519 4666 
L 4500 722 
L 5478 4666 
L 6119 4666 
L 4947 0 
L 4153 0 
L 3169 4050 
L 2175 0 
L 1381 0 
L 213 4666 
z
" transform="scale(0.015625)"/>
       <path id="DejaVuSans-68" d="M 3513 2113 
L 3513 0 
L 2938 0 
L 2938 2094 
Q 2938 2591 2744 2837 
Q 2550 3084 2163 3084 
Q 1697 3084 1428 2787 
Q 1159 2491 1159 1978 
L 1159 0 
L 581 0 
L 581 4863 
L 1159 4863 
L 1159 2956 
Q 1366 3272 1645 3428 
Q 1925 3584 2291 3584 
Q 2894 3584 3203 3211 
Q 3513 2838 3513 2113 
z
" transform="scale(0.015625)"/>
      </defs>
      <use xlink:href="#DejaVuSans-43"/>
      <use xlink:href="#DejaVuSans-75" transform="translate(69.824219 0)"/>
      <use xlink:href="#DejaVuSans-6d" transform="translate(133.203125 0)"/>
      <use xlink:href="#DejaVuSans-75" transform="translate(230.615234 0)"/>
      <use xlink:href="#DejaVuSans-6c" transform="translate(293.994141 0)"/>
      <use xlink:href="#DejaVuSans-61" transform="translate(321.777344 0)"/>
      <use xlink:href="#DejaVuSans-74" transform="translate(383.056641 0)"/>
      <use xlink:href="#DejaVuSans-69" transform="translate(422.265625 0)"/>
      <use xlink:href="#DejaVuSans-76" transform="translate(450.048828 0)"/>
      <use xlink:href="#DejaVuSans-65" transform="translate(509.228516 0)"/>
      <use xlink:href="#DejaVuSans-20" transform="translate(570.751953 0)"/>
      <use xlink:href="#DejaVuSans-6b" transform="translate(602.539062 0)"/>
      <use xlink:href="#DejaVuSans-57" transform="translate(660.449219 0)"/>
      <use xlink:href="#DejaVuSans-68" transform="translate(759.326172 0)"/>
     </g>
    </g>
   </g>
   <g id="patch_6">
    <path d="M 46.965625 291.213433 
L 46.965625 23.077969 
" style="fill: none; stroke: #000000; stroke-width: 0.8; stroke-linejoin: miter; stroke-linecap: square"/>
   </g>
   <g id="patch_7">
    <path d="M 46.965625 291.213433 
L 993.175625 291.213433 
" style="fill: none; stroke: #000000; stroke-width: 0.8; stroke-linejoin: miter; stroke-linecap: square"/>
   </g>
   <g id="line2d_39">
    <path d="M 89.97517 278.670252 
L 92.331858 277.496102 
L 94.688545 276.139415 
L 97.045233 275.083667 
L 99.40192 274.156187 
L 104.115295 273.648046 
L 106.471982 272.671232 
L 108.82867 272.360428 
L 111.185357 271.719085 
L 115.898732 269.938126 
L 122.968794 269.138915 
L 130.038857 266.632745 
L 132.395544 266.381142 
L 205.452854 265.961802 
L 210.166229 264.037774 
L 212.522916 263.213896 
L 214.879604 262.952425 
L 217.236291 262.562686 
L 219.592979 261.605606 
L 221.949666 260.51039 
L 224.306354 260.214386 
L 229.019728 258.354493 
L 231.376416 258.122622 
L 233.733103 257.338211 
L 243.159853 253.667758 
L 245.51654 252.572543 
L 247.873228 251.975601 
L 252.586603 251.442793 
L 254.94329 250.391978 
L 257.299977 250.086107 
L 262.013352 248.413683 
L 264.37004 247.945009 
L 266.726727 247.649005 
L 269.083415 246.38112 
L 271.440102 245.241504 
L 273.796789 244.856698 
L 278.510164 242.631733 
L 280.866852 242.103858 
L 283.223539 241.003709 
L 285.580226 240.10583 
L 290.293601 239.804892 
L 295.006976 237.944998 
L 297.363664 237.377657 
L 299.720351 236.376176 
L 302.077038 235.01949 
L 304.433726 234.733352 
L 306.790413 233.746671 
L 311.503788 232.000246 
L 313.860476 231.753576 
L 316.217163 230.525158 
L 320.930538 230.031818 
L 323.287225 229.262207 
L 328.0006 227.254311 
L 330.357288 227.076708 
L 335.070662 225.10828 
L 337.42735 224.920811 
L 339.784037 224.471871 
L 342.140725 223.144785 
L 344.497412 221.363826 
L 346.854099 220.845819 
L 349.210787 220.530081 
L 351.567474 219.237529 
L 353.924162 218.951391 
L 356.280849 217.461503 
L 358.637537 216.247886 
L 360.994224 215.221738 
L 365.707599 214.619862 
L 368.064286 213.09544 
L 370.420974 211.867023 
L 372.777661 211.615419 
L 377.491036 209.232585 
L 382.204411 208.788578 
L 384.561098 207.352958 
L 386.917786 206.425478 
L 389.274473 206.188674 
L 393.987848 203.869974 
L 396.344535 203.120097 
L 403.414598 202.345552 
L 410.48466 199.602579 
L 412.841347 199.395376 
L 417.554722 197.318413 
L 419.91141 196.874407 
L 422.268097 196.573469 
L 424.624784 195.354918 
L 426.981472 194.274502 
L 429.338159 193.884763 
L 431.694847 192.70568 
L 434.051534 191.659798 
L 438.764909 190.88032 
L 443.478284 188.586287 
L 448.191659 187.89561 
L 450.548346 186.834929 
L 452.905033 186.440256 
L 459.975096 183.386479 
L 462.331783 182.893138 
L 464.688471 182.572467 
L 467.045158 181.585786 
L 469.401845 181.41805 
L 476.471908 178.408674 
L 481.185283 177.821599 
L 483.54197 176.805317 
L 485.898657 175.650901 
L 488.255345 175.256228 
L 492.96872 173.332201 
L 500.038782 172.602057 
L 509.465532 168.916804 
L 511.822219 168.744135 
L 514.178906 167.569984 
L 516.535594 167.278913 
L 518.892281 166.272499 
L 521.248969 166.055429 
L 525.962344 163.879798 
L 528.319031 163.351923 
L 530.675718 163.174321 
L 533.032406 162.103772 
L 537.745781 161.714033 
L 540.102468 160.904955 
L 542.459156 159.908407 
L 544.815843 158.768791 
L 554.242593 157.935045 
L 556.59928 157.042099 
L 558.955967 155.784081 
L 561.312655 155.137805 
L 568.382717 151.911359 
L 570.739405 151.112147 
L 575.452779 149.267054 
L 577.809467 148.166905 
L 580.166154 148.068237 
L 591.949591 147.155557 
L 596.662966 144.797389 
L 599.019654 144.358316 
L 601.376341 143.2483 
L 603.733028 143.105232 
L 608.446403 141.057869 
L 615.516466 137.515685 
L 617.873153 136.435269 
L 620.22984 135.690325 
L 624.943215 133.909366 
L 636.726652 132.676015 
L 641.440027 130.94439 
L 643.796715 130.090911 
L 646.153402 128.892094 
L 650.866777 126.864464 
L 655.580152 124.836835 
L 660.293527 123.031209 
L 662.650214 122.794406 
L 667.363589 122.13333 
L 669.720276 121.871859 
L 672.076964 120.978913 
L 674.433651 119.962632 
L 679.147026 119.252221 
L 681.503713 118.157006 
L 686.217088 116.316846 
L 712.14065 115.384432 
L 714.497337 115.137762 
L 721.5674 111.763313 
L 723.924087 110.850634 
L 726.280774 110.756899 
L 728.637462 109.770218 
L 730.994149 109.059808 
L 735.707524 107.264049 
L 740.420899 105.626158 
L 742.777586 105.409089 
L 749.847649 102.661182 
L 756.917711 99.405135 
L 759.274398 99.099264 
L 763.987773 97.16537 
L 768.701148 94.950271 
L 773.414523 93.25318 
L 775.77121 92.177698 
L 778.127898 91.842226 
L 780.484585 90.914746 
L 782.841273 90.475673 
L 789.911335 87.653766 
L 794.62471 86.933489 
L 796.981397 86.395748 
L 799.338085 85.660671 
L 801.694772 84.762791 
L 804.051459 84.205316 
L 806.408147 83.277836 
L 808.764834 82.971965 
L 811.121522 82.207287 
L 822.904959 77.73269 
L 825.261646 76.938412 
L 834.688396 72.971954 
L 837.045083 72.054341 
L 839.401771 71.393265 
L 841.758458 70.337516 
L 844.115146 70.002045 
L 848.82852 68.05335 
L 851.185208 67.732679 
L 855.898583 66.301992 
L 858.25527 65.196909 
L 860.611958 64.950239 
L 862.968645 63.929024 
L 865.325332 63.66262 
L 867.68202 62.222066 
L 870.038707 61.186051 
L 872.395395 60.515108 
L 874.752082 60.322705 
L 879.465457 58.171741 
L 881.822144 57.989205 
L 884.178832 56.898923 
L 886.535519 56.109578 
L 891.248894 54.308885 
L 893.605581 54.096749 
L 895.962269 53.578742 
L 898.318956 53.401139 
L 900.675644 52.606861 
L 903.032331 51.516579 
L 905.389019 50.574298 
L 907.745706 50.24376 
L 912.459081 48.536802 
L 914.815768 47.796792 
L 917.172456 46.745976 
L 926.599205 43.25806 
L 928.955893 42.088843 
L 931.31258 41.832306 
L 940.73933 37.72278 
L 943.096017 37.471176 
L 945.452705 36.622631 
L 947.809392 35.576749 
L 950.16608 35.265944 
L 950.16608 35.265944 
" clip-path="url(#p46c5db9365)" style="fill: none; stroke: #673ab7; stroke-width: 2.5; stroke-linecap: square"/>
   </g>
   <g id="text_22">
    <!-- Travel 1 -->
    <g style="fill: #555555" transform="translate(154.937324 36.0753) scale(0.07 -0.07)">
     <defs>
      <path id="DejaVuSans-Oblique-54" d="M 378 4666 
L 4325 4666 
L 4225 4134 
L 2559 4134 
L 1759 0 
L 1125 0 
L 1925 4134 
L 275 4134 
L 378 4666 
z
" transform="scale(0.015625)"/>
      <path id="DejaVuSans-Oblique-72" d="M 2853 2969 
Q 2766 3016 2653 3041 
Q 2541 3066 2413 3066 
Q 1953 3066 1609 2717 
Q 1266 2369 1153 1784 
L 800 0 
L 225 0 
L 909 3500 
L 1484 3500 
L 1375 2956 
Q 1603 3259 1920 3421 
Q 2238 3584 2597 3584 
Q 2691 3584 2781 3573 
Q 2872 3563 2963 3538 
L 2853 2969 
z
" transform="scale(0.015625)"/>
      <path id="DejaVuSans-Oblique-61" d="M 3438 1997 
L 3047 0 
L 2472 0 
L 2578 531 
Q 2325 219 2001 64 
Q 1678 -91 1281 -91 
Q 834 -91 548 182 
Q 263 456 263 884 
Q 263 1497 752 1853 
Q 1241 2209 2100 2209 
L 2900 2209 
L 2931 2363 
Q 2938 2388 2941 2417 
Q 2944 2447 2944 2509 
Q 2944 2788 2717 2942 
Q 2491 3097 2081 3097 
Q 1800 3097 1504 3025 
Q 1209 2953 897 2809 
L 997 3341 
Q 1322 3463 1633 3523 
Q 1944 3584 2234 3584 
Q 2853 3584 3176 3315 
Q 3500 3047 3500 2534 
Q 3500 2431 3484 2292 
Q 3469 2153 3438 1997 
z
M 2816 1759 
L 2241 1759 
Q 1534 1759 1195 1570 
Q 856 1381 856 984 
Q 856 709 1029 553 
Q 1203 397 1509 397 
Q 1978 397 2328 733 
Q 2678 1069 2791 1631 
L 2816 1759 
z
" transform="scale(0.015625)"/>
      <path id="DejaVuSans-Oblique-76" d="M 459 3500 
L 1069 3500 
L 1581 525 
L 3256 3500 
L 3866 3500 
L 1875 0 
L 1100 0 
L 459 3500 
z
" transform="scale(0.015625)"/>
      <path id="DejaVuSans-Oblique-65" d="M 3078 2063 
Q 3088 2113 3092 2166 
Q 3097 2219 3097 2272 
Q 3097 2653 2873 2875 
Q 2650 3097 2266 3097 
Q 1838 3097 1509 2826 
Q 1181 2556 1013 2059 
L 3078 2063 
z
M 3578 1613 
L 903 1613 
Q 884 1494 878 1425 
Q 872 1356 872 1306 
Q 872 872 1139 634 
Q 1406 397 1894 397 
Q 2269 397 2603 481 
Q 2938 566 3225 728 
L 3116 159 
Q 2806 34 2476 -28 
Q 2147 -91 1806 -91 
Q 1078 -91 686 257 
Q 294 606 294 1247 
Q 294 1794 489 2264 
Q 684 2734 1063 3103 
Q 1306 3334 1642 3459 
Q 1978 3584 2356 3584 
Q 2950 3584 3301 3228 
Q 3653 2872 3653 2272 
Q 3653 2128 3634 1964 
Q 3616 1800 3578 1613 
z
" transform="scale(0.015625)"/>
      <path id="DejaVuSans-Oblique-6c" d="M 1172 4863 
L 1747 4863 
L 800 0 
L 225 0 
L 1172 4863 
z
" transform="scale(0.015625)"/>
      <path id="DejaVuSans-Oblique-20" transform="scale(0.015625)"/>
      <path id="DejaVuSans-Oblique-31" d="M 416 531 
L 1447 531 
L 2144 4122 
L 978 3897 
L 1088 4441 
L 2247 4666 
L 2881 4666 
L 2075 531 
L 3103 531 
L 3003 0 
L 313 0 
L 416 531 
z
" transform="scale(0.015625)"/>
     </defs>
     <use xlink:href="#DejaVuSans-Oblique-54"/>
     <use xlink:href="#DejaVuSans-Oblique-72" transform="translate(53.333984 0)"/>
     <use xlink:href="#DejaVuSans-Oblique-61" transform="translate(94.447266 0)"/>
     <use xlink:href="#DejaVuSans-Oblique-76" transform="translate(155.726562 0)"/>
     <use xlink:href="#DejaVuSans-Oblique-65" transform="translate(214.90625 0)"/>
     <use xlink:href="#DejaVuSans-Oblique-6c" transform="translate(276.429688 0)"/>
     <use xlink:href="#DejaVuSans-Oblique-20" transform="translate(304.212891 0)"/>
     <use xlink:href="#DejaVuSans-Oblique-31" transform="translate(336 0)"/>
    </g>
   </g>
   <g id="text_23">
    <!-- Travel 2 -->
    <g style="fill: #555555" transform="translate(572.070998 36.0753) scale(0.07 -0.07)">
     <defs>
      <path id="DejaVuSans-Oblique-32" d="M 2950 2253 
L 934 525 
L 3163 525 
L 3053 0 
L 25 0 
L 128 531 
L 2234 2338 
Q 2656 2703 2832 2979 
Q 3009 3256 3009 3547 
Q 3009 3850 2796 4040 
Q 2584 4231 2241 4231 
Q 1944 4231 1581 4125 
Q 1219 4019 806 3816 
L 922 4441 
Q 1309 4594 1662 4672 
Q 2016 4750 2316 4750 
Q 2928 4750 3301 4425 
Q 3675 4100 3675 3572 
Q 3675 3216 3497 2892 
Q 3319 2569 2950 2253 
z
" transform="scale(0.015625)"/>
     </defs>
     <use xlink:href="#DejaVuSans-Oblique-54"/>
     <use xlink:href="#DejaVuSans-Oblique-72" transform="translate(53.333984 0)"/>
     <use xlink:href="#DejaVuSans-Oblique-61" transform="translate(94.447266 0)"/>
     <use xlink:href="#DejaVuSans-Oblique-76" transform="translate(155.726562 0)"/>
     <use xlink:href="#DejaVuSans-Oblique-65" transform="translate(214.90625 0)"/>
     <use xlink:href="#DejaVuSans-Oblique-6c" transform="translate(276.429688 0)"/>
     <use xlink:href="#DejaVuSans-Oblique-20" transform="translate(304.212891 0)"/>
     <use xlink:href="#DejaVuSans-Oblique-32" transform="translate(336 0)"/>
    </g>
   </g>
   <g id="text_24">
    <!-- Travel 3 -->
    <g style="fill: #555555" transform="translate(685.191994 36.0753) scale(0.07 -0.07)">
     <defs>
      <path id="DejaVuSans-Oblique-33" d="M 1013 4550 
Q 1356 4650 1679 4700 
Q 2003 4750 2316 4750 
Q 2934 4750 3296 4475 
Q 3659 4200 3659 3738 
Q 3659 3284 3373 2959 
Q 3088 2634 2584 2516 
Q 2978 2403 3162 2165 
Q 3347 1928 3347 1538 
Q 3347 1163 3167 834 
Q 2988 506 2650 269 
Q 2394 88 2037 -1 
Q 1681 -91 1216 -91 
Q 922 -91 622 -33 
Q 322 25 13 141 
L 128 738 
Q 422 575 720 495 
Q 1019 416 1331 416 
Q 1947 416 2330 733 
Q 2713 1050 2713 1556 
Q 2713 1881 2469 2057 
Q 2225 2234 1772 2234 
L 1228 2234 
L 1325 2747 
L 1900 2747 
Q 2419 2747 2717 2984 
Q 3016 3222 3016 3628 
Q 3016 3922 2797 4083 
Q 2578 4244 2181 4244 
Q 1881 4244 1567 4180 
Q 1253 4116 916 3988 
L 1013 4550 
z
" transform="scale(0.015625)"/>
     </defs>
     <use xlink:href="#DejaVuSans-Oblique-54"/>
     <use xlink:href="#DejaVuSans-Oblique-72" transform="translate(53.333984 0)"/>
     <use xlink:href="#DejaVuSans-Oblique-61" transform="translate(94.447266 0)"/>
     <use xlink:href="#DejaVuSans-Oblique-76" transform="translate(155.726562 0)"/>
     <use xlink:href="#DejaVuSans-Oblique-65" transform="translate(214.90625 0)"/>
     <use xlink:href="#DejaVuSans-Oblique-6c" transform="translate(276.429688 0)"/>
     <use xlink:href="#DejaVuSans-Oblique-20" transform="translate(304.212891 0)"/>
     <use xlink:href="#DejaVuSans-Oblique-33" transform="translate(336 0)"/>
    </g>
   </g>
   <g id="text_25">
    <!-- Cumulative PC Energy Consumption Over the Year -->
    <g transform="translate(336.147031 17.077969) scale(0.13 -0.13)">
     <defs>
      <path id="DejaVuSans-Bold-43" d="M 4288 256 
Q 3956 84 3597 -3 
Q 3238 -91 2847 -91 
Q 1681 -91 1000 561 
Q 319 1213 319 2328 
Q 319 3447 1000 4098 
Q 1681 4750 2847 4750 
Q 3238 4750 3597 4662 
Q 3956 4575 4288 4403 
L 4288 3438 
Q 3953 3666 3628 3772 
Q 3303 3878 2944 3878 
Q 2300 3878 1931 3465 
Q 1563 3053 1563 2328 
Q 1563 1606 1931 1193 
Q 2300 781 2944 781 
Q 3303 781 3628 887 
Q 3953 994 4288 1222 
L 4288 256 
z
" transform="scale(0.015625)"/>
      <path id="DejaVuSans-Bold-75" d="M 500 1363 
L 500 3500 
L 1625 3500 
L 1625 3150 
Q 1625 2866 1622 2436 
Q 1619 2006 1619 1863 
Q 1619 1441 1641 1255 
Q 1663 1069 1716 984 
Q 1784 875 1895 815 
Q 2006 756 2150 756 
Q 2500 756 2700 1025 
Q 2900 1294 2900 1772 
L 2900 3500 
L 4019 3500 
L 4019 0 
L 2900 0 
L 2900 506 
Q 2647 200 2364 54 
Q 2081 -91 1741 -91 
Q 1134 -91 817 281 
Q 500 653 500 1363 
z
" transform="scale(0.015625)"/>
      <path id="DejaVuSans-Bold-6d" d="M 3781 2919 
Q 3994 3244 4286 3414 
Q 4578 3584 4928 3584 
Q 5531 3584 5847 3212 
Q 6163 2841 6163 2131 
L 6163 0 
L 5038 0 
L 5038 1825 
Q 5041 1866 5042 1909 
Q 5044 1953 5044 2034 
Q 5044 2406 4934 2573 
Q 4825 2741 4581 2741 
Q 4263 2741 4089 2478 
Q 3916 2216 3909 1719 
L 3909 0 
L 2784 0 
L 2784 1825 
Q 2784 2406 2684 2573 
Q 2584 2741 2328 2741 
Q 2006 2741 1831 2477 
Q 1656 2213 1656 1722 
L 1656 0 
L 531 0 
L 531 3500 
L 1656 3500 
L 1656 2988 
Q 1863 3284 2130 3434 
Q 2397 3584 2719 3584 
Q 3081 3584 3359 3409 
Q 3638 3234 3781 2919 
z
" transform="scale(0.015625)"/>
      <path id="DejaVuSans-Bold-6c" d="M 538 4863 
L 1656 4863 
L 1656 0 
L 538 0 
L 538 4863 
z
" transform="scale(0.015625)"/>
      <path id="DejaVuSans-Bold-61" d="M 2106 1575 
Q 1756 1575 1579 1456 
Q 1403 1338 1403 1106 
Q 1403 894 1545 773 
Q 1688 653 1941 653 
Q 2256 653 2472 879 
Q 2688 1106 2688 1447 
L 2688 1575 
L 2106 1575 
z
M 3816 1997 
L 3816 0 
L 2688 0 
L 2688 519 
Q 2463 200 2181 54 
Q 1900 -91 1497 -91 
Q 953 -91 614 226 
Q 275 544 275 1050 
Q 275 1666 698 1953 
Q 1122 2241 2028 2241 
L 2688 2241 
L 2688 2328 
Q 2688 2594 2478 2717 
Q 2269 2841 1825 2841 
Q 1466 2841 1156 2769 
Q 847 2697 581 2553 
L 581 3406 
Q 941 3494 1303 3539 
Q 1666 3584 2028 3584 
Q 2975 3584 3395 3211 
Q 3816 2838 3816 1997 
z
" transform="scale(0.015625)"/>
      <path id="DejaVuSans-Bold-74" d="M 1759 4494 
L 1759 3500 
L 2913 3500 
L 2913 2700 
L 1759 2700 
L 1759 1216 
Q 1759 972 1856 886 
Q 1953 800 2241 800 
L 2816 800 
L 2816 0 
L 1856 0 
Q 1194 0 917 276 
Q 641 553 641 1216 
L 641 2700 
L 84 2700 
L 84 3500 
L 641 3500 
L 641 4494 
L 1759 4494 
z
" transform="scale(0.015625)"/>
      <path id="DejaVuSans-Bold-69" d="M 538 3500 
L 1656 3500 
L 1656 0 
L 538 0 
L 538 3500 
z
M 538 4863 
L 1656 4863 
L 1656 3950 
L 538 3950 
L 538 4863 
z
" transform="scale(0.015625)"/>
      <path id="DejaVuSans-Bold-76" d="M 97 3500 
L 1216 3500 
L 2088 1081 
L 2956 3500 
L 4078 3500 
L 2700 0 
L 1472 0 
L 97 3500 
z
" transform="scale(0.015625)"/>
      <path id="DejaVuSans-Bold-65" d="M 4031 1759 
L 4031 1441 
L 1416 1441 
Q 1456 1047 1700 850 
Q 1944 653 2381 653 
Q 2734 653 3104 758 
Q 3475 863 3866 1075 
L 3866 213 
Q 3469 63 3072 -14 
Q 2675 -91 2278 -91 
Q 1328 -91 801 392 
Q 275 875 275 1747 
Q 275 2603 792 3093 
Q 1309 3584 2216 3584 
Q 3041 3584 3536 3087 
Q 4031 2591 4031 1759 
z
M 2881 2131 
Q 2881 2450 2695 2645 
Q 2509 2841 2209 2841 
Q 1884 2841 1681 2658 
Q 1478 2475 1428 2131 
L 2881 2131 
z
" transform="scale(0.015625)"/>
      <path id="DejaVuSans-Bold-20" transform="scale(0.015625)"/>
      <path id="DejaVuSans-Bold-50" d="M 588 4666 
L 2584 4666 
Q 3475 4666 3951 4270 
Q 4428 3875 4428 3144 
Q 4428 2409 3951 2014 
Q 3475 1619 2584 1619 
L 1791 1619 
L 1791 0 
L 588 0 
L 588 4666 
z
M 1791 3794 
L 1791 2491 
L 2456 2491 
Q 2806 2491 2997 2661 
Q 3188 2831 3188 3144 
Q 3188 3456 2997 3625 
Q 2806 3794 2456 3794 
L 1791 3794 
z
" transform="scale(0.015625)"/>
      <path id="DejaVuSans-Bold-45" d="M 588 4666 
L 3834 4666 
L 3834 3756 
L 1791 3756 
L 1791 2888 
L 3713 2888 
L 3713 1978 
L 1791 1978 
L 1791 909 
L 3903 909 
L 3903 0 
L 588 0 
L 588 4666 
z
" transform="scale(0.015625)"/>
      <path id="DejaVuSans-Bold-6e" d="M 4056 2131 
L 4056 0 
L 2931 0 
L 2931 347 
L 2931 1631 
Q 2931 2084 2911 2256 
Q 2891 2428 2841 2509 
Q 2775 2619 2662 2680 
Q 2550 2741 2406 2741 
Q 2056 2741 1856 2470 
Q 1656 2200 1656 1722 
L 1656 0 
L 538 0 
L 538 3500 
L 1656 3500 
L 1656 2988 
Q 1909 3294 2193 3439 
Q 2478 3584 2822 3584 
Q 3428 3584 3742 3212 
Q 4056 2841 4056 2131 
z
" transform="scale(0.015625)"/>
      <path id="DejaVuSans-Bold-72" d="M 3138 2547 
Q 2991 2616 2845 2648 
Q 2700 2681 2553 2681 
Q 2122 2681 1889 2404 
Q 1656 2128 1656 1613 
L 1656 0 
L 538 0 
L 538 3500 
L 1656 3500 
L 1656 2925 
Q 1872 3269 2151 3426 
Q 2431 3584 2822 3584 
Q 2878 3584 2943 3579 
Q 3009 3575 3134 3559 
L 3138 2547 
z
" transform="scale(0.015625)"/>
      <path id="DejaVuSans-Bold-67" d="M 2919 594 
Q 2688 288 2409 144 
Q 2131 0 1766 0 
Q 1125 0 706 504 
Q 288 1009 288 1791 
Q 288 2575 706 3076 
Q 1125 3578 1766 3578 
Q 2131 3578 2409 3434 
Q 2688 3291 2919 2981 
L 2919 3500 
L 4044 3500 
L 4044 353 
Q 4044 -491 3511 -936 
Q 2978 -1381 1966 -1381 
Q 1638 -1381 1331 -1331 
Q 1025 -1281 716 -1178 
L 716 -306 
Q 1009 -475 1290 -558 
Q 1572 -641 1856 -641 
Q 2406 -641 2662 -400 
Q 2919 -159 2919 353 
L 2919 594 
z
M 2181 2772 
Q 1834 2772 1640 2515 
Q 1447 2259 1447 1791 
Q 1447 1309 1634 1061 
Q 1822 813 2181 813 
Q 2531 813 2725 1069 
Q 2919 1325 2919 1791 
Q 2919 2259 2725 2515 
Q 2531 2772 2181 2772 
z
" transform="scale(0.015625)"/>
      <path id="DejaVuSans-Bold-79" d="M 78 3500 
L 1197 3500 
L 2138 1125 
L 2938 3500 
L 4056 3500 
L 2584 -331 
Q 2363 -916 2067 -1148 
Q 1772 -1381 1288 -1381 
L 641 -1381 
L 641 -647 
L 991 -647 
Q 1275 -647 1404 -556 
Q 1534 -466 1606 -231 
L 1638 -134 
L 78 3500 
z
" transform="scale(0.015625)"/>
      <path id="DejaVuSans-Bold-6f" d="M 2203 2784 
Q 1831 2784 1636 2517 
Q 1441 2250 1441 1747 
Q 1441 1244 1636 976 
Q 1831 709 2203 709 
Q 2569 709 2762 976 
Q 2956 1244 2956 1747 
Q 2956 2250 2762 2517 
Q 2569 2784 2203 2784 
z
M 2203 3584 
Q 3106 3584 3614 3096 
Q 4122 2609 4122 1747 
Q 4122 884 3614 396 
Q 3106 -91 2203 -91 
Q 1297 -91 786 396 
Q 275 884 275 1747 
Q 275 2609 786 3096 
Q 1297 3584 2203 3584 
z
" transform="scale(0.015625)"/>
      <path id="DejaVuSans-Bold-73" d="M 3272 3391 
L 3272 2541 
Q 2913 2691 2578 2766 
Q 2244 2841 1947 2841 
Q 1628 2841 1473 2761 
Q 1319 2681 1319 2516 
Q 1319 2381 1436 2309 
Q 1553 2238 1856 2203 
L 2053 2175 
Q 2913 2066 3209 1816 
Q 3506 1566 3506 1031 
Q 3506 472 3093 190 
Q 2681 -91 1863 -91 
Q 1516 -91 1145 -36 
Q 775 19 384 128 
L 384 978 
Q 719 816 1070 734 
Q 1422 653 1784 653 
Q 2113 653 2278 743 
Q 2444 834 2444 1013 
Q 2444 1163 2330 1236 
Q 2216 1309 1875 1350 
L 1678 1375 
Q 931 1469 631 1722 
Q 331 1975 331 2491 
Q 331 3047 712 3315 
Q 1094 3584 1881 3584 
Q 2191 3584 2531 3537 
Q 2872 3491 3272 3391 
z
" transform="scale(0.015625)"/>
      <path id="DejaVuSans-Bold-70" d="M 1656 506 
L 1656 -1331 
L 538 -1331 
L 538 3500 
L 1656 3500 
L 1656 2988 
Q 1888 3294 2169 3439 
Q 2450 3584 2816 3584 
Q 3463 3584 3878 3070 
Q 4294 2556 4294 1747 
Q 4294 938 3878 423 
Q 3463 -91 2816 -91 
Q 2450 -91 2169 54 
Q 1888 200 1656 506 
z
M 2400 2772 
Q 2041 2772 1848 2508 
Q 1656 2244 1656 1747 
Q 1656 1250 1848 986 
Q 2041 722 2400 722 
Q 2759 722 2948 984 
Q 3138 1247 3138 1747 
Q 3138 2247 2948 2509 
Q 2759 2772 2400 2772 
z
" transform="scale(0.015625)"/>
      <path id="DejaVuSans-Bold-4f" d="M 2719 3878 
Q 2169 3878 1866 3472 
Q 1563 3066 1563 2328 
Q 1563 1594 1866 1187 
Q 2169 781 2719 781 
Q 3272 781 3575 1187 
Q 3878 1594 3878 2328 
Q 3878 3066 3575 3472 
Q 3272 3878 2719 3878 
z
M 2719 4750 
Q 3844 4750 4481 4106 
Q 5119 3463 5119 2328 
Q 5119 1197 4481 553 
Q 3844 -91 2719 -91 
Q 1597 -91 958 553 
Q 319 1197 319 2328 
Q 319 3463 958 4106 
Q 1597 4750 2719 4750 
z
" transform="scale(0.015625)"/>
      <path id="DejaVuSans-Bold-68" d="M 4056 2131 
L 4056 0 
L 2931 0 
L 2931 347 
L 2931 1625 
Q 2931 2084 2911 2256 
Q 2891 2428 2841 2509 
Q 2775 2619 2662 2680 
Q 2550 2741 2406 2741 
Q 2056 2741 1856 2470 
Q 1656 2200 1656 1722 
L 1656 0 
L 538 0 
L 538 4863 
L 1656 4863 
L 1656 2988 
Q 1909 3294 2193 3439 
Q 2478 3584 2822 3584 
Q 3428 3584 3742 3212 
Q 4056 2841 4056 2131 
z
" transform="scale(0.015625)"/>
      <path id="DejaVuSans-Bold-59" d="M -63 4666 
L 1253 4666 
L 2316 3003 
L 3378 4666 
L 4697 4666 
L 2919 1966 
L 2919 0 
L 1716 0 
L 1716 1966 
L -63 4666 
z
" transform="scale(0.015625)"/>
     </defs>
     <use xlink:href="#DejaVuSans-Bold-43"/>
     <use xlink:href="#DejaVuSans-Bold-75" transform="translate(73.388672 0)"/>
     <use xlink:href="#DejaVuSans-Bold-6d" transform="translate(144.580078 0)"/>
     <use xlink:href="#DejaVuSans-Bold-75" transform="translate(248.779297 0)"/>
     <use xlink:href="#DejaVuSans-Bold-6c" transform="translate(319.970703 0)"/>
     <use xlink:href="#DejaVuSans-Bold-61" transform="translate(354.248047 0)"/>
     <use xlink:href="#DejaVuSans-Bold-74" transform="translate(421.728516 0)"/>
     <use xlink:href="#DejaVuSans-Bold-69" transform="translate(469.53125 0)"/>
     <use xlink:href="#DejaVuSans-Bold-76" transform="translate(503.808594 0)"/>
     <use xlink:href="#DejaVuSans-Bold-65" transform="translate(568.994141 0)"/>
     <use xlink:href="#DejaVuSans-Bold-20" transform="translate(636.816406 0)"/>
     <use xlink:href="#DejaVuSans-Bold-50" transform="translate(671.630859 0)"/>
     <use xlink:href="#DejaVuSans-Bold-43" transform="translate(744.921875 0)"/>
     <use xlink:href="#DejaVuSans-Bold-20" transform="translate(818.310547 0)"/>
     <use xlink:href="#DejaVuSans-Bold-45" transform="translate(853.125 0)"/>
     <use xlink:href="#DejaVuSans-Bold-6e" transform="translate(921.435547 0)"/>
     <use xlink:href="#DejaVuSans-Bold-65" transform="translate(992.626953 0)"/>
     <use xlink:href="#DejaVuSans-Bold-72" transform="translate(1060.449219 0)"/>
     <use xlink:href="#DejaVuSans-Bold-67" transform="translate(1109.765625 0)"/>
     <use xlink:href="#DejaVuSans-Bold-79" transform="translate(1181.347656 0)"/>
     <use xlink:href="#DejaVuSans-Bold-20" transform="translate(1246.533203 0)"/>
     <use xlink:href="#DejaVuSans-Bold-43" transform="translate(1281.347656 0)"/>
     <use xlink:href="#DejaVuSans-Bold-6f" transform="translate(1354.736328 0)"/>
     <use xlink:href="#DejaVuSans-Bold-6e" transform="translate(1423.4375 0)"/>
     <use xlink:href="#DejaVuSans-Bold-73" transform="translate(1494.628906 0)"/>
     <use xlink:href="#DejaVuSans-Bold-75" transform="translate(1554.150391 0)"/>
     <use xlink:href="#DejaVuSans-Bold-6d" transform="translate(1625.341797 0)"/>
     <use xlink:href="#DejaVuSans-Bold-70" transform="translate(1729.541016 0)"/>
     <use xlink:href="#DejaVuSans-Bold-74" transform="translate(1801.123047 0)"/>
     <use xlink:href="#DejaVuSans-Bold-69" transform="translate(1848.925781 0)"/>
     <use xlink:href="#DejaVuSans-Bold-6f" transform="translate(1883.203125 0)"/>
     <use xlink:href="#DejaVuSans-Bold-6e" transform="translate(1951.904297 0)"/>
     <use xlink:href="#DejaVuSans-Bold-20" transform="translate(2023.095703 0)"/>
     <use xlink:href="#DejaVuSans-Bold-4f" transform="translate(2057.910156 0)"/>
     <use xlink:href="#DejaVuSans-Bold-76" transform="translate(2142.919922 0)"/>
     <use xlink:href="#DejaVuSans-Bold-65" transform="translate(2208.105469 0)"/>
     <use xlink:href="#DejaVuSans-Bold-72" transform="translate(2275.927734 0)"/>
     <use xlink:href="#DejaVuSans-Bold-20" transform="translate(2325.244141 0)"/>
     <use xlink:href="#DejaVuSans-Bold-74" transform="translate(2360.058594 0)"/>
     <use xlink:href="#DejaVuSans-Bold-68" transform="translate(2407.861328 0)"/>
     <use xlink:href="#DejaVuSans-Bold-65" transform="translate(2479.052734 0)"/>
     <use xlink:href="#DejaVuSans-Bold-20" transform="translate(2546.875 0)"/>
     <use xlink:href="#DejaVuSans-Bold-59" transform="translate(2581.689453 0)"/>
     <use xlink:href="#DejaVuSans-Bold-65" transform="translate(2644.976562 0)"/>
     <use xlink:href="#DejaVuSans-Bold-61" transform="translate(2712.798828 0)"/>
     <use xlink:href="#DejaVuSans-Bold-72" transform="translate(2780.279297 0)"/>
    </g>
   </g>
   <g id="legend_1">
    <g id="patch_8">
     <path d="M 871.906875 165.984763 
L 986.175625 165.984763 
Q 988.175625 165.984763 988.175625 163.984763 
L 988.175625 150.306638 
Q 988.175625 148.306638 986.175625 148.306638 
L 871.906875 148.306638 
Q 869.906875 148.306638 869.906875 150.306638 
L 869.906875 163.984763 
Q 869.906875 165.984763 871.906875 165.984763 
z
" style="fill: #f8f9fa; opacity: 0.8; stroke: #cccccc; stroke-linejoin: miter"/>
    </g>
    <g id="line2d_40">
     <path d="M 873.906875 156.405076 
L 883.906875 156.405076 
L 893.906875 156.405076 
" style="fill: none; stroke: #673ab7; stroke-width: 2.5; stroke-linecap: square"/>
    </g>
    <g id="text_26">
     <!-- Cumulative kWh -->
     <g transform="translate(901.906875 159.905076) scale(0.1 -0.1)">
      <use xlink:href="#DejaVuSans-43"/>
      <use xlink:href="#DejaVuSans-75" transform="translate(69.824219 0)"/>
      <use xlink:href="#DejaVuSans-6d" transform="translate(133.203125 0)"/>
      <use xlink:href="#DejaVuSans-75" transform="translate(230.615234 0)"/>
      <use xlink:href="#DejaVuSans-6c" transform="translate(293.994141 0)"/>
      <use xlink:href="#DejaVuSans-61" transform="translate(321.777344 0)"/>
      <use xlink:href="#DejaVuSans-74" transform="translate(383.056641 0)"/>
      <use xlink:href="#DejaVuSans-69" transform="translate(422.265625 0)"/>
      <use xlink:href="#DejaVuSans-76" transform="translate(450.048828 0)"/>
      <use xlink:href="#DejaVuSans-65" transform="translate(509.228516 0)"/>
      <use xlink:href="#DejaVuSans-20" transform="translate(570.751953 0)"/>
      <use xlink:href="#DejaVuSans-6b" transform="translate(602.539062 0)"/>
      <use xlink:href="#DejaVuSans-57" transform="translate(660.449219 0)"/>
      <use xlink:href="#DejaVuSans-68" transform="translate(759.326172 0)"/>
     </g>
    </g>
   </g>
  </g>
 </g>
 <defs>
  <clipPath id="p46c5db9365">
   <rect x="46.965625" y="23.077969" width="946.21" height="268.135464"/>
  </clipPath>
 </defs>
</svg>
